%TF.GenerationSoftware,KiCad,Pcbnew,8.0.8*%
%TF.CreationDate,2025-04-05T02:10:51+02:00*%
%TF.ProjectId,mb02a1,6d623032-6131-42e6-9b69-6361645f7063,rev?*%
%TF.SameCoordinates,Original*%
%TF.FileFunction,Soldermask,Bot*%
%TF.FilePolarity,Negative*%
%FSLAX46Y46*%
G04 Gerber Fmt 4.6, Leading zero omitted, Abs format (unit mm)*
G04 Created by KiCad (PCBNEW 8.0.8) date 2025-04-05 02:10:51*
%MOMM*%
%LPD*%
G01*
G04 APERTURE LIST*
G04 Aperture macros list*
%AMRoundRect*
0 Rectangle with rounded corners*
0 $1 Rounding radius*
0 $2 $3 $4 $5 $6 $7 $8 $9 X,Y pos of 4 corners*
0 Add a 4 corners polygon primitive as box body*
4,1,4,$2,$3,$4,$5,$6,$7,$8,$9,$2,$3,0*
0 Add four circle primitives for the rounded corners*
1,1,$1+$1,$2,$3*
1,1,$1+$1,$4,$5*
1,1,$1+$1,$6,$7*
1,1,$1+$1,$8,$9*
0 Add four rect primitives between the rounded corners*
20,1,$1+$1,$2,$3,$4,$5,0*
20,1,$1+$1,$4,$5,$6,$7,0*
20,1,$1+$1,$6,$7,$8,$9,0*
20,1,$1+$1,$8,$9,$2,$3,0*%
G04 Aperture macros list end*
%ADD10C,3.000000*%
%ADD11R,3.000000X3.000000*%
%ADD12R,1.700000X1.700000*%
%ADD13O,1.700000X1.700000*%
%ADD14R,2.000000X2.000000*%
%ADD15O,1.600000X2.000000*%
%ADD16O,2.000000X1.000000*%
%ADD17C,1.193800*%
%ADD18C,1.500000*%
%ADD19R,2.200000X2.200000*%
%ADD20O,2.200000X2.200000*%
%ADD21RoundRect,0.102000X0.802500X-0.802500X0.802500X0.802500X-0.802500X0.802500X-0.802500X-0.802500X0*%
%ADD22C,1.809000*%
%ADD23RoundRect,0.102000X0.765000X-0.765000X0.765000X0.765000X-0.765000X0.765000X-0.765000X-0.765000X0*%
%ADD24C,1.734000*%
G04 APERTURE END LIST*
D10*
%TO.C,*%
X80500000Y-49700000D03*
%TD*%
%TO.C,*%
X80500000Y-150000000D03*
%TD*%
%TO.C,*%
X205750000Y-150000000D03*
%TD*%
%TO.C,*%
X205750000Y-50000000D03*
%TD*%
D11*
%TO.C,B1*%
X155500000Y-148500000D03*
D10*
X155500000Y-128010000D03*
%TD*%
D12*
%TO.C,PWR5V.2*%
X199000000Y-94540000D03*
D13*
X199000000Y-97080000D03*
%TD*%
%TO.C,I2C1.2*%
X171230000Y-134870000D03*
X173770000Y-134870000D03*
X176310000Y-134870000D03*
D12*
X178850000Y-134870000D03*
%TD*%
D14*
%TO.C,U10*%
X114840000Y-147500000D03*
D15*
X117380000Y-147500000D03*
X119920000Y-147500000D03*
X122460000Y-147500000D03*
X125000000Y-147500000D03*
X127540000Y-147500000D03*
X130080000Y-147500000D03*
X132620000Y-147500000D03*
X132620000Y-124640000D03*
X130080000Y-124640000D03*
X127540000Y-124640000D03*
X125000000Y-124640000D03*
X122460000Y-124640000D03*
X119920000Y-124640000D03*
X117380000Y-124640000D03*
X114840000Y-124640000D03*
%TD*%
D16*
%TO.C,J4*%
X82290900Y-123923100D03*
X82290900Y-131273100D03*
D17*
X87290900Y-126023100D03*
X86090900Y-126823099D03*
X87290900Y-127623100D03*
X86090900Y-128423101D03*
X87290900Y-129223099D03*
%TD*%
D12*
%TO.C,SPI2.2*%
X199090000Y-147020000D03*
D13*
X196550000Y-147020000D03*
X194010000Y-147020000D03*
X191470000Y-147020000D03*
X188930000Y-147020000D03*
X186390000Y-147020000D03*
%TD*%
D12*
%TO.C,PWR3V3.1*%
X193200000Y-105235000D03*
D13*
X193200000Y-107775000D03*
%TD*%
D12*
%TO.C,PWM.2*%
X199000000Y-116000000D03*
D13*
X199000000Y-118540000D03*
%TD*%
D16*
%TO.C,J1*%
X82290900Y-53423100D03*
X82290900Y-60773100D03*
D17*
X87290900Y-55523100D03*
X86090900Y-56323099D03*
X87290900Y-57123100D03*
X86090900Y-57923101D03*
X87290900Y-58723099D03*
%TD*%
D12*
%TO.C,PWR3V3.3*%
X204750000Y-105275000D03*
D13*
X204750000Y-107815000D03*
%TD*%
D18*
%TO.C,X2*%
X95220000Y-113870000D03*
X100100000Y-113870000D03*
%TD*%
D12*
%TO.C,DISPLAY1*%
X193000000Y-53255000D03*
D13*
X193000000Y-55795000D03*
X193000000Y-58335000D03*
X193000000Y-60875000D03*
X193000000Y-63415000D03*
X193000000Y-65955000D03*
X193000000Y-68495000D03*
X193000000Y-71035000D03*
X193000000Y-73575000D03*
X193000000Y-76115000D03*
X193000000Y-78655000D03*
X193000000Y-81195000D03*
X193000000Y-83735000D03*
X193000000Y-86275000D03*
%TD*%
D12*
%TO.C,PWR3V3.2*%
X199000000Y-105275000D03*
D13*
X199000000Y-107815000D03*
%TD*%
D12*
%TO.C,DAC.1*%
X198750000Y-63525000D03*
D13*
X198750000Y-66065000D03*
%TD*%
D12*
%TO.C,EXTI.2*%
X198850000Y-73750000D03*
D13*
X198850000Y-76290000D03*
%TD*%
D12*
%TO.C,EXIO.2*%
X204330000Y-134870000D03*
D13*
X201790000Y-134870000D03*
X199250000Y-134870000D03*
X196710000Y-134870000D03*
X194170000Y-134870000D03*
X191630000Y-134870000D03*
X189090000Y-134870000D03*
X186550000Y-134870000D03*
%TD*%
D12*
%TO.C,EXTI.3*%
X204750000Y-73750000D03*
D13*
X204750000Y-76290000D03*
%TD*%
D16*
%TO.C,J2*%
X82290900Y-73820000D03*
X82290900Y-81170000D03*
D17*
X87290900Y-75920000D03*
X86090900Y-76719999D03*
X87290900Y-77520000D03*
X86090900Y-78320001D03*
X87290900Y-79119999D03*
%TD*%
D12*
%TO.C,PWR5V.1*%
X193200000Y-94500000D03*
D13*
X193200000Y-97040000D03*
%TD*%
D12*
%TO.C,EXIO.1*%
X204330000Y-128720000D03*
D13*
X201790000Y-128720000D03*
X199250000Y-128720000D03*
X196710000Y-128720000D03*
X194170000Y-128720000D03*
X191630000Y-128720000D03*
X189090000Y-128720000D03*
X186550000Y-128720000D03*
%TD*%
D12*
%TO.C,I2C1.4*%
X178850000Y-146870000D03*
D13*
X176310000Y-146870000D03*
X173770000Y-146870000D03*
X171230000Y-146870000D03*
%TD*%
D12*
%TO.C,EXTI.1*%
X204750000Y-63525000D03*
D13*
X204750000Y-66065000D03*
%TD*%
D12*
%TO.C,PWM.3*%
X204750000Y-116025000D03*
D13*
X204750000Y-118565000D03*
%TD*%
D19*
%TO.C,D2*%
X118600000Y-62790000D03*
D20*
X118600000Y-72950000D03*
%TD*%
D18*
%TO.C,X1*%
X95245000Y-88945000D03*
X100125000Y-88945000D03*
%TD*%
D12*
%TO.C,I2C1.1*%
X178850000Y-128870000D03*
D13*
X176310000Y-128870000D03*
X173770000Y-128870000D03*
X171230000Y-128870000D03*
%TD*%
D18*
%TO.C,X3*%
X95175000Y-138870000D03*
X100055000Y-138870000D03*
%TD*%
D12*
%TO.C,ADC.1*%
X199000000Y-83775000D03*
D13*
X199000000Y-86315000D03*
%TD*%
D12*
%TO.C,ADC.2*%
X204750000Y-83775000D03*
D13*
X204750000Y-86315000D03*
%TD*%
D12*
%TO.C,PWM.1*%
X193250000Y-116000000D03*
D13*
X193250000Y-118540000D03*
%TD*%
D10*
%TO.C,U9*%
X134440000Y-109380000D03*
X186510000Y-76360000D03*
X135710000Y-61120000D03*
D21*
X162130000Y-61120000D03*
D22*
X159590000Y-61120000D03*
X157050000Y-61120000D03*
X154510000Y-61120000D03*
X151970000Y-61120000D03*
X149430000Y-61120000D03*
X146890000Y-61120000D03*
X144350000Y-61120000D03*
X141810000Y-61120000D03*
X139270000Y-61120000D03*
D21*
X148410000Y-109380000D03*
D22*
X150950000Y-109380000D03*
X153490000Y-109380000D03*
X156030000Y-109380000D03*
X158570000Y-109380000D03*
X161110000Y-109380000D03*
X163650000Y-109380000D03*
X166190000Y-109380000D03*
D23*
X138250000Y-117000000D03*
D24*
X138250000Y-114460000D03*
X140790000Y-117000000D03*
X140790000Y-114460000D03*
X143330000Y-117000000D03*
X143330000Y-114460000D03*
X145870000Y-117000000D03*
X145870000Y-114460000D03*
X148410000Y-117000000D03*
X148410000Y-114460000D03*
X150950000Y-117000000D03*
X150950000Y-114460000D03*
X153490000Y-117000000D03*
X153490000Y-114460000D03*
X156030000Y-117000000D03*
X156030000Y-114460000D03*
X158570000Y-117000000D03*
X158570000Y-114460000D03*
X161110000Y-117000000D03*
X161110000Y-114460000D03*
X163650000Y-117000000D03*
X163650000Y-114460000D03*
X166190000Y-117000000D03*
X166190000Y-114460000D03*
X168730000Y-117000000D03*
X168730000Y-114460000D03*
X171270000Y-117000000D03*
X171270000Y-114460000D03*
X173810000Y-117000000D03*
X173810000Y-114460000D03*
X176350000Y-117000000D03*
X176350000Y-114460000D03*
X178890000Y-117000000D03*
X178890000Y-114460000D03*
X181430000Y-117000000D03*
X181430000Y-114460000D03*
X183970000Y-117000000D03*
X183970000Y-114460000D03*
D21*
X171270000Y-109380000D03*
D22*
X173810000Y-109380000D03*
X176350000Y-109380000D03*
X178890000Y-109380000D03*
X181430000Y-109380000D03*
X183970000Y-109380000D03*
D21*
X183970000Y-61120000D03*
D22*
X181430000Y-61120000D03*
X178890000Y-61120000D03*
X176350000Y-61120000D03*
X173810000Y-61120000D03*
X171270000Y-61120000D03*
X168730000Y-61120000D03*
X166190000Y-61120000D03*
D23*
X138250000Y-56040000D03*
D24*
X138250000Y-53500000D03*
X140790000Y-56040000D03*
X140790000Y-53500000D03*
X143330000Y-56040000D03*
X143330000Y-53500000D03*
X145870000Y-56040000D03*
X145870000Y-53500000D03*
X148410000Y-56040000D03*
X148410000Y-53500000D03*
X150950000Y-56040000D03*
X150950000Y-53500000D03*
X153490000Y-56040000D03*
X153490000Y-53500000D03*
X156030000Y-56040000D03*
X156030000Y-53500000D03*
X158570000Y-56040000D03*
X158570000Y-53500000D03*
X161110000Y-56040000D03*
X161110000Y-53500000D03*
X163650000Y-56040000D03*
X163650000Y-53500000D03*
X166190000Y-56040000D03*
X166190000Y-53500000D03*
X168730000Y-56040000D03*
X168730000Y-53500000D03*
X171270000Y-56040000D03*
X171270000Y-53500000D03*
X173810000Y-56040000D03*
X173810000Y-53500000D03*
X176350000Y-56040000D03*
X176350000Y-53500000D03*
X178890000Y-56040000D03*
X178890000Y-53500000D03*
X181430000Y-56040000D03*
X181430000Y-53500000D03*
X183970000Y-56040000D03*
X183970000Y-53500000D03*
%TD*%
D12*
%TO.C,PWR5V.3*%
X204750000Y-94500000D03*
D13*
X204750000Y-97040000D03*
%TD*%
D12*
%TO.C,SPI2.1*%
X199050000Y-140870000D03*
D13*
X196510000Y-140870000D03*
X193970000Y-140870000D03*
X191430000Y-140870000D03*
X188890000Y-140870000D03*
X186350000Y-140870000D03*
%TD*%
D16*
%TO.C,J3*%
X82290900Y-98923100D03*
X82290900Y-106273100D03*
D17*
X87290900Y-101023100D03*
X86090900Y-101823099D03*
X87290900Y-102623100D03*
X86090900Y-103423101D03*
X87290900Y-104223099D03*
%TD*%
D12*
%TO.C,I2C1.3*%
X178850000Y-140870000D03*
D13*
X176310000Y-140870000D03*
X173770000Y-140870000D03*
X171230000Y-140870000D03*
%TD*%
M02*
