M48
; DRILL file {KiCad 8.0.8} date 2025-04-05T02:12:38+0200
; FORMAT={-:-/ absolute / metric / decimal}
; #@! TF.CreationDate,2025-04-05T02:12:38+02:00
; #@! TF.GenerationSoftware,Kicad,Pcbnew,8.0.8
; #@! TF.FileFunction,Plated,1,2,PTH
FMAT,2
METRIC
; #@! TA.AperFunction,Plated,PTH,ViaDrill
T1C0.300
; #@! TA.AperFunction,Plated,PTH,ComponentDrill
T2C0.762
; #@! TA.AperFunction,Plated,PTH,ComponentDrill
T3C0.800
; #@! TA.AperFunction,Plated,PTH,ComponentDrill
T4C0.900
; #@! TA.AperFunction,Plated,PTH,ComponentDrill
T5C1.000
; #@! TA.AperFunction,Plated,PTH,ComponentDrill
T6C1.020
; #@! TA.AperFunction,Plated,PTH,ComponentDrill
T7C1.070
; #@! TA.AperFunction,Plated,PTH,ComponentDrill
T8C1.100
; #@! TA.AperFunction,Plated,PTH,ComponentDrill
T9C1.500
%
G90
G05
T1
X84.658Y-86.225
X84.995Y-142.838
X85.11Y-135.967
X85.131Y-110.698
X87.291Y-138.655
X88.189Y-66.097
X88.189Y-71.732
X88.201Y-123.425
X89.549Y-114.716
X89.684Y-93.969
X90.859Y-144.984
X91.263Y-98.254
X93.8Y-135.62
X94.925Y-61.846
X95.22Y-108.141
X95.495Y-69.128
X96.517Y-60.544
X97.019Y-122.398
X97.031Y-118.381
X97.641Y-106.647
X97.641Y-124.695
X98.443Y-107.951
X98.443Y-127.235
X103.465Y-78.62
X103.465Y-98.425
X103.839Y-125.33
X104.69Y-110.62
X105.3Y-100.834
X105.3Y-123.018
X110.66Y-102.62
X116.11Y-54.911
X116.234Y-149.444
X118.41Y-68.775
X118.65Y-134.895
X118.818Y-122.398
X120.429Y-65.6
X120.459Y-87.835
X120.459Y-112.162
X120.459Y-115.535
X120.466Y-77.482
X121.126Y-103.761
X121.924Y-66.235
X122.46Y-100.644
X122.46Y-118.381
X123.617Y-64.965
X124.248Y-64.238
X128.315Y-69.623
X129.48Y-112.167
X130.373Y-107.328
X135.144Y-64.297
X135.144Y-74.782
X136.123Y-85.924
X138.164Y-63.079
X138.85Y-87.217
X139.351Y-110.363
X139.54Y-68.414
X139.54Y-79.417
X140.177Y-110.262
X142.619Y-69.895
X143.253Y-80.339
X144.784Y-144.759
X144.821Y-74.042
X146.988Y-137.153
X147.618Y-76.46
X147.626Y-68.774
X147.874Y-77.813
X149.323Y-77.543
X149.538Y-118.796
X152.106Y-91.867
X154.002Y-99.67
X154.611Y-112.39
X155.945Y-73.49
X157.798Y-67.35
X157.798Y-76.41
X158.404Y-75.064
X158.404Y-82.655
X159.142Y-86.194
X159.623Y-64.989
X159.842Y-72.879
X160.986Y-65.591
X162.33Y-79.552
X162.33Y-123.078
X163.679Y-64.137
X164.496Y-71.805
X164.755Y-89.73
X165.285Y-88.233
X165.829Y-74.578
X166.323Y-103.716
X166.625Y-79.383
X167.363Y-63.079
X170.166Y-79.547
X170.66Y-123.68
X172.036Y-123.976
X172.498Y-119.498
X172.63Y-63.415
X173.51Y-87.386
X175.034Y-65.323
X177.474Y-72.668
X177.62Y-96.823
X177.708Y-62.786
X178.846Y-66.559
X180.16Y-82.565
X181.167Y-70.471
X181.43Y-118.796
X182.947Y-103.716
X183.261Y-72.076
X183.939Y-71.474
X185.074Y-127.364
X186.575Y-68.55
X187.419Y-126.797
X187.555Y-60.796
X187.795Y-59.81
X188.606Y-65.951
X188.847Y-124.986
X189.048Y-80.196
X189.656Y-83.698
X190.214Y-70.672
X190.61Y-86.437
X190.815Y-78.18
X192.728Y-111.565
X194.774Y-67.77
X195.013Y-113.81
X195.784Y-59.605
X197.433Y-69.797
X200.771Y-80.023
X201.79Y-87.518
X201.8Y-54.465
X202.422Y-54.992
X203.12Y-142.503
T2
X86.091Y-56.323
X86.091Y-57.923
X86.091Y-76.72
X86.091Y-78.32
X86.091Y-101.823
X86.091Y-103.423
X86.091Y-126.823
X86.091Y-128.423
X87.291Y-55.523
X87.291Y-57.123
X87.291Y-58.723
X87.291Y-75.92
X87.291Y-77.52
X87.291Y-79.12
X87.291Y-101.023
X87.291Y-102.623
X87.291Y-104.223
X87.291Y-126.023
X87.291Y-127.623
X87.291Y-129.223
T3
X95.175Y-138.87
X95.22Y-113.87
X95.245Y-88.945
X100.055Y-138.87
X100.1Y-113.87
X100.125Y-88.945
T4
X114.84Y-124.64
X114.84Y-147.5
X117.38Y-124.64
X117.38Y-147.5
X119.92Y-124.64
X119.92Y-147.5
X122.46Y-124.64
X122.46Y-147.5
X125.0Y-124.64
X125.0Y-147.5
X127.54Y-124.64
X127.54Y-147.5
X130.08Y-124.64
X130.08Y-147.5
X132.62Y-124.64
X132.62Y-147.5
T5
X171.23Y-128.87
X171.23Y-134.87
X171.23Y-140.87
X171.23Y-146.87
X173.77Y-128.87
X173.77Y-134.87
X173.77Y-140.87
X173.77Y-146.87
X176.31Y-128.87
X176.31Y-134.87
X176.31Y-140.87
X176.31Y-146.87
X178.85Y-128.87
X178.85Y-134.87
X178.85Y-140.87
X178.85Y-146.87
X186.35Y-140.87
X186.39Y-147.02
X186.55Y-128.72
X186.55Y-134.87
X188.89Y-140.87
X188.93Y-147.02
X189.09Y-128.72
X189.09Y-134.87
X191.43Y-140.87
X191.47Y-147.02
X191.63Y-128.72
X191.63Y-134.87
X193.0Y-53.255
X193.0Y-55.795
X193.0Y-58.335
X193.0Y-60.875
X193.0Y-63.415
X193.0Y-65.955
X193.0Y-68.495
X193.0Y-71.035
X193.0Y-73.575
X193.0Y-76.115
X193.0Y-78.655
X193.0Y-81.195
X193.0Y-83.735
X193.0Y-86.275
X193.2Y-94.5
X193.2Y-97.04
X193.2Y-105.235
X193.2Y-107.775
X193.25Y-116.0
X193.25Y-118.54
X193.97Y-140.87
X194.01Y-147.02
X194.17Y-128.72
X194.17Y-134.87
X196.51Y-140.87
X196.55Y-147.02
X196.71Y-128.72
X196.71Y-134.87
X198.75Y-63.525
X198.75Y-66.065
X198.85Y-73.75
X198.85Y-76.29
X199.0Y-83.775
X199.0Y-86.315
X199.0Y-94.54
X199.0Y-97.08
X199.0Y-105.275
X199.0Y-107.815
X199.0Y-116.0
X199.0Y-118.54
X199.05Y-140.87
X199.09Y-147.02
X199.25Y-128.72
X199.25Y-134.87
X201.79Y-128.72
X201.79Y-134.87
X204.33Y-128.72
X204.33Y-134.87
X204.75Y-63.525
X204.75Y-66.065
X204.75Y-73.75
X204.75Y-76.29
X204.75Y-83.775
X204.75Y-86.315
X204.75Y-94.5
X204.75Y-97.04
X204.75Y-105.275
X204.75Y-107.815
X204.75Y-116.025
X204.75Y-118.565
T6
X138.25Y-53.5
X138.25Y-56.04
X138.25Y-114.46
X138.25Y-117.0
X140.79Y-53.5
X140.79Y-56.04
X140.79Y-114.46
X140.79Y-117.0
X143.33Y-53.5
X143.33Y-56.04
X143.33Y-114.46
X143.33Y-117.0
X145.87Y-53.5
X145.87Y-56.04
X145.87Y-114.46
X145.87Y-117.0
X148.41Y-53.5
X148.41Y-56.04
X148.41Y-114.46
X148.41Y-117.0
X150.95Y-53.5
X150.95Y-56.04
X150.95Y-114.46
X150.95Y-117.0
X153.49Y-53.5
X153.49Y-56.04
X153.49Y-114.46
X153.49Y-117.0
X156.03Y-53.5
X156.03Y-56.04
X156.03Y-114.46
X156.03Y-117.0
X158.57Y-53.5
X158.57Y-56.04
X158.57Y-114.46
X158.57Y-117.0
X161.11Y-53.5
X161.11Y-56.04
X161.11Y-114.46
X161.11Y-117.0
X163.65Y-53.5
X163.65Y-56.04
X163.65Y-114.46
X163.65Y-117.0
X166.19Y-53.5
X166.19Y-56.04
X166.19Y-114.46
X166.19Y-117.0
X168.73Y-53.5
X168.73Y-56.04
X168.73Y-114.46
X168.73Y-117.0
X171.27Y-53.5
X171.27Y-56.04
X171.27Y-114.46
X171.27Y-117.0
X173.81Y-53.5
X173.81Y-56.04
X173.81Y-114.46
X173.81Y-117.0
X176.35Y-53.5
X176.35Y-56.04
X176.35Y-114.46
X176.35Y-117.0
X178.89Y-53.5
X178.89Y-56.04
X178.89Y-114.46
X178.89Y-117.0
X181.43Y-53.5
X181.43Y-56.04
X181.43Y-114.46
X181.43Y-117.0
X183.97Y-53.5
X183.97Y-56.04
X183.97Y-114.46
X183.97Y-117.0
T7
X139.27Y-61.12
X141.81Y-61.12
X144.35Y-61.12
X146.89Y-61.12
X148.41Y-109.38
X149.43Y-61.12
X150.95Y-109.38
X151.97Y-61.12
X153.49Y-109.38
X154.51Y-61.12
X156.03Y-109.38
X157.05Y-61.12
X158.57Y-109.38
X159.59Y-61.12
X161.11Y-109.38
X162.13Y-61.12
X163.65Y-109.38
X166.19Y-61.12
X166.19Y-109.38
X168.73Y-61.12
X171.27Y-61.12
X171.27Y-109.38
X173.81Y-61.12
X173.81Y-109.38
X176.35Y-61.12
X176.35Y-109.38
X178.89Y-61.12
X178.89Y-109.38
X181.43Y-61.12
X181.43Y-109.38
X183.97Y-61.12
X183.97Y-109.38
T8
X118.6Y-62.79
X118.6Y-72.95
T9
X155.5Y-128.01
X155.5Y-148.5
M30
