%TF.GenerationSoftware,KiCad,Pcbnew,8.0.8*%
%TF.CreationDate,2025-04-05T02:10:51+02:00*%
%TF.ProjectId,mb02a1,6d623032-6131-42e6-9b69-6361645f7063,rev?*%
%TF.SameCoordinates,Original*%
%TF.FileFunction,Copper,L1,Top*%
%TF.FilePolarity,Positive*%
%FSLAX46Y46*%
G04 Gerber Fmt 4.6, Leading zero omitted, Abs format (unit mm)*
G04 Created by KiCad (PCBNEW 8.0.8) date 2025-04-05 02:10:51*
%MOMM*%
%LPD*%
G01*
G04 APERTURE LIST*
G04 Aperture macros list*
%AMRoundRect*
0 Rectangle with rounded corners*
0 $1 Rounding radius*
0 $2 $3 $4 $5 $6 $7 $8 $9 X,Y pos of 4 corners*
0 Add a 4 corners polygon primitive as box body*
4,1,4,$2,$3,$4,$5,$6,$7,$8,$9,$2,$3,0*
0 Add four circle primitives for the rounded corners*
1,1,$1+$1,$2,$3*
1,1,$1+$1,$4,$5*
1,1,$1+$1,$6,$7*
1,1,$1+$1,$8,$9*
0 Add four rect primitives between the rounded corners*
20,1,$1+$1,$2,$3,$4,$5,0*
20,1,$1+$1,$4,$5,$6,$7,0*
20,1,$1+$1,$6,$7,$8,$9,0*
20,1,$1+$1,$8,$9,$2,$3,0*%
G04 Aperture macros list end*
%ADD10C,0.250000*%
%TA.AperFunction,ComponentPad*%
%ADD11R,3.000000X3.000000*%
%TD*%
%TA.AperFunction,ComponentPad*%
%ADD12C,3.000000*%
%TD*%
%TA.AperFunction,SMDPad,CuDef*%
%ADD13RoundRect,0.150000X-0.825000X-0.150000X0.825000X-0.150000X0.825000X0.150000X-0.825000X0.150000X0*%
%TD*%
%TA.AperFunction,ComponentPad*%
%ADD14R,1.700000X1.700000*%
%TD*%
%TA.AperFunction,ComponentPad*%
%ADD15O,1.700000X1.700000*%
%TD*%
%TA.AperFunction,ComponentPad*%
%ADD16R,2.000000X2.000000*%
%TD*%
%TA.AperFunction,ComponentPad*%
%ADD17O,1.600000X2.000000*%
%TD*%
%TA.AperFunction,SMDPad,CuDef*%
%ADD18RoundRect,0.250000X-0.250000X-0.475000X0.250000X-0.475000X0.250000X0.475000X-0.250000X0.475000X0*%
%TD*%
%TA.AperFunction,ComponentPad*%
%ADD19C,1.193800*%
%TD*%
%TA.AperFunction,SMDPad,CuDef*%
%ADD20O,2.794000X1.803400*%
%TD*%
%TA.AperFunction,SMDPad,CuDef*%
%ADD21RoundRect,0.250000X-0.262500X-0.450000X0.262500X-0.450000X0.262500X0.450000X-0.262500X0.450000X0*%
%TD*%
%TA.AperFunction,SMDPad,CuDef*%
%ADD22RoundRect,0.150000X0.150000X-0.875000X0.150000X0.875000X-0.150000X0.875000X-0.150000X-0.875000X0*%
%TD*%
%TA.AperFunction,SMDPad,CuDef*%
%ADD23RoundRect,0.250000X-0.375000X-0.625000X0.375000X-0.625000X0.375000X0.625000X-0.375000X0.625000X0*%
%TD*%
%TA.AperFunction,SMDPad,CuDef*%
%ADD24RoundRect,0.250000X0.625000X-0.375000X0.625000X0.375000X-0.625000X0.375000X-0.625000X-0.375000X0*%
%TD*%
%TA.AperFunction,ComponentPad*%
%ADD25C,1.500000*%
%TD*%
%TA.AperFunction,SMDPad,CuDef*%
%ADD26RoundRect,0.250000X-0.312500X-0.625000X0.312500X-0.625000X0.312500X0.625000X-0.312500X0.625000X0*%
%TD*%
%TA.AperFunction,SMDPad,CuDef*%
%ADD27RoundRect,0.150000X0.150000X-0.825000X0.150000X0.825000X-0.150000X0.825000X-0.150000X-0.825000X0*%
%TD*%
%TA.AperFunction,SMDPad,CuDef*%
%ADD28RoundRect,0.150000X0.150000X-0.650000X0.150000X0.650000X-0.150000X0.650000X-0.150000X-0.650000X0*%
%TD*%
%TA.AperFunction,ComponentPad*%
%ADD29R,2.200000X2.200000*%
%TD*%
%TA.AperFunction,ComponentPad*%
%ADD30O,2.200000X2.200000*%
%TD*%
%TA.AperFunction,ComponentPad*%
%ADD31R,1.605000X1.605000*%
%TD*%
%TA.AperFunction,ComponentPad*%
%ADD32C,1.605000*%
%TD*%
%TA.AperFunction,ComponentPad*%
%ADD33R,1.530000X1.530000*%
%TD*%
%TA.AperFunction,ComponentPad*%
%ADD34C,1.530000*%
%TD*%
%TA.AperFunction,SMDPad,CuDef*%
%ADD35RoundRect,0.375000X0.375000X-0.625000X0.375000X0.625000X-0.375000X0.625000X-0.375000X-0.625000X0*%
%TD*%
%TA.AperFunction,SMDPad,CuDef*%
%ADD36RoundRect,0.500000X1.400000X-0.500000X1.400000X0.500000X-1.400000X0.500000X-1.400000X-0.500000X0*%
%TD*%
%TA.AperFunction,ViaPad*%
%ADD37C,0.600000*%
%TD*%
%TA.AperFunction,Conductor*%
%ADD38C,0.200000*%
%TD*%
G04 APERTURE END LIST*
D10*
G36*
X89744736Y-53145360D02*
G01*
X89771458Y-53150272D01*
X89771458Y-53267264D01*
X89724274Y-53252869D01*
X89704780Y-53251632D01*
X89660083Y-53260669D01*
X89631263Y-53286315D01*
X89614654Y-53327103D01*
X89610054Y-53376588D01*
X89610013Y-53382302D01*
X89614629Y-53431504D01*
X89631018Y-53471695D01*
X89671675Y-53498803D01*
X89697941Y-53501737D01*
X89734089Y-53497096D01*
X89771458Y-53486106D01*
X89771458Y-53612868D01*
X89723342Y-53623614D01*
X89675959Y-53626789D01*
X89624787Y-53622171D01*
X89585589Y-53610425D01*
X89542007Y-53584627D01*
X89520621Y-53564019D01*
X89493010Y-53520914D01*
X89481297Y-53490013D01*
X89471197Y-53440614D01*
X89468353Y-53392561D01*
X89471528Y-53343651D01*
X89481053Y-53297062D01*
X89499824Y-53249388D01*
X89520621Y-53217438D01*
X89556023Y-53183298D01*
X89590718Y-53162728D01*
X89638101Y-53147341D01*
X89690065Y-53142232D01*
X89693789Y-53142212D01*
X89744736Y-53145360D01*
G37*
G36*
X89689158Y-52926900D02*
G01*
X89738340Y-52937490D01*
X89784183Y-52955141D01*
X89792951Y-52959518D01*
X89838465Y-52987516D01*
X89878956Y-53021805D01*
X89911409Y-53058436D01*
X89939721Y-53099743D01*
X89963597Y-53145200D01*
X89983036Y-53194807D01*
X89986392Y-53205226D01*
X89999025Y-53253277D01*
X90007523Y-53303183D01*
X90011888Y-53354943D01*
X90012526Y-53384501D01*
X90010458Y-53437311D01*
X90004257Y-53488305D01*
X89993921Y-53537483D01*
X89986392Y-53564019D01*
X89967840Y-53614303D01*
X89944851Y-53660438D01*
X89917426Y-53702422D01*
X89911409Y-53710321D01*
X89875483Y-53750109D01*
X89834535Y-53783837D01*
X89792951Y-53809239D01*
X89747776Y-53828430D01*
X89699261Y-53840513D01*
X89647407Y-53845489D01*
X89636636Y-53845631D01*
X89587308Y-53842946D01*
X89536351Y-53833662D01*
X89489448Y-53817748D01*
X89476168Y-53811681D01*
X89430852Y-53784998D01*
X89390615Y-53751966D01*
X89358443Y-53716427D01*
X89330766Y-53675974D01*
X89307572Y-53630942D01*
X89288863Y-53581330D01*
X89285659Y-53570858D01*
X89273734Y-53521968D01*
X89265712Y-53470643D01*
X89261593Y-53416884D01*
X89260990Y-53385966D01*
X89261047Y-53384501D01*
X89377739Y-53384501D01*
X89379672Y-53435070D01*
X89385473Y-53483676D01*
X89394103Y-53526161D01*
X89408792Y-53573869D01*
X89429743Y-53620358D01*
X89443196Y-53643154D01*
X89474778Y-53682991D01*
X89512251Y-53714881D01*
X89524040Y-53722533D01*
X89569180Y-53742568D01*
X89620398Y-53751384D01*
X89636147Y-53751842D01*
X89685877Y-53747085D01*
X89733482Y-53731324D01*
X89748988Y-53723021D01*
X89788431Y-53693569D01*
X89821703Y-53656076D01*
X89830076Y-53643886D01*
X89853967Y-53600346D01*
X89872457Y-53551484D01*
X89879169Y-53527138D01*
X89889290Y-53476145D01*
X89894464Y-53427349D01*
X89895778Y-53385966D01*
X89893815Y-53335368D01*
X89887927Y-53286675D01*
X89879169Y-53244061D01*
X89864595Y-53196090D01*
X89843612Y-53149548D01*
X89830076Y-53126824D01*
X89798567Y-53086773D01*
X89760887Y-53054670D01*
X89748988Y-53046957D01*
X89703587Y-53026587D01*
X89652016Y-53017625D01*
X89636147Y-53017159D01*
X89586774Y-53021996D01*
X89539464Y-53038025D01*
X89524040Y-53046468D01*
X89484884Y-53076041D01*
X89451618Y-53113467D01*
X89443196Y-53125603D01*
X89419422Y-53168908D01*
X89400889Y-53217856D01*
X89394103Y-53242351D01*
X89384131Y-53293596D01*
X89379033Y-53342744D01*
X89377739Y-53384501D01*
X89261047Y-53384501D01*
X89263058Y-53333137D01*
X89269259Y-53282085D01*
X89279596Y-53232810D01*
X89287124Y-53206203D01*
X89305653Y-53155637D01*
X89328569Y-53109269D01*
X89355875Y-53067099D01*
X89361863Y-53059169D01*
X89394420Y-53022514D01*
X89434917Y-52988143D01*
X89480321Y-52960006D01*
X89525601Y-52940686D01*
X89574125Y-52928522D01*
X89625893Y-52923513D01*
X89636636Y-52923370D01*
X89689158Y-52926900D01*
G37*
G36*
X91558583Y-53830000D02*
G01*
X91371737Y-53830000D01*
X91322156Y-53658053D01*
X91009036Y-53658053D01*
X90958234Y-53830000D01*
X90790439Y-53830000D01*
X90883766Y-53517369D01*
X91049581Y-53517369D01*
X91284298Y-53517369D01*
X91167550Y-53091898D01*
X91049581Y-53517369D01*
X90883766Y-53517369D01*
X91056420Y-52939002D01*
X91292602Y-52939002D01*
X91558583Y-53830000D01*
G37*
G36*
X92068318Y-53830000D02*
G01*
X92068318Y-53368136D01*
X92062990Y-53317166D01*
X92038267Y-53270860D01*
X91988321Y-53251746D01*
X91983077Y-53251632D01*
X91933902Y-53263945D01*
X91901744Y-53286559D01*
X91866922Y-53321889D01*
X91835736Y-53359761D01*
X91819678Y-53381325D01*
X91819678Y-53830000D01*
X91652128Y-53830000D01*
X91652128Y-52860844D01*
X91819678Y-52860844D01*
X91819678Y-53095561D01*
X91811374Y-53219637D01*
X91845023Y-53182845D01*
X91854605Y-53173719D01*
X91894372Y-53143966D01*
X91902233Y-53139525D01*
X91948053Y-53120727D01*
X91957187Y-53118276D01*
X92007091Y-53111299D01*
X92022400Y-53110949D01*
X92072470Y-53115406D01*
X92115701Y-53128778D01*
X92158531Y-53154827D01*
X92182379Y-53178604D01*
X92209548Y-53221335D01*
X92222679Y-53256029D01*
X92232754Y-53304145D01*
X92236099Y-53354133D01*
X92236113Y-53357634D01*
X92236113Y-53830000D01*
X92068318Y-53830000D01*
G37*
G36*
X92913642Y-53830000D02*
G01*
X92913642Y-53342979D01*
X92912177Y-53296085D01*
X92906803Y-53262868D01*
X92894591Y-53242840D01*
X92873098Y-53236001D01*
X92832386Y-53263736D01*
X92831088Y-53265554D01*
X92807704Y-53308673D01*
X92787683Y-53357460D01*
X92784438Y-53366182D01*
X92784438Y-53830000D01*
X92640823Y-53830000D01*
X92640823Y-53342979D01*
X92639357Y-53296085D01*
X92633984Y-53262868D01*
X92621528Y-53242840D01*
X92599546Y-53236001D01*
X92559734Y-53265554D01*
X92535000Y-53308673D01*
X92514225Y-53357460D01*
X92510886Y-53366182D01*
X92510886Y-53830000D01*
X92366050Y-53830000D01*
X92366050Y-53126580D01*
X92490369Y-53126580D01*
X92493056Y-53229162D01*
X92516717Y-53185215D01*
X92523342Y-53174940D01*
X92555582Y-53138060D01*
X92592219Y-53117299D01*
X92636671Y-53110949D01*
X92685278Y-53117818D01*
X92725575Y-53142212D01*
X92751576Y-53185111D01*
X92760258Y-53229162D01*
X92784896Y-53186755D01*
X92792986Y-53174940D01*
X92826448Y-53138060D01*
X92864305Y-53117299D01*
X92909490Y-53110949D01*
X92961044Y-53118505D01*
X93004259Y-53143745D01*
X93022086Y-53164682D01*
X93044263Y-53212264D01*
X93054924Y-53263039D01*
X93058443Y-53317384D01*
X93058478Y-53323928D01*
X93058478Y-53830000D01*
X92913642Y-53830000D01*
G37*
G36*
X93541740Y-53113661D02*
G01*
X93590518Y-53122809D01*
X93623900Y-53133907D01*
X93670309Y-53157503D01*
X93709519Y-53188110D01*
X93719399Y-53198143D01*
X93749566Y-53237253D01*
X93772534Y-53282346D01*
X93777773Y-53296329D01*
X93790741Y-53344381D01*
X93797097Y-53396061D01*
X93797801Y-53421137D01*
X93796824Y-53466078D01*
X93793785Y-53515869D01*
X93793649Y-53517369D01*
X93334717Y-53517369D01*
X93339625Y-53568021D01*
X93348639Y-53598213D01*
X93373543Y-53640927D01*
X93388450Y-53656831D01*
X93430966Y-53684859D01*
X93450488Y-53692735D01*
X93498726Y-53703230D01*
X93530600Y-53704947D01*
X93579783Y-53703337D01*
X93628496Y-53698929D01*
X93639288Y-53697620D01*
X93690993Y-53689432D01*
X93740512Y-53678648D01*
X93759944Y-53673684D01*
X93759944Y-53814368D01*
X93711302Y-53825039D01*
X93701570Y-53826824D01*
X93651445Y-53834856D01*
X93637090Y-53836838D01*
X93587218Y-53842196D01*
X93570411Y-53843433D01*
X93521089Y-53845494D01*
X93505198Y-53845631D01*
X93452391Y-53842947D01*
X93403451Y-53834895D01*
X93362316Y-53822916D01*
X93317586Y-53802640D01*
X93275251Y-53773776D01*
X93255094Y-53755261D01*
X93222759Y-53715479D01*
X93198923Y-53672603D01*
X93187683Y-53644863D01*
X93174472Y-53597102D01*
X93166746Y-53544491D01*
X93164480Y-53492456D01*
X93166746Y-53440378D01*
X93173403Y-53392316D01*
X93337648Y-53392316D01*
X93627564Y-53392316D01*
X93622810Y-53342424D01*
X93617062Y-53322951D01*
X93593015Y-53280145D01*
X93587264Y-53273859D01*
X93546420Y-53246481D01*
X93543300Y-53245282D01*
X93494936Y-53236082D01*
X93489567Y-53236001D01*
X93438563Y-53243855D01*
X93393565Y-53269701D01*
X93385764Y-53277034D01*
X93356599Y-53319175D01*
X93340819Y-53369860D01*
X93337648Y-53392316D01*
X93173403Y-53392316D01*
X93173543Y-53391305D01*
X93186255Y-53340796D01*
X93187683Y-53336385D01*
X93206054Y-53290420D01*
X93231230Y-53245741D01*
X93253628Y-53215973D01*
X93288227Y-53181466D01*
X93331445Y-53151370D01*
X93357187Y-53138304D01*
X93404757Y-53121634D01*
X93456243Y-53112658D01*
X93492742Y-53110949D01*
X93541740Y-53113661D01*
G37*
G36*
X94542742Y-53830000D02*
G01*
X94397662Y-53830000D01*
X94393510Y-53727173D01*
X94359713Y-53764497D01*
X94348080Y-53775778D01*
X94309590Y-53806099D01*
X94298011Y-53813147D01*
X94252008Y-53833636D01*
X94240614Y-53837083D01*
X94191109Y-53845097D01*
X94172958Y-53845631D01*
X94121507Y-53840863D01*
X94072191Y-53825170D01*
X94063049Y-53820718D01*
X94021497Y-53792518D01*
X93986599Y-53755088D01*
X93982449Y-53749399D01*
X93956924Y-53705221D01*
X93938412Y-53657417D01*
X93932623Y-53637292D01*
X93922205Y-53585520D01*
X93916879Y-53534321D01*
X93915526Y-53489769D01*
X93915904Y-53480488D01*
X94091381Y-53480488D01*
X94092877Y-53529695D01*
X94098716Y-53580397D01*
X94099197Y-53583070D01*
X94112134Y-53630278D01*
X94122644Y-53652923D01*
X94156552Y-53690026D01*
X94160746Y-53692491D01*
X94208703Y-53704899D01*
X94212281Y-53704947D01*
X94261284Y-53692376D01*
X94293126Y-53669288D01*
X94327781Y-53632870D01*
X94358899Y-53593692D01*
X94374947Y-53571346D01*
X94374947Y-53253831D01*
X94327662Y-53241438D01*
X94325854Y-53241130D01*
X94276460Y-53236126D01*
X94267236Y-53236001D01*
X94217598Y-53243364D01*
X94194452Y-53253098D01*
X94154393Y-53283417D01*
X94139009Y-53301702D01*
X94114413Y-53346525D01*
X94103593Y-53378639D01*
X94094434Y-53426816D01*
X94091393Y-53476972D01*
X94091381Y-53480488D01*
X93915904Y-53480488D01*
X93917671Y-53437137D01*
X93924104Y-53388601D01*
X93936283Y-53339476D01*
X93942637Y-53321242D01*
X93963758Y-53275096D01*
X93992460Y-53231338D01*
X94017864Y-53203028D01*
X94056458Y-53171292D01*
X94100067Y-53146425D01*
X94131926Y-53133663D01*
X94182999Y-53119821D01*
X94232653Y-53112745D01*
X94275296Y-53110949D01*
X94324512Y-53113954D01*
X94327808Y-53114368D01*
X94374947Y-53123161D01*
X94374947Y-52860844D01*
X94542742Y-52860844D01*
X94542742Y-53830000D01*
G37*
G36*
X95504082Y-53079685D02*
G01*
X95504082Y-52939002D01*
X96071458Y-52939002D01*
X96071458Y-53079685D01*
X95873621Y-53079685D01*
X95873621Y-53689316D01*
X96071458Y-53689316D01*
X96071458Y-53830000D01*
X95504082Y-53830000D01*
X95504082Y-53689316D01*
X95701919Y-53689316D01*
X95701919Y-53079685D01*
X95504082Y-53079685D01*
G37*
G36*
X96432937Y-53082372D02*
G01*
X96426099Y-53218660D01*
X96458914Y-53182195D01*
X96498851Y-53150138D01*
X96514270Y-53140502D01*
X96562389Y-53120299D01*
X96614019Y-53111670D01*
X96635659Y-53110949D01*
X96687110Y-53115764D01*
X96736426Y-53131610D01*
X96745568Y-53136106D01*
X96787242Y-53164184D01*
X96822047Y-53201708D01*
X96826168Y-53207424D01*
X96851814Y-53251556D01*
X96870269Y-53299233D01*
X96875994Y-53319288D01*
X96886561Y-53370865D01*
X96891963Y-53422187D01*
X96893335Y-53467055D01*
X96891191Y-53519785D01*
X96884757Y-53568343D01*
X96872578Y-53617401D01*
X96866224Y-53635582D01*
X96845046Y-53681479D01*
X96816149Y-53725162D01*
X96790509Y-53753551D01*
X96751766Y-53785322D01*
X96708077Y-53810292D01*
X96676203Y-53823161D01*
X96625095Y-53836854D01*
X96575350Y-53843854D01*
X96532588Y-53845631D01*
X96481439Y-53844275D01*
X96428471Y-53839701D01*
X96390683Y-53834152D01*
X96342381Y-53824592D01*
X96291835Y-53811677D01*
X96265387Y-53803621D01*
X96265387Y-53384745D01*
X96432937Y-53384745D01*
X96432937Y-53702749D01*
X96480222Y-53715371D01*
X96482030Y-53715694D01*
X96532185Y-53720459D01*
X96541625Y-53720579D01*
X96590723Y-53713216D01*
X96613921Y-53703482D01*
X96654305Y-53672942D01*
X96669609Y-53654633D01*
X96694319Y-53609811D01*
X96705024Y-53577697D01*
X96714366Y-53529459D01*
X96717468Y-53479134D01*
X96717480Y-53475603D01*
X96715891Y-53426443D01*
X96709687Y-53375924D01*
X96709176Y-53373265D01*
X96695226Y-53324329D01*
X96685484Y-53303900D01*
X96651778Y-53266797D01*
X96647627Y-53264333D01*
X96600157Y-53251682D01*
X96596580Y-53251632D01*
X96547201Y-53264290D01*
X96515003Y-53287536D01*
X96480181Y-53323694D01*
X96448994Y-53362574D01*
X96432937Y-53384745D01*
X96265387Y-53384745D01*
X96265387Y-52860844D01*
X96432937Y-52860844D01*
X96432937Y-53082372D01*
G37*
G36*
X97483426Y-53392316D02*
G01*
X97481777Y-53342216D01*
X97479518Y-53328325D01*
X97463154Y-53284849D01*
X97435310Y-53259692D01*
X97397452Y-53251632D01*
X97350302Y-53264417D01*
X97321004Y-53284361D01*
X97284887Y-53321133D01*
X97254410Y-53361438D01*
X97234054Y-53392316D01*
X97234054Y-53830000D01*
X97062351Y-53830000D01*
X97062351Y-53126580D01*
X97214270Y-53126580D01*
X97220376Y-53236001D01*
X97249774Y-53194928D01*
X97258967Y-53184710D01*
X97297354Y-53151594D01*
X97307083Y-53145143D01*
X97352109Y-53123962D01*
X97365945Y-53119741D01*
X97415571Y-53111644D01*
X97436775Y-53110949D01*
X97486540Y-53115406D01*
X97530321Y-53128778D01*
X97572309Y-53154324D01*
X97599197Y-53181779D01*
X97624714Y-53224180D01*
X97640474Y-53269951D01*
X97649236Y-53319338D01*
X97652015Y-53370975D01*
X97651709Y-53392316D01*
X97483426Y-53392316D01*
G37*
G36*
X98139675Y-53112709D02*
G01*
X98189071Y-53118645D01*
X98222016Y-53125847D01*
X98269876Y-53143089D01*
X98313607Y-53170544D01*
X98348246Y-53208780D01*
X98366852Y-53245038D01*
X98379858Y-53293459D01*
X98384177Y-53345619D01*
X98384193Y-53349330D01*
X98384193Y-53830000D01*
X98240823Y-53830000D01*
X98236671Y-53737431D01*
X98200983Y-53772064D01*
X98190509Y-53780907D01*
X98150128Y-53808456D01*
X98137752Y-53815101D01*
X98091499Y-53833236D01*
X98074738Y-53837571D01*
X98025055Y-53844844D01*
X98000488Y-53845631D01*
X97950052Y-53841601D01*
X97906210Y-53829511D01*
X97862627Y-53805891D01*
X97838066Y-53784570D01*
X97809024Y-53743965D01*
X97796545Y-53715205D01*
X97785288Y-53666691D01*
X97782796Y-53628011D01*
X97958478Y-53628011D01*
X97969164Y-53676096D01*
X97985833Y-53696887D01*
X98030578Y-53717779D01*
X98060816Y-53720579D01*
X98110110Y-53707880D01*
X98133356Y-53693712D01*
X98173107Y-53660861D01*
X98208191Y-53625718D01*
X98216643Y-53616531D01*
X98216643Y-53517369D01*
X98114305Y-53517369D01*
X98064101Y-53521155D01*
X98042254Y-53526161D01*
X97997715Y-53547514D01*
X97994138Y-53550341D01*
X97967027Y-53585512D01*
X97958478Y-53628011D01*
X97782796Y-53628011D01*
X97782623Y-53625324D01*
X97787875Y-53576720D01*
X97803628Y-53532023D01*
X97832081Y-53489796D01*
X97867376Y-53458262D01*
X97912345Y-53432309D01*
X97958871Y-53414504D01*
X97974598Y-53409902D01*
X98025901Y-53399186D01*
X98078419Y-53393707D01*
X98125296Y-53392316D01*
X98216643Y-53392316D01*
X98216643Y-53351039D01*
X98209071Y-53303412D01*
X98184647Y-53267020D01*
X98140928Y-53244061D01*
X98091727Y-53236387D01*
X98075226Y-53236001D01*
X98025301Y-53238057D01*
X97975941Y-53244224D01*
X97953349Y-53248457D01*
X97905136Y-53260032D01*
X97858132Y-53274913D01*
X97836845Y-53282896D01*
X97836845Y-53142212D01*
X97887167Y-53130638D01*
X97936248Y-53122256D01*
X97952372Y-53119986D01*
X98002369Y-53114479D01*
X98053809Y-53111513D01*
X98088904Y-53110949D01*
X98139675Y-53112709D01*
G37*
G36*
X98988206Y-53830000D02*
G01*
X98988206Y-53368136D01*
X98982879Y-53317166D01*
X98958155Y-53270860D01*
X98908210Y-53251746D01*
X98902965Y-53251632D01*
X98853790Y-53263945D01*
X98821632Y-53286559D01*
X98786811Y-53321889D01*
X98755624Y-53359761D01*
X98739567Y-53381325D01*
X98739567Y-53830000D01*
X98572016Y-53830000D01*
X98572016Y-52860844D01*
X98739567Y-52860844D01*
X98739567Y-53095561D01*
X98731263Y-53219637D01*
X98764912Y-53182845D01*
X98774494Y-53173719D01*
X98814261Y-53143966D01*
X98822121Y-53139525D01*
X98867942Y-53120727D01*
X98877076Y-53118276D01*
X98926980Y-53111299D01*
X98942288Y-53110949D01*
X98992358Y-53115406D01*
X99035589Y-53128778D01*
X99078420Y-53154827D01*
X99102267Y-53178604D01*
X99129436Y-53221335D01*
X99142568Y-53256029D01*
X99152643Y-53304145D01*
X99155988Y-53354133D01*
X99156001Y-53357634D01*
X99156001Y-53830000D01*
X98988206Y-53830000D01*
G37*
G36*
X99751709Y-52939246D02*
G01*
X99743405Y-52981988D01*
X99720446Y-53016671D01*
X99685764Y-53039874D01*
X99642533Y-53048422D01*
X99598813Y-53039874D01*
X99563642Y-53016671D01*
X99540683Y-52981988D01*
X99532623Y-52939246D01*
X99540683Y-52896992D01*
X99563642Y-52861821D01*
X99598813Y-52838129D01*
X99642533Y-52829581D01*
X99685764Y-52838129D01*
X99720446Y-52861821D01*
X99743405Y-52896992D01*
X99751709Y-52939246D01*
G37*
G36*
X99566085Y-53251632D02*
G01*
X99368981Y-53251632D01*
X99368981Y-53126580D01*
X99738032Y-53126580D01*
X99738032Y-53704947D01*
X99939288Y-53704947D01*
X99939288Y-53830000D01*
X99345045Y-53830000D01*
X99345045Y-53704947D01*
X99566085Y-53704947D01*
X99566085Y-53251632D01*
G37*
G36*
X100602407Y-53830000D02*
G01*
X100602407Y-53342979D01*
X100600942Y-53296085D01*
X100595568Y-53262868D01*
X100583356Y-53242840D01*
X100561863Y-53236001D01*
X100521151Y-53263736D01*
X100519853Y-53265554D01*
X100496469Y-53308673D01*
X100476447Y-53357460D01*
X100473203Y-53366182D01*
X100473203Y-53830000D01*
X100329588Y-53830000D01*
X100329588Y-53342979D01*
X100328122Y-53296085D01*
X100322749Y-53262868D01*
X100310293Y-53242840D01*
X100288311Y-53236001D01*
X100248499Y-53265554D01*
X100223765Y-53308673D01*
X100202990Y-53357460D01*
X100199651Y-53366182D01*
X100199651Y-53830000D01*
X100054815Y-53830000D01*
X100054815Y-53126580D01*
X100179134Y-53126580D01*
X100181821Y-53229162D01*
X100205482Y-53185215D01*
X100212107Y-53174940D01*
X100244347Y-53138060D01*
X100280983Y-53117299D01*
X100325436Y-53110949D01*
X100374043Y-53117818D01*
X100414340Y-53142212D01*
X100440340Y-53185111D01*
X100449023Y-53229162D01*
X100473661Y-53186755D01*
X100481751Y-53174940D01*
X100515212Y-53138060D01*
X100553070Y-53117299D01*
X100598255Y-53110949D01*
X100649809Y-53118505D01*
X100693024Y-53143745D01*
X100710851Y-53164682D01*
X100733027Y-53212264D01*
X100743689Y-53263039D01*
X100747208Y-53317384D01*
X100747243Y-53323928D01*
X100747243Y-53830000D01*
X100602407Y-53830000D01*
G37*
G36*
X101942812Y-53454842D02*
G01*
X101942812Y-53314159D01*
X102262281Y-53314159D01*
X102262281Y-53789699D01*
X102215146Y-53809037D01*
X102166431Y-53824183D01*
X102133077Y-53831953D01*
X102081019Y-53840288D01*
X102030342Y-53844549D01*
X101986775Y-53845631D01*
X101935762Y-53843371D01*
X101882525Y-53835557D01*
X101832913Y-53822162D01*
X101818736Y-53817055D01*
X101774348Y-53796346D01*
X101730535Y-53767341D01*
X101691974Y-53731814D01*
X101659065Y-53689654D01*
X101634107Y-53645766D01*
X101613871Y-53596584D01*
X101612107Y-53591374D01*
X101598647Y-53542007D01*
X101589593Y-53488429D01*
X101585242Y-53437267D01*
X101584263Y-53396713D01*
X101586080Y-53342598D01*
X101591530Y-53291383D01*
X101600612Y-53243069D01*
X101613328Y-53197655D01*
X101631920Y-53150222D01*
X101657518Y-53102595D01*
X101688316Y-53060310D01*
X101698569Y-53048667D01*
X101736136Y-53013342D01*
X101778616Y-52983694D01*
X101826009Y-52959723D01*
X101836078Y-52955610D01*
X101883663Y-52940025D01*
X101934919Y-52929541D01*
X101983561Y-52924503D01*
X102021946Y-52923370D01*
X102071630Y-52924781D01*
X102123962Y-52929456D01*
X102142358Y-52931919D01*
X102193769Y-52940474D01*
X102244994Y-52951179D01*
X102259595Y-52954633D01*
X102259595Y-53126580D01*
X102213086Y-53110031D01*
X102162462Y-53096286D01*
X102147243Y-53092875D01*
X102097073Y-53084335D01*
X102046581Y-53080149D01*
X102023168Y-53079685D01*
X101974347Y-53083233D01*
X101923925Y-53096141D01*
X101911549Y-53101179D01*
X101867096Y-53127008D01*
X101830460Y-53161995D01*
X101803441Y-53202886D01*
X101784420Y-53248313D01*
X101781123Y-53258960D01*
X101770212Y-53308013D01*
X101765077Y-53357587D01*
X101764270Y-53388408D01*
X101766091Y-53438692D01*
X101772171Y-53488825D01*
X101777215Y-53513949D01*
X101793068Y-53562507D01*
X101817668Y-53606257D01*
X101819469Y-53608715D01*
X101855297Y-53645067D01*
X101894696Y-53668555D01*
X101942320Y-53683456D01*
X101994612Y-53689133D01*
X102006803Y-53689316D01*
X102034159Y-53688339D01*
X102056140Y-53685408D01*
X102075924Y-53680767D01*
X102095464Y-53674905D01*
X102095464Y-53454842D01*
X101942812Y-53454842D01*
G37*
G36*
X102752934Y-53112709D02*
G01*
X102802330Y-53118645D01*
X102835275Y-53125847D01*
X102883135Y-53143089D01*
X102926866Y-53170544D01*
X102961505Y-53208780D01*
X102980111Y-53245038D01*
X102993117Y-53293459D01*
X102997435Y-53345619D01*
X102997452Y-53349330D01*
X102997452Y-53830000D01*
X102854082Y-53830000D01*
X102849930Y-53737431D01*
X102814241Y-53772064D01*
X102803768Y-53780907D01*
X102763387Y-53808456D01*
X102751011Y-53815101D01*
X102704758Y-53833236D01*
X102687997Y-53837571D01*
X102638314Y-53844844D01*
X102613747Y-53845631D01*
X102563311Y-53841601D01*
X102519469Y-53829511D01*
X102475886Y-53805891D01*
X102451325Y-53784570D01*
X102422283Y-53743965D01*
X102409804Y-53715205D01*
X102398547Y-53666691D01*
X102396055Y-53628011D01*
X102571737Y-53628011D01*
X102582423Y-53676096D01*
X102599092Y-53696887D01*
X102643837Y-53717779D01*
X102674075Y-53720579D01*
X102723369Y-53707880D01*
X102746615Y-53693712D01*
X102786366Y-53660861D01*
X102821450Y-53625718D01*
X102829902Y-53616531D01*
X102829902Y-53517369D01*
X102727564Y-53517369D01*
X102677360Y-53521155D01*
X102655512Y-53526161D01*
X102610974Y-53547514D01*
X102607397Y-53550341D01*
X102580286Y-53585512D01*
X102571737Y-53628011D01*
X102396055Y-53628011D01*
X102395882Y-53625324D01*
X102401133Y-53576720D01*
X102416887Y-53532023D01*
X102445340Y-53489796D01*
X102480635Y-53458262D01*
X102525604Y-53432309D01*
X102572130Y-53414504D01*
X102587857Y-53409902D01*
X102639160Y-53399186D01*
X102691678Y-53393707D01*
X102738555Y-53392316D01*
X102829902Y-53392316D01*
X102829902Y-53351039D01*
X102822330Y-53303412D01*
X102797906Y-53267020D01*
X102754187Y-53244061D01*
X102704986Y-53236387D01*
X102688485Y-53236001D01*
X102638560Y-53238057D01*
X102589200Y-53244224D01*
X102566608Y-53248457D01*
X102518395Y-53260032D01*
X102471391Y-53274913D01*
X102450104Y-53282896D01*
X102450104Y-53142212D01*
X102500426Y-53130638D01*
X102549507Y-53122256D01*
X102565631Y-53119986D01*
X102615628Y-53114479D01*
X102667068Y-53111513D01*
X102702163Y-53110949D01*
X102752934Y-53112709D01*
G37*
G36*
X103192847Y-53830000D02*
G01*
X103192847Y-53728150D01*
X103534298Y-53267264D01*
X103201151Y-53267264D01*
X103201151Y-53126580D01*
X103755338Y-53126580D01*
X103755338Y-53234047D01*
X103421458Y-53689316D01*
X103760956Y-53689316D01*
X103760956Y-53830000D01*
X103192847Y-53830000D01*
G37*
G36*
X104290687Y-53112709D02*
G01*
X104340083Y-53118645D01*
X104373028Y-53125847D01*
X104420888Y-53143089D01*
X104464619Y-53170544D01*
X104499258Y-53208780D01*
X104517864Y-53245038D01*
X104530870Y-53293459D01*
X104535188Y-53345619D01*
X104535205Y-53349330D01*
X104535205Y-53830000D01*
X104391835Y-53830000D01*
X104387683Y-53737431D01*
X104351994Y-53772064D01*
X104341521Y-53780907D01*
X104301140Y-53808456D01*
X104288764Y-53815101D01*
X104242511Y-53833236D01*
X104225750Y-53837571D01*
X104176067Y-53844844D01*
X104151500Y-53845631D01*
X104101064Y-53841601D01*
X104057222Y-53829511D01*
X104013639Y-53805891D01*
X103989078Y-53784570D01*
X103960036Y-53743965D01*
X103947557Y-53715205D01*
X103936300Y-53666691D01*
X103933808Y-53628011D01*
X104109490Y-53628011D01*
X104120176Y-53676096D01*
X104136845Y-53696887D01*
X104181590Y-53717779D01*
X104211828Y-53720579D01*
X104261122Y-53707880D01*
X104284368Y-53693712D01*
X104324118Y-53660861D01*
X104359203Y-53625718D01*
X104367655Y-53616531D01*
X104367655Y-53517369D01*
X104265317Y-53517369D01*
X104215113Y-53521155D01*
X104193265Y-53526161D01*
X104148727Y-53547514D01*
X104145150Y-53550341D01*
X104118039Y-53585512D01*
X104109490Y-53628011D01*
X103933808Y-53628011D01*
X103933635Y-53625324D01*
X103938886Y-53576720D01*
X103954640Y-53532023D01*
X103983093Y-53489796D01*
X104018387Y-53458262D01*
X104063357Y-53432309D01*
X104109883Y-53414504D01*
X104125610Y-53409902D01*
X104176913Y-53399186D01*
X104229431Y-53393707D01*
X104276308Y-53392316D01*
X104367655Y-53392316D01*
X104367655Y-53351039D01*
X104360083Y-53303412D01*
X104335659Y-53267020D01*
X104291939Y-53244061D01*
X104242739Y-53236387D01*
X104226238Y-53236001D01*
X104176313Y-53238057D01*
X104126952Y-53244224D01*
X104104361Y-53248457D01*
X104056148Y-53260032D01*
X104009143Y-53274913D01*
X103987857Y-53282896D01*
X103987857Y-53142212D01*
X104038179Y-53130638D01*
X104087260Y-53122256D01*
X104103384Y-53119986D01*
X104153381Y-53114479D01*
X104204821Y-53111513D01*
X104239916Y-53110949D01*
X104290687Y-53112709D01*
G37*
G36*
X105172191Y-53392316D02*
G01*
X105170542Y-53342216D01*
X105168283Y-53328325D01*
X105151919Y-53284849D01*
X105124075Y-53259692D01*
X105086217Y-53251632D01*
X105039067Y-53264417D01*
X105009769Y-53284361D01*
X104973652Y-53321133D01*
X104943175Y-53361438D01*
X104922819Y-53392316D01*
X104922819Y-53830000D01*
X104751116Y-53830000D01*
X104751116Y-53126580D01*
X104903035Y-53126580D01*
X104909141Y-53236001D01*
X104938539Y-53194928D01*
X104947732Y-53184710D01*
X104986119Y-53151594D01*
X104995847Y-53145143D01*
X105040874Y-53123962D01*
X105054710Y-53119741D01*
X105104336Y-53111644D01*
X105125540Y-53110949D01*
X105175305Y-53115406D01*
X105219085Y-53128778D01*
X105261074Y-53154324D01*
X105287962Y-53181779D01*
X105313479Y-53224180D01*
X105329239Y-53269951D01*
X105338001Y-53319338D01*
X105340779Y-53370975D01*
X105340474Y-53392316D01*
X105172191Y-53392316D01*
G37*
G36*
X94479623Y-51660000D02*
G01*
X94240753Y-51660000D01*
X94205094Y-50541367D01*
X94189951Y-50119316D01*
X94105931Y-50365024D01*
X93840683Y-51066001D01*
X93671667Y-51066001D01*
X93419120Y-50391891D01*
X93335101Y-50119316D01*
X93329727Y-50560418D01*
X93297976Y-51660000D01*
X93067411Y-51660000D01*
X93155338Y-49878004D01*
X93445010Y-49878004D01*
X93686810Y-50541367D01*
X93765457Y-50765094D01*
X93840683Y-50541367D01*
X94095184Y-49878004D01*
X94393161Y-49878004D01*
X94479623Y-51660000D01*
G37*
G36*
X95375816Y-49881833D02*
G01*
X95502452Y-49898854D01*
X95610327Y-49929491D01*
X95699442Y-49973745D01*
X95784452Y-50048210D01*
X95840148Y-50143952D01*
X95866531Y-50260969D01*
X95868876Y-50313733D01*
X95859122Y-50417071D01*
X95826539Y-50515841D01*
X95799511Y-50563349D01*
X95728802Y-50639100D01*
X95638058Y-50693425D01*
X95573831Y-50718199D01*
X95670215Y-50746010D01*
X95711584Y-50764605D01*
X95793968Y-50818171D01*
X95826378Y-50848625D01*
X95884519Y-50928385D01*
X95904535Y-50970746D01*
X95929723Y-51065734D01*
X95933845Y-51129504D01*
X95925541Y-51228337D01*
X95898025Y-51324134D01*
X95883531Y-51355673D01*
X95827023Y-51441067D01*
X95751840Y-51513152D01*
X95740404Y-51521758D01*
X95652141Y-51574906D01*
X95556787Y-51613039D01*
X95516678Y-51624829D01*
X95414004Y-51646261D01*
X95312645Y-51657217D01*
X95224563Y-51660000D01*
X94754640Y-51660000D01*
X94754640Y-51456789D01*
X94999371Y-51456789D01*
X95257780Y-51456789D01*
X95356119Y-51451966D01*
X95460237Y-51432369D01*
X95550634Y-51393402D01*
X95570900Y-51379609D01*
X95637634Y-51302549D01*
X95669038Y-51205943D01*
X95673970Y-51138297D01*
X95656379Y-51041017D01*
X95645150Y-51016664D01*
X95580902Y-50939840D01*
X95561130Y-50925317D01*
X95469866Y-50880332D01*
X95427285Y-50867676D01*
X95326424Y-50850545D01*
X95249476Y-50847159D01*
X94999371Y-50847159D01*
X94999371Y-51456789D01*
X94754640Y-51456789D01*
X94754640Y-50643949D01*
X94999371Y-50643949D01*
X95244103Y-50643949D01*
X95342411Y-50637080D01*
X95395533Y-50626364D01*
X95486850Y-50588537D01*
X95512281Y-50571165D01*
X95579064Y-50495302D01*
X95587997Y-50478353D01*
X95613184Y-50382732D01*
X95614863Y-50345484D01*
X95600266Y-50247568D01*
X95598255Y-50241437D01*
X95543184Y-50160087D01*
X95540614Y-50157906D01*
X95454587Y-50110427D01*
X95429239Y-50102219D01*
X95327420Y-50084168D01*
X95252407Y-50081214D01*
X94999371Y-50081214D01*
X94999371Y-50643949D01*
X94754640Y-50643949D01*
X94754640Y-49878004D01*
X95268527Y-49878004D01*
X95375816Y-49881833D01*
G37*
G36*
X96967381Y-49854366D02*
G01*
X97064536Y-49877240D01*
X97125261Y-49900963D01*
X97215586Y-49954773D01*
X97288801Y-50021760D01*
X97327006Y-50068513D01*
X97380151Y-50153642D01*
X97420452Y-50243554D01*
X97453119Y-50345391D01*
X97455966Y-50356231D01*
X97477926Y-50459426D01*
X97491413Y-50559718D01*
X97499221Y-50668070D01*
X97501395Y-50769490D01*
X97498831Y-50870301D01*
X97489815Y-50978313D01*
X97474307Y-51080606D01*
X97460362Y-51145624D01*
X97430519Y-51246889D01*
X97392280Y-51338805D01*
X97340519Y-51429113D01*
X97335310Y-51436762D01*
X97273034Y-51513641D01*
X97194037Y-51582896D01*
X97127215Y-51624829D01*
X97036498Y-51662652D01*
X96935622Y-51684775D01*
X96835101Y-51691263D01*
X96730664Y-51683638D01*
X96633509Y-51660763D01*
X96572784Y-51637041D01*
X96482379Y-51583392D01*
X96408946Y-51516839D01*
X96370551Y-51470467D01*
X96317625Y-51385617D01*
X96277325Y-51295857D01*
X96244467Y-51194077D01*
X96241591Y-51183237D01*
X96236657Y-51159790D01*
X96489253Y-51159790D01*
X96522542Y-51253215D01*
X96541032Y-51292170D01*
X96595804Y-51373411D01*
X96617236Y-51396217D01*
X96698004Y-51454288D01*
X96718841Y-51464117D01*
X96817683Y-51486907D01*
X96848778Y-51488053D01*
X96948727Y-51473833D01*
X97018771Y-51443112D01*
X97097236Y-51378403D01*
X97148220Y-51309267D01*
X97193121Y-51216474D01*
X97223180Y-51120772D01*
X97230774Y-51088471D01*
X97248337Y-50983714D01*
X97257315Y-50877428D01*
X97259595Y-50783168D01*
X97256175Y-50692798D01*
X97248848Y-50604870D01*
X96489253Y-51159790D01*
X96236657Y-51159790D01*
X96219866Y-51080004D01*
X96206525Y-50979613D01*
X96198800Y-50871100D01*
X96196650Y-50769490D01*
X96196713Y-50767048D01*
X96438450Y-50767048D01*
X96438939Y-50847648D01*
X96443824Y-50925317D01*
X97203419Y-50378213D01*
X97169898Y-50284368D01*
X97151151Y-50245833D01*
X97094551Y-50162090D01*
X97075924Y-50142274D01*
X96996099Y-50084055D01*
X96975296Y-50074375D01*
X96878875Y-50051119D01*
X96848778Y-50049951D01*
X96749225Y-50064479D01*
X96679274Y-50095868D01*
X96600654Y-50161350D01*
X96549337Y-50232156D01*
X96504786Y-50326781D01*
X96474858Y-50424070D01*
X96467271Y-50456859D01*
X96450862Y-50553899D01*
X96441265Y-50660983D01*
X96438450Y-50767048D01*
X96196713Y-50767048D01*
X96199245Y-50668862D01*
X96208368Y-50560911D01*
X96224060Y-50458523D01*
X96238171Y-50393356D01*
X96268434Y-50291623D01*
X96306712Y-50199526D01*
X96358073Y-50109350D01*
X96363224Y-50101730D01*
X96425279Y-50024630D01*
X96504300Y-49955399D01*
X96571318Y-49913663D01*
X96662198Y-49875562D01*
X96762891Y-49853276D01*
X96862944Y-49846741D01*
X96967381Y-49854366D01*
G37*
G36*
X98998115Y-51660000D02*
G01*
X97815003Y-51660000D01*
X97815003Y-51447020D01*
X98279553Y-50986866D01*
X98353059Y-50913203D01*
X98421660Y-50841006D01*
X98465177Y-50792449D01*
X98528558Y-50713925D01*
X98576064Y-50642484D01*
X98618673Y-50552816D01*
X98629797Y-50514501D01*
X98642820Y-50414657D01*
X98643475Y-50384563D01*
X98632443Y-50285864D01*
X98625401Y-50259511D01*
X98581815Y-50169377D01*
X98570690Y-50154975D01*
X98492393Y-50092224D01*
X98474459Y-50083656D01*
X98377830Y-50059814D01*
X98333286Y-50057766D01*
X98230740Y-50069251D01*
X98137425Y-50103705D01*
X98125680Y-50110034D01*
X98041538Y-50165798D01*
X97964050Y-50235085D01*
X97954221Y-50245345D01*
X97822330Y-50085610D01*
X97895820Y-50016192D01*
X97976583Y-49957049D01*
X98056315Y-49912198D01*
X98152463Y-49874931D01*
X98248786Y-49854475D01*
X98353601Y-49846805D01*
X98364549Y-49846741D01*
X98465155Y-49853566D01*
X98563815Y-49876027D01*
X98582414Y-49882400D01*
X98673883Y-49925875D01*
X98751919Y-49984982D01*
X98815544Y-50059476D01*
X98862805Y-50149113D01*
X98890855Y-50245720D01*
X98901540Y-50345765D01*
X98901884Y-50368443D01*
X98895045Y-50467362D01*
X98874528Y-50558953D01*
X98837467Y-50651719D01*
X98791486Y-50733342D01*
X98732946Y-50816254D01*
X98666882Y-50896155D01*
X98651290Y-50913593D01*
X98583582Y-50985744D01*
X98513912Y-51056348D01*
X98451500Y-51117292D01*
X98125680Y-51433342D01*
X98998115Y-51433342D01*
X98998115Y-51660000D01*
G37*
G36*
X100684368Y-51660000D02*
G01*
X100417655Y-51660000D01*
X100292602Y-51284842D01*
X99545219Y-51284842D01*
X99418702Y-51660000D01*
X99164689Y-51660000D01*
X99363503Y-51066001D01*
X99615561Y-51066001D01*
X100222749Y-51066001D01*
X99918911Y-50103684D01*
X99615561Y-51066001D01*
X99363503Y-51066001D01*
X99761130Y-49878004D01*
X100096231Y-49878004D01*
X100684368Y-51660000D01*
G37*
G36*
X102058478Y-51660000D02*
G01*
X100930565Y-51660000D01*
X100930565Y-51433342D01*
X101392184Y-51433342D01*
X101392184Y-50112477D01*
X100962316Y-50378213D01*
X100874389Y-50175003D01*
X101445917Y-49878004D01*
X101657431Y-49878004D01*
X101657431Y-51433342D01*
X102058478Y-51433342D01*
X102058478Y-51660000D01*
G37*
G36*
X93338660Y-56080000D02*
G01*
X93338660Y-55954703D01*
X93550907Y-55746364D01*
X93585969Y-55710867D01*
X93621873Y-55672491D01*
X93646650Y-55644026D01*
X93678646Y-55603360D01*
X93702337Y-55567334D01*
X93723485Y-55521307D01*
X93727983Y-55504808D01*
X93734178Y-55455020D01*
X93734333Y-55445457D01*
X93726029Y-55400760D01*
X93701849Y-55363879D01*
X93662037Y-55338967D01*
X93613037Y-55329767D01*
X93607327Y-55329685D01*
X93556219Y-55334998D01*
X93508897Y-55350935D01*
X93464872Y-55375786D01*
X93425706Y-55405629D01*
X93423168Y-55407843D01*
X93334508Y-55293293D01*
X93372422Y-55261375D01*
X93413200Y-55233702D01*
X93456839Y-55210275D01*
X93465910Y-55206099D01*
X93512874Y-55188839D01*
X93562176Y-55177973D01*
X93613815Y-55173498D01*
X93624424Y-55173370D01*
X93675949Y-55176151D01*
X93726839Y-55185368D01*
X93743859Y-55190223D01*
X93790624Y-55209335D01*
X93833053Y-55237530D01*
X93835450Y-55239560D01*
X93869277Y-55276379D01*
X93894556Y-55321381D01*
X93909633Y-55370733D01*
X93915377Y-55422799D01*
X93915561Y-55434710D01*
X93911959Y-55486184D01*
X93901151Y-55534117D01*
X93882118Y-55582284D01*
X93859141Y-55623754D01*
X93830651Y-55664566D01*
X93798928Y-55702753D01*
X93791486Y-55710949D01*
X93757046Y-55747237D01*
X93721892Y-55782093D01*
X93699895Y-55803028D01*
X93569469Y-55923684D01*
X93948046Y-55923684D01*
X93948046Y-56080000D01*
X93338660Y-56080000D01*
G37*
G36*
X94465537Y-55176429D02*
G01*
X94516468Y-55186745D01*
X94552547Y-55199260D01*
X94596968Y-55222833D01*
X94636444Y-55254718D01*
X94660013Y-55280593D01*
X94688740Y-55322265D01*
X94710799Y-55366610D01*
X94728993Y-55417109D01*
X94730600Y-55422498D01*
X94742879Y-55473895D01*
X94750420Y-55524221D01*
X94754785Y-55578912D01*
X94756001Y-55630348D01*
X94754490Y-55683853D01*
X94749956Y-55734457D01*
X94741243Y-55787920D01*
X94731821Y-55826964D01*
X94716580Y-55873493D01*
X94695475Y-55920252D01*
X94667192Y-55965681D01*
X94661479Y-55973265D01*
X94627179Y-56010918D01*
X94588089Y-56041933D01*
X94548394Y-56064368D01*
X94500412Y-56082167D01*
X94447812Y-56092578D01*
X94395987Y-56095631D01*
X94346325Y-56092572D01*
X94295309Y-56082256D01*
X94259211Y-56069741D01*
X94214721Y-56046134D01*
X94175039Y-56014146D01*
X94151256Y-55988164D01*
X94122529Y-55946243D01*
X94100471Y-55901821D01*
X94082276Y-55851389D01*
X94080669Y-55846015D01*
X94076822Y-55829895D01*
X94251151Y-55829895D01*
X94271954Y-55876090D01*
X94303270Y-55915968D01*
X94312944Y-55924173D01*
X94356053Y-55947254D01*
X94405757Y-55954947D01*
X94453877Y-55946532D01*
X94477320Y-55935408D01*
X94515616Y-55903255D01*
X94535205Y-55876545D01*
X94556943Y-55831788D01*
X94571556Y-55784110D01*
X94573307Y-55776650D01*
X94581642Y-55728416D01*
X94585903Y-55678951D01*
X94586985Y-55634745D01*
X94586252Y-55614961D01*
X94585519Y-55595422D01*
X94251151Y-55829895D01*
X94076822Y-55829895D01*
X94068390Y-55794557D01*
X94060849Y-55744308D01*
X94056484Y-55689815D01*
X94055268Y-55638653D01*
X94055456Y-55632058D01*
X94224284Y-55632058D01*
X94224284Y-55661367D01*
X94225750Y-55689211D01*
X94562316Y-55439106D01*
X94540289Y-55392794D01*
X94508461Y-55352980D01*
X94498813Y-55344829D01*
X94452844Y-55320816D01*
X94405757Y-55314054D01*
X94357526Y-55322258D01*
X94334193Y-55333105D01*
X94296317Y-55364933D01*
X94276796Y-55391723D01*
X94254937Y-55436297D01*
X94240017Y-55483515D01*
X94238206Y-55490886D01*
X94229192Y-55542935D01*
X94225154Y-55592643D01*
X94224284Y-55632058D01*
X94055456Y-55632058D01*
X94056795Y-55585163D01*
X94061374Y-55534605D01*
X94070176Y-55481231D01*
X94079692Y-55442281D01*
X94095131Y-55395654D01*
X94116274Y-55348875D01*
X94144379Y-55303535D01*
X94150034Y-55295980D01*
X94184253Y-55258217D01*
X94223435Y-55227207D01*
X94263363Y-55204877D01*
X94311815Y-55186939D01*
X94364481Y-55176447D01*
X94416015Y-55173370D01*
X94465537Y-55176429D01*
G37*
G36*
X94876413Y-56080000D02*
G01*
X94876413Y-55954703D01*
X95088660Y-55746364D01*
X95123722Y-55710867D01*
X95159626Y-55672491D01*
X95184403Y-55644026D01*
X95216399Y-55603360D01*
X95240090Y-55567334D01*
X95261238Y-55521307D01*
X95265736Y-55504808D01*
X95271931Y-55455020D01*
X95272086Y-55445457D01*
X95263782Y-55400760D01*
X95239602Y-55363879D01*
X95199790Y-55338967D01*
X95150790Y-55329767D01*
X95145080Y-55329685D01*
X95093972Y-55334998D01*
X95046650Y-55350935D01*
X95002625Y-55375786D01*
X94963459Y-55405629D01*
X94960921Y-55407843D01*
X94872260Y-55293293D01*
X94910175Y-55261375D01*
X94950952Y-55233702D01*
X94994592Y-55210275D01*
X95003663Y-55206099D01*
X95050627Y-55188839D01*
X95099929Y-55177973D01*
X95151568Y-55173498D01*
X95162177Y-55173370D01*
X95213702Y-55176151D01*
X95264592Y-55185368D01*
X95281612Y-55190223D01*
X95328377Y-55209335D01*
X95370806Y-55237530D01*
X95373203Y-55239560D01*
X95407030Y-55276379D01*
X95432309Y-55321381D01*
X95447386Y-55370733D01*
X95453130Y-55422799D01*
X95453314Y-55434710D01*
X95449712Y-55486184D01*
X95438904Y-55534117D01*
X95419871Y-55582284D01*
X95396894Y-55623754D01*
X95368404Y-55664566D01*
X95336681Y-55702753D01*
X95329239Y-55710949D01*
X95294799Y-55747237D01*
X95259645Y-55782093D01*
X95237648Y-55803028D01*
X95107222Y-55923684D01*
X95485799Y-55923684D01*
X95485799Y-56080000D01*
X94876413Y-56080000D01*
G37*
G36*
X96247592Y-55799120D02*
G01*
X96243333Y-55850194D01*
X96229107Y-55900485D01*
X96217306Y-55925394D01*
X96188987Y-55967381D01*
X96152848Y-56003644D01*
X96133531Y-56018450D01*
X96090700Y-56044302D01*
X96042443Y-56065070D01*
X96007257Y-56076092D01*
X95955746Y-56087216D01*
X95906363Y-56093322D01*
X95854547Y-56095612D01*
X95849232Y-56095631D01*
X95803803Y-56094166D01*
X95755198Y-56090990D01*
X95707083Y-56086106D01*
X95663852Y-56080000D01*
X95663852Y-55939316D01*
X95714391Y-55946780D01*
X95753733Y-55950795D01*
X95805085Y-55953909D01*
X95854226Y-55954943D01*
X95857536Y-55954947D01*
X95911611Y-55951953D01*
X95962539Y-55941601D01*
X96007431Y-55921674D01*
X96014340Y-55917090D01*
X96049288Y-55881295D01*
X96067000Y-55831927D01*
X96068318Y-55811577D01*
X96060014Y-55760746D01*
X96032498Y-55719259D01*
X96018004Y-55707773D01*
X95971762Y-55686936D01*
X95919951Y-55676919D01*
X95869812Y-55673713D01*
X95856071Y-55673579D01*
X95680216Y-55673579D01*
X95680216Y-55189002D01*
X96198255Y-55189002D01*
X96198255Y-55345317D01*
X95837020Y-55345317D01*
X95837020Y-55532896D01*
X95901500Y-55532896D01*
X95952115Y-55534613D01*
X96001014Y-55539765D01*
X96032658Y-55545108D01*
X96081002Y-55558013D01*
X96127564Y-55578583D01*
X96142812Y-55587606D01*
X96183398Y-55620493D01*
X96213532Y-55659709D01*
X96219016Y-55669183D01*
X96237518Y-55715372D01*
X96246225Y-55766022D01*
X96247592Y-55799120D01*
G37*
G36*
X96498674Y-55783000D02*
G01*
X96498674Y-55626685D01*
X96925854Y-55626685D01*
X96925854Y-55783000D01*
X96498674Y-55783000D01*
G37*
G36*
X97541043Y-55176429D02*
G01*
X97591974Y-55186745D01*
X97628053Y-55199260D01*
X97672474Y-55222833D01*
X97711950Y-55254718D01*
X97735519Y-55280593D01*
X97764246Y-55322265D01*
X97786304Y-55366610D01*
X97804499Y-55417109D01*
X97806106Y-55422498D01*
X97818384Y-55473895D01*
X97825925Y-55524221D01*
X97830291Y-55578912D01*
X97831507Y-55630348D01*
X97829996Y-55683853D01*
X97825462Y-55734457D01*
X97816749Y-55787920D01*
X97807327Y-55826964D01*
X97792085Y-55873493D01*
X97770981Y-55920252D01*
X97742698Y-55965681D01*
X97736985Y-55973265D01*
X97702685Y-56010918D01*
X97663595Y-56041933D01*
X97623900Y-56064368D01*
X97575918Y-56082167D01*
X97523318Y-56092578D01*
X97471493Y-56095631D01*
X97421831Y-56092572D01*
X97370815Y-56082256D01*
X97334717Y-56069741D01*
X97290227Y-56046134D01*
X97250545Y-56014146D01*
X97226762Y-55988164D01*
X97198035Y-55946243D01*
X97175976Y-55901821D01*
X97157782Y-55851389D01*
X97156175Y-55846015D01*
X97152328Y-55829895D01*
X97326657Y-55829895D01*
X97347460Y-55876090D01*
X97378776Y-55915968D01*
X97388450Y-55924173D01*
X97431559Y-55947254D01*
X97481263Y-55954947D01*
X97529383Y-55946532D01*
X97552826Y-55935408D01*
X97591122Y-55903255D01*
X97610711Y-55876545D01*
X97632449Y-55831788D01*
X97647061Y-55784110D01*
X97648813Y-55776650D01*
X97657148Y-55728416D01*
X97661409Y-55678951D01*
X97662491Y-55634745D01*
X97661758Y-55614961D01*
X97661025Y-55595422D01*
X97326657Y-55829895D01*
X97152328Y-55829895D01*
X97143896Y-55794557D01*
X97136355Y-55744308D01*
X97131990Y-55689815D01*
X97130774Y-55638653D01*
X97130962Y-55632058D01*
X97299790Y-55632058D01*
X97299790Y-55661367D01*
X97301256Y-55689211D01*
X97637822Y-55439106D01*
X97615795Y-55392794D01*
X97583967Y-55352980D01*
X97574319Y-55344829D01*
X97528350Y-55320816D01*
X97481263Y-55314054D01*
X97433032Y-55322258D01*
X97409699Y-55333105D01*
X97371823Y-55364933D01*
X97352302Y-55391723D01*
X97330443Y-55436297D01*
X97315523Y-55483515D01*
X97313712Y-55490886D01*
X97304698Y-55542935D01*
X97300660Y-55592643D01*
X97299790Y-55632058D01*
X97130962Y-55632058D01*
X97132301Y-55585163D01*
X97136880Y-55534605D01*
X97145681Y-55481231D01*
X97155198Y-55442281D01*
X97170637Y-55395654D01*
X97191779Y-55348875D01*
X97219885Y-55303535D01*
X97225540Y-55295980D01*
X97259759Y-55258217D01*
X97298941Y-55227207D01*
X97338869Y-55204877D01*
X97387321Y-55186939D01*
X97439986Y-55176447D01*
X97491521Y-55173370D01*
X97541043Y-55176429D01*
G37*
G36*
X98471179Y-55751737D02*
G01*
X98607222Y-55751737D01*
X98607222Y-55892421D01*
X98471179Y-55892421D01*
X98471179Y-56080000D01*
X98307780Y-56080000D01*
X98307780Y-55892421D01*
X97890125Y-55892421D01*
X97890125Y-55755889D01*
X97892690Y-55751737D01*
X98054256Y-55751737D01*
X98309734Y-55751737D01*
X98309734Y-55348492D01*
X98054256Y-55751737D01*
X97892690Y-55751737D01*
X98240369Y-55189002D01*
X98471179Y-55189002D01*
X98471179Y-55751737D01*
G37*
G36*
X98805303Y-55783000D02*
G01*
X98805303Y-55626685D01*
X99232484Y-55626685D01*
X99232484Y-55783000D01*
X98805303Y-55783000D01*
G37*
G36*
X99847673Y-55176429D02*
G01*
X99898603Y-55186745D01*
X99934682Y-55199260D01*
X99979104Y-55222833D01*
X100018579Y-55254718D01*
X100042149Y-55280593D01*
X100070876Y-55322265D01*
X100092934Y-55366610D01*
X100111128Y-55417109D01*
X100112735Y-55422498D01*
X100125014Y-55473895D01*
X100132555Y-55524221D01*
X100136921Y-55578912D01*
X100138136Y-55630348D01*
X100136625Y-55683853D01*
X100132091Y-55734457D01*
X100123378Y-55787920D01*
X100113956Y-55826964D01*
X100098715Y-55873493D01*
X100077611Y-55920252D01*
X100049327Y-55965681D01*
X100043614Y-55973265D01*
X100009315Y-56010918D01*
X99970224Y-56041933D01*
X99930530Y-56064368D01*
X99882548Y-56082167D01*
X99829948Y-56092578D01*
X99778122Y-56095631D01*
X99728461Y-56092572D01*
X99677445Y-56082256D01*
X99641346Y-56069741D01*
X99596856Y-56046134D01*
X99557174Y-56014146D01*
X99533391Y-55988164D01*
X99504664Y-55946243D01*
X99482606Y-55901821D01*
X99464412Y-55851389D01*
X99462805Y-55846015D01*
X99458958Y-55829895D01*
X99633286Y-55829895D01*
X99654089Y-55876090D01*
X99685405Y-55915968D01*
X99695080Y-55924173D01*
X99738189Y-55947254D01*
X99787892Y-55954947D01*
X99836012Y-55946532D01*
X99859455Y-55935408D01*
X99897752Y-55903255D01*
X99917341Y-55876545D01*
X99939078Y-55831788D01*
X99953691Y-55784110D01*
X99955443Y-55776650D01*
X99963777Y-55728416D01*
X99968038Y-55678951D01*
X99969120Y-55634745D01*
X99968387Y-55614961D01*
X99967655Y-55595422D01*
X99633286Y-55829895D01*
X99458958Y-55829895D01*
X99450526Y-55794557D01*
X99442985Y-55744308D01*
X99438619Y-55689815D01*
X99437404Y-55638653D01*
X99437592Y-55632058D01*
X99606420Y-55632058D01*
X99606420Y-55661367D01*
X99607885Y-55689211D01*
X99944452Y-55439106D01*
X99922424Y-55392794D01*
X99890596Y-55352980D01*
X99880949Y-55344829D01*
X99834979Y-55320816D01*
X99787892Y-55314054D01*
X99739661Y-55322258D01*
X99716329Y-55333105D01*
X99678452Y-55364933D01*
X99658932Y-55391723D01*
X99637072Y-55436297D01*
X99622152Y-55483515D01*
X99620341Y-55490886D01*
X99611328Y-55542935D01*
X99607290Y-55592643D01*
X99606420Y-55632058D01*
X99437592Y-55632058D01*
X99438930Y-55585163D01*
X99443510Y-55534605D01*
X99452311Y-55481231D01*
X99461828Y-55442281D01*
X99477267Y-55395654D01*
X99498409Y-55348875D01*
X99526514Y-55303535D01*
X99532170Y-55295980D01*
X99566388Y-55258217D01*
X99605570Y-55227207D01*
X99645498Y-55204877D01*
X99693950Y-55186939D01*
X99746616Y-55176447D01*
X99798150Y-55173370D01*
X99847673Y-55176429D01*
G37*
G36*
X100777808Y-55751737D02*
G01*
X100913852Y-55751737D01*
X100913852Y-55892421D01*
X100777808Y-55892421D01*
X100777808Y-56080000D01*
X100614410Y-56080000D01*
X100614410Y-55892421D01*
X100196755Y-55892421D01*
X100196755Y-55755889D01*
X100199320Y-55751737D01*
X100360886Y-55751737D01*
X100616364Y-55751737D01*
X100616364Y-55348492D01*
X100360886Y-55751737D01*
X100199320Y-55751737D01*
X100546999Y-55189002D01*
X100777808Y-55189002D01*
X100777808Y-55751737D01*
G37*
D11*
%TO.P,B1,1*%
%TO.N,Net-(U11-VBAT)*%
X155500000Y-148500000D03*
D12*
%TO.P,B1,2*%
%TO.N,GND*%
X155500000Y-128010000D03*
%TD*%
D13*
%TO.P,U4,1,GND*%
%TO.N,GND*%
X95125000Y-123425000D03*
%TO.P,U4,2,TXD*%
%TO.N,Net-(U4-TXD)*%
X95125000Y-124695000D03*
%TO.P,U4,3,RXD*%
%TO.N,Net-(U4-RXD)*%
X95125000Y-125965000D03*
%TO.P,U4,4,V3*%
%TO.N,Net-(U4-V3)*%
X95125000Y-127235000D03*
%TO.P,U4,5,UD+*%
%TO.N,D3+*%
X95125000Y-128505000D03*
%TO.P,U4,6,UD-*%
%TO.N,D3-*%
X95125000Y-129775000D03*
%TO.P,U4,7,XI*%
%TO.N,Net-(U4-XI)*%
X95125000Y-131045000D03*
%TO.P,U4,8,XO*%
%TO.N,Net-(U4-XO)*%
X95125000Y-132315000D03*
%TO.P,U4,9,~{CTS}*%
%TO.N,unconnected-(U4-~{CTS}-Pad9)*%
X100075000Y-132315000D03*
%TO.P,U4,10,~{DSR}*%
%TO.N,unconnected-(U4-~{DSR}-Pad10)*%
X100075000Y-131045000D03*
%TO.P,U4,11,~{RI}*%
%TO.N,unconnected-(U4-~{RI}-Pad11)*%
X100075000Y-129775000D03*
%TO.P,U4,12,~{DCD}*%
%TO.N,unconnected-(U4-~{DCD}-Pad12)*%
X100075000Y-128505000D03*
%TO.P,U4,13,~{DTR}*%
%TO.N,unconnected-(U4-~{DTR}-Pad13)*%
X100075000Y-127235000D03*
%TO.P,U4,14,~{RTS}*%
%TO.N,unconnected-(U4-~{RTS}-Pad14)*%
X100075000Y-125965000D03*
%TO.P,U4,15,R232*%
%TO.N,unconnected-(U4-R232-Pad15)*%
X100075000Y-124695000D03*
%TO.P,U4,16,VCC*%
%TO.N,VBUS3*%
X100075000Y-123425000D03*
%TD*%
D14*
%TO.P,PWR5V.2,1,Pin_1*%
%TO.N,5V_REG*%
X199000000Y-94540000D03*
D15*
%TO.P,PWR5V.2,2,Pin_2*%
%TO.N,GND*%
X199000000Y-97080000D03*
%TD*%
%TO.P,I2C1.2,4,Pin_4*%
%TO.N,GND*%
X171230000Y-134870000D03*
%TO.P,I2C1.2,3,Pin_3*%
%TO.N,5V_REG*%
X173770000Y-134870000D03*
%TO.P,I2C1.2,2,Pin_2*%
%TO.N,I2C1_SDA*%
X176310000Y-134870000D03*
D14*
%TO.P,I2C1.2,1,Pin_1*%
%TO.N,I2C1_SCL*%
X178850000Y-134870000D03*
%TD*%
D16*
%TO.P,U10,1,~{RST}*%
%TO.N,WEMOS_RST*%
X114840000Y-147500000D03*
D17*
%TO.P,U10,2,A0*%
%TO.N,unconnected-(U10-A0-Pad2)*%
X117380000Y-147500000D03*
%TO.P,U10,3,D0*%
%TO.N,unconnected-(U10-D0-Pad3)*%
X119920000Y-147500000D03*
%TO.P,U10,4,SCK/D5*%
%TO.N,Net-(D15-A)*%
X122460000Y-147500000D03*
%TO.P,U10,5,MISO/D6*%
%TO.N,Net-(D14-A)*%
X125000000Y-147500000D03*
%TO.P,U10,6,MOSI/D7*%
%TO.N,Net-(D13-A)*%
X127540000Y-147500000D03*
%TO.P,U10,7,CS/D8*%
%TO.N,unconnected-(U10-CS{slash}D8-Pad7)*%
X130080000Y-147500000D03*
%TO.P,U10,8,3V3*%
%TO.N,unconnected-(U10-3V3-Pad8)*%
X132620000Y-147500000D03*
%TO.P,U10,9,5V*%
%TO.N,5V_REG*%
X132620000Y-124640000D03*
%TO.P,U10,10,GND*%
%TO.N,GND*%
X130080000Y-124640000D03*
%TO.P,U10,11,D4*%
%TO.N,unconnected-(U10-D4-Pad11)*%
X127540000Y-124640000D03*
%TO.P,U10,12,D3*%
%TO.N,unconnected-(U10-D3-Pad12)*%
X125000000Y-124640000D03*
%TO.P,U10,13,SDA/D2*%
%TO.N,WUART1_RX*%
X122460000Y-124640000D03*
%TO.P,U10,14,SCL/D1*%
%TO.N,WUART1_TX*%
X119920000Y-124640000D03*
%TO.P,U10,15,RX*%
%TO.N,UART4_TX*%
X117380000Y-124640000D03*
%TO.P,U10,16,TX*%
%TO.N,UART4_RX*%
X114840000Y-124640000D03*
%TD*%
D18*
%TO.P,C11,1*%
%TO.N,VBUS1*%
X125200000Y-62370000D03*
%TO.P,C11,2*%
%TO.N,GND*%
X127100000Y-62370000D03*
%TD*%
D19*
%TO.P,J4,1,VBUS*%
%TO.N,VBUS3*%
X87290900Y-126023100D03*
%TO.P,J4,2,D-*%
%TO.N,D3-*%
X86090900Y-126823099D03*
%TO.P,J4,3,D+*%
%TO.N,D3+*%
X87290900Y-127623100D03*
%TO.P,J4,4,ID*%
%TO.N,unconnected-(J4-ID-Pad4)*%
X86090900Y-128423101D03*
%TO.P,J4,5,GND*%
%TO.N,GND*%
X87290900Y-129223099D03*
D20*
%TO.P,J4,6*%
%TO.N,N/C*%
X82240900Y-123973099D03*
%TO.P,J4,7*%
X82240900Y-131273100D03*
%TD*%
D18*
%TO.P,C12,1*%
%TO.N,VBUS2*%
X119237500Y-78620000D03*
%TO.P,C12,2*%
%TO.N,GND*%
X121137500Y-78620000D03*
%TD*%
D14*
%TO.P,SPI2.2,1,Pin_1*%
%TO.N,SPI2_CS1*%
X199090000Y-147020000D03*
D15*
%TO.P,SPI2.2,2,Pin_2*%
%TO.N,SPI2_SCK*%
X196550000Y-147020000D03*
%TO.P,SPI2.2,3,Pin_3*%
%TO.N,SPI2_MOSI*%
X194010000Y-147020000D03*
%TO.P,SPI2.2,4,Pin_4*%
%TO.N,SPI2_MISO*%
X191470000Y-147020000D03*
%TO.P,SPI2.2,5,Pin_5*%
%TO.N,5V_REG*%
X188930000Y-147020000D03*
%TO.P,SPI2.2,6,Pin_6*%
%TO.N,GND*%
X186390000Y-147020000D03*
%TD*%
D21*
%TO.P,R5,1*%
%TO.N,Net-(U2-TXD)*%
X125237500Y-66370000D03*
%TO.P,R5,2*%
%TO.N,USART1_RX*%
X127062500Y-66370000D03*
%TD*%
D22*
%TO.P,U12,1,GPB0*%
%TO.N,Net-(EXIO.1-Pin_1)*%
X159595000Y-78020000D03*
%TO.P,U12,2,GPB1*%
%TO.N,Net-(EXIO.1-Pin_2)*%
X160865000Y-78020000D03*
%TO.P,U12,3,GPB2*%
%TO.N,Net-(EXIO.1-Pin_3)*%
X162135000Y-78020000D03*
%TO.P,U12,4,GPB3*%
%TO.N,Net-(EXIO.1-Pin_4)*%
X163405000Y-78020000D03*
%TO.P,U12,5,GPB4*%
%TO.N,Net-(EXIO.1-Pin_5)*%
X164675000Y-78020000D03*
%TO.P,U12,6,GPB5*%
%TO.N,Net-(EXIO.1-Pin_6)*%
X165945000Y-78020000D03*
%TO.P,U12,7,GPB6*%
%TO.N,Net-(EXIO.1-Pin_7)*%
X167215000Y-78020000D03*
%TO.P,U12,8,GPB7*%
%TO.N,Net-(EXIO.1-Pin_8)*%
X168485000Y-78020000D03*
%TO.P,U12,9,VDD*%
%TO.N,M5V*%
X169755000Y-78020000D03*
%TO.P,U12,10,VSS*%
%TO.N,GND*%
X171025000Y-78020000D03*
%TO.P,U12,11,NC*%
%TO.N,unconnected-(U12-NC-Pad11)*%
X172295000Y-78020000D03*
%TO.P,U12,12,SCK*%
%TO.N,I2C1_SCL*%
X173565000Y-78020000D03*
%TO.P,U12,13,SDA*%
%TO.N,I2C1_SDA*%
X174835000Y-78020000D03*
%TO.P,U12,14,NC*%
%TO.N,unconnected-(U12-NC-Pad14)*%
X176105000Y-78020000D03*
%TO.P,U12,15,A0*%
%TO.N,GND*%
X176105000Y-68720000D03*
%TO.P,U12,16,A1*%
%TO.N,M5V*%
X174835000Y-68720000D03*
%TO.P,U12,17,A2*%
X173565000Y-68720000D03*
%TO.P,U12,18,~{RESET}*%
X172295000Y-68720000D03*
%TO.P,U12,19,INTB*%
%TO.N,unconnected-(U12-INTB-Pad19)*%
X171025000Y-68720000D03*
%TO.P,U12,20,INTA*%
%TO.N,unconnected-(U12-INTA-Pad20)*%
X169755000Y-68720000D03*
%TO.P,U12,21,GPA0*%
%TO.N,Net-(EXIO.2-Pin_1)*%
X168485000Y-68720000D03*
%TO.P,U12,22,GPA1*%
%TO.N,Net-(EXIO.2-Pin_2)*%
X167215000Y-68720000D03*
%TO.P,U12,23,GPA2*%
%TO.N,Net-(EXIO.2-Pin_3)*%
X165945000Y-68720000D03*
%TO.P,U12,24,GPA3*%
%TO.N,Net-(EXIO.2-Pin_4)*%
X164675000Y-68720000D03*
%TO.P,U12,25,GPA4*%
%TO.N,Net-(EXIO.2-Pin_5)*%
X163405000Y-68720000D03*
%TO.P,U12,26,GPA5*%
%TO.N,Net-(EXIO.2-Pin_6)*%
X162135000Y-68720000D03*
%TO.P,U12,27,GPA6*%
%TO.N,Net-(EXIO.2-Pin_7)*%
X160865000Y-68720000D03*
%TO.P,U12,28,GPA7*%
%TO.N,Net-(EXIO.2-Pin_8)*%
X159595000Y-68720000D03*
%TD*%
D21*
%TO.P,R20,1*%
%TO.N,W25Q64_NCS*%
X160842500Y-97845000D03*
%TO.P,R20,2*%
%TO.N,W25Q64_NCS3V3*%
X162667500Y-97845000D03*
%TD*%
%TO.P,R2,1*%
%TO.N,U_PWR_MEAS*%
X91687500Y-60870000D03*
%TO.P,R2,2*%
%TO.N,Net-(D1-K)*%
X93512500Y-60870000D03*
%TD*%
%TO.P,R10,1*%
%TO.N,Net-(U4-RXD)*%
X125237500Y-102620000D03*
%TO.P,R10,2*%
%TO.N,WUART1_TX*%
X127062500Y-102620000D03*
%TD*%
D18*
%TO.P,C5,1*%
%TO.N,Net-(U2-XO)*%
X92425000Y-93695000D03*
%TO.P,C5,2*%
%TO.N,GND*%
X94325000Y-93695000D03*
%TD*%
%TO.P,C2,1*%
%TO.N,Net-(U2-XI)*%
X125200000Y-78370000D03*
%TO.P,C2,2*%
%TO.N,GND*%
X127100000Y-78370000D03*
%TD*%
D14*
%TO.P,PWR3V3.1,1,Pin_1*%
%TO.N,M3V3*%
X193200000Y-105235000D03*
D15*
%TO.P,PWR3V3.1,2,Pin_2*%
%TO.N,GND*%
X193200000Y-107775000D03*
%TD*%
D14*
%TO.P,PWM.2,1,Pin_1*%
%TO.N,PWM2*%
X199000000Y-116000000D03*
D15*
%TO.P,PWM.2,2,Pin_2*%
%TO.N,GND*%
X199000000Y-118540000D03*
%TD*%
D19*
%TO.P,J1,1,VBUS*%
%TO.N,Net-(J1-VBUS)*%
X87290900Y-55523100D03*
%TO.P,J1,2,D-*%
%TO.N,unconnected-(J1-D--Pad2)*%
X86090900Y-56323099D03*
%TO.P,J1,3,D+*%
%TO.N,unconnected-(J1-D+-Pad3)*%
X87290900Y-57123100D03*
%TO.P,J1,4,ID*%
%TO.N,unconnected-(J1-ID-Pad4)*%
X86090900Y-57923101D03*
%TO.P,J1,5,GND*%
%TO.N,GND*%
X87290900Y-58723099D03*
D20*
%TO.P,J1,6*%
%TO.N,N/C*%
X82240900Y-53473099D03*
%TO.P,J1,7*%
X82240900Y-60773100D03*
%TD*%
D18*
%TO.P,C4,1*%
%TO.N,Net-(U4-XI)*%
X125200000Y-110620000D03*
%TO.P,C4,2*%
%TO.N,GND*%
X127100000Y-110620000D03*
%TD*%
D23*
%TO.P,D1,1,K*%
%TO.N,Net-(D1-K)*%
X80200000Y-68870000D03*
%TO.P,D1,2,A*%
%TO.N,Net-(D1-A)*%
X83000000Y-68870000D03*
%TD*%
D21*
%TO.P,R24,1*%
%TO.N,Net-(D13-K)*%
X128430000Y-134895000D03*
%TO.P,R24,2*%
%TO.N,GND*%
X130255000Y-134895000D03*
%TD*%
D14*
%TO.P,PWR3V3.3,1,Pin_1*%
%TO.N,M3V3*%
X204750000Y-105275000D03*
D15*
%TO.P,PWR3V3.3,2,Pin_2*%
%TO.N,GND*%
X204750000Y-107815000D03*
%TD*%
D24*
%TO.P,D14,1,K*%
%TO.N,Net-(D14-K)*%
X100110000Y-148900000D03*
%TO.P,D14,2,A*%
%TO.N,Net-(D14-A)*%
X100110000Y-146100000D03*
%TD*%
D25*
%TO.P,X2,1,1*%
%TO.N,Net-(U3-XO)*%
X95220000Y-113870000D03*
%TO.P,X2,2,2*%
%TO.N,Net-(U3-XI)*%
X100100000Y-113870000D03*
%TD*%
D14*
%TO.P,DISPLAY1,1,Pin_1*%
%TO.N,5V_REG*%
X193000000Y-53255000D03*
D15*
%TO.P,DISPLAY1,2,Pin_2*%
%TO.N,GND*%
X193000000Y-55795000D03*
%TO.P,DISPLAY1,3,Pin_3*%
%TO.N,DISPL_CS*%
X193000000Y-58335000D03*
%TO.P,DISPLAY1,4,Pin_4*%
%TO.N,DISPL_RST*%
X193000000Y-60875000D03*
%TO.P,DISPLAY1,5,Pin_5*%
%TO.N,DISPL_DC*%
X193000000Y-63415000D03*
%TO.P,DISPLAY1,6,Pin_6*%
%TO.N,DISPL_MOSI*%
X193000000Y-65955000D03*
%TO.P,DISPLAY1,7,Pin_7*%
%TO.N,DISPL_SCK*%
X193000000Y-68495000D03*
%TO.P,DISPLAY1,8,Pin_8*%
%TO.N,DISPL_BNESS*%
X193000000Y-71035000D03*
%TO.P,DISPLAY1,9,Pin_9*%
%TO.N,DISPL_MISO*%
X193000000Y-73575000D03*
%TO.P,DISPLAY1,10,Pin_10*%
%TO.N,DISPL_SCK*%
X193000000Y-76115000D03*
%TO.P,DISPLAY1,11,Pin_11*%
%TO.N,DISPL_TCH_CS*%
X193000000Y-78655000D03*
%TO.P,DISPLAY1,12,Pin_12*%
%TO.N,DISPL_MOSI*%
X193000000Y-81195000D03*
%TO.P,DISPLAY1,13,Pin_13*%
%TO.N,DISPL_MISO*%
X193000000Y-83735000D03*
%TO.P,DISPLAY1,14,Pin_14*%
%TO.N,DISPL_TIRQ*%
X193000000Y-86275000D03*
%TD*%
D13*
%TO.P,U2,1,GND*%
%TO.N,GND*%
X95125000Y-73675000D03*
%TO.P,U2,2,TXD*%
%TO.N,Net-(U2-TXD)*%
X95125000Y-74945000D03*
%TO.P,U2,3,RXD*%
%TO.N,Net-(U2-RXD)*%
X95125000Y-76215000D03*
%TO.P,U2,4,V3*%
%TO.N,Net-(U2-V3)*%
X95125000Y-77485000D03*
%TO.P,U2,5,UD+*%
%TO.N,D1+*%
X95125000Y-78755000D03*
%TO.P,U2,6,UD-*%
%TO.N,D1-*%
X95125000Y-80025000D03*
%TO.P,U2,7,XI*%
%TO.N,Net-(U2-XI)*%
X95125000Y-81295000D03*
%TO.P,U2,8,XO*%
%TO.N,Net-(U2-XO)*%
X95125000Y-82565000D03*
%TO.P,U2,9,~{CTS}*%
%TO.N,unconnected-(U2-~{CTS}-Pad9)*%
X100075000Y-82565000D03*
%TO.P,U2,10,~{DSR}*%
%TO.N,unconnected-(U2-~{DSR}-Pad10)*%
X100075000Y-81295000D03*
%TO.P,U2,11,~{RI}*%
%TO.N,unconnected-(U2-~{RI}-Pad11)*%
X100075000Y-80025000D03*
%TO.P,U2,12,~{DCD}*%
%TO.N,unconnected-(U2-~{DCD}-Pad12)*%
X100075000Y-78755000D03*
%TO.P,U2,13,~{DTR}*%
%TO.N,unconnected-(U2-~{DTR}-Pad13)*%
X100075000Y-77485000D03*
%TO.P,U2,14,~{RTS}*%
%TO.N,unconnected-(U2-~{RTS}-Pad14)*%
X100075000Y-76215000D03*
%TO.P,U2,15,R232*%
%TO.N,unconnected-(U2-R232-Pad15)*%
X100075000Y-74945000D03*
%TO.P,U2,16,VCC*%
%TO.N,VBUS1*%
X100075000Y-73675000D03*
%TD*%
D23*
%TO.P,D7,1,K*%
%TO.N,Net-(D7-K)*%
X80200000Y-89870000D03*
%TO.P,D7,2,A*%
%TO.N,VBUS1*%
X83000000Y-89870000D03*
%TD*%
%TO.P,D9,1,K*%
%TO.N,Net-(D9-K)*%
X80200000Y-139870000D03*
%TO.P,D9,2,A*%
%TO.N,VBUS3*%
X83000000Y-139870000D03*
%TD*%
D18*
%TO.P,C3,1*%
%TO.N,Net-(U3-XI)*%
X119287500Y-94620000D03*
%TO.P,C3,2*%
%TO.N,GND*%
X121187500Y-94620000D03*
%TD*%
D14*
%TO.P,PWR3V3.2,1,Pin_1*%
%TO.N,M3V3*%
X199000000Y-105275000D03*
D15*
%TO.P,PWR3V3.2,2,Pin_2*%
%TO.N,GND*%
X199000000Y-107815000D03*
%TD*%
D14*
%TO.P,DAC.1,1,Pin_1*%
%TO.N,DAC_OUT*%
X198750000Y-63525000D03*
D15*
%TO.P,DAC.1,2,Pin_2*%
%TO.N,GND*%
X198750000Y-66065000D03*
%TD*%
D13*
%TO.P,U3,1,GND*%
%TO.N,GND*%
X95195000Y-98425000D03*
%TO.P,U3,2,TXD*%
%TO.N,Net-(U3-TXD)*%
X95195000Y-99695000D03*
%TO.P,U3,3,RXD*%
%TO.N,Net-(U3-RXD)*%
X95195000Y-100965000D03*
%TO.P,U3,4,V3*%
%TO.N,Net-(U3-V3)*%
X95195000Y-102235000D03*
%TO.P,U3,5,UD+*%
%TO.N,D2+*%
X95195000Y-103505000D03*
%TO.P,U3,6,UD-*%
%TO.N,D2-*%
X95195000Y-104775000D03*
%TO.P,U3,7,XI*%
%TO.N,Net-(U3-XI)*%
X95195000Y-106045000D03*
%TO.P,U3,8,XO*%
%TO.N,Net-(U3-XO)*%
X95195000Y-107315000D03*
%TO.P,U3,9,~{CTS}*%
%TO.N,unconnected-(U3-~{CTS}-Pad9)*%
X100145000Y-107315000D03*
%TO.P,U3,10,~{DSR}*%
%TO.N,unconnected-(U3-~{DSR}-Pad10)*%
X100145000Y-106045000D03*
%TO.P,U3,11,~{RI}*%
%TO.N,unconnected-(U3-~{RI}-Pad11)*%
X100145000Y-104775000D03*
%TO.P,U3,12,~{DCD}*%
%TO.N,unconnected-(U3-~{DCD}-Pad12)*%
X100145000Y-103505000D03*
%TO.P,U3,13,~{DTR}*%
%TO.N,unconnected-(U3-~{DTR}-Pad13)*%
X100145000Y-102235000D03*
%TO.P,U3,14,~{RTS}*%
%TO.N,unconnected-(U3-~{RTS}-Pad14)*%
X100145000Y-100965000D03*
%TO.P,U3,15,R232*%
%TO.N,unconnected-(U3-R232-Pad15)*%
X100145000Y-99695000D03*
%TO.P,U3,16,VCC*%
%TO.N,VBUS2*%
X100145000Y-98425000D03*
%TD*%
D14*
%TO.P,EXTI.2,1,Pin_1*%
%TO.N,EXTI2*%
X198850000Y-73750000D03*
D15*
%TO.P,EXTI.2,2,Pin_2*%
%TO.N,GND*%
X198850000Y-76290000D03*
%TD*%
D14*
%TO.P,EXIO.2,1,Pin_1*%
%TO.N,Net-(EXIO.2-Pin_1)*%
X204330000Y-134870000D03*
D15*
%TO.P,EXIO.2,2,Pin_2*%
%TO.N,Net-(EXIO.2-Pin_2)*%
X201790000Y-134870000D03*
%TO.P,EXIO.2,3,Pin_3*%
%TO.N,Net-(EXIO.2-Pin_3)*%
X199250000Y-134870000D03*
%TO.P,EXIO.2,4,Pin_4*%
%TO.N,Net-(EXIO.2-Pin_4)*%
X196710000Y-134870000D03*
%TO.P,EXIO.2,5,Pin_5*%
%TO.N,Net-(EXIO.2-Pin_5)*%
X194170000Y-134870000D03*
%TO.P,EXIO.2,6,Pin_6*%
%TO.N,Net-(EXIO.2-Pin_6)*%
X191630000Y-134870000D03*
%TO.P,EXIO.2,7,Pin_7*%
%TO.N,Net-(EXIO.2-Pin_7)*%
X189090000Y-134870000D03*
%TO.P,EXIO.2,8,Pin_8*%
%TO.N,Net-(EXIO.2-Pin_8)*%
X186550000Y-134870000D03*
%TD*%
D21*
%TO.P,R14,1*%
%TO.N,Net-(D7-K)*%
X86775000Y-93870000D03*
%TO.P,R14,2*%
%TO.N,USART1_RX*%
X88600000Y-93870000D03*
%TD*%
D14*
%TO.P,EXTI.3,1,Pin_1*%
%TO.N,EXTI3*%
X204750000Y-73750000D03*
D15*
%TO.P,EXTI.3,2,Pin_2*%
%TO.N,GND*%
X204750000Y-76290000D03*
%TD*%
D23*
%TO.P,D3,1,K*%
%TO.N,Net-(D3-K)*%
X80200000Y-64870000D03*
%TO.P,D3,2,A*%
%TO.N,5V_REG*%
X83000000Y-64870000D03*
%TD*%
D19*
%TO.P,J2,1,VBUS*%
%TO.N,VBUS1*%
X87290900Y-75920000D03*
%TO.P,J2,2,D-*%
%TO.N,D1-*%
X86090900Y-76719999D03*
%TO.P,J2,3,D+*%
%TO.N,D1+*%
X87290900Y-77520000D03*
%TO.P,J2,4,ID*%
%TO.N,unconnected-(J2-ID-Pad4)*%
X86090900Y-78320001D03*
%TO.P,J2,5,GND*%
%TO.N,GND*%
X87290900Y-79119999D03*
D20*
%TO.P,J2,6*%
%TO.N,N/C*%
X82240900Y-73869999D03*
%TO.P,J2,7*%
X82240900Y-81170000D03*
%TD*%
D26*
%TO.P,F1,1*%
%TO.N,Net-(J1-VBUS)*%
X97637500Y-60870000D03*
%TO.P,F1,2*%
%TO.N,Net-(D1-K)*%
X100562500Y-60870000D03*
%TD*%
D13*
%TO.P,U1,1,IP+*%
%TO.N,5V_REG*%
X97375000Y-64965000D03*
%TO.P,U1,2,IP+*%
X97375000Y-66235000D03*
%TO.P,U1,3,IP-*%
%TO.N,Net-(D1-K)*%
X97375000Y-67505000D03*
%TO.P,U1,4,IP-*%
X97375000Y-68775000D03*
%TO.P,U1,5,GND*%
%TO.N,GND*%
X102325000Y-68775000D03*
%TO.P,U1,6,FILTER*%
%TO.N,Net-(U1-FILTER)*%
X102325000Y-67505000D03*
%TO.P,U1,7,VIOUT*%
%TO.N,I_PWR_MEAS*%
X102325000Y-66235000D03*
%TO.P,U1,8,VCC*%
%TO.N,M5V*%
X102325000Y-64965000D03*
%TD*%
D21*
%TO.P,R1,1*%
%TO.N,Net-(J1-VBUS)*%
X86687500Y-68870000D03*
%TO.P,R1,2*%
%TO.N,Net-(D1-A)*%
X88512500Y-68870000D03*
%TD*%
%TO.P,R19,1*%
%TO.N,Net-(D12-K)*%
X86687500Y-135620000D03*
%TO.P,R19,2*%
%TO.N,WUART1_TX*%
X88512500Y-135620000D03*
%TD*%
D18*
%TO.P,C9,1*%
%TO.N,Net-(U3-V3)*%
X119237500Y-90620000D03*
%TO.P,C9,2*%
%TO.N,GND*%
X121137500Y-90620000D03*
%TD*%
D14*
%TO.P,PWR5V.1,1,Pin_1*%
%TO.N,5V_REG*%
X193200000Y-94500000D03*
D15*
%TO.P,PWR5V.1,2,Pin_2*%
%TO.N,GND*%
X193200000Y-97040000D03*
%TD*%
D14*
%TO.P,EXIO.1,1,Pin_1*%
%TO.N,Net-(EXIO.1-Pin_1)*%
X204330000Y-128720000D03*
D15*
%TO.P,EXIO.1,2,Pin_2*%
%TO.N,Net-(EXIO.1-Pin_2)*%
X201790000Y-128720000D03*
%TO.P,EXIO.1,3,Pin_3*%
%TO.N,Net-(EXIO.1-Pin_3)*%
X199250000Y-128720000D03*
%TO.P,EXIO.1,4,Pin_4*%
%TO.N,Net-(EXIO.1-Pin_4)*%
X196710000Y-128720000D03*
%TO.P,EXIO.1,5,Pin_5*%
%TO.N,Net-(EXIO.1-Pin_5)*%
X194170000Y-128720000D03*
%TO.P,EXIO.1,6,Pin_6*%
%TO.N,Net-(EXIO.1-Pin_6)*%
X191630000Y-128720000D03*
%TO.P,EXIO.1,7,Pin_7*%
%TO.N,Net-(EXIO.1-Pin_7)*%
X189090000Y-128720000D03*
%TO.P,EXIO.1,8,Pin_8*%
%TO.N,Net-(EXIO.1-Pin_8)*%
X186550000Y-128720000D03*
%TD*%
D14*
%TO.P,I2C1.4,1,Pin_1*%
%TO.N,I2C1_SCL*%
X178850000Y-146870000D03*
D15*
%TO.P,I2C1.4,2,Pin_2*%
%TO.N,I2C1_SDA*%
X176310000Y-146870000D03*
%TO.P,I2C1.4,3,Pin_3*%
%TO.N,5V_REG*%
X173770000Y-146870000D03*
%TO.P,I2C1.4,4,Pin_4*%
%TO.N,GND*%
X171230000Y-146870000D03*
%TD*%
D14*
%TO.P,EXTI.1,1,Pin_1*%
%TO.N,EXTI1*%
X204750000Y-63525000D03*
D15*
%TO.P,EXTI.1,2,Pin_2*%
%TO.N,GND*%
X204750000Y-66065000D03*
%TD*%
D18*
%TO.P,C8,1*%
%TO.N,Net-(U2-V3)*%
X125200000Y-74370000D03*
%TO.P,C8,2*%
%TO.N,GND*%
X127100000Y-74370000D03*
%TD*%
D14*
%TO.P,PWM.3,1,Pin_1*%
%TO.N,PWM3*%
X204750000Y-116025000D03*
D15*
%TO.P,PWM.3,2,Pin_2*%
%TO.N,GND*%
X204750000Y-118565000D03*
%TD*%
D18*
%TO.P,C6,1*%
%TO.N,Net-(U3-XO)*%
X92470000Y-118723100D03*
%TO.P,C6,2*%
%TO.N,GND*%
X94370000Y-118723100D03*
%TD*%
D21*
%TO.P,R21,1*%
%TO.N,W25Q64_NCS3V3*%
X160842500Y-100795000D03*
%TO.P,R21,2*%
%TO.N,GND*%
X162667500Y-100795000D03*
%TD*%
D18*
%TO.P,C1,1*%
%TO.N,Net-(U1-FILTER)*%
X91700000Y-68870000D03*
%TO.P,C1,2*%
%TO.N,GND*%
X93600000Y-68870000D03*
%TD*%
D23*
%TO.P,D4,1,K*%
%TO.N,Net-(D4-K)*%
X80200000Y-85870000D03*
%TO.P,D4,2,A*%
%TO.N,VBUS1*%
X83000000Y-85870000D03*
%TD*%
D21*
%TO.P,R22,1*%
%TO.N,M5V*%
X169187500Y-84120000D03*
%TO.P,R22,2*%
%TO.N,I2C1_SDA*%
X171012500Y-84120000D03*
%TD*%
D27*
%TO.P,U7,1,~{CS}*%
%TO.N,25LC256_NCS*%
X136945000Y-74845000D03*
%TO.P,U7,2,MISO*%
%TO.N,SPI2_MISO*%
X138215000Y-74845000D03*
%TO.P,U7,3,~{WP}*%
%TO.N,M5V*%
X139485000Y-74845000D03*
%TO.P,U7,4,GND*%
%TO.N,GND*%
X140755000Y-74845000D03*
%TO.P,U7,5,MOSI*%
%TO.N,SPI2_MOSI*%
X140755000Y-69895000D03*
%TO.P,U7,6,SCK*%
%TO.N,SPI2_SCK*%
X139485000Y-69895000D03*
%TO.P,U7,7,~{HOLD}*%
%TO.N,M5V*%
X138215000Y-69895000D03*
%TO.P,U7,8,VCC*%
X136945000Y-69895000D03*
%TD*%
D23*
%TO.P,D11,1,K*%
%TO.N,Net-(D11-K)*%
X80200000Y-118766900D03*
%TO.P,D11,2,A*%
%TO.N,VBUS2*%
X83000000Y-118766900D03*
%TD*%
D21*
%TO.P,R26,1*%
%TO.N,Net-(D15-K)*%
X128430000Y-140795000D03*
%TO.P,R26,2*%
%TO.N,GND*%
X130255000Y-140795000D03*
%TD*%
D28*
%TO.P,U6,1,~{CS}*%
%TO.N,W25Q64_NCS3V3*%
X148445000Y-75970000D03*
%TO.P,U6,2,DO(IO1)*%
%TO.N,SPI2_MISO*%
X149715000Y-75970000D03*
%TO.P,U6,3,IO2*%
%TO.N,Net-(U5-VO)*%
X150985000Y-75970000D03*
%TO.P,U6,4,GND*%
%TO.N,GND*%
X152255000Y-75970000D03*
%TO.P,U6,5,DI(IO0)*%
%TO.N,SPI2_MOSI*%
X152255000Y-68770000D03*
%TO.P,U6,6,CLK*%
%TO.N,SPI2_SCK*%
X150985000Y-68770000D03*
%TO.P,U6,7,IO3*%
%TO.N,Net-(U5-VO)*%
X149715000Y-68770000D03*
%TO.P,U6,8,VCC*%
X148445000Y-68770000D03*
%TD*%
D21*
%TO.P,R11,1*%
%TO.N,Net-(D4-K)*%
X86937500Y-90120000D03*
%TO.P,R11,2*%
%TO.N,GND*%
X88762500Y-90120000D03*
%TD*%
%TO.P,R15,1*%
%TO.N,Net-(D8-K)*%
X86687500Y-118870000D03*
%TO.P,R15,2*%
%TO.N,UART5_RX*%
X88512500Y-118870000D03*
%TD*%
%TO.P,R3,1*%
%TO.N,GND*%
X91775000Y-64870000D03*
%TO.P,R3,2*%
%TO.N,U_PWR_MEAS*%
X93600000Y-64870000D03*
%TD*%
D29*
%TO.P,D2,1,K*%
%TO.N,Net-(D1-K)*%
X118600000Y-62790000D03*
D30*
%TO.P,D2,2,A*%
%TO.N,GND*%
X118600000Y-72950000D03*
%TD*%
D25*
%TO.P,X1,1,1*%
%TO.N,Net-(U2-XO)*%
X95245000Y-88945000D03*
%TO.P,X1,2,2*%
%TO.N,Net-(U2-XI)*%
X100125000Y-88945000D03*
%TD*%
D14*
%TO.P,I2C1.1,1,Pin_1*%
%TO.N,I2C1_SCL*%
X178850000Y-128870000D03*
D15*
%TO.P,I2C1.1,2,Pin_2*%
%TO.N,I2C1_SDA*%
X176310000Y-128870000D03*
%TO.P,I2C1.1,3,Pin_3*%
%TO.N,5V_REG*%
X173770000Y-128870000D03*
%TO.P,I2C1.1,4,Pin_4*%
%TO.N,GND*%
X171230000Y-128870000D03*
%TD*%
D23*
%TO.P,D5,1,K*%
%TO.N,Net-(D5-K)*%
X80200000Y-110766900D03*
%TO.P,D5,2,A*%
%TO.N,VBUS2*%
X83000000Y-110766900D03*
%TD*%
D25*
%TO.P,X3,1,1*%
%TO.N,Net-(U4-XO)*%
X95175000Y-138870000D03*
%TO.P,X3,2,2*%
%TO.N,Net-(U4-XI)*%
X100055000Y-138870000D03*
%TD*%
D14*
%TO.P,ADC.1,1,Pin_1*%
%TO.N,ADC1*%
X199000000Y-83775000D03*
D15*
%TO.P,ADC.1,2,Pin_2*%
%TO.N,GND*%
X199000000Y-86315000D03*
%TD*%
D14*
%TO.P,ADC.2,1,Pin_1*%
%TO.N,ADC2*%
X204750000Y-83775000D03*
D15*
%TO.P,ADC.2,2,Pin_2*%
%TO.N,GND*%
X204750000Y-86315000D03*
%TD*%
D21*
%TO.P,R23,1*%
%TO.N,M5V*%
X173687500Y-84120000D03*
%TO.P,R23,2*%
%TO.N,I2C1_SCL*%
X175512500Y-84120000D03*
%TD*%
D23*
%TO.P,D8,1,K*%
%TO.N,Net-(D8-K)*%
X80200000Y-114766900D03*
%TO.P,D8,2,A*%
%TO.N,VBUS2*%
X83000000Y-114766900D03*
%TD*%
%TO.P,D12,1,K*%
%TO.N,Net-(D12-K)*%
X80200000Y-143870000D03*
%TO.P,D12,2,A*%
%TO.N,VBUS3*%
X83000000Y-143870000D03*
%TD*%
D21*
%TO.P,R8,1*%
%TO.N,Net-(U3-RXD)*%
X119275000Y-86620000D03*
%TO.P,R8,2*%
%TO.N,UART5_TX*%
X121100000Y-86620000D03*
%TD*%
D14*
%TO.P,PWM.1,1,Pin_1*%
%TO.N,PWM1*%
X193250000Y-116000000D03*
D15*
%TO.P,PWM.1,2,Pin_2*%
%TO.N,GND*%
X193250000Y-118540000D03*
%TD*%
D23*
%TO.P,D10,1,K*%
%TO.N,Net-(D10-K)*%
X80200000Y-93870000D03*
%TO.P,D10,2,A*%
%TO.N,VBUS1*%
X83000000Y-93870000D03*
%TD*%
D27*
%TO.P,U8,1,~{CS}*%
%TO.N,25LC640_NCS*%
X136945000Y-85845000D03*
%TO.P,U8,2,MISO*%
%TO.N,SPI2_MISO*%
X138215000Y-85845000D03*
%TO.P,U8,3,~{WP}*%
%TO.N,M5V*%
X139485000Y-85845000D03*
%TO.P,U8,4,GND*%
%TO.N,GND*%
X140755000Y-85845000D03*
%TO.P,U8,5,MOSI*%
%TO.N,SPI2_MOSI*%
X140755000Y-80895000D03*
%TO.P,U8,6,SCK*%
%TO.N,SPI2_SCK*%
X139485000Y-80895000D03*
%TO.P,U8,7,~{HOLD}*%
%TO.N,M5V*%
X138215000Y-80895000D03*
%TO.P,U8,8,VCC*%
X136945000Y-80895000D03*
%TD*%
D21*
%TO.P,R4,1*%
%TO.N,GND*%
X86687500Y-64870000D03*
%TO.P,R4,2*%
%TO.N,Net-(D3-K)*%
X88512500Y-64870000D03*
%TD*%
D31*
%TO.P,U9,CN5_1,D8*%
%TO.N,unconnected-(U9F-D8-PadCN5_1)*%
X162130000Y-61120000D03*
D32*
%TO.P,U9,CN5_2,D9*%
%TO.N,unconnected-(U9F-D9-PadCN5_2)*%
X159590000Y-61120000D03*
%TO.P,U9,CN5_3,D10*%
%TO.N,unconnected-(U9F-D10-PadCN5_3)*%
X157050000Y-61120000D03*
%TO.P,U9,CN5_4,D11*%
%TO.N,unconnected-(U9F-D11-PadCN5_4)*%
X154510000Y-61120000D03*
%TO.P,U9,CN5_5,D12*%
%TO.N,unconnected-(U9F-D12-PadCN5_5)*%
X151970000Y-61120000D03*
%TO.P,U9,CN5_6,D13*%
%TO.N,unconnected-(U9F-D13-PadCN5_6)*%
X149430000Y-61120000D03*
%TO.P,U9,CN5_7,CN5_GND*%
%TO.N,unconnected-(U9F-CN5_GND-PadCN5_7)*%
X146890000Y-61120000D03*
%TO.P,U9,CN5_8,AREF*%
%TO.N,unconnected-(U9F-AREF-PadCN5_8)*%
X144350000Y-61120000D03*
%TO.P,U9,CN5_9,D14*%
%TO.N,unconnected-(U9F-D14-PadCN5_9)*%
X141810000Y-61120000D03*
%TO.P,U9,CN5_10,D15*%
%TO.N,unconnected-(U9F-D15-PadCN5_10)*%
X139270000Y-61120000D03*
D31*
%TO.P,U9,CN6_1*%
%TO.N,N/C*%
X148410000Y-109380000D03*
D32*
%TO.P,U9,CN6_2,CN6_IOREF*%
%TO.N,unconnected-(U9C-CN6_IOREF-PadCN6_2)*%
X150950000Y-109380000D03*
%TO.P,U9,CN6_3,CN6_RESET*%
%TO.N,unconnected-(U9C-CN6_RESET-PadCN6_3)*%
X153490000Y-109380000D03*
%TO.P,U9,CN6_4,CN6_+3V3*%
%TO.N,M3V3*%
X156030000Y-109380000D03*
%TO.P,U9,CN6_5,CN6_+5V*%
%TO.N,M5V*%
X158570000Y-109380000D03*
%TO.P,U9,CN6_6,CN6_GND*%
%TO.N,Net-(U9C-CN6_GND-PadCN6_6)*%
X161110000Y-109380000D03*
%TO.P,U9,CN6_7,CN6_GND*%
X163650000Y-109380000D03*
%TO.P,U9,CN6_8,CN6_VIN*%
%TO.N,unconnected-(U9C-CN6_VIN-PadCN6_8)*%
X166190000Y-109380000D03*
D33*
%TO.P,U9,CN7_1,PC10*%
%TO.N,DISPL_SCK*%
X138250000Y-117000000D03*
D34*
%TO.P,U9,CN7_2,PC11*%
%TO.N,DISPL_MISO*%
X138250000Y-114460000D03*
%TO.P,U9,CN7_3,PC12*%
%TO.N,UART5_TX*%
X140790000Y-117000000D03*
%TO.P,U9,CN7_4,PD2*%
%TO.N,UART5_RX*%
X140790000Y-114460000D03*
%TO.P,U9,CN7_5,VDD*%
%TO.N,unconnected-(U9A-VDD-PadCN7_5)*%
X143330000Y-117000000D03*
%TO.P,U9,CN7_6,E5V*%
%TO.N,5V_REG*%
X143330000Y-114460000D03*
%TO.P,U9,CN7_7,BOOT0*%
%TO.N,unconnected-(U9A-BOOT0-PadCN7_7)*%
X145870000Y-117000000D03*
%TO.P,U9,CN7_8,CN7_GND*%
%TO.N,GND*%
X145870000Y-114460000D03*
%TO.P,U9,CN7_9*%
%TO.N,N/C*%
X148410000Y-117000000D03*
%TO.P,U9,CN7_10*%
X148410000Y-114460000D03*
%TO.P,U9,CN7_11*%
X150950000Y-117000000D03*
%TO.P,U9,CN7_12,CN7_IOREF*%
%TO.N,unconnected-(U9A-CN7_IOREF-PadCN7_12)*%
X150950000Y-114460000D03*
%TO.P,U9,CN7_13,PA13*%
%TO.N,unconnected-(U9A-PA13-PadCN7_13)*%
X153490000Y-117000000D03*
%TO.P,U9,CN7_14,CN7_RESET*%
%TO.N,unconnected-(U9A-CN7_RESET-PadCN7_14)*%
X153490000Y-114460000D03*
%TO.P,U9,CN7_15,PA14*%
%TO.N,unconnected-(U9A-PA14-PadCN7_15)*%
X156030000Y-117000000D03*
%TO.P,U9,CN7_16,CN7_+3V3*%
%TO.N,unconnected-(U9A-CN7_+3V3-PadCN7_16)*%
X156030000Y-114460000D03*
%TO.P,U9,CN7_17,PA15*%
%TO.N,DISPL_BNESS*%
X158570000Y-117000000D03*
%TO.P,U9,CN7_18,CN7_+5V*%
%TO.N,unconnected-(U9A-CN7_+5V-PadCN7_18)*%
X158570000Y-114460000D03*
%TO.P,U9,CN7_19,CN7_GND*%
%TO.N,GND*%
X161110000Y-117000000D03*
%TO.P,U9,CN7_20,CN7_GND*%
X161110000Y-114460000D03*
%TO.P,U9,CN7_21,PB7*%
%TO.N,I2C1_SDA*%
X163650000Y-117000000D03*
%TO.P,U9,CN7_22,CN7_GND*%
%TO.N,GND*%
X163650000Y-114460000D03*
%TO.P,U9,CN7_23,PC13*%
%TO.N,unconnected-(U9A-PC13-PadCN7_23)*%
X166190000Y-117000000D03*
%TO.P,U9,CN7_24,CN7_VIN*%
%TO.N,unconnected-(U9A-CN7_VIN-PadCN7_24)*%
X166190000Y-114460000D03*
%TO.P,U9,CN7_25,PC14*%
%TO.N,unconnected-(U9A-PC14-PadCN7_25)*%
X168730000Y-117000000D03*
%TO.P,U9,CN7_26*%
%TO.N,N/C*%
X168730000Y-114460000D03*
%TO.P,U9,CN7_27,PC15*%
%TO.N,unconnected-(U9A-PC15-PadCN7_27)*%
X171270000Y-117000000D03*
%TO.P,U9,CN7_28,PA0*%
%TO.N,UART4_TX*%
X171270000Y-114460000D03*
%TO.P,U9,CN7_29,PH0*%
%TO.N,unconnected-(U9A-PH0-PadCN7_29)*%
X173810000Y-117000000D03*
%TO.P,U9,CN7_30,PA1*%
%TO.N,UART4_RX*%
X173810000Y-114460000D03*
%TO.P,U9,CN7_31,PH1*%
%TO.N,unconnected-(U9A-PH1-PadCN7_31)*%
X176350000Y-117000000D03*
%TO.P,U9,CN7_32,PA4*%
%TO.N,DAC_OUT*%
X176350000Y-114460000D03*
%TO.P,U9,CN7_33,VBAT*%
%TO.N,unconnected-(U9A-VBAT-PadCN7_33)*%
X178890000Y-117000000D03*
%TO.P,U9,CN7_34,PB0*%
%TO.N,W25Q64_NCS*%
X178890000Y-114460000D03*
%TO.P,U9,CN7_35,PC2*%
%TO.N,SPI2_MISO*%
X181430000Y-117000000D03*
%TO.P,U9,CN7_36,PC1/PB9*%
%TO.N,SPI2_MOSI*%
X181430000Y-114460000D03*
%TO.P,U9,CN7_37,PC3*%
%TO.N,I_PWR_MEAS*%
X183970000Y-117000000D03*
%TO.P,U9,CN7_38,PC0/PB8*%
%TO.N,U_PWR_MEAS*%
X183970000Y-114460000D03*
D31*
%TO.P,U9,CN8_1,A0*%
%TO.N,unconnected-(U9E-A0-PadCN8_1)*%
X171270000Y-109380000D03*
D32*
%TO.P,U9,CN8_2,A1*%
%TO.N,unconnected-(U9E-A1-PadCN8_2)*%
X173810000Y-109380000D03*
%TO.P,U9,CN8_3,A2*%
%TO.N,unconnected-(U9E-A2-PadCN8_3)*%
X176350000Y-109380000D03*
%TO.P,U9,CN8_4,A3*%
%TO.N,unconnected-(U9E-A3-PadCN8_4)*%
X178890000Y-109380000D03*
%TO.P,U9,CN8_5,A4*%
%TO.N,unconnected-(U9E-A4-PadCN8_5)*%
X181430000Y-109380000D03*
%TO.P,U9,CN8_6,A5*%
%TO.N,unconnected-(U9E-A5-PadCN8_6)*%
X183970000Y-109380000D03*
D31*
%TO.P,U9,CN9_1,D0*%
%TO.N,unconnected-(U9D-D0-PadCN9_1)*%
X183970000Y-61120000D03*
D32*
%TO.P,U9,CN9_2,D1*%
%TO.N,unconnected-(U9D-D1-PadCN9_2)*%
X181430000Y-61120000D03*
%TO.P,U9,CN9_3,D2*%
%TO.N,unconnected-(U9D-D2-PadCN9_3)*%
X178890000Y-61120000D03*
%TO.P,U9,CN9_4,D3*%
%TO.N,unconnected-(U9D-D3-PadCN9_4)*%
X176350000Y-61120000D03*
%TO.P,U9,CN9_5,D4*%
%TO.N,unconnected-(U9D-D4-PadCN9_5)*%
X173810000Y-61120000D03*
%TO.P,U9,CN9_6,D5*%
%TO.N,unconnected-(U9D-D5-PadCN9_6)*%
X171270000Y-61120000D03*
%TO.P,U9,CN9_7,D6*%
%TO.N,unconnected-(U9D-D6-PadCN9_7)*%
X168730000Y-61120000D03*
%TO.P,U9,CN9_8,D7*%
%TO.N,unconnected-(U9D-D7-PadCN9_8)*%
X166190000Y-61120000D03*
D33*
%TO.P,U9,CN10_1,PC9*%
%TO.N,PWM3*%
X138250000Y-56040000D03*
D34*
%TO.P,U9,CN10_2,PC8*%
%TO.N,EXTI3*%
X138250000Y-53500000D03*
%TO.P,U9,CN10_3,PB8*%
%TO.N,DISPL_TCH_CS*%
X140790000Y-56040000D03*
%TO.P,U9,CN10_4,PC6*%
%TO.N,SPI2_CS1*%
X140790000Y-53500000D03*
%TO.P,U9,CN10_5,PB9*%
%TO.N,DISPL_TIRQ*%
X143330000Y-56040000D03*
%TO.P,U9,CN10_6,PC5*%
%TO.N,ADC2*%
X143330000Y-53500000D03*
%TO.P,U9,CN10_7,AVDD*%
%TO.N,unconnected-(U9B-AVDD-PadCN10_7)*%
X145870000Y-56040000D03*
%TO.P,U9,CN10_8,U5V*%
%TO.N,unconnected-(U9B-U5V-PadCN10_8)*%
X145870000Y-53500000D03*
%TO.P,U9,CN10_9,CN10_GND*%
%TO.N,Net-(U9B-CN10_GND-PadCN10_20)*%
X148410000Y-56040000D03*
%TO.P,U9,CN10_10*%
%TO.N,N/C*%
X148410000Y-53500000D03*
%TO.P,U9,CN10_11,PA5*%
%TO.N,unconnected-(U9B-PA5-PadCN10_11)*%
X150950000Y-56040000D03*
%TO.P,U9,CN10_12,PA12*%
%TO.N,SPI2_CS0*%
X150950000Y-53500000D03*
%TO.P,U9,CN10_13,PA6*%
%TO.N,EXTI1*%
X153490000Y-56040000D03*
%TO.P,U9,CN10_14,PA11*%
%TO.N,PWM2*%
X153490000Y-53500000D03*
%TO.P,U9,CN10_15,PA7*%
%TO.N,EXTI2*%
X156030000Y-56040000D03*
%TO.P,U9,CN10_16,PB12*%
%TO.N,unconnected-(U9B-PB12-PadCN10_16)*%
X156030000Y-53500000D03*
%TO.P,U9,CN10_17,PB6*%
%TO.N,I2C1_SCL*%
X158570000Y-56040000D03*
%TO.P,U9,CN10_18*%
%TO.N,N/C*%
X158570000Y-53500000D03*
%TO.P,U9,CN10_19,PC7*%
%TO.N,SPI2_SCK*%
X161110000Y-56040000D03*
%TO.P,U9,CN10_20,CN10_GND*%
%TO.N,Net-(U9B-CN10_GND-PadCN10_20)*%
X161110000Y-53500000D03*
%TO.P,U9,CN10_21,PA9*%
%TO.N,USART1_TX*%
X163650000Y-56040000D03*
%TO.P,U9,CN10_22,PB2*%
%TO.N,25LC256_NCS*%
X163650000Y-53500000D03*
%TO.P,U9,CN10_23,PA8*%
%TO.N,PWM1*%
X166190000Y-56040000D03*
%TO.P,U9,CN10_24,PB1*%
%TO.N,25LC640_NCS*%
X166190000Y-53500000D03*
%TO.P,U9,CN10_25,PB10*%
%TO.N,unconnected-(U9B-PB10-PadCN10_25)*%
X168730000Y-56040000D03*
%TO.P,U9,CN10_26,PB15*%
%TO.N,DISPL_DC*%
X168730000Y-53500000D03*
%TO.P,U9,CN10_27,PB4*%
%TO.N,DISPL_RST*%
X171270000Y-56040000D03*
%TO.P,U9,CN10_28,PB14*%
%TO.N,WEMOS_RST*%
X171270000Y-53500000D03*
%TO.P,U9,CN10_29,PB5*%
%TO.N,DISPL_MOSI*%
X173810000Y-56040000D03*
%TO.P,U9,CN10_30,PB13*%
%TO.N,DISPL_CS*%
X173810000Y-53500000D03*
%TO.P,U9,CN10_31,PB3*%
%TO.N,unconnected-(U9B-PB3-PadCN10_31)*%
X176350000Y-56040000D03*
%TO.P,U9,CN10_32,AGND*%
%TO.N,unconnected-(U9B-AGND-PadCN10_32)*%
X176350000Y-53500000D03*
%TO.P,U9,CN10_33,PA10*%
%TO.N,USART1_RX*%
X178890000Y-56040000D03*
%TO.P,U9,CN10_34,PC4*%
%TO.N,ADC1*%
X178890000Y-53500000D03*
%TO.P,U9,CN10_35,PA2*%
%TO.N,unconnected-(U9B-PA2-PadCN10_35)*%
X181430000Y-56040000D03*
%TO.P,U9,CN10_36*%
%TO.N,N/C*%
X181430000Y-53500000D03*
%TO.P,U9,CN10_37,PA3*%
%TO.N,unconnected-(U9B-PA3-PadCN10_37)*%
X183970000Y-56040000D03*
%TO.P,U9,CN10_38*%
%TO.N,N/C*%
X183970000Y-53500000D03*
%TD*%
D21*
%TO.P,R18,1*%
%TO.N,Net-(D11-K)*%
X86687500Y-110870000D03*
%TO.P,R18,2*%
%TO.N,UART5_TX*%
X88512500Y-110870000D03*
%TD*%
%TO.P,R6,1*%
%TO.N,Net-(U2-RXD)*%
X125237500Y-70370000D03*
%TO.P,R6,2*%
%TO.N,USART1_TX*%
X127062500Y-70370000D03*
%TD*%
%TO.P,R16,1*%
%TO.N,Net-(D9-K)*%
X86687500Y-144020000D03*
%TO.P,R16,2*%
%TO.N,WUART1_RX*%
X88512500Y-144020000D03*
%TD*%
%TO.P,R17,1*%
%TO.N,Net-(D10-K)*%
X86937500Y-86120000D03*
%TO.P,R17,2*%
%TO.N,USART1_TX*%
X88762500Y-86120000D03*
%TD*%
D18*
%TO.P,C7,1*%
%TO.N,Net-(U4-XO)*%
X92425000Y-143870000D03*
%TO.P,C7,2*%
%TO.N,GND*%
X94325000Y-143870000D03*
%TD*%
D21*
%TO.P,R9,1*%
%TO.N,Net-(U4-TXD)*%
X125237500Y-98620000D03*
%TO.P,R9,2*%
%TO.N,WUART1_RX*%
X127062500Y-98620000D03*
%TD*%
D14*
%TO.P,PWR5V.3,1,Pin_1*%
%TO.N,5V_REG*%
X204750000Y-94500000D03*
D15*
%TO.P,PWR5V.3,2,Pin_2*%
%TO.N,GND*%
X204750000Y-97040000D03*
%TD*%
D23*
%TO.P,D6,1,K*%
%TO.N,Net-(D6-K)*%
X80200000Y-135620000D03*
%TO.P,D6,2,A*%
%TO.N,VBUS3*%
X83000000Y-135620000D03*
%TD*%
D21*
%TO.P,R7,1*%
%TO.N,Net-(U3-TXD)*%
X119275000Y-82620000D03*
%TO.P,R7,2*%
%TO.N,UART5_RX*%
X121100000Y-82620000D03*
%TD*%
D14*
%TO.P,SPI2.1,1,Pin_1*%
%TO.N,SPI2_CS0*%
X199050000Y-140870000D03*
D15*
%TO.P,SPI2.1,2,Pin_2*%
%TO.N,SPI2_SCK*%
X196510000Y-140870000D03*
%TO.P,SPI2.1,3,Pin_3*%
%TO.N,SPI2_MOSI*%
X193970000Y-140870000D03*
%TO.P,SPI2.1,4,Pin_4*%
%TO.N,SPI2_MISO*%
X191430000Y-140870000D03*
%TO.P,SPI2.1,5,Pin_5*%
%TO.N,5V_REG*%
X188890000Y-140870000D03*
%TO.P,SPI2.1,6,Pin_6*%
%TO.N,GND*%
X186350000Y-140870000D03*
%TD*%
D21*
%TO.P,R25,1*%
%TO.N,Net-(D14-K)*%
X128430000Y-137845000D03*
%TO.P,R25,2*%
%TO.N,GND*%
X130255000Y-137845000D03*
%TD*%
D19*
%TO.P,J3,1,VBUS*%
%TO.N,VBUS2*%
X87290900Y-101023100D03*
%TO.P,J3,2,D-*%
%TO.N,D2-*%
X86090900Y-101823099D03*
%TO.P,J3,3,D+*%
%TO.N,D2+*%
X87290900Y-102623100D03*
%TO.P,J3,4,ID*%
%TO.N,unconnected-(J3-ID-Pad4)*%
X86090900Y-103423101D03*
%TO.P,J3,5,GND*%
%TO.N,GND*%
X87290900Y-104223099D03*
D20*
%TO.P,J3,6*%
%TO.N,N/C*%
X82240900Y-98973099D03*
%TO.P,J3,7*%
X82240900Y-106273100D03*
%TD*%
D21*
%TO.P,R12,1*%
%TO.N,Net-(D5-K)*%
X86687500Y-114870000D03*
%TO.P,R12,2*%
%TO.N,GND*%
X88512500Y-114870000D03*
%TD*%
D24*
%TO.P,D15,2,A*%
%TO.N,Net-(D15-A)*%
X103500000Y-146100000D03*
%TO.P,D15,1,K*%
%TO.N,Net-(D15-K)*%
X103500000Y-148900000D03*
%TD*%
D18*
%TO.P,C10,1*%
%TO.N,Net-(U4-V3)*%
X125150000Y-106620000D03*
%TO.P,C10,2*%
%TO.N,GND*%
X127050000Y-106620000D03*
%TD*%
%TO.P,C13,1*%
%TO.N,VBUS3*%
X125200000Y-94620000D03*
%TO.P,C13,2*%
%TO.N,GND*%
X127100000Y-94620000D03*
%TD*%
D14*
%TO.P,I2C1.3,1,Pin_1*%
%TO.N,I2C1_SCL*%
X178850000Y-140870000D03*
D15*
%TO.P,I2C1.3,2,Pin_2*%
%TO.N,I2C1_SDA*%
X176310000Y-140870000D03*
%TO.P,I2C1.3,3,Pin_3*%
%TO.N,5V_REG*%
X173770000Y-140870000D03*
%TO.P,I2C1.3,4,Pin_4*%
%TO.N,GND*%
X171230000Y-140870000D03*
%TD*%
D21*
%TO.P,R13,1*%
%TO.N,Net-(D6-K)*%
X86687500Y-139870000D03*
%TO.P,R13,2*%
%TO.N,GND*%
X88512500Y-139870000D03*
%TD*%
D24*
%TO.P,D13,1,K*%
%TO.N,Net-(D13-K)*%
X96720000Y-148900000D03*
%TO.P,D13,2,A*%
%TO.N,Net-(D13-A)*%
X96720000Y-146100000D03*
%TD*%
D22*
%TO.P,U11,1,32KHZ*%
%TO.N,unconnected-(U11-32KHZ-Pad1)*%
X136905000Y-102520000D03*
%TO.P,U11,2,VCC*%
%TO.N,M5V*%
X138175000Y-102520000D03*
%TO.P,U11,3,~{INT}/SQW*%
%TO.N,unconnected-(U11-~{INT}{slash}SQW-Pad3)*%
X139445000Y-102520000D03*
%TO.P,U11,4,~{RST}*%
%TO.N,unconnected-(U11-~{RST}-Pad4)*%
X140715000Y-102520000D03*
%TO.P,U11,5,GND*%
%TO.N,GND*%
X141985000Y-102520000D03*
%TO.P,U11,6,GND*%
X143255000Y-102520000D03*
%TO.P,U11,7,GND*%
X144525000Y-102520000D03*
%TO.P,U11,8,GND*%
X145795000Y-102520000D03*
%TO.P,U11,9,GND*%
X145795000Y-93220000D03*
%TO.P,U11,10,GND*%
X144525000Y-93220000D03*
%TO.P,U11,11,GND*%
X143255000Y-93220000D03*
%TO.P,U11,12,GND*%
X141985000Y-93220000D03*
%TO.P,U11,13,GND*%
X140715000Y-93220000D03*
%TO.P,U11,14,VBAT*%
%TO.N,Net-(U11-VBAT)*%
X139445000Y-93220000D03*
%TO.P,U11,15,SDA*%
%TO.N,I2C1_SDA*%
X138175000Y-93220000D03*
%TO.P,U11,16,SCL*%
%TO.N,I2C1_SCL*%
X136905000Y-93220000D03*
%TD*%
D35*
%TO.P,U5,1,GND*%
%TO.N,GND*%
X148050000Y-87520000D03*
%TO.P,U5,2,VO*%
%TO.N,Net-(U5-VO)*%
X150350000Y-87520000D03*
D36*
X150350000Y-81220000D03*
D35*
%TO.P,U5,3,VI*%
%TO.N,M5V*%
X152650000Y-87520000D03*
%TD*%
D37*
%TO.N,Net-(D13-K)*%
X116234400Y-149444300D03*
X118650000Y-134895000D03*
%TO.N,Net-(U11-VBAT)*%
X152106400Y-91867500D03*
%TO.N,Net-(U5-VO)*%
X149322800Y-77543300D03*
X147626400Y-68773900D03*
%TO.N,I_PWR_MEAS*%
X129479600Y-112166800D03*
X121924200Y-66235000D03*
%TO.N,SPI2_CS1*%
X144783800Y-144759000D03*
%TO.N,SPI2_CS0*%
X146987800Y-137152700D03*
%TO.N,Net-(U4-RXD)*%
X110660200Y-102620000D03*
X103839200Y-125330000D03*
%TO.N,Net-(U4-TXD)*%
X97640800Y-106647300D03*
X97640800Y-124695000D03*
%TO.N,UART4_RX*%
X172497700Y-119497700D03*
%TO.N,WEMOS_RST*%
X116110000Y-54911500D03*
%TO.N,PWM3*%
X140177300Y-110262500D03*
%TO.N,PWM2*%
X154611000Y-112389800D03*
%TO.N,PWM1*%
X195783800Y-59605000D03*
%TO.N,EXTI3*%
X202421800Y-54991800D03*
%TO.N,EXTI2*%
X155944500Y-73490100D03*
%TO.N,Net-(EXIO.2-Pin_4)*%
X190213700Y-70671900D03*
%TO.N,Net-(EXIO.2-Pin_8)*%
X177474100Y-72667700D03*
%TO.N,Net-(EXIO.2-Pin_1)*%
X188847300Y-124986400D03*
X186575100Y-68550100D03*
%TO.N,Net-(EXIO.2-Pin_3)*%
X187419500Y-126796600D03*
X181167300Y-70470800D03*
%TO.N,Net-(EXIO.2-Pin_5)*%
X183939400Y-71474300D03*
%TO.N,Net-(EXIO.2-Pin_2)*%
X197432500Y-69796600D03*
%TO.N,Net-(EXIO.2-Pin_6)*%
X183261500Y-72076100D03*
%TO.N,Net-(EXIO.2-Pin_7)*%
X170660500Y-123679700D03*
X164495900Y-71805000D03*
%TO.N,Net-(EXIO.1-Pin_4)*%
X190610300Y-86436800D03*
%TO.N,Net-(EXIO.1-Pin_5)*%
X189656200Y-83697900D03*
%TO.N,I2C1_SCL*%
X158404000Y-75064400D03*
X158404000Y-82654800D03*
X173510500Y-87386300D03*
%TO.N,Net-(EXIO.1-Pin_8)*%
X172036100Y-123976300D03*
X170165800Y-79547500D03*
%TO.N,Net-(EXIO.1-Pin_1)*%
X200770600Y-80022800D03*
%TO.N,Net-(EXIO.1-Pin_3)*%
X162330200Y-123078000D03*
X162330200Y-79552500D03*
%TO.N,Net-(EXIO.1-Pin_7)*%
X185074200Y-127364500D03*
X166625500Y-79382900D03*
X166323500Y-103716200D03*
X182947500Y-103716200D03*
%TO.N,Net-(EXIO.1-Pin_6)*%
X189048100Y-80195800D03*
%TO.N,Net-(EXIO.1-Pin_2)*%
X201790000Y-87518100D03*
%TO.N,I2C1_SDA*%
X164755200Y-89730200D03*
X165285400Y-88233200D03*
X165829200Y-74578100D03*
%TO.N,U_PWR_MEAS*%
X130372900Y-107328300D03*
X124247900Y-64238300D03*
%TO.N,DISPL_TCH_CS*%
X187555500Y-60795600D03*
X190815400Y-78180000D03*
%TO.N,W25Q64_NCS3V3*%
X154002500Y-99670000D03*
X147617500Y-76459700D03*
%TO.N,DISPL_SCK*%
X144820800Y-74041600D03*
%TO.N,DISPL_MOSI*%
X175034200Y-65323400D03*
%TO.N,M5V*%
X159142200Y-86194500D03*
X157797800Y-67349800D03*
X123616900Y-64965000D03*
X128314700Y-69623500D03*
X157797800Y-76410200D03*
%TO.N,25LC640_NCS*%
X167363100Y-63079200D03*
X138163600Y-63079200D03*
X136123100Y-85924000D03*
%TO.N,25LC256_NCS*%
X163679300Y-64137100D03*
X135143900Y-64296700D03*
X135143900Y-74781900D03*
%TO.N,SPI2_MISO*%
X181430000Y-118795800D03*
X149538500Y-118795800D03*
X147873600Y-77812600D03*
%TO.N,SPI2_SCK*%
X160986200Y-65591200D03*
X139540300Y-68413900D03*
X139540300Y-79417300D03*
X188606200Y-65950600D03*
%TO.N,SPI2_MOSI*%
X178846100Y-66559300D03*
X142619200Y-69895000D03*
X143253200Y-80338900D03*
%TO.N,DISPL_TIRQ*%
X187795300Y-59810500D03*
%TO.N,DISPL_BNESS*%
X159841600Y-72878800D03*
%TO.N,W25Q64_NCS*%
X177620000Y-96823200D03*
%TO.N,DISPL_DC*%
X172629900Y-63415000D03*
%TO.N,DISPL_MISO*%
X139351300Y-110363200D03*
X192728300Y-111564600D03*
%TO.N,5V_REG*%
X120429400Y-65600000D03*
X203120000Y-142503300D03*
%TO.N,DAC_OUT*%
X195013400Y-113809700D03*
%TO.N,WUART1_TX*%
X121125900Y-103761300D03*
X93799700Y-135620000D03*
X97019400Y-122397700D03*
X118818300Y-122397700D03*
%TO.N,WUART1_RX*%
X122460000Y-100644300D03*
X122460000Y-118381200D03*
X97031400Y-118381200D03*
X90859400Y-144983600D03*
%TO.N,UART5_TX*%
X120458900Y-87834900D03*
X120458900Y-115535500D03*
X120458900Y-112162300D03*
%TO.N,UART5_RX*%
X138850000Y-87217400D03*
%TO.N,USART1_TX*%
X159623400Y-64989400D03*
%TO.N,USART1_RX*%
X94925200Y-61845700D03*
X89684200Y-93968900D03*
X177708200Y-62786200D03*
%TO.N,Net-(D1-K)*%
X96516600Y-60543600D03*
X95494900Y-69127900D03*
%TO.N,Net-(U3-XO)*%
X95220000Y-108140900D03*
%TO.N,Net-(U4-V3)*%
X98443400Y-127235000D03*
X98443400Y-107950900D03*
%TO.N,Net-(U4-XI)*%
X104690100Y-110620000D03*
%TO.N,ADC2*%
X201800000Y-54465100D03*
%TO.N,ADC1*%
X180160000Y-82565300D03*
%TO.N,VBUS3*%
X105299800Y-100833500D03*
X105299800Y-123018500D03*
X85110400Y-135967100D03*
X84995000Y-142838000D03*
%TO.N,VBUS2*%
X85131000Y-110698200D03*
X103464500Y-98425000D03*
X103464500Y-78620000D03*
%TO.N,VBUS1*%
X84658400Y-86224700D03*
%TO.N,GND*%
X87290900Y-138655400D03*
X194773900Y-67769800D03*
X89549100Y-114716200D03*
X88201300Y-123425000D03*
X91263000Y-98253800D03*
X88189500Y-66097300D03*
X120466200Y-77482300D03*
X88189500Y-71731800D03*
X118410000Y-68775000D03*
%TD*%
D38*
%TO.N,Net-(D14-K)*%
X129272500Y-138687500D02*
X128430000Y-137845000D01*
X124903800Y-145822600D02*
X129272500Y-141453900D01*
X119835000Y-145822600D02*
X124903800Y-145822600D01*
X129272500Y-141453900D02*
X129272500Y-138687500D01*
X118650000Y-147007600D02*
X119835000Y-145822600D01*
X101758000Y-150248100D02*
X118151900Y-150248100D01*
X118151900Y-150248100D02*
X118650000Y-149750000D01*
X118650000Y-149750000D02*
X118650000Y-147007600D01*
X100409900Y-148900000D02*
X101758000Y-150248100D01*
X100110000Y-148900000D02*
X100409900Y-148900000D01*
%TO.N,Net-(D15-A)*%
X96149800Y-150649800D02*
X119450200Y-150649800D01*
X95000000Y-148300000D02*
X95000000Y-149500000D01*
X95800000Y-147500000D02*
X95000000Y-148300000D01*
X102100000Y-147500000D02*
X95800000Y-147500000D01*
X119450200Y-150649800D02*
X122460000Y-147640000D01*
X103500000Y-146100000D02*
X102100000Y-147500000D01*
X95000000Y-149500000D02*
X96149800Y-150649800D01*
X122460000Y-147640000D02*
X122460000Y-147500000D01*
%TO.N,Net-(D14-A)*%
X99182300Y-147027700D02*
X100110000Y-146100000D01*
X94400000Y-149900000D02*
X94400000Y-147800000D01*
X94400000Y-147800000D02*
X95172300Y-147027700D01*
X95551500Y-151051500D02*
X94400000Y-149900000D01*
X95172300Y-147027700D02*
X99182300Y-147027700D01*
X120675100Y-151051500D02*
X95551500Y-151051500D01*
X124226600Y-147500000D02*
X120675100Y-151051500D01*
X125000000Y-147500000D02*
X124226600Y-147500000D01*
%TO.N,Net-(D13-A)*%
X95000000Y-146100000D02*
X96720000Y-146100000D01*
X93800000Y-147300000D02*
X95000000Y-146100000D01*
X94853200Y-151453200D02*
X93800000Y-150400000D01*
X122898200Y-151453200D02*
X94853200Y-151453200D01*
X93800000Y-150400000D02*
X93800000Y-147300000D01*
X126851400Y-147500000D02*
X122898200Y-151453200D01*
X127540000Y-147500000D02*
X126851400Y-147500000D01*
%TO.N,Net-(D13-K)*%
X102346400Y-149846400D02*
X115518100Y-149846400D01*
X101924300Y-149424300D02*
X102346400Y-149846400D01*
X100951100Y-147937000D02*
X101924300Y-148910200D01*
X97683000Y-147937000D02*
X100951100Y-147937000D01*
X115920200Y-149444300D02*
X116234400Y-149444300D01*
X96720000Y-148900000D02*
X97683000Y-147937000D01*
X101924300Y-148910200D02*
X101924300Y-149424300D01*
X115518100Y-149846400D02*
X115920200Y-149444300D01*
%TO.N,USART1_RX*%
X138691329Y-63400000D02*
X138412129Y-63679200D01*
X166100000Y-63400000D02*
X138691329Y-63400000D01*
X166400000Y-63700000D02*
X166100000Y-63400000D01*
X171433900Y-63700000D02*
X166400000Y-63700000D01*
X138412129Y-63679200D02*
X128357000Y-63679200D01*
X172347700Y-62786200D02*
X171433900Y-63700000D01*
X128357000Y-63679200D02*
X128349900Y-63686300D01*
X177708200Y-62786200D02*
X172347700Y-62786200D01*
%TO.N,25LC256_NCS*%
X135147200Y-64300000D02*
X135143900Y-64296700D01*
X163516400Y-64300000D02*
X135147200Y-64300000D01*
X163679300Y-64137100D02*
X163516400Y-64300000D01*
%TO.N,25LC640_NCS*%
X138442800Y-62800000D02*
X138163600Y-63079200D01*
X167083900Y-62800000D02*
X138442800Y-62800000D01*
X167363100Y-63079200D02*
X167083900Y-62800000D01*
%TO.N,DISPL_TCH_CS*%
X187555500Y-60755500D02*
X187555500Y-60795600D01*
X186786200Y-59986200D02*
X187555500Y-60755500D01*
X144736200Y-59986200D02*
X186786200Y-59986200D01*
X140790000Y-56040000D02*
X144736200Y-59986200D01*
%TO.N,DISPL_TIRQ*%
X146790000Y-59500000D02*
X143330000Y-56040000D01*
X187484800Y-59500000D02*
X146790000Y-59500000D01*
X187795300Y-59810500D02*
X187484800Y-59500000D01*
%TO.N,EXTI1*%
X188700000Y-59000000D02*
X156450000Y-59000000D01*
X156450000Y-59000000D02*
X153490000Y-56040000D01*
X191786300Y-62086300D02*
X188700000Y-59000000D01*
X202159600Y-62086300D02*
X191786300Y-62086300D01*
X204750000Y-63525000D02*
X203598300Y-63525000D01*
X203598300Y-63525000D02*
X202159600Y-62086300D01*
%TO.N,DISPL_RST*%
X189473300Y-58500000D02*
X173730000Y-58500000D01*
X173730000Y-58500000D02*
X171270000Y-56040000D01*
X191848300Y-60875000D02*
X189473300Y-58500000D01*
X193000000Y-60875000D02*
X191848300Y-60875000D01*
%TO.N,PWM1*%
X171662400Y-54923600D02*
X167306400Y-54923600D01*
X172540000Y-55801200D02*
X171662400Y-54923600D01*
X172540000Y-56298400D02*
X172540000Y-55801200D01*
X190400000Y-57900000D02*
X174141600Y-57900000D01*
X174141600Y-57900000D02*
X172540000Y-56298400D01*
X192105000Y-59605000D02*
X190400000Y-57900000D01*
X195783800Y-59605000D02*
X192105000Y-59605000D01*
X167306400Y-54923600D02*
X166190000Y-56040000D01*
%TO.N,DISPL_CS*%
X175080000Y-54770000D02*
X173810000Y-53500000D01*
X180800000Y-57400000D02*
X180160000Y-56760000D01*
X180160000Y-55801200D02*
X179128800Y-54770000D01*
X190913300Y-57400000D02*
X180800000Y-57400000D01*
X191848300Y-58335000D02*
X190913300Y-57400000D01*
X179128800Y-54770000D02*
X175080000Y-54770000D01*
X193000000Y-58335000D02*
X191848300Y-58335000D01*
X180160000Y-56760000D02*
X180160000Y-55801200D01*
%TO.N,EXTI3*%
X142250000Y-49500000D02*
X138250000Y-53500000D01*
X198200000Y-49500000D02*
X142250000Y-49500000D01*
X202421800Y-54991800D02*
X202421800Y-53721800D01*
X202421800Y-53721800D02*
X198200000Y-49500000D01*
%TO.N,WEMOS_RST*%
X149680000Y-53750400D02*
X148518900Y-54911500D01*
X149680000Y-53243400D02*
X149680000Y-53750400D01*
X148518900Y-54911500D02*
X116110000Y-54911500D01*
X151523400Y-51400000D02*
X149680000Y-53243400D01*
X169170000Y-51400000D02*
X151523400Y-51400000D01*
X171270000Y-53500000D02*
X169170000Y-51400000D01*
%TO.N,ADC2*%
X146430000Y-50400000D02*
X143330000Y-53500000D01*
X197734900Y-50400000D02*
X146430000Y-50400000D01*
X201800000Y-54465100D02*
X197734900Y-50400000D01*
%TO.N,Net-(D13-K)*%
X128430000Y-134895000D02*
X118650000Y-134895000D01*
%TO.N,Net-(U11-VBAT)*%
X140303700Y-91867500D02*
X152106400Y-91867500D01*
X139445000Y-92726200D02*
X140303700Y-91867500D01*
X139445000Y-93220000D02*
X139445000Y-92726200D01*
%TO.N,Net-(U9B-CN10_GND-PadCN10_20)*%
X149680000Y-54770000D02*
X148410000Y-56040000D01*
X159840000Y-54770000D02*
X149680000Y-54770000D01*
X161110000Y-53500000D02*
X159840000Y-54770000D01*
%TO.N,Net-(U9C-CN6_GND-PadCN6_6)*%
X163650000Y-109380000D02*
X161110000Y-109380000D01*
%TO.N,Net-(U5-VO)*%
X148445000Y-68770000D02*
X149715000Y-68770000D01*
X150350000Y-81220000D02*
X150350000Y-87520000D01*
X148441100Y-68773900D02*
X148445000Y-68770000D01*
X147626400Y-68773900D02*
X148441100Y-68773900D01*
X150350000Y-76605000D02*
X150350000Y-77543300D01*
X150985000Y-75970000D02*
X150350000Y-76605000D01*
X150350000Y-77543300D02*
X150350000Y-81220000D01*
X150350000Y-77543300D02*
X149322800Y-77543300D01*
%TO.N,I_PWR_MEAS*%
X102325000Y-66235000D02*
X121924200Y-66235000D01*
X182700000Y-115730000D02*
X183970000Y-117000000D01*
X181191200Y-115730000D02*
X182700000Y-115730000D01*
X180160100Y-114698900D02*
X181191200Y-115730000D01*
X180160100Y-114209200D02*
X180160100Y-114698900D01*
X179344200Y-113393300D02*
X180160100Y-114209200D01*
X148991200Y-113393300D02*
X179344200Y-113393300D01*
X147764700Y-112166800D02*
X148991200Y-113393300D01*
X129479600Y-112166800D02*
X147764700Y-112166800D01*
%TO.N,SPI2_CS1*%
X199090000Y-147020000D02*
X197938300Y-147020000D01*
X195965200Y-144759000D02*
X144783800Y-144759000D01*
X197938300Y-146732100D02*
X195965200Y-144759000D01*
X197938300Y-147020000D02*
X197938300Y-146732100D01*
%TO.N,SPI2_CS0*%
X199050000Y-140870000D02*
X197898300Y-140870000D01*
X194469000Y-137152700D02*
X146987800Y-137152700D01*
X197898300Y-140582000D02*
X194469000Y-137152700D01*
X197898300Y-140870000D02*
X197898300Y-140582000D01*
%TO.N,Net-(U4-RXD)*%
X125237500Y-102620000D02*
X110660200Y-102620000D01*
X95760000Y-125330000D02*
X103839200Y-125330000D01*
X95125000Y-125965000D02*
X95760000Y-125330000D01*
%TO.N,Net-(U4-TXD)*%
X97640800Y-124695000D02*
X95125000Y-124695000D01*
X101219100Y-106647300D02*
X97640800Y-106647300D01*
X106092700Y-101773700D02*
X101219100Y-106647300D01*
X119443800Y-101773700D02*
X106092700Y-101773700D01*
X122597500Y-98620000D02*
X119443800Y-101773700D01*
X125237500Y-98620000D02*
X122597500Y-98620000D01*
%TO.N,UART4_RX*%
X114840000Y-124640000D02*
X115941700Y-124640000D01*
X130909200Y-119497700D02*
X172497700Y-119497700D01*
X126270000Y-124136900D02*
X130909200Y-119497700D01*
X126270000Y-125151300D02*
X126270000Y-124136900D01*
X125476600Y-125944700D02*
X126270000Y-125151300D01*
X116918100Y-125944700D02*
X125476600Y-125944700D01*
X115941700Y-124968300D02*
X116918100Y-125944700D01*
X115941700Y-124640000D02*
X115941700Y-124968300D01*
%TO.N,M3V3*%
X204750000Y-105275000D02*
X199000000Y-105275000D01*
X194391700Y-105275000D02*
X194351700Y-105235000D01*
X199000000Y-105275000D02*
X194391700Y-105275000D01*
X193200000Y-105235000D02*
X194351700Y-105235000D01*
X157144900Y-110494900D02*
X156030000Y-109380000D01*
X159019000Y-110494900D02*
X157144900Y-110494900D01*
X159840000Y-109673900D02*
X159019000Y-110494900D01*
X159840000Y-109069400D02*
X159840000Y-109673900D01*
X163674400Y-105235000D02*
X159840000Y-109069400D01*
X193200000Y-105235000D02*
X163674400Y-105235000D01*
%TO.N,PWM3*%
X204750000Y-116025000D02*
X203598300Y-116025000D01*
X140876300Y-110961500D02*
X140177300Y-110262500D01*
X198534800Y-110961500D02*
X140876300Y-110961500D01*
X203598300Y-116025000D02*
X198534800Y-110961500D01*
%TO.N,PWM2*%
X199000000Y-116000000D02*
X197848300Y-116000000D01*
X194444400Y-112389800D02*
X154611000Y-112389800D01*
X197848300Y-115793700D02*
X194444400Y-112389800D01*
X197848300Y-116000000D02*
X197848300Y-115793700D01*
%TO.N,Net-(J1-VBUS)*%
X89390900Y-57623100D02*
X87290900Y-55523100D01*
X89390900Y-58665900D02*
X89390900Y-57623100D01*
X95433400Y-58665900D02*
X89390900Y-58665900D01*
X96709400Y-59941900D02*
X95433400Y-58665900D01*
X96765800Y-59941900D02*
X96709400Y-59941900D01*
X97118300Y-60294400D02*
X96765800Y-59941900D01*
X97118300Y-60350800D02*
X97118300Y-60294400D01*
X97637500Y-60870000D02*
X97118300Y-60350800D01*
X84665600Y-66848100D02*
X86687500Y-68870000D01*
X79737100Y-66848100D02*
X84665600Y-66848100D01*
X78836800Y-65947800D02*
X79737100Y-66848100D01*
X78836800Y-63857500D02*
X78836800Y-65947800D01*
X80653200Y-62041100D02*
X78836800Y-63857500D01*
X86015700Y-62041100D02*
X80653200Y-62041100D01*
X89390900Y-58665900D02*
X86015700Y-62041100D01*
%TO.N,EXTI2*%
X198850000Y-73750000D02*
X197698300Y-73750000D01*
X196347600Y-72399300D02*
X197698300Y-73750000D01*
X191599300Y-72399300D02*
X196347600Y-72399300D01*
X190327500Y-73671100D02*
X191599300Y-72399300D01*
X177058700Y-73671100D02*
X190327500Y-73671100D01*
X176877700Y-73490100D02*
X177058700Y-73671100D01*
X155944500Y-73490100D02*
X176877700Y-73490100D01*
%TO.N,Net-(EXIO.2-Pin_4)*%
X182018100Y-70671900D02*
X190213700Y-70671900D01*
X181617400Y-71072600D02*
X182018100Y-70671900D01*
X180918200Y-71072600D02*
X181617400Y-71072600D01*
X180917900Y-71072300D02*
X180918200Y-71072600D01*
X178165900Y-71072300D02*
X180917900Y-71072300D01*
X177975700Y-71262500D02*
X178165900Y-71072300D01*
X166813400Y-71262500D02*
X177975700Y-71262500D01*
X164675000Y-69124100D02*
X166813400Y-71262500D01*
X164675000Y-68720000D02*
X164675000Y-69124100D01*
%TO.N,Net-(EXIO.2-Pin_8)*%
X163085300Y-72667700D02*
X177474100Y-72667700D01*
X159595000Y-69177400D02*
X163085300Y-72667700D01*
X159595000Y-68720000D02*
X159595000Y-69177400D01*
%TO.N,UART4_TX*%
X117380000Y-124640000D02*
X118481700Y-124640000D01*
X118481700Y-124226900D02*
X118481700Y-124640000D01*
X124614700Y-118093900D02*
X118481700Y-124226900D01*
X164128500Y-118093900D02*
X124614700Y-118093900D01*
X164920000Y-117302400D02*
X164128500Y-118093900D01*
X164920000Y-116704100D02*
X164920000Y-117302400D01*
X165894100Y-115730000D02*
X164920000Y-116704100D01*
X170000000Y-115730000D02*
X165894100Y-115730000D01*
X171270000Y-114460000D02*
X170000000Y-115730000D01*
%TO.N,Net-(EXIO.2-Pin_1)*%
X192090000Y-124986400D02*
X188847300Y-124986400D01*
X195440000Y-128336400D02*
X192090000Y-124986400D01*
X195440000Y-129103000D02*
X195440000Y-128336400D01*
X200055300Y-133718300D02*
X195440000Y-129103000D01*
X202314600Y-133718300D02*
X200055300Y-133718300D01*
X203178300Y-134582000D02*
X202314600Y-133718300D01*
X203178300Y-134870000D02*
X203178300Y-134582000D01*
X168485000Y-69114700D02*
X168485000Y-68720000D01*
X169427700Y-70057400D02*
X168485000Y-69114700D01*
X177265100Y-70057400D02*
X169427700Y-70057400D01*
X178772400Y-68550100D02*
X177265100Y-70057400D01*
X186575100Y-68550100D02*
X178772400Y-68550100D01*
X204330000Y-134870000D02*
X203178300Y-134870000D01*
%TO.N,Net-(EXIO.2-Pin_3)*%
X188864000Y-126796600D02*
X187419500Y-126796600D01*
X190360000Y-128292600D02*
X188864000Y-126796600D01*
X190360000Y-129093300D02*
X190360000Y-128292600D01*
X194985000Y-133718300D02*
X190360000Y-129093300D01*
X197234600Y-133718300D02*
X194985000Y-133718300D01*
X198098300Y-134582000D02*
X197234600Y-133718300D01*
X198098300Y-134870000D02*
X198098300Y-134582000D01*
X199250000Y-134870000D02*
X198098300Y-134870000D01*
X178199400Y-70470800D02*
X181167300Y-70470800D01*
X177809400Y-70860800D02*
X178199400Y-70470800D01*
X167610500Y-70860800D02*
X177809400Y-70860800D01*
X165945000Y-69195300D02*
X167610500Y-70860800D01*
X165945000Y-68720000D02*
X165945000Y-69195300D01*
%TO.N,Net-(EXIO.2-Pin_5)*%
X180751900Y-71474300D02*
X183939400Y-71474300D01*
X180751600Y-71474000D02*
X180751900Y-71474300D01*
X178332200Y-71474000D02*
X180751600Y-71474000D01*
X178142000Y-71664200D02*
X178332200Y-71474000D01*
X165873300Y-71664200D02*
X178142000Y-71664200D01*
X163405000Y-69195900D02*
X165873300Y-71664200D01*
X163405000Y-68720000D02*
X163405000Y-69195900D01*
%TO.N,Net-(EXIO.2-Pin_2)*%
X178139300Y-69796600D02*
X197432500Y-69796600D01*
X177476800Y-70459100D02*
X178139300Y-69796600D01*
X168461100Y-70459100D02*
X177476800Y-70459100D01*
X167215000Y-69213000D02*
X168461100Y-70459100D01*
X167215000Y-68720000D02*
X167215000Y-69213000D01*
%TO.N,Net-(EXIO.2-Pin_6)*%
X183251300Y-72065900D02*
X183261500Y-72076100D01*
X165607700Y-72065900D02*
X183251300Y-72065900D01*
X164745100Y-71203300D02*
X165607700Y-72065900D01*
X164215500Y-71203300D02*
X164745100Y-71203300D01*
X162135000Y-69122800D02*
X164215500Y-71203300D01*
X162135000Y-68720000D02*
X162135000Y-69122800D01*
%TO.N,Net-(EXIO.2-Pin_7)*%
X174117100Y-127136300D02*
X170660500Y-123679700D01*
X180492500Y-127136300D02*
X174117100Y-127136300D01*
X187938300Y-134582100D02*
X180492500Y-127136300D01*
X187938300Y-134870000D02*
X187938300Y-134582100D01*
X160865000Y-69208600D02*
X160865000Y-68720000D01*
X163461400Y-71805000D02*
X160865000Y-69208600D01*
X164495900Y-71805000D02*
X163461400Y-71805000D01*
X189090000Y-134870000D02*
X187938300Y-134870000D01*
%TO.N,Net-(EXIO.1-Pin_4)*%
X163405000Y-78870300D02*
X163405000Y-78020000D01*
X165935600Y-81400900D02*
X163405000Y-78870300D01*
X175717800Y-81400900D02*
X165935600Y-81400900D01*
X180753700Y-86436800D02*
X175717800Y-81400900D01*
X190610300Y-86436800D02*
X180753700Y-86436800D01*
%TO.N,Net-(EXIO.1-Pin_5)*%
X164675000Y-79572200D02*
X164675000Y-78020000D01*
X166102000Y-80999200D02*
X164675000Y-79572200D01*
X175907600Y-80999200D02*
X166102000Y-80999200D01*
X178606300Y-83697900D02*
X175907600Y-80999200D01*
X189656200Y-83697900D02*
X178606300Y-83697900D01*
%TO.N,I2C1_SCL*%
X175204300Y-84120000D02*
X175512500Y-84120000D01*
X173739100Y-82654800D02*
X175204300Y-84120000D01*
X158404000Y-82654800D02*
X173739100Y-82654800D01*
X173565000Y-77522300D02*
X173565000Y-78020000D01*
X171222500Y-75179800D02*
X173565000Y-77522300D01*
X158519400Y-75179800D02*
X171222500Y-75179800D01*
X158404000Y-75064400D02*
X158519400Y-75179800D01*
X175204300Y-85692500D02*
X175204300Y-84120000D01*
X173510500Y-87386300D02*
X175204300Y-85692500D01*
X171988800Y-88908000D02*
X173510500Y-87386300D01*
X152105900Y-88908000D02*
X171988800Y-88908000D01*
X151704200Y-89309700D02*
X152105900Y-88908000D01*
X140359500Y-89309700D02*
X151704200Y-89309700D01*
X136905000Y-92764200D02*
X140359500Y-89309700D01*
X136905000Y-93220000D02*
X136905000Y-92764200D01*
%TO.N,Net-(EXIO.1-Pin_8)*%
X186550000Y-128720000D02*
X185398300Y-128720000D01*
X180654600Y-123976300D02*
X185398300Y-128720000D01*
X172036100Y-123976300D02*
X180654600Y-123976300D01*
X169535100Y-79547500D02*
X170165800Y-79547500D01*
X168485000Y-78497400D02*
X169535100Y-79547500D01*
X168485000Y-78020000D02*
X168485000Y-78497400D01*
%TO.N,Net-(EXIO.1-Pin_1)*%
X159595000Y-77552400D02*
X159595000Y-78020000D01*
X160520600Y-76626800D02*
X159595000Y-77552400D01*
X164961800Y-76626800D02*
X160520600Y-76626800D01*
X165309900Y-76974900D02*
X164961800Y-76626800D01*
X165309900Y-79556500D02*
X165309900Y-76974900D01*
X166350900Y-80597500D02*
X165309900Y-79556500D01*
X179041000Y-80597500D02*
X166350900Y-80597500D01*
X179298400Y-80854900D02*
X179041000Y-80597500D01*
X190386100Y-80854900D02*
X179298400Y-80854900D01*
X191218200Y-80022800D02*
X190386100Y-80854900D01*
X200770600Y-80022800D02*
X191218200Y-80022800D01*
%TO.N,Net-(EXIO.1-Pin_3)*%
X162135000Y-79357300D02*
X162330200Y-79552500D01*
X162135000Y-78020000D02*
X162135000Y-79357300D01*
X199250000Y-128720000D02*
X198098300Y-128720000D01*
X192744200Y-123078000D02*
X162330200Y-123078000D01*
X198098300Y-128432100D02*
X192744200Y-123078000D01*
X198098300Y-128720000D02*
X198098300Y-128432100D01*
%TO.N,Net-(EXIO.1-Pin_7)*%
X189090000Y-128720000D02*
X187938300Y-128720000D01*
X182947500Y-103716200D02*
X166323500Y-103716200D01*
X186870700Y-127364500D02*
X185074200Y-127364500D01*
X187938300Y-128432100D02*
X186870700Y-127364500D01*
X187938300Y-128720000D02*
X187938300Y-128432100D01*
X167215000Y-78793400D02*
X166625500Y-79382900D01*
X167215000Y-78020000D02*
X167215000Y-78793400D01*
%TO.N,Net-(EXIO.1-Pin_6)*%
X166535900Y-80195800D02*
X189048100Y-80195800D01*
X165945000Y-79604900D02*
X166535900Y-80195800D01*
X165945000Y-78020000D02*
X165945000Y-79604900D01*
%TO.N,Net-(EXIO.1-Pin_2)*%
X160865000Y-79036300D02*
X160865000Y-78020000D01*
X163631300Y-81802600D02*
X160865000Y-79036300D01*
X175029500Y-81802600D02*
X163631300Y-81802600D01*
X180745000Y-87518100D02*
X175029500Y-81802600D01*
X201790000Y-87518100D02*
X180745000Y-87518100D01*
%TO.N,I2C1_SDA*%
X141186600Y-89730200D02*
X164755200Y-89730200D01*
X138175000Y-92741800D02*
X141186600Y-89730200D01*
X138175000Y-93220000D02*
X138175000Y-92741800D01*
X166899300Y-88233200D02*
X171012500Y-84120000D01*
X165285400Y-88233200D02*
X166899300Y-88233200D01*
X171828500Y-74578100D02*
X165829200Y-74578100D01*
X174835000Y-77584600D02*
X171828500Y-74578100D01*
X174835000Y-78020000D02*
X174835000Y-77584600D01*
%TO.N,U_PWR_MEAS*%
X182501600Y-112991600D02*
X183970000Y-114460000D01*
X150057900Y-112991600D02*
X182501600Y-112991600D01*
X148831400Y-111765100D02*
X150057900Y-112991600D01*
X139726700Y-111765100D02*
X148831400Y-111765100D01*
X135289900Y-107328300D02*
X139726700Y-111765100D01*
X130372900Y-107328300D02*
X135289900Y-107328300D01*
X93600000Y-64238300D02*
X124247900Y-64238300D01*
X93600000Y-64870000D02*
X93600000Y-64238300D01*
X93600000Y-62782500D02*
X91687500Y-60870000D01*
X93600000Y-64238300D02*
X93600000Y-62782500D01*
%TO.N,DISPL_TCH_CS*%
X191373300Y-78180000D02*
X191848300Y-78655000D01*
X190815400Y-78180000D02*
X191373300Y-78180000D01*
X193000000Y-78655000D02*
X191848300Y-78655000D01*
%TO.N,W25Q64_NCS3V3*%
X147955300Y-76459700D02*
X148445000Y-75970000D01*
X147617500Y-76459700D02*
X147955300Y-76459700D01*
X160842500Y-100795000D02*
X160842500Y-99670000D01*
X160842500Y-99670000D02*
X162667500Y-97845000D01*
X160842500Y-99670000D02*
X154002500Y-99670000D01*
%TO.N,DISPL_SCK*%
X193000000Y-76115000D02*
X191848300Y-76115000D01*
X189806100Y-74072800D02*
X191848300Y-76115000D01*
X176892400Y-74072800D02*
X189806100Y-74072800D01*
X176796000Y-73976400D02*
X176892400Y-74072800D01*
X165580100Y-73976400D02*
X176796000Y-73976400D01*
X165464700Y-74091800D02*
X165580100Y-73976400D01*
X151731900Y-74091800D02*
X165464700Y-74091800D01*
X151681700Y-74041600D02*
X151731900Y-74091800D01*
X144820800Y-74041600D02*
X151681700Y-74041600D01*
%TO.N,DISPL_MOSI*%
X193000000Y-65955000D02*
X191848300Y-65955000D01*
X191216700Y-65323400D02*
X175034200Y-65323400D01*
X191848300Y-65955000D02*
X191216700Y-65323400D01*
%TO.N,M5V*%
X136945000Y-80895000D02*
X138215000Y-80895000D01*
X136945000Y-69895000D02*
X138215000Y-69895000D01*
X173565000Y-68720000D02*
X174835000Y-68720000D01*
X172295000Y-68720000D02*
X173565000Y-68720000D01*
X161216700Y-84120000D02*
X159142200Y-86194500D01*
X169187500Y-84120000D02*
X161216700Y-84120000D01*
X157816700Y-87520000D02*
X153117900Y-87520000D01*
X159142200Y-86194500D02*
X157816700Y-87520000D01*
X153117900Y-87520000D02*
X152650000Y-87520000D01*
X147101000Y-84530200D02*
X139485000Y-84530200D01*
X149200000Y-86629200D02*
X147101000Y-84530200D01*
X149200000Y-88409400D02*
X149200000Y-86629200D01*
X149648600Y-88858000D02*
X149200000Y-88409400D01*
X151329400Y-88858000D02*
X149648600Y-88858000D01*
X152667400Y-87520000D02*
X151329400Y-88858000D01*
X153117900Y-87520000D02*
X152667400Y-87520000D01*
X138215000Y-83260200D02*
X139485000Y-84530200D01*
X138215000Y-80895000D02*
X138215000Y-83260200D01*
X139485000Y-84530200D02*
X139485000Y-85845000D01*
X136673500Y-69623500D02*
X136945000Y-69895000D01*
X128314700Y-69623500D02*
X136673500Y-69623500D01*
X139485000Y-74845000D02*
X139485000Y-72435000D01*
X171353100Y-67349800D02*
X157797800Y-67349800D01*
X172295000Y-68291700D02*
X171353100Y-67349800D01*
X172295000Y-68720000D02*
X172295000Y-68291700D01*
X152712600Y-72435000D02*
X139485000Y-72435000D01*
X157797800Y-67349800D02*
X152712600Y-72435000D01*
X138175000Y-102955600D02*
X138175000Y-102520000D01*
X145757900Y-110538500D02*
X138175000Y-102955600D01*
X149283200Y-110538500D02*
X145757900Y-110538500D01*
X149538500Y-110283200D02*
X149283200Y-110538500D01*
X149538500Y-109154900D02*
X149538500Y-110283200D01*
X150460600Y-108232800D02*
X149538500Y-109154900D01*
X157422800Y-108232800D02*
X150460600Y-108232800D01*
X158570000Y-109380000D02*
X157422800Y-108232800D01*
X172652700Y-83085200D02*
X173687500Y-84120000D01*
X170222300Y-83085200D02*
X172652700Y-83085200D01*
X169187500Y-84120000D02*
X170222300Y-83085200D01*
X157987900Y-76220100D02*
X157797800Y-76410200D01*
X168435200Y-76220100D02*
X157987900Y-76220100D01*
X169755000Y-77539900D02*
X168435200Y-76220100D01*
X169755000Y-78020000D02*
X169755000Y-77539900D01*
X102325000Y-64965000D02*
X123616900Y-64965000D01*
%TO.N,25LC640_NCS*%
X136866000Y-85924000D02*
X136945000Y-85845000D01*
X136123100Y-85924000D02*
X136866000Y-85924000D01*
%TO.N,25LC256_NCS*%
X136881900Y-74781900D02*
X136945000Y-74845000D01*
X135143900Y-74781900D02*
X136881900Y-74781900D01*
%TO.N,SPI2_MISO*%
X136341200Y-78946100D02*
X138215000Y-77072300D01*
X136341200Y-81967600D02*
X136341200Y-78946100D01*
X138215000Y-83841400D02*
X136341200Y-81967600D01*
X138215000Y-85845000D02*
X138215000Y-83841400D01*
X138215000Y-77072300D02*
X138215000Y-74845000D01*
X138215000Y-77072300D02*
X147873600Y-77072300D01*
X149715000Y-76183200D02*
X149715000Y-75970000D01*
X148825900Y-77072300D02*
X149715000Y-76183200D01*
X147873600Y-77072300D02*
X148825900Y-77072300D01*
X147873600Y-77812600D02*
X147873600Y-77072300D01*
X149538500Y-118795800D02*
X181430000Y-118795800D01*
%TO.N,SPI2_SCK*%
X150985000Y-68770000D02*
X150985000Y-68548100D01*
X139485000Y-79472600D02*
X139540300Y-79417300D01*
X139485000Y-80895000D02*
X139485000Y-79472600D01*
X153941900Y-65591200D02*
X160986200Y-65591200D01*
X150985000Y-68548100D02*
X153941900Y-65591200D01*
X161345600Y-65950600D02*
X188606200Y-65950600D01*
X160986200Y-65591200D02*
X161345600Y-65950600D01*
X140070100Y-68943600D02*
X139540300Y-68413900D01*
X139485000Y-69528700D02*
X140070100Y-68943600D01*
X139485000Y-69895000D02*
X139485000Y-69528700D01*
X150089800Y-67652900D02*
X150985000Y-68548100D01*
X141360800Y-67652900D02*
X150089800Y-67652900D01*
X140070100Y-68943600D02*
X141360800Y-67652900D01*
%TO.N,SPI2_MOSI*%
X141311100Y-80338900D02*
X143253200Y-80338900D01*
X140755000Y-80895000D02*
X141311100Y-80338900D01*
X142619200Y-69895000D02*
X140755000Y-69895000D01*
X151411500Y-69895000D02*
X142619200Y-69895000D01*
X152255000Y-69051500D02*
X151411500Y-69895000D01*
X152255000Y-68770000D02*
X152255000Y-69051500D01*
X154465700Y-66559300D02*
X178846100Y-66559300D01*
X152255000Y-68770000D02*
X154465700Y-66559300D01*
%TO.N,DISPL_BNESS*%
X193000000Y-71035000D02*
X191848300Y-71035000D01*
X189613900Y-73269400D02*
X191848300Y-71035000D01*
X177225000Y-73269400D02*
X189613900Y-73269400D01*
X177034700Y-73079100D02*
X177225000Y-73269400D01*
X160041900Y-73079100D02*
X177034700Y-73079100D01*
X159841600Y-72878800D02*
X160041900Y-73079100D01*
%TO.N,W25Q64_NCS*%
X161864300Y-96823200D02*
X177620000Y-96823200D01*
X160842500Y-97845000D02*
X161864300Y-96823200D01*
%TO.N,DISPL_DC*%
X193000000Y-63415000D02*
X191848300Y-63415000D01*
X172629900Y-63415000D02*
X191848300Y-63415000D01*
%TO.N,DISPL_MISO*%
X192527100Y-111363400D02*
X192728300Y-111564600D01*
X140351500Y-111363400D02*
X192527100Y-111363400D01*
X139351300Y-110363200D02*
X140351500Y-111363400D01*
%TO.N,Net-(D15-K)*%
X103769800Y-149169800D02*
X103500000Y-148900000D01*
X115620400Y-149169800D02*
X103769800Y-149169800D01*
X116210000Y-148580200D02*
X115620400Y-149169800D01*
X116210000Y-146905700D02*
X116210000Y-148580200D01*
X122320700Y-140795000D02*
X116210000Y-146905700D01*
X128430000Y-140795000D02*
X122320700Y-140795000D01*
%TO.N,5V_REG*%
X188930000Y-147020000D02*
X187778300Y-147020000D01*
X173770000Y-146870000D02*
X174921700Y-146870000D01*
X187778300Y-146732100D02*
X187778300Y-147020000D01*
X186755400Y-145709200D02*
X187778300Y-146732100D01*
X175814000Y-145709200D02*
X186755400Y-145709200D01*
X174921700Y-146601500D02*
X175814000Y-145709200D01*
X174921700Y-146870000D02*
X174921700Y-146601500D01*
X173770000Y-128870000D02*
X172618300Y-128870000D01*
X200191700Y-94500000D02*
X200151700Y-94540000D01*
X204750000Y-94500000D02*
X200191700Y-94500000D01*
X199000000Y-94540000D02*
X200151700Y-94540000D01*
X197808300Y-94500000D02*
X197848300Y-94540000D01*
X193200000Y-94500000D02*
X197808300Y-94500000D01*
X199000000Y-94540000D02*
X197848300Y-94540000D01*
X172618300Y-128601500D02*
X172618300Y-128870000D01*
X168656800Y-124640000D02*
X172618300Y-128601500D01*
X132620000Y-124640000D02*
X168656800Y-124640000D01*
X97375000Y-65600000D02*
X97375000Y-64965000D01*
X120429400Y-65600000D02*
X97375000Y-65600000D01*
X97375000Y-66235000D02*
X97375000Y-65600000D01*
X188890000Y-140870000D02*
X190041700Y-140870000D01*
X191406500Y-142503300D02*
X203120000Y-142503300D01*
X190041700Y-141138500D02*
X191406500Y-142503300D01*
X190041700Y-140870000D02*
X190041700Y-141138500D01*
X93469000Y-66235000D02*
X97375000Y-66235000D01*
X92687500Y-65453500D02*
X93469000Y-66235000D01*
X92687500Y-64269100D02*
X92687500Y-65453500D01*
X91698600Y-63280200D02*
X92687500Y-64269100D01*
X81027200Y-63280200D02*
X91698600Y-63280200D01*
X80619500Y-63687900D02*
X81027200Y-63280200D01*
X79574400Y-63687900D02*
X80619500Y-63687900D01*
X79238500Y-64023800D02*
X79574400Y-63687900D01*
X79238500Y-65781500D02*
X79238500Y-64023800D01*
X79862100Y-66405100D02*
X79238500Y-65781500D01*
X81464900Y-66405100D02*
X79862100Y-66405100D01*
X83000000Y-64870000D02*
X81464900Y-66405100D01*
%TO.N,DAC_OUT*%
X189578600Y-113809700D02*
X195013400Y-113809700D01*
X185269700Y-118118600D02*
X189578600Y-113809700D01*
X181028400Y-118118600D02*
X185269700Y-118118600D01*
X180160000Y-117250200D02*
X181028400Y-118118600D01*
X180160000Y-116761200D02*
X180160000Y-117250200D01*
X179128800Y-115730000D02*
X180160000Y-116761200D01*
X177620000Y-115730000D02*
X179128800Y-115730000D01*
X176350000Y-114460000D02*
X177620000Y-115730000D01*
%TO.N,Net-(D11-K)*%
X87541600Y-111724100D02*
X86687500Y-110870000D01*
X87541600Y-119578000D02*
X87541600Y-111724100D01*
X87133200Y-119986400D02*
X87541600Y-119578000D01*
X81419500Y-119986400D02*
X87133200Y-119986400D01*
X80200000Y-118766900D02*
X81419500Y-119986400D01*
%TO.N,Net-(D10-K)*%
X85508600Y-84691100D02*
X86937500Y-86120000D01*
X82341500Y-84691100D02*
X85508600Y-84691100D01*
X81969300Y-85063300D02*
X82341500Y-84691100D01*
X81969300Y-85882200D02*
X81969300Y-85063300D01*
X79244200Y-88607300D02*
X81969300Y-85882200D01*
X79244200Y-92914200D02*
X79244200Y-88607300D01*
X80200000Y-93870000D02*
X79244200Y-92914200D01*
%TO.N,WUART1_TX*%
X125921200Y-103761300D02*
X121125900Y-103761300D01*
X127062500Y-102620000D02*
X125921200Y-103761300D01*
X118818300Y-122397700D02*
X97019400Y-122397700D01*
X88512500Y-135620000D02*
X93799700Y-135620000D01*
%TO.N,WUART1_RX*%
X125038200Y-100644300D02*
X122460000Y-100644300D01*
X127062500Y-98620000D02*
X125038200Y-100644300D01*
X89476100Y-144983600D02*
X88512500Y-144020000D01*
X90859400Y-144983600D02*
X89476100Y-144983600D01*
X97031400Y-118381200D02*
X122460000Y-118381200D01*
%TO.N,UART5_TX*%
X121100000Y-87193800D02*
X120458900Y-87834900D01*
X121100000Y-86620000D02*
X121100000Y-87193800D01*
X139325500Y-115535500D02*
X120458900Y-115535500D01*
X140790000Y-117000000D02*
X139325500Y-115535500D01*
X93861100Y-110870000D02*
X88512500Y-110870000D01*
X97947300Y-114956200D02*
X93861100Y-110870000D01*
X100715200Y-114956200D02*
X97947300Y-114956200D01*
X103509100Y-112162300D02*
X100715200Y-114956200D01*
X120458900Y-112162300D02*
X103509100Y-112162300D01*
%TO.N,UART5_RX*%
X125697400Y-87217400D02*
X138850000Y-87217400D01*
X121100000Y-82620000D02*
X125697400Y-87217400D01*
X139673800Y-113343800D02*
X140790000Y-114460000D01*
X111193200Y-113343800D02*
X139673800Y-113343800D01*
X107632600Y-116904400D02*
X111193200Y-113343800D01*
X94679900Y-116904400D02*
X107632600Y-116904400D01*
X93321500Y-118262800D02*
X94679900Y-116904400D01*
X93321500Y-119436400D02*
X93321500Y-118262800D01*
X92958600Y-119799300D02*
X93321500Y-119436400D01*
X89441800Y-119799300D02*
X92958600Y-119799300D01*
X88512500Y-118870000D02*
X89441800Y-119799300D01*
%TO.N,USART1_TX*%
X127062500Y-70024900D02*
X127062500Y-70370000D01*
X132098000Y-64989400D02*
X127062500Y-70024900D01*
X159623400Y-64989400D02*
X132098000Y-64989400D01*
X88762500Y-86026700D02*
X88762500Y-86120000D01*
X94129200Y-80660000D02*
X88762500Y-86026700D01*
X97565800Y-80660000D02*
X94129200Y-80660000D01*
X98835800Y-79390000D02*
X97565800Y-80660000D01*
X101604600Y-79390000D02*
X98835800Y-79390000D01*
X103560800Y-77433800D02*
X101604600Y-79390000D01*
X118222900Y-77433800D02*
X103560800Y-77433800D01*
X118836500Y-76820200D02*
X118222900Y-77433800D01*
X122749800Y-76820200D02*
X118836500Y-76820200D01*
X123533100Y-76036900D02*
X122749800Y-76820200D01*
X123615700Y-76036900D02*
X123533100Y-76036900D01*
X123715800Y-76137000D02*
X123615700Y-76036900D01*
X124947100Y-76137000D02*
X123715800Y-76137000D01*
X126150000Y-74934100D02*
X124947100Y-76137000D01*
X126150000Y-71282500D02*
X126150000Y-74934100D01*
X127062500Y-70370000D02*
X126150000Y-71282500D01*
%TO.N,USART1_RX*%
X88698900Y-93968900D02*
X88600000Y-93870000D01*
X89684200Y-93968900D02*
X88698900Y-93968900D01*
X128349900Y-65082600D02*
X128349900Y-63686300D01*
X127062500Y-66370000D02*
X128349900Y-65082600D01*
X95149500Y-62070000D02*
X94925200Y-61845700D01*
X98183300Y-62070000D02*
X95149500Y-62070000D01*
X99354200Y-60899100D02*
X98183300Y-62070000D01*
X99354200Y-60327100D02*
X99354200Y-60899100D01*
X99993800Y-59687500D02*
X99354200Y-60327100D01*
X125940800Y-59687500D02*
X99993800Y-59687500D01*
X128349900Y-62096600D02*
X125940800Y-59687500D01*
X128349900Y-63686300D02*
X128349900Y-62096600D01*
%TO.N,Net-(D9-K)*%
X86687500Y-143628700D02*
X86687500Y-144020000D01*
X85295100Y-142236300D02*
X86687500Y-143628700D01*
X82566300Y-142236300D02*
X85295100Y-142236300D01*
X80200000Y-139870000D02*
X82566300Y-142236300D01*
%TO.N,Net-(D8-K)*%
X81410100Y-113556800D02*
X80200000Y-114766900D01*
X83592000Y-113556800D02*
X81410100Y-113556800D01*
X86687500Y-116652300D02*
X83592000Y-113556800D01*
X86687500Y-118870000D02*
X86687500Y-116652300D01*
%TO.N,Net-(D7-K)*%
X84541000Y-91636000D02*
X86775000Y-93870000D01*
X81966000Y-91636000D02*
X84541000Y-91636000D01*
X80200000Y-89870000D02*
X81966000Y-91636000D01*
%TO.N,Net-(D6-K)*%
X81600000Y-137020000D02*
X80200000Y-135620000D01*
X81600000Y-140257600D02*
X81600000Y-137020000D01*
X82408600Y-141066200D02*
X81600000Y-140257600D01*
X85491300Y-141066200D02*
X82408600Y-141066200D01*
X86687500Y-139870000D02*
X85491300Y-141066200D01*
%TO.N,Net-(D5-K)*%
X85803500Y-113986000D02*
X86687500Y-114870000D01*
X85803500Y-110500000D02*
X85803500Y-113986000D01*
X84856000Y-109552500D02*
X85803500Y-110500000D01*
X81414400Y-109552500D02*
X84856000Y-109552500D01*
X80200000Y-110766900D02*
X81414400Y-109552500D01*
%TO.N,Net-(D4-K)*%
X81780600Y-84289400D02*
X80200000Y-85870000D01*
X86670000Y-84289400D02*
X81780600Y-84289400D01*
X87793800Y-85413200D02*
X86670000Y-84289400D01*
X87793800Y-89263700D02*
X87793800Y-85413200D01*
X86937500Y-90120000D02*
X87793800Y-89263700D01*
%TO.N,Net-(D3-K)*%
X87324400Y-63681900D02*
X88512500Y-64870000D01*
X81388100Y-63681900D02*
X87324400Y-63681900D01*
X80200000Y-64870000D02*
X81388100Y-63681900D01*
%TO.N,Net-(D1-K)*%
X97375000Y-68775000D02*
X97375000Y-67505000D01*
X100562500Y-62070000D02*
X100562500Y-60870000D01*
X101282500Y-62790000D02*
X118600000Y-62790000D01*
X100562500Y-62070000D02*
X101282500Y-62790000D01*
X97022100Y-69127900D02*
X97375000Y-68775000D01*
X95494900Y-69127900D02*
X97022100Y-69127900D01*
X81674200Y-70344200D02*
X80200000Y-68870000D01*
X94278600Y-70344200D02*
X81674200Y-70344200D01*
X95494900Y-69127900D02*
X94278600Y-70344200D01*
X93512500Y-60870000D02*
X94206600Y-61564100D01*
X94206600Y-61979500D02*
X94206600Y-61564100D01*
X94698800Y-62471700D02*
X94206600Y-61979500D01*
X100160800Y-62471700D02*
X94698800Y-62471700D01*
X100562500Y-62070000D02*
X100160800Y-62471700D01*
X95227100Y-60543600D02*
X96516600Y-60543600D01*
X94206600Y-61564100D02*
X95227100Y-60543600D01*
%TO.N,Net-(U3-XI)*%
X95977000Y-106045000D02*
X95195000Y-106045000D01*
X99152000Y-102870000D02*
X95977000Y-106045000D01*
X101674600Y-102870000D02*
X99152000Y-102870000D01*
X109924600Y-94620000D02*
X101674600Y-102870000D01*
X119287500Y-94620000D02*
X109924600Y-94620000D01*
X97481300Y-111251300D02*
X100100000Y-113870000D01*
X97481300Y-107549300D02*
X97481300Y-111251300D01*
X95977000Y-106045000D02*
X97481300Y-107549300D01*
%TO.N,Net-(U3-XO)*%
X92470000Y-116620000D02*
X92470000Y-118723100D01*
X95220000Y-113870000D02*
X92470000Y-116620000D01*
X95195000Y-108115900D02*
X95220000Y-108140900D01*
X95195000Y-107315000D02*
X95195000Y-108115900D01*
%TO.N,Net-(U3-V3)*%
X97224600Y-102235000D02*
X95195000Y-102235000D01*
X99129600Y-100330000D02*
X97224600Y-102235000D01*
X103238800Y-100330000D02*
X99129600Y-100330000D01*
X112948800Y-90620000D02*
X103238800Y-100330000D01*
X119237500Y-90620000D02*
X112948800Y-90620000D01*
%TO.N,Net-(U3-RXD)*%
X95851600Y-100965000D02*
X95195000Y-100965000D01*
X110196600Y-86620000D02*
X95851600Y-100965000D01*
X119275000Y-86620000D02*
X110196600Y-86620000D01*
%TO.N,Net-(U3-TXD)*%
X96432900Y-99695000D02*
X95195000Y-99695000D01*
X113507900Y-82620000D02*
X96432900Y-99695000D01*
X119275000Y-82620000D02*
X113507900Y-82620000D01*
%TO.N,Net-(U2-XI)*%
X100125000Y-88945000D02*
X100125000Y-85843600D01*
X95576400Y-81295000D02*
X95125000Y-81295000D01*
X100125000Y-85843600D02*
X95576400Y-81295000D01*
X123601600Y-79968400D02*
X125200000Y-78370000D01*
X106000200Y-79968400D02*
X123601600Y-79968400D01*
X100125000Y-85843600D02*
X106000200Y-79968400D01*
%TO.N,Net-(U2-XO)*%
X95245000Y-90875000D02*
X95245000Y-88945000D01*
X92425000Y-93695000D02*
X95245000Y-90875000D01*
X95245000Y-82685000D02*
X95245000Y-88945000D01*
X95125000Y-82565000D02*
X95245000Y-82685000D01*
%TO.N,Net-(U2-V3)*%
X95789800Y-76820200D02*
X95125000Y-77485000D01*
X118068300Y-76820200D02*
X95789800Y-76820200D01*
X118470000Y-76418500D02*
X118068300Y-76820200D01*
X122583500Y-76418500D02*
X118470000Y-76418500D01*
X123408100Y-75593900D02*
X122583500Y-76418500D01*
X123740700Y-75593900D02*
X123408100Y-75593900D01*
X123858400Y-75711600D02*
X123740700Y-75593900D01*
X125200000Y-74370000D02*
X123858400Y-75711600D01*
%TO.N,Net-(U2-TXD)*%
X122216900Y-69390600D02*
X125237500Y-66370000D01*
X101851500Y-69390600D02*
X122216900Y-69390600D01*
X96297100Y-74945000D02*
X101851500Y-69390600D01*
X95125000Y-74945000D02*
X96297100Y-74945000D01*
%TO.N,Net-(U2-RXD)*%
X98398600Y-76215000D02*
X95125000Y-76215000D01*
X99033600Y-75580000D02*
X98398600Y-76215000D01*
X112553800Y-75580000D02*
X99033600Y-75580000D01*
X117763800Y-70370000D02*
X112553800Y-75580000D01*
X125237500Y-70370000D02*
X117763800Y-70370000D01*
%TO.N,Net-(D12-K)*%
X85509800Y-134442300D02*
X86687500Y-135620000D01*
X79534000Y-134442300D02*
X85509800Y-134442300D01*
X79269100Y-134707200D02*
X79534000Y-134442300D01*
X79269100Y-142939100D02*
X79269100Y-134707200D01*
X80200000Y-143870000D02*
X79269100Y-142939100D01*
%TO.N,Net-(D1-A)*%
X87487500Y-69895000D02*
X88512500Y-68870000D01*
X84025000Y-69895000D02*
X87487500Y-69895000D01*
X83000000Y-68870000D02*
X84025000Y-69895000D01*
%TO.N,Net-(U4-V3)*%
X123819100Y-107950900D02*
X98443400Y-107950900D01*
X125150000Y-106620000D02*
X123819100Y-107950900D01*
X95125000Y-127235000D02*
X98443400Y-127235000D01*
%TO.N,Net-(U4-XO)*%
X95175000Y-141120000D02*
X95175000Y-138870000D01*
X92425000Y-143870000D02*
X95175000Y-141120000D01*
X95175000Y-132365000D02*
X95175000Y-138870000D01*
X95125000Y-132315000D02*
X95175000Y-132365000D01*
%TO.N,Net-(U4-XI)*%
X125200000Y-110620000D02*
X104690100Y-110620000D01*
X100055000Y-135566400D02*
X100055000Y-138870000D01*
X95533600Y-131045000D02*
X100055000Y-135566400D01*
X95125000Y-131045000D02*
X95533600Y-131045000D01*
%TO.N,Net-(U1-FILTER)*%
X101690000Y-66870000D02*
X102325000Y-67505000D01*
X96394800Y-66870000D02*
X101690000Y-66870000D01*
X95245900Y-68018900D02*
X96394800Y-66870000D01*
X95245900Y-68526200D02*
X95245900Y-68018900D01*
X95245800Y-68526200D02*
X95245900Y-68526200D01*
X94893200Y-68878800D02*
X95245800Y-68526200D01*
X94893200Y-69124200D02*
X94893200Y-68878800D01*
X94119700Y-69897700D02*
X94893200Y-69124200D01*
X92727700Y-69897700D02*
X94119700Y-69897700D01*
X91700000Y-68870000D02*
X92727700Y-69897700D01*
%TO.N,ADC1*%
X199000000Y-83775000D02*
X197848300Y-83775000D01*
X196638600Y-82565300D02*
X180160000Y-82565300D01*
X197848300Y-83775000D02*
X196638600Y-82565300D01*
%TO.N,D3+*%
X88172800Y-128505000D02*
X95125000Y-128505000D01*
X87290900Y-127623100D02*
X88172800Y-128505000D01*
%TO.N,D3-*%
X94750000Y-130150000D02*
X95125000Y-129775000D01*
X86501900Y-130150000D02*
X94750000Y-130150000D01*
X85149000Y-128797100D02*
X86501900Y-130150000D01*
X85149000Y-127765000D02*
X85149000Y-128797100D01*
X86090900Y-126823100D02*
X85149000Y-127765000D01*
%TO.N,VBUS3*%
X83000000Y-139870000D02*
X83000000Y-135620000D01*
X83347100Y-135967100D02*
X85110400Y-135967100D01*
X83000000Y-135620000D02*
X83347100Y-135967100D01*
X100481500Y-123018500D02*
X105299800Y-123018500D01*
X100075000Y-123425000D02*
X100481500Y-123018500D01*
X118986500Y-100833500D02*
X105299800Y-100833500D01*
X125200000Y-94620000D02*
X118986500Y-100833500D01*
X84032000Y-142838000D02*
X84995000Y-142838000D01*
X83000000Y-143870000D02*
X84032000Y-142838000D01*
X99439900Y-124060100D02*
X100075000Y-123425000D01*
X89253900Y-124060100D02*
X99439900Y-124060100D01*
X87290900Y-126023100D02*
X89253900Y-124060100D01*
%TO.N,VBUS2*%
X82363500Y-110766900D02*
X83000000Y-110766900D01*
X79266200Y-113864200D02*
X82363500Y-110766900D01*
X79266200Y-115643400D02*
X79266200Y-113864200D01*
X79653400Y-116030600D02*
X79266200Y-115643400D01*
X83000000Y-116030600D02*
X79653400Y-116030600D01*
X83000000Y-118766900D02*
X83000000Y-116030600D01*
X83000000Y-116030600D02*
X83000000Y-114766900D01*
X83068700Y-110698200D02*
X85131000Y-110698200D01*
X83000000Y-110766900D02*
X83068700Y-110698200D01*
X99380000Y-98425000D02*
X100145000Y-98425000D01*
X96205000Y-101600000D02*
X99380000Y-98425000D01*
X87867800Y-101600000D02*
X96205000Y-101600000D01*
X87290900Y-101023100D02*
X87867800Y-101600000D01*
X119237500Y-78620000D02*
X103464500Y-78620000D01*
X100145000Y-98425000D02*
X103464500Y-98425000D01*
%TO.N,D2+*%
X88172800Y-103505000D02*
X95195000Y-103505000D01*
X87290900Y-102623100D02*
X88172800Y-103505000D01*
%TO.N,D2-*%
X94829100Y-105140900D02*
X95195000Y-104775000D01*
X86519200Y-105140900D02*
X94829100Y-105140900D01*
X85184100Y-103805800D02*
X86519200Y-105140900D01*
X85184100Y-102729900D02*
X85184100Y-103805800D01*
X86090900Y-101823100D02*
X85184100Y-102729900D01*
%TO.N,VBUS1*%
X83000000Y-89870000D02*
X83000000Y-85870000D01*
X83354700Y-86224700D02*
X84658400Y-86224700D01*
X83000000Y-85870000D02*
X83354700Y-86224700D01*
X84319600Y-89870000D02*
X83000000Y-89870000D01*
X87629000Y-93179400D02*
X84319600Y-89870000D01*
X87629000Y-94549800D02*
X87629000Y-93179400D01*
X87270500Y-94908300D02*
X87629000Y-94549800D01*
X84038300Y-94908300D02*
X87270500Y-94908300D01*
X83000000Y-93870000D02*
X84038300Y-94908300D01*
X125200000Y-64253500D02*
X125200000Y-62370000D01*
X121313500Y-68140000D02*
X125200000Y-64253500D01*
X100539100Y-68140000D02*
X121313500Y-68140000D01*
X97554800Y-71124300D02*
X100539100Y-68140000D01*
X87895800Y-71124300D02*
X97554800Y-71124300D01*
X87569600Y-71450500D02*
X87895800Y-71124300D01*
X87569600Y-75580000D02*
X87569600Y-71450500D01*
X87569600Y-75641300D02*
X87569600Y-75580000D01*
X87290900Y-75920000D02*
X87569600Y-75641300D01*
X98498600Y-73675000D02*
X100075000Y-73675000D01*
X96593600Y-75580000D02*
X98498600Y-73675000D01*
X87569600Y-75580000D02*
X96593600Y-75580000D01*
%TO.N,D1-*%
X86453600Y-80025000D02*
X95125000Y-80025000D01*
X85184100Y-78755500D02*
X86453600Y-80025000D01*
X85184100Y-77626800D02*
X85184100Y-78755500D01*
X86090900Y-76720000D02*
X85184100Y-77626800D01*
%TO.N,GND*%
X141985000Y-93220000D02*
X143255000Y-93220000D01*
X143255000Y-93220000D02*
X144525000Y-93220000D01*
X144525000Y-93220000D02*
X145795000Y-93220000D01*
X140715000Y-93220000D02*
X141985000Y-93220000D01*
X144525000Y-102520000D02*
X143255000Y-102520000D01*
X163650000Y-114460000D02*
X161110000Y-114460000D01*
X147140000Y-115730000D02*
X145870000Y-114460000D01*
X159840000Y-115730000D02*
X147140000Y-115730000D01*
X161110000Y-117000000D02*
X159840000Y-115730000D01*
X140755000Y-87520000D02*
X140755000Y-85845000D01*
X148050000Y-87520000D02*
X140755000Y-87520000D01*
X198750000Y-66065000D02*
X197598300Y-66065000D01*
X130255000Y-137845000D02*
X130255000Y-140795000D01*
X144525000Y-102520000D02*
X145795000Y-102520000D01*
X141985000Y-102520000D02*
X143255000Y-102520000D01*
X146419900Y-101895100D02*
X146419900Y-101819200D01*
X145795000Y-102520000D02*
X146419900Y-101895100D01*
X130255000Y-137845000D02*
X130255000Y-134895000D01*
X172381700Y-147138500D02*
X172381700Y-146870000D01*
X173315900Y-148072700D02*
X172381700Y-147138500D01*
X184185600Y-148072700D02*
X173315900Y-148072700D01*
X185238300Y-147020000D02*
X184185600Y-148072700D01*
X186390000Y-147020000D02*
X185238300Y-147020000D01*
X171230000Y-146870000D02*
X172381700Y-146870000D01*
X127100000Y-94620000D02*
X126071500Y-93591500D01*
X122216000Y-93591500D02*
X121187500Y-94620000D01*
X126071500Y-93591500D02*
X122216000Y-93591500D01*
X126071500Y-90620000D02*
X126071500Y-93591500D01*
X137655000Y-90620000D02*
X126071500Y-90620000D01*
X140755000Y-87520000D02*
X137655000Y-90620000D01*
X126071500Y-90620000D02*
X121137500Y-90620000D01*
X127100000Y-106670000D02*
X127100000Y-110620000D01*
X127050000Y-106620000D02*
X127100000Y-106670000D01*
X127100000Y-74370000D02*
X127100000Y-77320200D01*
X127100000Y-77320200D02*
X127100000Y-78370000D01*
X134138600Y-128010000D02*
X155500000Y-128010000D01*
X131181700Y-125053100D02*
X134138600Y-128010000D01*
X131181700Y-124640000D02*
X131181700Y-125053100D01*
X130080000Y-124640000D02*
X131181700Y-124640000D01*
X156360000Y-128870000D02*
X155500000Y-128010000D01*
X171230000Y-128870000D02*
X156360000Y-128870000D01*
X200191700Y-97040000D02*
X200151700Y-97080000D01*
X204750000Y-97040000D02*
X200191700Y-97040000D01*
X199000000Y-97080000D02*
X200151700Y-97080000D01*
X193250000Y-118540000D02*
X199000000Y-118540000D01*
X204750000Y-86315000D02*
X199000000Y-86315000D01*
X200176700Y-118565000D02*
X200151700Y-118540000D01*
X204750000Y-118565000D02*
X200176700Y-118565000D01*
X199000000Y-118540000D02*
X200151700Y-118540000D01*
X204750000Y-66065000D02*
X198750000Y-66065000D01*
X199000000Y-97080000D02*
X197848300Y-97080000D01*
X204750000Y-76290000D02*
X198850000Y-76290000D01*
X204750000Y-107815000D02*
X199000000Y-107815000D01*
X194391700Y-107815000D02*
X194351700Y-107775000D01*
X199000000Y-107815000D02*
X194391700Y-107815000D01*
X193200000Y-107775000D02*
X194351700Y-107775000D01*
X88762500Y-91542100D02*
X88762500Y-90120000D01*
X92001000Y-94780600D02*
X88762500Y-91542100D01*
X94325000Y-94780600D02*
X92001000Y-94780600D01*
X94325000Y-93695000D02*
X94325000Y-94780600D01*
X194773900Y-67303700D02*
X194773900Y-67769800D01*
X177521300Y-67303700D02*
X194773900Y-67303700D01*
X176105000Y-68720000D02*
X177521300Y-67303700D01*
X196359600Y-67303700D02*
X197598300Y-66065000D01*
X194773900Y-67303700D02*
X196359600Y-67303700D01*
X94370000Y-122670000D02*
X95125000Y-123425000D01*
X94370000Y-118723100D02*
X94370000Y-122670000D01*
X139760300Y-94620000D02*
X139647300Y-94620000D01*
X140715000Y-93665300D02*
X139760300Y-94620000D01*
X140715000Y-93220000D02*
X140715000Y-93665300D01*
X139647300Y-94620000D02*
X127100000Y-94620000D01*
X139647300Y-94620000D02*
X139647300Y-101192700D01*
X146198100Y-101192700D02*
X139647300Y-101192700D01*
X146419900Y-101414500D02*
X146198100Y-101192700D01*
X146419900Y-101819200D02*
X146419900Y-101414500D01*
X134484500Y-106620000D02*
X127050000Y-106620000D01*
X137540000Y-103564500D02*
X134484500Y-106620000D01*
X137540000Y-101428600D02*
X137540000Y-103564500D01*
X137775900Y-101192700D02*
X137540000Y-101428600D01*
X139647300Y-101192700D02*
X137775900Y-101192700D01*
X140755000Y-75279500D02*
X140755000Y-74845000D01*
X139908800Y-76125700D02*
X140755000Y-75279500D01*
X139129800Y-76125700D02*
X139908800Y-76125700D01*
X138850000Y-75845900D02*
X139129800Y-76125700D01*
X138850000Y-73805800D02*
X138850000Y-75845900D01*
X138560800Y-73516600D02*
X138850000Y-73805800D01*
X127953400Y-73516600D02*
X138560800Y-73516600D01*
X127100000Y-74370000D02*
X127953400Y-73516600D01*
X91775000Y-67045000D02*
X93600000Y-68870000D01*
X91775000Y-64870000D02*
X91775000Y-67045000D01*
X88666300Y-114716200D02*
X88512500Y-114870000D01*
X89549100Y-114716200D02*
X88666300Y-114716200D01*
X95125000Y-123425000D02*
X88201300Y-123425000D01*
X87297900Y-138655400D02*
X87290900Y-138655400D01*
X88512500Y-139870000D02*
X87297900Y-138655400D01*
X127100000Y-110700300D02*
X127100000Y-110620000D01*
X129290900Y-112891200D02*
X127100000Y-110700300D01*
X144301200Y-112891200D02*
X129290900Y-112891200D01*
X145870000Y-114460000D02*
X144301200Y-112891200D01*
X94325000Y-98253800D02*
X94325000Y-94780600D01*
X95023800Y-98253800D02*
X94325000Y-98253800D01*
X95195000Y-98425000D02*
X95023800Y-98253800D01*
X94325000Y-98253800D02*
X91263000Y-98253800D01*
X88189500Y-65922300D02*
X88189500Y-66097300D01*
X87739800Y-65922300D02*
X88189500Y-65922300D01*
X86687500Y-64870000D02*
X87739800Y-65922300D01*
X90722700Y-65922300D02*
X91775000Y-64870000D01*
X88189500Y-65922300D02*
X90722700Y-65922300D01*
X88512500Y-141466000D02*
X88512500Y-139870000D01*
X91967100Y-144920600D02*
X88512500Y-141466000D01*
X93274400Y-144920600D02*
X91967100Y-144920600D01*
X94325000Y-143870000D02*
X93274400Y-144920600D01*
X161643300Y-101819200D02*
X162667500Y-100795000D01*
X146419900Y-101819200D02*
X161643300Y-101819200D01*
X194367100Y-97080000D02*
X197848300Y-97080000D01*
X194367100Y-97518500D02*
X194367100Y-97080000D01*
X191090600Y-100795000D02*
X194367100Y-97518500D01*
X162667500Y-100795000D02*
X191090600Y-100795000D01*
X194351700Y-97064600D02*
X194351700Y-97040000D01*
X194367100Y-97080000D02*
X194351700Y-97064600D01*
X193200000Y-97040000D02*
X194351700Y-97040000D01*
X148615000Y-134895000D02*
X130255000Y-134895000D01*
X155500000Y-128010000D02*
X148615000Y-134895000D01*
X152255000Y-75182900D02*
X152255000Y-75970000D01*
X151515400Y-74443300D02*
X152255000Y-75182900D01*
X147903200Y-74443300D02*
X151515400Y-74443300D01*
X147501500Y-74845000D02*
X147903200Y-74443300D01*
X140755000Y-74845000D02*
X147501500Y-74845000D01*
X122437300Y-77320200D02*
X121370700Y-78386800D01*
X127100000Y-77320200D02*
X122437300Y-77320200D01*
X121370700Y-78386800D02*
X121137500Y-78620000D01*
X120466200Y-77482300D02*
X121370700Y-78386800D01*
X196603300Y-77385000D02*
X197698300Y-76290000D01*
X188680000Y-77385000D02*
X196603300Y-77385000D01*
X186689100Y-79375900D02*
X188680000Y-77385000D01*
X171977100Y-79375900D02*
X186689100Y-79375900D01*
X171025000Y-78423800D02*
X171977100Y-79375900D01*
X171025000Y-78020000D02*
X171025000Y-78423800D01*
X198850000Y-76290000D02*
X197698300Y-76290000D01*
X152421200Y-75803800D02*
X152255000Y-75970000D01*
X169274000Y-75803800D02*
X152421200Y-75803800D01*
X171025000Y-77554800D02*
X169274000Y-75803800D01*
X171025000Y-78020000D02*
X171025000Y-77554800D01*
X93181800Y-71731800D02*
X95125000Y-73675000D01*
X88189500Y-71731800D02*
X93181800Y-71731800D01*
X100592900Y-68775000D02*
X102325000Y-68775000D01*
X100592900Y-68775100D02*
X100592900Y-68775000D01*
X95693000Y-73675000D02*
X100592900Y-68775100D01*
X95125000Y-73675000D02*
X95693000Y-73675000D01*
X102325000Y-68775000D02*
X118410000Y-68775000D01*
X127100000Y-62932600D02*
X127100000Y-62370000D01*
X121257600Y-68775000D02*
X127100000Y-62932600D01*
X118410000Y-68775000D02*
X121257600Y-68775000D01*
%TO.N,D1+*%
X88525900Y-78755000D02*
X95125000Y-78755000D01*
X87290900Y-77520000D02*
X88525900Y-78755000D01*
%TO.N,M5V*%
X139485000Y-72435000D02*
X136945000Y-69895000D01*
%TD*%
M02*
