%TF.GenerationSoftware,KiCad,Pcbnew,8.0.8*%
%TF.CreationDate,2025-04-05T02:10:51+02:00*%
%TF.ProjectId,mb02a1,6d623032-6131-42e6-9b69-6361645f7063,rev?*%
%TF.SameCoordinates,Original*%
%TF.FileFunction,Legend,Top*%
%TF.FilePolarity,Positive*%
%FSLAX46Y46*%
G04 Gerber Fmt 4.6, Leading zero omitted, Abs format (unit mm)*
G04 Created by KiCad (PCBNEW 8.0.8) date 2025-04-05 02:10:51*
%MOMM*%
%LPD*%
G01*
G04 APERTURE LIST*
%ADD10C,0.150000*%
%ADD11C,0.120000*%
%ADD12C,0.152400*%
%ADD13C,0.508000*%
%ADD14C,0.127000*%
%ADD15C,0.200000*%
G04 APERTURE END LIST*
D10*
X147286009Y-148929761D02*
X147333628Y-148786904D01*
X147333628Y-148786904D02*
X147381247Y-148739285D01*
X147381247Y-148739285D02*
X147476485Y-148691666D01*
X147476485Y-148691666D02*
X147619342Y-148691666D01*
X147619342Y-148691666D02*
X147714580Y-148739285D01*
X147714580Y-148739285D02*
X147762200Y-148786904D01*
X147762200Y-148786904D02*
X147809819Y-148882142D01*
X147809819Y-148882142D02*
X147809819Y-149263094D01*
X147809819Y-149263094D02*
X146809819Y-149263094D01*
X146809819Y-149263094D02*
X146809819Y-148929761D01*
X146809819Y-148929761D02*
X146857438Y-148834523D01*
X146857438Y-148834523D02*
X146905057Y-148786904D01*
X146905057Y-148786904D02*
X147000295Y-148739285D01*
X147000295Y-148739285D02*
X147095533Y-148739285D01*
X147095533Y-148739285D02*
X147190771Y-148786904D01*
X147190771Y-148786904D02*
X147238390Y-148834523D01*
X147238390Y-148834523D02*
X147286009Y-148929761D01*
X147286009Y-148929761D02*
X147286009Y-149263094D01*
X147809819Y-147739285D02*
X147809819Y-148310713D01*
X147809819Y-148024999D02*
X146809819Y-148024999D01*
X146809819Y-148024999D02*
X146952676Y-148120237D01*
X146952676Y-148120237D02*
X147047914Y-148215475D01*
X147047914Y-148215475D02*
X147095533Y-148310713D01*
X151769700Y-146346428D02*
X151769700Y-145203571D01*
X152341128Y-145774999D02*
X151198271Y-145774999D01*
X96838095Y-121424819D02*
X96838095Y-122234342D01*
X96838095Y-122234342D02*
X96885714Y-122329580D01*
X96885714Y-122329580D02*
X96933333Y-122377200D01*
X96933333Y-122377200D02*
X97028571Y-122424819D01*
X97028571Y-122424819D02*
X97219047Y-122424819D01*
X97219047Y-122424819D02*
X97314285Y-122377200D01*
X97314285Y-122377200D02*
X97361904Y-122329580D01*
X97361904Y-122329580D02*
X97409523Y-122234342D01*
X97409523Y-122234342D02*
X97409523Y-121424819D01*
X98314285Y-121758152D02*
X98314285Y-122424819D01*
X98076190Y-121377200D02*
X97838095Y-122091485D01*
X97838095Y-122091485D02*
X98457142Y-122091485D01*
X196047619Y-92664819D02*
X196047619Y-91664819D01*
X196047619Y-91664819D02*
X196428571Y-91664819D01*
X196428571Y-91664819D02*
X196523809Y-91712438D01*
X196523809Y-91712438D02*
X196571428Y-91760057D01*
X196571428Y-91760057D02*
X196619047Y-91855295D01*
X196619047Y-91855295D02*
X196619047Y-91998152D01*
X196619047Y-91998152D02*
X196571428Y-92093390D01*
X196571428Y-92093390D02*
X196523809Y-92141009D01*
X196523809Y-92141009D02*
X196428571Y-92188628D01*
X196428571Y-92188628D02*
X196047619Y-92188628D01*
X196952381Y-91664819D02*
X197190476Y-92664819D01*
X197190476Y-92664819D02*
X197380952Y-91950533D01*
X197380952Y-91950533D02*
X197571428Y-92664819D01*
X197571428Y-92664819D02*
X197809524Y-91664819D01*
X198761904Y-92664819D02*
X198428571Y-92188628D01*
X198190476Y-92664819D02*
X198190476Y-91664819D01*
X198190476Y-91664819D02*
X198571428Y-91664819D01*
X198571428Y-91664819D02*
X198666666Y-91712438D01*
X198666666Y-91712438D02*
X198714285Y-91760057D01*
X198714285Y-91760057D02*
X198761904Y-91855295D01*
X198761904Y-91855295D02*
X198761904Y-91998152D01*
X198761904Y-91998152D02*
X198714285Y-92093390D01*
X198714285Y-92093390D02*
X198666666Y-92141009D01*
X198666666Y-92141009D02*
X198571428Y-92188628D01*
X198571428Y-92188628D02*
X198190476Y-92188628D01*
X199666666Y-91664819D02*
X199190476Y-91664819D01*
X199190476Y-91664819D02*
X199142857Y-92141009D01*
X199142857Y-92141009D02*
X199190476Y-92093390D01*
X199190476Y-92093390D02*
X199285714Y-92045771D01*
X199285714Y-92045771D02*
X199523809Y-92045771D01*
X199523809Y-92045771D02*
X199619047Y-92093390D01*
X199619047Y-92093390D02*
X199666666Y-92141009D01*
X199666666Y-92141009D02*
X199714285Y-92236247D01*
X199714285Y-92236247D02*
X199714285Y-92474342D01*
X199714285Y-92474342D02*
X199666666Y-92569580D01*
X199666666Y-92569580D02*
X199619047Y-92617200D01*
X199619047Y-92617200D02*
X199523809Y-92664819D01*
X199523809Y-92664819D02*
X199285714Y-92664819D01*
X199285714Y-92664819D02*
X199190476Y-92617200D01*
X199190476Y-92617200D02*
X199142857Y-92569580D01*
X200000000Y-91664819D02*
X200333333Y-92664819D01*
X200333333Y-92664819D02*
X200666666Y-91664819D01*
X201000000Y-92569580D02*
X201047619Y-92617200D01*
X201047619Y-92617200D02*
X201000000Y-92664819D01*
X201000000Y-92664819D02*
X200952381Y-92617200D01*
X200952381Y-92617200D02*
X201000000Y-92569580D01*
X201000000Y-92569580D02*
X201000000Y-92664819D01*
X201428571Y-91760057D02*
X201476190Y-91712438D01*
X201476190Y-91712438D02*
X201571428Y-91664819D01*
X201571428Y-91664819D02*
X201809523Y-91664819D01*
X201809523Y-91664819D02*
X201904761Y-91712438D01*
X201904761Y-91712438D02*
X201952380Y-91760057D01*
X201952380Y-91760057D02*
X201999999Y-91855295D01*
X201999999Y-91855295D02*
X201999999Y-91950533D01*
X201999999Y-91950533D02*
X201952380Y-92093390D01*
X201952380Y-92093390D02*
X201380952Y-92664819D01*
X201380952Y-92664819D02*
X201999999Y-92664819D01*
X181634819Y-137036665D02*
X180634819Y-137036665D01*
X180730057Y-136608094D02*
X180682438Y-136560475D01*
X180682438Y-136560475D02*
X180634819Y-136465237D01*
X180634819Y-136465237D02*
X180634819Y-136227142D01*
X180634819Y-136227142D02*
X180682438Y-136131904D01*
X180682438Y-136131904D02*
X180730057Y-136084285D01*
X180730057Y-136084285D02*
X180825295Y-136036666D01*
X180825295Y-136036666D02*
X180920533Y-136036666D01*
X180920533Y-136036666D02*
X181063390Y-136084285D01*
X181063390Y-136084285D02*
X181634819Y-136655713D01*
X181634819Y-136655713D02*
X181634819Y-136036666D01*
X181539580Y-135036666D02*
X181587200Y-135084285D01*
X181587200Y-135084285D02*
X181634819Y-135227142D01*
X181634819Y-135227142D02*
X181634819Y-135322380D01*
X181634819Y-135322380D02*
X181587200Y-135465237D01*
X181587200Y-135465237D02*
X181491961Y-135560475D01*
X181491961Y-135560475D02*
X181396723Y-135608094D01*
X181396723Y-135608094D02*
X181206247Y-135655713D01*
X181206247Y-135655713D02*
X181063390Y-135655713D01*
X181063390Y-135655713D02*
X180872914Y-135608094D01*
X180872914Y-135608094D02*
X180777676Y-135560475D01*
X180777676Y-135560475D02*
X180682438Y-135465237D01*
X180682438Y-135465237D02*
X180634819Y-135322380D01*
X180634819Y-135322380D02*
X180634819Y-135227142D01*
X180634819Y-135227142D02*
X180682438Y-135084285D01*
X180682438Y-135084285D02*
X180730057Y-135036666D01*
X181634819Y-134084285D02*
X181634819Y-134655713D01*
X181634819Y-134369999D02*
X180634819Y-134369999D01*
X180634819Y-134369999D02*
X180777676Y-134465237D01*
X180777676Y-134465237D02*
X180872914Y-134560475D01*
X180872914Y-134560475D02*
X180920533Y-134655713D01*
X181539580Y-133655713D02*
X181587200Y-133608094D01*
X181587200Y-133608094D02*
X181634819Y-133655713D01*
X181634819Y-133655713D02*
X181587200Y-133703332D01*
X181587200Y-133703332D02*
X181539580Y-133655713D01*
X181539580Y-133655713D02*
X181634819Y-133655713D01*
X180730057Y-133227142D02*
X180682438Y-133179523D01*
X180682438Y-133179523D02*
X180634819Y-133084285D01*
X180634819Y-133084285D02*
X180634819Y-132846190D01*
X180634819Y-132846190D02*
X180682438Y-132750952D01*
X180682438Y-132750952D02*
X180730057Y-132703333D01*
X180730057Y-132703333D02*
X180825295Y-132655714D01*
X180825295Y-132655714D02*
X180920533Y-132655714D01*
X180920533Y-132655714D02*
X181063390Y-132703333D01*
X181063390Y-132703333D02*
X181634819Y-133274761D01*
X181634819Y-133274761D02*
X181634819Y-132655714D01*
X141294819Y-126738094D02*
X142104342Y-126738094D01*
X142104342Y-126738094D02*
X142199580Y-126690475D01*
X142199580Y-126690475D02*
X142247200Y-126642856D01*
X142247200Y-126642856D02*
X142294819Y-126547618D01*
X142294819Y-126547618D02*
X142294819Y-126357142D01*
X142294819Y-126357142D02*
X142247200Y-126261904D01*
X142247200Y-126261904D02*
X142199580Y-126214285D01*
X142199580Y-126214285D02*
X142104342Y-126166666D01*
X142104342Y-126166666D02*
X141294819Y-126166666D01*
X142294819Y-125166666D02*
X142294819Y-125738094D01*
X142294819Y-125452380D02*
X141294819Y-125452380D01*
X141294819Y-125452380D02*
X141437676Y-125547618D01*
X141437676Y-125547618D02*
X141532914Y-125642856D01*
X141532914Y-125642856D02*
X141580533Y-125738094D01*
X141294819Y-124547618D02*
X141294819Y-124452380D01*
X141294819Y-124452380D02*
X141342438Y-124357142D01*
X141342438Y-124357142D02*
X141390057Y-124309523D01*
X141390057Y-124309523D02*
X141485295Y-124261904D01*
X141485295Y-124261904D02*
X141675771Y-124214285D01*
X141675771Y-124214285D02*
X141913866Y-124214285D01*
X141913866Y-124214285D02*
X142104342Y-124261904D01*
X142104342Y-124261904D02*
X142199580Y-124309523D01*
X142199580Y-124309523D02*
X142247200Y-124357142D01*
X142247200Y-124357142D02*
X142294819Y-124452380D01*
X142294819Y-124452380D02*
X142294819Y-124547618D01*
X142294819Y-124547618D02*
X142247200Y-124642856D01*
X142247200Y-124642856D02*
X142199580Y-124690475D01*
X142199580Y-124690475D02*
X142104342Y-124738094D01*
X142104342Y-124738094D02*
X141913866Y-124785713D01*
X141913866Y-124785713D02*
X141675771Y-124785713D01*
X141675771Y-124785713D02*
X141485295Y-124738094D01*
X141485295Y-124738094D02*
X141390057Y-124690475D01*
X141390057Y-124690475D02*
X141342438Y-124642856D01*
X141342438Y-124642856D02*
X141294819Y-124547618D01*
X125507142Y-61049580D02*
X125459523Y-61097200D01*
X125459523Y-61097200D02*
X125316666Y-61144819D01*
X125316666Y-61144819D02*
X125221428Y-61144819D01*
X125221428Y-61144819D02*
X125078571Y-61097200D01*
X125078571Y-61097200D02*
X124983333Y-61001961D01*
X124983333Y-61001961D02*
X124935714Y-60906723D01*
X124935714Y-60906723D02*
X124888095Y-60716247D01*
X124888095Y-60716247D02*
X124888095Y-60573390D01*
X124888095Y-60573390D02*
X124935714Y-60382914D01*
X124935714Y-60382914D02*
X124983333Y-60287676D01*
X124983333Y-60287676D02*
X125078571Y-60192438D01*
X125078571Y-60192438D02*
X125221428Y-60144819D01*
X125221428Y-60144819D02*
X125316666Y-60144819D01*
X125316666Y-60144819D02*
X125459523Y-60192438D01*
X125459523Y-60192438D02*
X125507142Y-60240057D01*
X126459523Y-61144819D02*
X125888095Y-61144819D01*
X126173809Y-61144819D02*
X126173809Y-60144819D01*
X126173809Y-60144819D02*
X126078571Y-60287676D01*
X126078571Y-60287676D02*
X125983333Y-60382914D01*
X125983333Y-60382914D02*
X125888095Y-60430533D01*
X127411904Y-61144819D02*
X126840476Y-61144819D01*
X127126190Y-61144819D02*
X127126190Y-60144819D01*
X127126190Y-60144819D02*
X127030952Y-60287676D01*
X127030952Y-60287676D02*
X126935714Y-60382914D01*
X126935714Y-60382914D02*
X126840476Y-60430533D01*
X86636080Y-127289766D02*
X85921795Y-127289766D01*
X85921795Y-127289766D02*
X85778938Y-127242147D01*
X85778938Y-127242147D02*
X85683700Y-127146909D01*
X85683700Y-127146909D02*
X85636080Y-127004052D01*
X85636080Y-127004052D02*
X85636080Y-126908814D01*
X86302747Y-128194528D02*
X85636080Y-128194528D01*
X86683700Y-127956433D02*
X85969414Y-127718338D01*
X85969414Y-127718338D02*
X85969414Y-128337385D01*
X119544642Y-77299580D02*
X119497023Y-77347200D01*
X119497023Y-77347200D02*
X119354166Y-77394819D01*
X119354166Y-77394819D02*
X119258928Y-77394819D01*
X119258928Y-77394819D02*
X119116071Y-77347200D01*
X119116071Y-77347200D02*
X119020833Y-77251961D01*
X119020833Y-77251961D02*
X118973214Y-77156723D01*
X118973214Y-77156723D02*
X118925595Y-76966247D01*
X118925595Y-76966247D02*
X118925595Y-76823390D01*
X118925595Y-76823390D02*
X118973214Y-76632914D01*
X118973214Y-76632914D02*
X119020833Y-76537676D01*
X119020833Y-76537676D02*
X119116071Y-76442438D01*
X119116071Y-76442438D02*
X119258928Y-76394819D01*
X119258928Y-76394819D02*
X119354166Y-76394819D01*
X119354166Y-76394819D02*
X119497023Y-76442438D01*
X119497023Y-76442438D02*
X119544642Y-76490057D01*
X120497023Y-77394819D02*
X119925595Y-77394819D01*
X120211309Y-77394819D02*
X120211309Y-76394819D01*
X120211309Y-76394819D02*
X120116071Y-76537676D01*
X120116071Y-76537676D02*
X120020833Y-76632914D01*
X120020833Y-76632914D02*
X119925595Y-76680533D01*
X120877976Y-76490057D02*
X120925595Y-76442438D01*
X120925595Y-76442438D02*
X121020833Y-76394819D01*
X121020833Y-76394819D02*
X121258928Y-76394819D01*
X121258928Y-76394819D02*
X121354166Y-76442438D01*
X121354166Y-76442438D02*
X121401785Y-76490057D01*
X121401785Y-76490057D02*
X121449404Y-76585295D01*
X121449404Y-76585295D02*
X121449404Y-76680533D01*
X121449404Y-76680533D02*
X121401785Y-76823390D01*
X121401785Y-76823390D02*
X120830357Y-77394819D01*
X120830357Y-77394819D02*
X121449404Y-77394819D01*
X201827200Y-149234284D02*
X201874819Y-149091427D01*
X201874819Y-149091427D02*
X201874819Y-148853332D01*
X201874819Y-148853332D02*
X201827200Y-148758094D01*
X201827200Y-148758094D02*
X201779580Y-148710475D01*
X201779580Y-148710475D02*
X201684342Y-148662856D01*
X201684342Y-148662856D02*
X201589104Y-148662856D01*
X201589104Y-148662856D02*
X201493866Y-148710475D01*
X201493866Y-148710475D02*
X201446247Y-148758094D01*
X201446247Y-148758094D02*
X201398628Y-148853332D01*
X201398628Y-148853332D02*
X201351009Y-149043808D01*
X201351009Y-149043808D02*
X201303390Y-149139046D01*
X201303390Y-149139046D02*
X201255771Y-149186665D01*
X201255771Y-149186665D02*
X201160533Y-149234284D01*
X201160533Y-149234284D02*
X201065295Y-149234284D01*
X201065295Y-149234284D02*
X200970057Y-149186665D01*
X200970057Y-149186665D02*
X200922438Y-149139046D01*
X200922438Y-149139046D02*
X200874819Y-149043808D01*
X200874819Y-149043808D02*
X200874819Y-148805713D01*
X200874819Y-148805713D02*
X200922438Y-148662856D01*
X201874819Y-148234284D02*
X200874819Y-148234284D01*
X200874819Y-148234284D02*
X200874819Y-147853332D01*
X200874819Y-147853332D02*
X200922438Y-147758094D01*
X200922438Y-147758094D02*
X200970057Y-147710475D01*
X200970057Y-147710475D02*
X201065295Y-147662856D01*
X201065295Y-147662856D02*
X201208152Y-147662856D01*
X201208152Y-147662856D02*
X201303390Y-147710475D01*
X201303390Y-147710475D02*
X201351009Y-147758094D01*
X201351009Y-147758094D02*
X201398628Y-147853332D01*
X201398628Y-147853332D02*
X201398628Y-148234284D01*
X201874819Y-147234284D02*
X200874819Y-147234284D01*
X200970057Y-146805713D02*
X200922438Y-146758094D01*
X200922438Y-146758094D02*
X200874819Y-146662856D01*
X200874819Y-146662856D02*
X200874819Y-146424761D01*
X200874819Y-146424761D02*
X200922438Y-146329523D01*
X200922438Y-146329523D02*
X200970057Y-146281904D01*
X200970057Y-146281904D02*
X201065295Y-146234285D01*
X201065295Y-146234285D02*
X201160533Y-146234285D01*
X201160533Y-146234285D02*
X201303390Y-146281904D01*
X201303390Y-146281904D02*
X201874819Y-146853332D01*
X201874819Y-146853332D02*
X201874819Y-146234285D01*
X201779580Y-145805713D02*
X201827200Y-145758094D01*
X201827200Y-145758094D02*
X201874819Y-145805713D01*
X201874819Y-145805713D02*
X201827200Y-145853332D01*
X201827200Y-145853332D02*
X201779580Y-145805713D01*
X201779580Y-145805713D02*
X201874819Y-145805713D01*
X200970057Y-145377142D02*
X200922438Y-145329523D01*
X200922438Y-145329523D02*
X200874819Y-145234285D01*
X200874819Y-145234285D02*
X200874819Y-144996190D01*
X200874819Y-144996190D02*
X200922438Y-144900952D01*
X200922438Y-144900952D02*
X200970057Y-144853333D01*
X200970057Y-144853333D02*
X201065295Y-144805714D01*
X201065295Y-144805714D02*
X201160533Y-144805714D01*
X201160533Y-144805714D02*
X201303390Y-144853333D01*
X201303390Y-144853333D02*
X201874819Y-145424761D01*
X201874819Y-145424761D02*
X201874819Y-144805714D01*
X125983333Y-65174819D02*
X125650000Y-64698628D01*
X125411905Y-65174819D02*
X125411905Y-64174819D01*
X125411905Y-64174819D02*
X125792857Y-64174819D01*
X125792857Y-64174819D02*
X125888095Y-64222438D01*
X125888095Y-64222438D02*
X125935714Y-64270057D01*
X125935714Y-64270057D02*
X125983333Y-64365295D01*
X125983333Y-64365295D02*
X125983333Y-64508152D01*
X125983333Y-64508152D02*
X125935714Y-64603390D01*
X125935714Y-64603390D02*
X125888095Y-64651009D01*
X125888095Y-64651009D02*
X125792857Y-64698628D01*
X125792857Y-64698628D02*
X125411905Y-64698628D01*
X126888095Y-64174819D02*
X126411905Y-64174819D01*
X126411905Y-64174819D02*
X126364286Y-64651009D01*
X126364286Y-64651009D02*
X126411905Y-64603390D01*
X126411905Y-64603390D02*
X126507143Y-64555771D01*
X126507143Y-64555771D02*
X126745238Y-64555771D01*
X126745238Y-64555771D02*
X126840476Y-64603390D01*
X126840476Y-64603390D02*
X126888095Y-64651009D01*
X126888095Y-64651009D02*
X126935714Y-64746247D01*
X126935714Y-64746247D02*
X126935714Y-64984342D01*
X126935714Y-64984342D02*
X126888095Y-65079580D01*
X126888095Y-65079580D02*
X126840476Y-65127200D01*
X126840476Y-65127200D02*
X126745238Y-65174819D01*
X126745238Y-65174819D02*
X126507143Y-65174819D01*
X126507143Y-65174819D02*
X126411905Y-65127200D01*
X126411905Y-65127200D02*
X126364286Y-65079580D01*
X157404819Y-74608094D02*
X158214342Y-74608094D01*
X158214342Y-74608094D02*
X158309580Y-74560475D01*
X158309580Y-74560475D02*
X158357200Y-74512856D01*
X158357200Y-74512856D02*
X158404819Y-74417618D01*
X158404819Y-74417618D02*
X158404819Y-74227142D01*
X158404819Y-74227142D02*
X158357200Y-74131904D01*
X158357200Y-74131904D02*
X158309580Y-74084285D01*
X158309580Y-74084285D02*
X158214342Y-74036666D01*
X158214342Y-74036666D02*
X157404819Y-74036666D01*
X158404819Y-73036666D02*
X158404819Y-73608094D01*
X158404819Y-73322380D02*
X157404819Y-73322380D01*
X157404819Y-73322380D02*
X157547676Y-73417618D01*
X157547676Y-73417618D02*
X157642914Y-73512856D01*
X157642914Y-73512856D02*
X157690533Y-73608094D01*
X157500057Y-72655713D02*
X157452438Y-72608094D01*
X157452438Y-72608094D02*
X157404819Y-72512856D01*
X157404819Y-72512856D02*
X157404819Y-72274761D01*
X157404819Y-72274761D02*
X157452438Y-72179523D01*
X157452438Y-72179523D02*
X157500057Y-72131904D01*
X157500057Y-72131904D02*
X157595295Y-72084285D01*
X157595295Y-72084285D02*
X157690533Y-72084285D01*
X157690533Y-72084285D02*
X157833390Y-72131904D01*
X157833390Y-72131904D02*
X158404819Y-72703332D01*
X158404819Y-72703332D02*
X158404819Y-72084285D01*
X161112142Y-96649819D02*
X160778809Y-96173628D01*
X160540714Y-96649819D02*
X160540714Y-95649819D01*
X160540714Y-95649819D02*
X160921666Y-95649819D01*
X160921666Y-95649819D02*
X161016904Y-95697438D01*
X161016904Y-95697438D02*
X161064523Y-95745057D01*
X161064523Y-95745057D02*
X161112142Y-95840295D01*
X161112142Y-95840295D02*
X161112142Y-95983152D01*
X161112142Y-95983152D02*
X161064523Y-96078390D01*
X161064523Y-96078390D02*
X161016904Y-96126009D01*
X161016904Y-96126009D02*
X160921666Y-96173628D01*
X160921666Y-96173628D02*
X160540714Y-96173628D01*
X161493095Y-95745057D02*
X161540714Y-95697438D01*
X161540714Y-95697438D02*
X161635952Y-95649819D01*
X161635952Y-95649819D02*
X161874047Y-95649819D01*
X161874047Y-95649819D02*
X161969285Y-95697438D01*
X161969285Y-95697438D02*
X162016904Y-95745057D01*
X162016904Y-95745057D02*
X162064523Y-95840295D01*
X162064523Y-95840295D02*
X162064523Y-95935533D01*
X162064523Y-95935533D02*
X162016904Y-96078390D01*
X162016904Y-96078390D02*
X161445476Y-96649819D01*
X161445476Y-96649819D02*
X162064523Y-96649819D01*
X162683571Y-95649819D02*
X162778809Y-95649819D01*
X162778809Y-95649819D02*
X162874047Y-95697438D01*
X162874047Y-95697438D02*
X162921666Y-95745057D01*
X162921666Y-95745057D02*
X162969285Y-95840295D01*
X162969285Y-95840295D02*
X163016904Y-96030771D01*
X163016904Y-96030771D02*
X163016904Y-96268866D01*
X163016904Y-96268866D02*
X162969285Y-96459342D01*
X162969285Y-96459342D02*
X162921666Y-96554580D01*
X162921666Y-96554580D02*
X162874047Y-96602200D01*
X162874047Y-96602200D02*
X162778809Y-96649819D01*
X162778809Y-96649819D02*
X162683571Y-96649819D01*
X162683571Y-96649819D02*
X162588333Y-96602200D01*
X162588333Y-96602200D02*
X162540714Y-96554580D01*
X162540714Y-96554580D02*
X162493095Y-96459342D01*
X162493095Y-96459342D02*
X162445476Y-96268866D01*
X162445476Y-96268866D02*
X162445476Y-96030771D01*
X162445476Y-96030771D02*
X162493095Y-95840295D01*
X162493095Y-95840295D02*
X162540714Y-95745057D01*
X162540714Y-95745057D02*
X162588333Y-95697438D01*
X162588333Y-95697438D02*
X162683571Y-95649819D01*
X92433333Y-59674819D02*
X92100000Y-59198628D01*
X91861905Y-59674819D02*
X91861905Y-58674819D01*
X91861905Y-58674819D02*
X92242857Y-58674819D01*
X92242857Y-58674819D02*
X92338095Y-58722438D01*
X92338095Y-58722438D02*
X92385714Y-58770057D01*
X92385714Y-58770057D02*
X92433333Y-58865295D01*
X92433333Y-58865295D02*
X92433333Y-59008152D01*
X92433333Y-59008152D02*
X92385714Y-59103390D01*
X92385714Y-59103390D02*
X92338095Y-59151009D01*
X92338095Y-59151009D02*
X92242857Y-59198628D01*
X92242857Y-59198628D02*
X91861905Y-59198628D01*
X92814286Y-58770057D02*
X92861905Y-58722438D01*
X92861905Y-58722438D02*
X92957143Y-58674819D01*
X92957143Y-58674819D02*
X93195238Y-58674819D01*
X93195238Y-58674819D02*
X93290476Y-58722438D01*
X93290476Y-58722438D02*
X93338095Y-58770057D01*
X93338095Y-58770057D02*
X93385714Y-58865295D01*
X93385714Y-58865295D02*
X93385714Y-58960533D01*
X93385714Y-58960533D02*
X93338095Y-59103390D01*
X93338095Y-59103390D02*
X92766667Y-59674819D01*
X92766667Y-59674819D02*
X93385714Y-59674819D01*
X125507142Y-101424819D02*
X125173809Y-100948628D01*
X124935714Y-101424819D02*
X124935714Y-100424819D01*
X124935714Y-100424819D02*
X125316666Y-100424819D01*
X125316666Y-100424819D02*
X125411904Y-100472438D01*
X125411904Y-100472438D02*
X125459523Y-100520057D01*
X125459523Y-100520057D02*
X125507142Y-100615295D01*
X125507142Y-100615295D02*
X125507142Y-100758152D01*
X125507142Y-100758152D02*
X125459523Y-100853390D01*
X125459523Y-100853390D02*
X125411904Y-100901009D01*
X125411904Y-100901009D02*
X125316666Y-100948628D01*
X125316666Y-100948628D02*
X124935714Y-100948628D01*
X126459523Y-101424819D02*
X125888095Y-101424819D01*
X126173809Y-101424819D02*
X126173809Y-100424819D01*
X126173809Y-100424819D02*
X126078571Y-100567676D01*
X126078571Y-100567676D02*
X125983333Y-100662914D01*
X125983333Y-100662914D02*
X125888095Y-100710533D01*
X127078571Y-100424819D02*
X127173809Y-100424819D01*
X127173809Y-100424819D02*
X127269047Y-100472438D01*
X127269047Y-100472438D02*
X127316666Y-100520057D01*
X127316666Y-100520057D02*
X127364285Y-100615295D01*
X127364285Y-100615295D02*
X127411904Y-100805771D01*
X127411904Y-100805771D02*
X127411904Y-101043866D01*
X127411904Y-101043866D02*
X127364285Y-101234342D01*
X127364285Y-101234342D02*
X127316666Y-101329580D01*
X127316666Y-101329580D02*
X127269047Y-101377200D01*
X127269047Y-101377200D02*
X127173809Y-101424819D01*
X127173809Y-101424819D02*
X127078571Y-101424819D01*
X127078571Y-101424819D02*
X126983333Y-101377200D01*
X126983333Y-101377200D02*
X126935714Y-101329580D01*
X126935714Y-101329580D02*
X126888095Y-101234342D01*
X126888095Y-101234342D02*
X126840476Y-101043866D01*
X126840476Y-101043866D02*
X126840476Y-100805771D01*
X126840476Y-100805771D02*
X126888095Y-100615295D01*
X126888095Y-100615295D02*
X126935714Y-100520057D01*
X126935714Y-100520057D02*
X126983333Y-100472438D01*
X126983333Y-100472438D02*
X127078571Y-100424819D01*
X93208333Y-92374580D02*
X93160714Y-92422200D01*
X93160714Y-92422200D02*
X93017857Y-92469819D01*
X93017857Y-92469819D02*
X92922619Y-92469819D01*
X92922619Y-92469819D02*
X92779762Y-92422200D01*
X92779762Y-92422200D02*
X92684524Y-92326961D01*
X92684524Y-92326961D02*
X92636905Y-92231723D01*
X92636905Y-92231723D02*
X92589286Y-92041247D01*
X92589286Y-92041247D02*
X92589286Y-91898390D01*
X92589286Y-91898390D02*
X92636905Y-91707914D01*
X92636905Y-91707914D02*
X92684524Y-91612676D01*
X92684524Y-91612676D02*
X92779762Y-91517438D01*
X92779762Y-91517438D02*
X92922619Y-91469819D01*
X92922619Y-91469819D02*
X93017857Y-91469819D01*
X93017857Y-91469819D02*
X93160714Y-91517438D01*
X93160714Y-91517438D02*
X93208333Y-91565057D01*
X94113095Y-91469819D02*
X93636905Y-91469819D01*
X93636905Y-91469819D02*
X93589286Y-91946009D01*
X93589286Y-91946009D02*
X93636905Y-91898390D01*
X93636905Y-91898390D02*
X93732143Y-91850771D01*
X93732143Y-91850771D02*
X93970238Y-91850771D01*
X93970238Y-91850771D02*
X94065476Y-91898390D01*
X94065476Y-91898390D02*
X94113095Y-91946009D01*
X94113095Y-91946009D02*
X94160714Y-92041247D01*
X94160714Y-92041247D02*
X94160714Y-92279342D01*
X94160714Y-92279342D02*
X94113095Y-92374580D01*
X94113095Y-92374580D02*
X94065476Y-92422200D01*
X94065476Y-92422200D02*
X93970238Y-92469819D01*
X93970238Y-92469819D02*
X93732143Y-92469819D01*
X93732143Y-92469819D02*
X93636905Y-92422200D01*
X93636905Y-92422200D02*
X93589286Y-92374580D01*
X125983333Y-77049580D02*
X125935714Y-77097200D01*
X125935714Y-77097200D02*
X125792857Y-77144819D01*
X125792857Y-77144819D02*
X125697619Y-77144819D01*
X125697619Y-77144819D02*
X125554762Y-77097200D01*
X125554762Y-77097200D02*
X125459524Y-77001961D01*
X125459524Y-77001961D02*
X125411905Y-76906723D01*
X125411905Y-76906723D02*
X125364286Y-76716247D01*
X125364286Y-76716247D02*
X125364286Y-76573390D01*
X125364286Y-76573390D02*
X125411905Y-76382914D01*
X125411905Y-76382914D02*
X125459524Y-76287676D01*
X125459524Y-76287676D02*
X125554762Y-76192438D01*
X125554762Y-76192438D02*
X125697619Y-76144819D01*
X125697619Y-76144819D02*
X125792857Y-76144819D01*
X125792857Y-76144819D02*
X125935714Y-76192438D01*
X125935714Y-76192438D02*
X125983333Y-76240057D01*
X126364286Y-76240057D02*
X126411905Y-76192438D01*
X126411905Y-76192438D02*
X126507143Y-76144819D01*
X126507143Y-76144819D02*
X126745238Y-76144819D01*
X126745238Y-76144819D02*
X126840476Y-76192438D01*
X126840476Y-76192438D02*
X126888095Y-76240057D01*
X126888095Y-76240057D02*
X126935714Y-76335295D01*
X126935714Y-76335295D02*
X126935714Y-76430533D01*
X126935714Y-76430533D02*
X126888095Y-76573390D01*
X126888095Y-76573390D02*
X126316667Y-77144819D01*
X126316667Y-77144819D02*
X126935714Y-77144819D01*
X189771429Y-103359819D02*
X189771429Y-102359819D01*
X189771429Y-102359819D02*
X190152381Y-102359819D01*
X190152381Y-102359819D02*
X190247619Y-102407438D01*
X190247619Y-102407438D02*
X190295238Y-102455057D01*
X190295238Y-102455057D02*
X190342857Y-102550295D01*
X190342857Y-102550295D02*
X190342857Y-102693152D01*
X190342857Y-102693152D02*
X190295238Y-102788390D01*
X190295238Y-102788390D02*
X190247619Y-102836009D01*
X190247619Y-102836009D02*
X190152381Y-102883628D01*
X190152381Y-102883628D02*
X189771429Y-102883628D01*
X190676191Y-102359819D02*
X190914286Y-103359819D01*
X190914286Y-103359819D02*
X191104762Y-102645533D01*
X191104762Y-102645533D02*
X191295238Y-103359819D01*
X191295238Y-103359819D02*
X191533334Y-102359819D01*
X192485714Y-103359819D02*
X192152381Y-102883628D01*
X191914286Y-103359819D02*
X191914286Y-102359819D01*
X191914286Y-102359819D02*
X192295238Y-102359819D01*
X192295238Y-102359819D02*
X192390476Y-102407438D01*
X192390476Y-102407438D02*
X192438095Y-102455057D01*
X192438095Y-102455057D02*
X192485714Y-102550295D01*
X192485714Y-102550295D02*
X192485714Y-102693152D01*
X192485714Y-102693152D02*
X192438095Y-102788390D01*
X192438095Y-102788390D02*
X192390476Y-102836009D01*
X192390476Y-102836009D02*
X192295238Y-102883628D01*
X192295238Y-102883628D02*
X191914286Y-102883628D01*
X192819048Y-102359819D02*
X193438095Y-102359819D01*
X193438095Y-102359819D02*
X193104762Y-102740771D01*
X193104762Y-102740771D02*
X193247619Y-102740771D01*
X193247619Y-102740771D02*
X193342857Y-102788390D01*
X193342857Y-102788390D02*
X193390476Y-102836009D01*
X193390476Y-102836009D02*
X193438095Y-102931247D01*
X193438095Y-102931247D02*
X193438095Y-103169342D01*
X193438095Y-103169342D02*
X193390476Y-103264580D01*
X193390476Y-103264580D02*
X193342857Y-103312200D01*
X193342857Y-103312200D02*
X193247619Y-103359819D01*
X193247619Y-103359819D02*
X192961905Y-103359819D01*
X192961905Y-103359819D02*
X192866667Y-103312200D01*
X192866667Y-103312200D02*
X192819048Y-103264580D01*
X193723810Y-102359819D02*
X194057143Y-103359819D01*
X194057143Y-103359819D02*
X194390476Y-102359819D01*
X194628572Y-102359819D02*
X195247619Y-102359819D01*
X195247619Y-102359819D02*
X194914286Y-102740771D01*
X194914286Y-102740771D02*
X195057143Y-102740771D01*
X195057143Y-102740771D02*
X195152381Y-102788390D01*
X195152381Y-102788390D02*
X195200000Y-102836009D01*
X195200000Y-102836009D02*
X195247619Y-102931247D01*
X195247619Y-102931247D02*
X195247619Y-103169342D01*
X195247619Y-103169342D02*
X195200000Y-103264580D01*
X195200000Y-103264580D02*
X195152381Y-103312200D01*
X195152381Y-103312200D02*
X195057143Y-103359819D01*
X195057143Y-103359819D02*
X194771429Y-103359819D01*
X194771429Y-103359819D02*
X194676191Y-103312200D01*
X194676191Y-103312200D02*
X194628572Y-103264580D01*
X195676191Y-103264580D02*
X195723810Y-103312200D01*
X195723810Y-103312200D02*
X195676191Y-103359819D01*
X195676191Y-103359819D02*
X195628572Y-103312200D01*
X195628572Y-103312200D02*
X195676191Y-103264580D01*
X195676191Y-103264580D02*
X195676191Y-103359819D01*
X196676190Y-103359819D02*
X196104762Y-103359819D01*
X196390476Y-103359819D02*
X196390476Y-102359819D01*
X196390476Y-102359819D02*
X196295238Y-102502676D01*
X196295238Y-102502676D02*
X196200000Y-102597914D01*
X196200000Y-102597914D02*
X196104762Y-102645533D01*
X196880953Y-114124819D02*
X196880953Y-113124819D01*
X196880953Y-113124819D02*
X197261905Y-113124819D01*
X197261905Y-113124819D02*
X197357143Y-113172438D01*
X197357143Y-113172438D02*
X197404762Y-113220057D01*
X197404762Y-113220057D02*
X197452381Y-113315295D01*
X197452381Y-113315295D02*
X197452381Y-113458152D01*
X197452381Y-113458152D02*
X197404762Y-113553390D01*
X197404762Y-113553390D02*
X197357143Y-113601009D01*
X197357143Y-113601009D02*
X197261905Y-113648628D01*
X197261905Y-113648628D02*
X196880953Y-113648628D01*
X197785715Y-113124819D02*
X198023810Y-114124819D01*
X198023810Y-114124819D02*
X198214286Y-113410533D01*
X198214286Y-113410533D02*
X198404762Y-114124819D01*
X198404762Y-114124819D02*
X198642858Y-113124819D01*
X199023810Y-114124819D02*
X199023810Y-113124819D01*
X199023810Y-113124819D02*
X199357143Y-113839104D01*
X199357143Y-113839104D02*
X199690476Y-113124819D01*
X199690476Y-113124819D02*
X199690476Y-114124819D01*
X200166667Y-114029580D02*
X200214286Y-114077200D01*
X200214286Y-114077200D02*
X200166667Y-114124819D01*
X200166667Y-114124819D02*
X200119048Y-114077200D01*
X200119048Y-114077200D02*
X200166667Y-114029580D01*
X200166667Y-114029580D02*
X200166667Y-114124819D01*
X200595238Y-113220057D02*
X200642857Y-113172438D01*
X200642857Y-113172438D02*
X200738095Y-113124819D01*
X200738095Y-113124819D02*
X200976190Y-113124819D01*
X200976190Y-113124819D02*
X201071428Y-113172438D01*
X201071428Y-113172438D02*
X201119047Y-113220057D01*
X201119047Y-113220057D02*
X201166666Y-113315295D01*
X201166666Y-113315295D02*
X201166666Y-113410533D01*
X201166666Y-113410533D02*
X201119047Y-113553390D01*
X201119047Y-113553390D02*
X200547619Y-114124819D01*
X200547619Y-114124819D02*
X201166666Y-114124819D01*
X86636080Y-56789766D02*
X85921795Y-56789766D01*
X85921795Y-56789766D02*
X85778938Y-56742147D01*
X85778938Y-56742147D02*
X85683700Y-56646909D01*
X85683700Y-56646909D02*
X85636080Y-56504052D01*
X85636080Y-56504052D02*
X85636080Y-56408814D01*
X85636080Y-57789766D02*
X85636080Y-57218338D01*
X85636080Y-57504052D02*
X86636080Y-57504052D01*
X86636080Y-57504052D02*
X86493223Y-57408814D01*
X86493223Y-57408814D02*
X86397985Y-57313576D01*
X86397985Y-57313576D02*
X86350366Y-57218338D01*
X125983333Y-109299580D02*
X125935714Y-109347200D01*
X125935714Y-109347200D02*
X125792857Y-109394819D01*
X125792857Y-109394819D02*
X125697619Y-109394819D01*
X125697619Y-109394819D02*
X125554762Y-109347200D01*
X125554762Y-109347200D02*
X125459524Y-109251961D01*
X125459524Y-109251961D02*
X125411905Y-109156723D01*
X125411905Y-109156723D02*
X125364286Y-108966247D01*
X125364286Y-108966247D02*
X125364286Y-108823390D01*
X125364286Y-108823390D02*
X125411905Y-108632914D01*
X125411905Y-108632914D02*
X125459524Y-108537676D01*
X125459524Y-108537676D02*
X125554762Y-108442438D01*
X125554762Y-108442438D02*
X125697619Y-108394819D01*
X125697619Y-108394819D02*
X125792857Y-108394819D01*
X125792857Y-108394819D02*
X125935714Y-108442438D01*
X125935714Y-108442438D02*
X125983333Y-108490057D01*
X126840476Y-108728152D02*
X126840476Y-109394819D01*
X126602381Y-108347200D02*
X126364286Y-109061485D01*
X126364286Y-109061485D02*
X126983333Y-109061485D01*
X80861905Y-67504819D02*
X80861905Y-66504819D01*
X80861905Y-66504819D02*
X81100000Y-66504819D01*
X81100000Y-66504819D02*
X81242857Y-66552438D01*
X81242857Y-66552438D02*
X81338095Y-66647676D01*
X81338095Y-66647676D02*
X81385714Y-66742914D01*
X81385714Y-66742914D02*
X81433333Y-66933390D01*
X81433333Y-66933390D02*
X81433333Y-67076247D01*
X81433333Y-67076247D02*
X81385714Y-67266723D01*
X81385714Y-67266723D02*
X81338095Y-67361961D01*
X81338095Y-67361961D02*
X81242857Y-67457200D01*
X81242857Y-67457200D02*
X81100000Y-67504819D01*
X81100000Y-67504819D02*
X80861905Y-67504819D01*
X82385714Y-67504819D02*
X81814286Y-67504819D01*
X82100000Y-67504819D02*
X82100000Y-66504819D01*
X82100000Y-66504819D02*
X82004762Y-66647676D01*
X82004762Y-66647676D02*
X81909524Y-66742914D01*
X81909524Y-66742914D02*
X81814286Y-66790533D01*
X128699642Y-133699819D02*
X128366309Y-133223628D01*
X128128214Y-133699819D02*
X128128214Y-132699819D01*
X128128214Y-132699819D02*
X128509166Y-132699819D01*
X128509166Y-132699819D02*
X128604404Y-132747438D01*
X128604404Y-132747438D02*
X128652023Y-132795057D01*
X128652023Y-132795057D02*
X128699642Y-132890295D01*
X128699642Y-132890295D02*
X128699642Y-133033152D01*
X128699642Y-133033152D02*
X128652023Y-133128390D01*
X128652023Y-133128390D02*
X128604404Y-133176009D01*
X128604404Y-133176009D02*
X128509166Y-133223628D01*
X128509166Y-133223628D02*
X128128214Y-133223628D01*
X129080595Y-132795057D02*
X129128214Y-132747438D01*
X129128214Y-132747438D02*
X129223452Y-132699819D01*
X129223452Y-132699819D02*
X129461547Y-132699819D01*
X129461547Y-132699819D02*
X129556785Y-132747438D01*
X129556785Y-132747438D02*
X129604404Y-132795057D01*
X129604404Y-132795057D02*
X129652023Y-132890295D01*
X129652023Y-132890295D02*
X129652023Y-132985533D01*
X129652023Y-132985533D02*
X129604404Y-133128390D01*
X129604404Y-133128390D02*
X129032976Y-133699819D01*
X129032976Y-133699819D02*
X129652023Y-133699819D01*
X130509166Y-133033152D02*
X130509166Y-133699819D01*
X130271071Y-132652200D02*
X130032976Y-133366485D01*
X130032976Y-133366485D02*
X130652023Y-133366485D01*
X202071429Y-103029819D02*
X202071429Y-102029819D01*
X202071429Y-102029819D02*
X202452381Y-102029819D01*
X202452381Y-102029819D02*
X202547619Y-102077438D01*
X202547619Y-102077438D02*
X202595238Y-102125057D01*
X202595238Y-102125057D02*
X202642857Y-102220295D01*
X202642857Y-102220295D02*
X202642857Y-102363152D01*
X202642857Y-102363152D02*
X202595238Y-102458390D01*
X202595238Y-102458390D02*
X202547619Y-102506009D01*
X202547619Y-102506009D02*
X202452381Y-102553628D01*
X202452381Y-102553628D02*
X202071429Y-102553628D01*
X202976191Y-102029819D02*
X203214286Y-103029819D01*
X203214286Y-103029819D02*
X203404762Y-102315533D01*
X203404762Y-102315533D02*
X203595238Y-103029819D01*
X203595238Y-103029819D02*
X203833334Y-102029819D01*
X204785714Y-103029819D02*
X204452381Y-102553628D01*
X204214286Y-103029819D02*
X204214286Y-102029819D01*
X204214286Y-102029819D02*
X204595238Y-102029819D01*
X204595238Y-102029819D02*
X204690476Y-102077438D01*
X204690476Y-102077438D02*
X204738095Y-102125057D01*
X204738095Y-102125057D02*
X204785714Y-102220295D01*
X204785714Y-102220295D02*
X204785714Y-102363152D01*
X204785714Y-102363152D02*
X204738095Y-102458390D01*
X204738095Y-102458390D02*
X204690476Y-102506009D01*
X204690476Y-102506009D02*
X204595238Y-102553628D01*
X204595238Y-102553628D02*
X204214286Y-102553628D01*
X205119048Y-102029819D02*
X205738095Y-102029819D01*
X205738095Y-102029819D02*
X205404762Y-102410771D01*
X205404762Y-102410771D02*
X205547619Y-102410771D01*
X205547619Y-102410771D02*
X205642857Y-102458390D01*
X205642857Y-102458390D02*
X205690476Y-102506009D01*
X205690476Y-102506009D02*
X205738095Y-102601247D01*
X205738095Y-102601247D02*
X205738095Y-102839342D01*
X205738095Y-102839342D02*
X205690476Y-102934580D01*
X205690476Y-102934580D02*
X205642857Y-102982200D01*
X205642857Y-102982200D02*
X205547619Y-103029819D01*
X205547619Y-103029819D02*
X205261905Y-103029819D01*
X205261905Y-103029819D02*
X205166667Y-102982200D01*
X205166667Y-102982200D02*
X205119048Y-102934580D01*
X206023810Y-102029819D02*
X206357143Y-103029819D01*
X206357143Y-103029819D02*
X206690476Y-102029819D01*
X206928572Y-102029819D02*
X207547619Y-102029819D01*
X207547619Y-102029819D02*
X207214286Y-102410771D01*
X207214286Y-102410771D02*
X207357143Y-102410771D01*
X207357143Y-102410771D02*
X207452381Y-102458390D01*
X207452381Y-102458390D02*
X207500000Y-102506009D01*
X207500000Y-102506009D02*
X207547619Y-102601247D01*
X207547619Y-102601247D02*
X207547619Y-102839342D01*
X207547619Y-102839342D02*
X207500000Y-102934580D01*
X207500000Y-102934580D02*
X207452381Y-102982200D01*
X207452381Y-102982200D02*
X207357143Y-103029819D01*
X207357143Y-103029819D02*
X207071429Y-103029819D01*
X207071429Y-103029819D02*
X206976191Y-102982200D01*
X206976191Y-102982200D02*
X206928572Y-102934580D01*
X207976191Y-102934580D02*
X208023810Y-102982200D01*
X208023810Y-102982200D02*
X207976191Y-103029819D01*
X207976191Y-103029819D02*
X207928572Y-102982200D01*
X207928572Y-102982200D02*
X207976191Y-102934580D01*
X207976191Y-102934580D02*
X207976191Y-103029819D01*
X208357143Y-102029819D02*
X208976190Y-102029819D01*
X208976190Y-102029819D02*
X208642857Y-102410771D01*
X208642857Y-102410771D02*
X208785714Y-102410771D01*
X208785714Y-102410771D02*
X208880952Y-102458390D01*
X208880952Y-102458390D02*
X208928571Y-102506009D01*
X208928571Y-102506009D02*
X208976190Y-102601247D01*
X208976190Y-102601247D02*
X208976190Y-102839342D01*
X208976190Y-102839342D02*
X208928571Y-102934580D01*
X208928571Y-102934580D02*
X208880952Y-102982200D01*
X208880952Y-102982200D02*
X208785714Y-103029819D01*
X208785714Y-103029819D02*
X208500000Y-103029819D01*
X208500000Y-103029819D02*
X208404762Y-102982200D01*
X208404762Y-102982200D02*
X208357143Y-102934580D01*
X98744819Y-148714285D02*
X97744819Y-148714285D01*
X97744819Y-148714285D02*
X97744819Y-148476190D01*
X97744819Y-148476190D02*
X97792438Y-148333333D01*
X97792438Y-148333333D02*
X97887676Y-148238095D01*
X97887676Y-148238095D02*
X97982914Y-148190476D01*
X97982914Y-148190476D02*
X98173390Y-148142857D01*
X98173390Y-148142857D02*
X98316247Y-148142857D01*
X98316247Y-148142857D02*
X98506723Y-148190476D01*
X98506723Y-148190476D02*
X98601961Y-148238095D01*
X98601961Y-148238095D02*
X98697200Y-148333333D01*
X98697200Y-148333333D02*
X98744819Y-148476190D01*
X98744819Y-148476190D02*
X98744819Y-148714285D01*
X98744819Y-147190476D02*
X98744819Y-147761904D01*
X98744819Y-147476190D02*
X97744819Y-147476190D01*
X97744819Y-147476190D02*
X97887676Y-147571428D01*
X97887676Y-147571428D02*
X97982914Y-147666666D01*
X97982914Y-147666666D02*
X98030533Y-147761904D01*
X98078152Y-146333333D02*
X98744819Y-146333333D01*
X97697200Y-146571428D02*
X98411485Y-146809523D01*
X98411485Y-146809523D02*
X98411485Y-146190476D01*
X96850476Y-109799819D02*
X97517142Y-110799819D01*
X97517142Y-109799819D02*
X96850476Y-110799819D01*
X97850476Y-109895057D02*
X97898095Y-109847438D01*
X97898095Y-109847438D02*
X97993333Y-109799819D01*
X97993333Y-109799819D02*
X98231428Y-109799819D01*
X98231428Y-109799819D02*
X98326666Y-109847438D01*
X98326666Y-109847438D02*
X98374285Y-109895057D01*
X98374285Y-109895057D02*
X98421904Y-109990295D01*
X98421904Y-109990295D02*
X98421904Y-110085533D01*
X98421904Y-110085533D02*
X98374285Y-110228390D01*
X98374285Y-110228390D02*
X97802857Y-110799819D01*
X97802857Y-110799819D02*
X98421904Y-110799819D01*
X189785714Y-51379819D02*
X189785714Y-50379819D01*
X189785714Y-50379819D02*
X190023809Y-50379819D01*
X190023809Y-50379819D02*
X190166666Y-50427438D01*
X190166666Y-50427438D02*
X190261904Y-50522676D01*
X190261904Y-50522676D02*
X190309523Y-50617914D01*
X190309523Y-50617914D02*
X190357142Y-50808390D01*
X190357142Y-50808390D02*
X190357142Y-50951247D01*
X190357142Y-50951247D02*
X190309523Y-51141723D01*
X190309523Y-51141723D02*
X190261904Y-51236961D01*
X190261904Y-51236961D02*
X190166666Y-51332200D01*
X190166666Y-51332200D02*
X190023809Y-51379819D01*
X190023809Y-51379819D02*
X189785714Y-51379819D01*
X190785714Y-51379819D02*
X190785714Y-50379819D01*
X191214285Y-51332200D02*
X191357142Y-51379819D01*
X191357142Y-51379819D02*
X191595237Y-51379819D01*
X191595237Y-51379819D02*
X191690475Y-51332200D01*
X191690475Y-51332200D02*
X191738094Y-51284580D01*
X191738094Y-51284580D02*
X191785713Y-51189342D01*
X191785713Y-51189342D02*
X191785713Y-51094104D01*
X191785713Y-51094104D02*
X191738094Y-50998866D01*
X191738094Y-50998866D02*
X191690475Y-50951247D01*
X191690475Y-50951247D02*
X191595237Y-50903628D01*
X191595237Y-50903628D02*
X191404761Y-50856009D01*
X191404761Y-50856009D02*
X191309523Y-50808390D01*
X191309523Y-50808390D02*
X191261904Y-50760771D01*
X191261904Y-50760771D02*
X191214285Y-50665533D01*
X191214285Y-50665533D02*
X191214285Y-50570295D01*
X191214285Y-50570295D02*
X191261904Y-50475057D01*
X191261904Y-50475057D02*
X191309523Y-50427438D01*
X191309523Y-50427438D02*
X191404761Y-50379819D01*
X191404761Y-50379819D02*
X191642856Y-50379819D01*
X191642856Y-50379819D02*
X191785713Y-50427438D01*
X192214285Y-51379819D02*
X192214285Y-50379819D01*
X192214285Y-50379819D02*
X192595237Y-50379819D01*
X192595237Y-50379819D02*
X192690475Y-50427438D01*
X192690475Y-50427438D02*
X192738094Y-50475057D01*
X192738094Y-50475057D02*
X192785713Y-50570295D01*
X192785713Y-50570295D02*
X192785713Y-50713152D01*
X192785713Y-50713152D02*
X192738094Y-50808390D01*
X192738094Y-50808390D02*
X192690475Y-50856009D01*
X192690475Y-50856009D02*
X192595237Y-50903628D01*
X192595237Y-50903628D02*
X192214285Y-50903628D01*
X193690475Y-51379819D02*
X193214285Y-51379819D01*
X193214285Y-51379819D02*
X193214285Y-50379819D01*
X193976190Y-51094104D02*
X194452380Y-51094104D01*
X193880952Y-51379819D02*
X194214285Y-50379819D01*
X194214285Y-50379819D02*
X194547618Y-51379819D01*
X195071428Y-50903628D02*
X195071428Y-51379819D01*
X194738095Y-50379819D02*
X195071428Y-50903628D01*
X195071428Y-50903628D02*
X195404761Y-50379819D01*
X196261904Y-51379819D02*
X195690476Y-51379819D01*
X195976190Y-51379819D02*
X195976190Y-50379819D01*
X195976190Y-50379819D02*
X195880952Y-50522676D01*
X195880952Y-50522676D02*
X195785714Y-50617914D01*
X195785714Y-50617914D02*
X195690476Y-50665533D01*
X96838095Y-71674819D02*
X96838095Y-72484342D01*
X96838095Y-72484342D02*
X96885714Y-72579580D01*
X96885714Y-72579580D02*
X96933333Y-72627200D01*
X96933333Y-72627200D02*
X97028571Y-72674819D01*
X97028571Y-72674819D02*
X97219047Y-72674819D01*
X97219047Y-72674819D02*
X97314285Y-72627200D01*
X97314285Y-72627200D02*
X97361904Y-72579580D01*
X97361904Y-72579580D02*
X97409523Y-72484342D01*
X97409523Y-72484342D02*
X97409523Y-71674819D01*
X97838095Y-71770057D02*
X97885714Y-71722438D01*
X97885714Y-71722438D02*
X97980952Y-71674819D01*
X97980952Y-71674819D02*
X98219047Y-71674819D01*
X98219047Y-71674819D02*
X98314285Y-71722438D01*
X98314285Y-71722438D02*
X98361904Y-71770057D01*
X98361904Y-71770057D02*
X98409523Y-71865295D01*
X98409523Y-71865295D02*
X98409523Y-71960533D01*
X98409523Y-71960533D02*
X98361904Y-72103390D01*
X98361904Y-72103390D02*
X97790476Y-72674819D01*
X97790476Y-72674819D02*
X98409523Y-72674819D01*
X80861905Y-88504819D02*
X80861905Y-87504819D01*
X80861905Y-87504819D02*
X81100000Y-87504819D01*
X81100000Y-87504819D02*
X81242857Y-87552438D01*
X81242857Y-87552438D02*
X81338095Y-87647676D01*
X81338095Y-87647676D02*
X81385714Y-87742914D01*
X81385714Y-87742914D02*
X81433333Y-87933390D01*
X81433333Y-87933390D02*
X81433333Y-88076247D01*
X81433333Y-88076247D02*
X81385714Y-88266723D01*
X81385714Y-88266723D02*
X81338095Y-88361961D01*
X81338095Y-88361961D02*
X81242857Y-88457200D01*
X81242857Y-88457200D02*
X81100000Y-88504819D01*
X81100000Y-88504819D02*
X80861905Y-88504819D01*
X81766667Y-87504819D02*
X82433333Y-87504819D01*
X82433333Y-87504819D02*
X82004762Y-88504819D01*
X80861905Y-138324819D02*
X80861905Y-137324819D01*
X80861905Y-137324819D02*
X81100000Y-137324819D01*
X81100000Y-137324819D02*
X81242857Y-137372438D01*
X81242857Y-137372438D02*
X81338095Y-137467676D01*
X81338095Y-137467676D02*
X81385714Y-137562914D01*
X81385714Y-137562914D02*
X81433333Y-137753390D01*
X81433333Y-137753390D02*
X81433333Y-137896247D01*
X81433333Y-137896247D02*
X81385714Y-138086723D01*
X81385714Y-138086723D02*
X81338095Y-138181961D01*
X81338095Y-138181961D02*
X81242857Y-138277200D01*
X81242857Y-138277200D02*
X81100000Y-138324819D01*
X81100000Y-138324819D02*
X80861905Y-138324819D01*
X81909524Y-138324819D02*
X82100000Y-138324819D01*
X82100000Y-138324819D02*
X82195238Y-138277200D01*
X82195238Y-138277200D02*
X82242857Y-138229580D01*
X82242857Y-138229580D02*
X82338095Y-138086723D01*
X82338095Y-138086723D02*
X82385714Y-137896247D01*
X82385714Y-137896247D02*
X82385714Y-137515295D01*
X82385714Y-137515295D02*
X82338095Y-137420057D01*
X82338095Y-137420057D02*
X82290476Y-137372438D01*
X82290476Y-137372438D02*
X82195238Y-137324819D01*
X82195238Y-137324819D02*
X82004762Y-137324819D01*
X82004762Y-137324819D02*
X81909524Y-137372438D01*
X81909524Y-137372438D02*
X81861905Y-137420057D01*
X81861905Y-137420057D02*
X81814286Y-137515295D01*
X81814286Y-137515295D02*
X81814286Y-137753390D01*
X81814286Y-137753390D02*
X81861905Y-137848628D01*
X81861905Y-137848628D02*
X81909524Y-137896247D01*
X81909524Y-137896247D02*
X82004762Y-137943866D01*
X82004762Y-137943866D02*
X82195238Y-137943866D01*
X82195238Y-137943866D02*
X82290476Y-137896247D01*
X82290476Y-137896247D02*
X82338095Y-137848628D01*
X82338095Y-137848628D02*
X82385714Y-137753390D01*
X120070833Y-93299580D02*
X120023214Y-93347200D01*
X120023214Y-93347200D02*
X119880357Y-93394819D01*
X119880357Y-93394819D02*
X119785119Y-93394819D01*
X119785119Y-93394819D02*
X119642262Y-93347200D01*
X119642262Y-93347200D02*
X119547024Y-93251961D01*
X119547024Y-93251961D02*
X119499405Y-93156723D01*
X119499405Y-93156723D02*
X119451786Y-92966247D01*
X119451786Y-92966247D02*
X119451786Y-92823390D01*
X119451786Y-92823390D02*
X119499405Y-92632914D01*
X119499405Y-92632914D02*
X119547024Y-92537676D01*
X119547024Y-92537676D02*
X119642262Y-92442438D01*
X119642262Y-92442438D02*
X119785119Y-92394819D01*
X119785119Y-92394819D02*
X119880357Y-92394819D01*
X119880357Y-92394819D02*
X120023214Y-92442438D01*
X120023214Y-92442438D02*
X120070833Y-92490057D01*
X120404167Y-92394819D02*
X121023214Y-92394819D01*
X121023214Y-92394819D02*
X120689881Y-92775771D01*
X120689881Y-92775771D02*
X120832738Y-92775771D01*
X120832738Y-92775771D02*
X120927976Y-92823390D01*
X120927976Y-92823390D02*
X120975595Y-92871009D01*
X120975595Y-92871009D02*
X121023214Y-92966247D01*
X121023214Y-92966247D02*
X121023214Y-93204342D01*
X121023214Y-93204342D02*
X120975595Y-93299580D01*
X120975595Y-93299580D02*
X120927976Y-93347200D01*
X120927976Y-93347200D02*
X120832738Y-93394819D01*
X120832738Y-93394819D02*
X120547024Y-93394819D01*
X120547024Y-93394819D02*
X120451786Y-93347200D01*
X120451786Y-93347200D02*
X120404167Y-93299580D01*
X195571429Y-103399819D02*
X195571429Y-102399819D01*
X195571429Y-102399819D02*
X195952381Y-102399819D01*
X195952381Y-102399819D02*
X196047619Y-102447438D01*
X196047619Y-102447438D02*
X196095238Y-102495057D01*
X196095238Y-102495057D02*
X196142857Y-102590295D01*
X196142857Y-102590295D02*
X196142857Y-102733152D01*
X196142857Y-102733152D02*
X196095238Y-102828390D01*
X196095238Y-102828390D02*
X196047619Y-102876009D01*
X196047619Y-102876009D02*
X195952381Y-102923628D01*
X195952381Y-102923628D02*
X195571429Y-102923628D01*
X196476191Y-102399819D02*
X196714286Y-103399819D01*
X196714286Y-103399819D02*
X196904762Y-102685533D01*
X196904762Y-102685533D02*
X197095238Y-103399819D01*
X197095238Y-103399819D02*
X197333334Y-102399819D01*
X198285714Y-103399819D02*
X197952381Y-102923628D01*
X197714286Y-103399819D02*
X197714286Y-102399819D01*
X197714286Y-102399819D02*
X198095238Y-102399819D01*
X198095238Y-102399819D02*
X198190476Y-102447438D01*
X198190476Y-102447438D02*
X198238095Y-102495057D01*
X198238095Y-102495057D02*
X198285714Y-102590295D01*
X198285714Y-102590295D02*
X198285714Y-102733152D01*
X198285714Y-102733152D02*
X198238095Y-102828390D01*
X198238095Y-102828390D02*
X198190476Y-102876009D01*
X198190476Y-102876009D02*
X198095238Y-102923628D01*
X198095238Y-102923628D02*
X197714286Y-102923628D01*
X198619048Y-102399819D02*
X199238095Y-102399819D01*
X199238095Y-102399819D02*
X198904762Y-102780771D01*
X198904762Y-102780771D02*
X199047619Y-102780771D01*
X199047619Y-102780771D02*
X199142857Y-102828390D01*
X199142857Y-102828390D02*
X199190476Y-102876009D01*
X199190476Y-102876009D02*
X199238095Y-102971247D01*
X199238095Y-102971247D02*
X199238095Y-103209342D01*
X199238095Y-103209342D02*
X199190476Y-103304580D01*
X199190476Y-103304580D02*
X199142857Y-103352200D01*
X199142857Y-103352200D02*
X199047619Y-103399819D01*
X199047619Y-103399819D02*
X198761905Y-103399819D01*
X198761905Y-103399819D02*
X198666667Y-103352200D01*
X198666667Y-103352200D02*
X198619048Y-103304580D01*
X199523810Y-102399819D02*
X199857143Y-103399819D01*
X199857143Y-103399819D02*
X200190476Y-102399819D01*
X200428572Y-102399819D02*
X201047619Y-102399819D01*
X201047619Y-102399819D02*
X200714286Y-102780771D01*
X200714286Y-102780771D02*
X200857143Y-102780771D01*
X200857143Y-102780771D02*
X200952381Y-102828390D01*
X200952381Y-102828390D02*
X201000000Y-102876009D01*
X201000000Y-102876009D02*
X201047619Y-102971247D01*
X201047619Y-102971247D02*
X201047619Y-103209342D01*
X201047619Y-103209342D02*
X201000000Y-103304580D01*
X201000000Y-103304580D02*
X200952381Y-103352200D01*
X200952381Y-103352200D02*
X200857143Y-103399819D01*
X200857143Y-103399819D02*
X200571429Y-103399819D01*
X200571429Y-103399819D02*
X200476191Y-103352200D01*
X200476191Y-103352200D02*
X200428572Y-103304580D01*
X201476191Y-103304580D02*
X201523810Y-103352200D01*
X201523810Y-103352200D02*
X201476191Y-103399819D01*
X201476191Y-103399819D02*
X201428572Y-103352200D01*
X201428572Y-103352200D02*
X201476191Y-103304580D01*
X201476191Y-103304580D02*
X201476191Y-103399819D01*
X201904762Y-102495057D02*
X201952381Y-102447438D01*
X201952381Y-102447438D02*
X202047619Y-102399819D01*
X202047619Y-102399819D02*
X202285714Y-102399819D01*
X202285714Y-102399819D02*
X202380952Y-102447438D01*
X202380952Y-102447438D02*
X202428571Y-102495057D01*
X202428571Y-102495057D02*
X202476190Y-102590295D01*
X202476190Y-102590295D02*
X202476190Y-102685533D01*
X202476190Y-102685533D02*
X202428571Y-102828390D01*
X202428571Y-102828390D02*
X201857143Y-103399819D01*
X201857143Y-103399819D02*
X202476190Y-103399819D01*
X196845238Y-61649819D02*
X196845238Y-60649819D01*
X196845238Y-60649819D02*
X197083333Y-60649819D01*
X197083333Y-60649819D02*
X197226190Y-60697438D01*
X197226190Y-60697438D02*
X197321428Y-60792676D01*
X197321428Y-60792676D02*
X197369047Y-60887914D01*
X197369047Y-60887914D02*
X197416666Y-61078390D01*
X197416666Y-61078390D02*
X197416666Y-61221247D01*
X197416666Y-61221247D02*
X197369047Y-61411723D01*
X197369047Y-61411723D02*
X197321428Y-61506961D01*
X197321428Y-61506961D02*
X197226190Y-61602200D01*
X197226190Y-61602200D02*
X197083333Y-61649819D01*
X197083333Y-61649819D02*
X196845238Y-61649819D01*
X197797619Y-61364104D02*
X198273809Y-61364104D01*
X197702381Y-61649819D02*
X198035714Y-60649819D01*
X198035714Y-60649819D02*
X198369047Y-61649819D01*
X199273809Y-61554580D02*
X199226190Y-61602200D01*
X199226190Y-61602200D02*
X199083333Y-61649819D01*
X199083333Y-61649819D02*
X198988095Y-61649819D01*
X198988095Y-61649819D02*
X198845238Y-61602200D01*
X198845238Y-61602200D02*
X198750000Y-61506961D01*
X198750000Y-61506961D02*
X198702381Y-61411723D01*
X198702381Y-61411723D02*
X198654762Y-61221247D01*
X198654762Y-61221247D02*
X198654762Y-61078390D01*
X198654762Y-61078390D02*
X198702381Y-60887914D01*
X198702381Y-60887914D02*
X198750000Y-60792676D01*
X198750000Y-60792676D02*
X198845238Y-60697438D01*
X198845238Y-60697438D02*
X198988095Y-60649819D01*
X198988095Y-60649819D02*
X199083333Y-60649819D01*
X199083333Y-60649819D02*
X199226190Y-60697438D01*
X199226190Y-60697438D02*
X199273809Y-60745057D01*
X199702381Y-61554580D02*
X199750000Y-61602200D01*
X199750000Y-61602200D02*
X199702381Y-61649819D01*
X199702381Y-61649819D02*
X199654762Y-61602200D01*
X199654762Y-61602200D02*
X199702381Y-61554580D01*
X199702381Y-61554580D02*
X199702381Y-61649819D01*
X200702380Y-61649819D02*
X200130952Y-61649819D01*
X200416666Y-61649819D02*
X200416666Y-60649819D01*
X200416666Y-60649819D02*
X200321428Y-60792676D01*
X200321428Y-60792676D02*
X200226190Y-60887914D01*
X200226190Y-60887914D02*
X200130952Y-60935533D01*
X96908095Y-96424819D02*
X96908095Y-97234342D01*
X96908095Y-97234342D02*
X96955714Y-97329580D01*
X96955714Y-97329580D02*
X97003333Y-97377200D01*
X97003333Y-97377200D02*
X97098571Y-97424819D01*
X97098571Y-97424819D02*
X97289047Y-97424819D01*
X97289047Y-97424819D02*
X97384285Y-97377200D01*
X97384285Y-97377200D02*
X97431904Y-97329580D01*
X97431904Y-97329580D02*
X97479523Y-97234342D01*
X97479523Y-97234342D02*
X97479523Y-96424819D01*
X97860476Y-96424819D02*
X98479523Y-96424819D01*
X98479523Y-96424819D02*
X98146190Y-96805771D01*
X98146190Y-96805771D02*
X98289047Y-96805771D01*
X98289047Y-96805771D02*
X98384285Y-96853390D01*
X98384285Y-96853390D02*
X98431904Y-96901009D01*
X98431904Y-96901009D02*
X98479523Y-96996247D01*
X98479523Y-96996247D02*
X98479523Y-97234342D01*
X98479523Y-97234342D02*
X98431904Y-97329580D01*
X98431904Y-97329580D02*
X98384285Y-97377200D01*
X98384285Y-97377200D02*
X98289047Y-97424819D01*
X98289047Y-97424819D02*
X98003333Y-97424819D01*
X98003333Y-97424819D02*
X97908095Y-97377200D01*
X97908095Y-97377200D02*
X97860476Y-97329580D01*
X196826191Y-71351009D02*
X197159524Y-71351009D01*
X197302381Y-71874819D02*
X196826191Y-71874819D01*
X196826191Y-71874819D02*
X196826191Y-70874819D01*
X196826191Y-70874819D02*
X197302381Y-70874819D01*
X197635715Y-70874819D02*
X198302381Y-71874819D01*
X198302381Y-70874819D02*
X197635715Y-71874819D01*
X198540477Y-70874819D02*
X199111905Y-70874819D01*
X198826191Y-71874819D02*
X198826191Y-70874819D01*
X199445239Y-71874819D02*
X199445239Y-70874819D01*
X199921429Y-71779580D02*
X199969048Y-71827200D01*
X199969048Y-71827200D02*
X199921429Y-71874819D01*
X199921429Y-71874819D02*
X199873810Y-71827200D01*
X199873810Y-71827200D02*
X199921429Y-71779580D01*
X199921429Y-71779580D02*
X199921429Y-71874819D01*
X200350000Y-70970057D02*
X200397619Y-70922438D01*
X200397619Y-70922438D02*
X200492857Y-70874819D01*
X200492857Y-70874819D02*
X200730952Y-70874819D01*
X200730952Y-70874819D02*
X200826190Y-70922438D01*
X200826190Y-70922438D02*
X200873809Y-70970057D01*
X200873809Y-70970057D02*
X200921428Y-71065295D01*
X200921428Y-71065295D02*
X200921428Y-71160533D01*
X200921428Y-71160533D02*
X200873809Y-71303390D01*
X200873809Y-71303390D02*
X200302381Y-71874819D01*
X200302381Y-71874819D02*
X200921428Y-71874819D01*
X206591009Y-137036665D02*
X206591009Y-136703332D01*
X207114819Y-136560475D02*
X207114819Y-137036665D01*
X207114819Y-137036665D02*
X206114819Y-137036665D01*
X206114819Y-137036665D02*
X206114819Y-136560475D01*
X206114819Y-136227141D02*
X207114819Y-135560475D01*
X206114819Y-135560475D02*
X207114819Y-136227141D01*
X207114819Y-135179522D02*
X206114819Y-135179522D01*
X206114819Y-134512856D02*
X206114819Y-134322380D01*
X206114819Y-134322380D02*
X206162438Y-134227142D01*
X206162438Y-134227142D02*
X206257676Y-134131904D01*
X206257676Y-134131904D02*
X206448152Y-134084285D01*
X206448152Y-134084285D02*
X206781485Y-134084285D01*
X206781485Y-134084285D02*
X206971961Y-134131904D01*
X206971961Y-134131904D02*
X207067200Y-134227142D01*
X207067200Y-134227142D02*
X207114819Y-134322380D01*
X207114819Y-134322380D02*
X207114819Y-134512856D01*
X207114819Y-134512856D02*
X207067200Y-134608094D01*
X207067200Y-134608094D02*
X206971961Y-134703332D01*
X206971961Y-134703332D02*
X206781485Y-134750951D01*
X206781485Y-134750951D02*
X206448152Y-134750951D01*
X206448152Y-134750951D02*
X206257676Y-134703332D01*
X206257676Y-134703332D02*
X206162438Y-134608094D01*
X206162438Y-134608094D02*
X206114819Y-134512856D01*
X207019580Y-133655713D02*
X207067200Y-133608094D01*
X207067200Y-133608094D02*
X207114819Y-133655713D01*
X207114819Y-133655713D02*
X207067200Y-133703332D01*
X207067200Y-133703332D02*
X207019580Y-133655713D01*
X207019580Y-133655713D02*
X207114819Y-133655713D01*
X206210057Y-133227142D02*
X206162438Y-133179523D01*
X206162438Y-133179523D02*
X206114819Y-133084285D01*
X206114819Y-133084285D02*
X206114819Y-132846190D01*
X206114819Y-132846190D02*
X206162438Y-132750952D01*
X206162438Y-132750952D02*
X206210057Y-132703333D01*
X206210057Y-132703333D02*
X206305295Y-132655714D01*
X206305295Y-132655714D02*
X206400533Y-132655714D01*
X206400533Y-132655714D02*
X206543390Y-132703333D01*
X206543390Y-132703333D02*
X207114819Y-133274761D01*
X207114819Y-133274761D02*
X207114819Y-132655714D01*
X87044642Y-92674819D02*
X86711309Y-92198628D01*
X86473214Y-92674819D02*
X86473214Y-91674819D01*
X86473214Y-91674819D02*
X86854166Y-91674819D01*
X86854166Y-91674819D02*
X86949404Y-91722438D01*
X86949404Y-91722438D02*
X86997023Y-91770057D01*
X86997023Y-91770057D02*
X87044642Y-91865295D01*
X87044642Y-91865295D02*
X87044642Y-92008152D01*
X87044642Y-92008152D02*
X86997023Y-92103390D01*
X86997023Y-92103390D02*
X86949404Y-92151009D01*
X86949404Y-92151009D02*
X86854166Y-92198628D01*
X86854166Y-92198628D02*
X86473214Y-92198628D01*
X87997023Y-92674819D02*
X87425595Y-92674819D01*
X87711309Y-92674819D02*
X87711309Y-91674819D01*
X87711309Y-91674819D02*
X87616071Y-91817676D01*
X87616071Y-91817676D02*
X87520833Y-91912914D01*
X87520833Y-91912914D02*
X87425595Y-91960533D01*
X88854166Y-92008152D02*
X88854166Y-92674819D01*
X88616071Y-91627200D02*
X88377976Y-92341485D01*
X88377976Y-92341485D02*
X88997023Y-92341485D01*
X202726191Y-71351009D02*
X203059524Y-71351009D01*
X203202381Y-71874819D02*
X202726191Y-71874819D01*
X202726191Y-71874819D02*
X202726191Y-70874819D01*
X202726191Y-70874819D02*
X203202381Y-70874819D01*
X203535715Y-70874819D02*
X204202381Y-71874819D01*
X204202381Y-70874819D02*
X203535715Y-71874819D01*
X204440477Y-70874819D02*
X205011905Y-70874819D01*
X204726191Y-71874819D02*
X204726191Y-70874819D01*
X205345239Y-71874819D02*
X205345239Y-70874819D01*
X205821429Y-71779580D02*
X205869048Y-71827200D01*
X205869048Y-71827200D02*
X205821429Y-71874819D01*
X205821429Y-71874819D02*
X205773810Y-71827200D01*
X205773810Y-71827200D02*
X205821429Y-71779580D01*
X205821429Y-71779580D02*
X205821429Y-71874819D01*
X206202381Y-70874819D02*
X206821428Y-70874819D01*
X206821428Y-70874819D02*
X206488095Y-71255771D01*
X206488095Y-71255771D02*
X206630952Y-71255771D01*
X206630952Y-71255771D02*
X206726190Y-71303390D01*
X206726190Y-71303390D02*
X206773809Y-71351009D01*
X206773809Y-71351009D02*
X206821428Y-71446247D01*
X206821428Y-71446247D02*
X206821428Y-71684342D01*
X206821428Y-71684342D02*
X206773809Y-71779580D01*
X206773809Y-71779580D02*
X206726190Y-71827200D01*
X206726190Y-71827200D02*
X206630952Y-71874819D01*
X206630952Y-71874819D02*
X206345238Y-71874819D01*
X206345238Y-71874819D02*
X206250000Y-71827200D01*
X206250000Y-71827200D02*
X206202381Y-71779580D01*
X80861905Y-63504819D02*
X80861905Y-62504819D01*
X80861905Y-62504819D02*
X81100000Y-62504819D01*
X81100000Y-62504819D02*
X81242857Y-62552438D01*
X81242857Y-62552438D02*
X81338095Y-62647676D01*
X81338095Y-62647676D02*
X81385714Y-62742914D01*
X81385714Y-62742914D02*
X81433333Y-62933390D01*
X81433333Y-62933390D02*
X81433333Y-63076247D01*
X81433333Y-63076247D02*
X81385714Y-63266723D01*
X81385714Y-63266723D02*
X81338095Y-63361961D01*
X81338095Y-63361961D02*
X81242857Y-63457200D01*
X81242857Y-63457200D02*
X81100000Y-63504819D01*
X81100000Y-63504819D02*
X80861905Y-63504819D01*
X81766667Y-62504819D02*
X82385714Y-62504819D01*
X82385714Y-62504819D02*
X82052381Y-62885771D01*
X82052381Y-62885771D02*
X82195238Y-62885771D01*
X82195238Y-62885771D02*
X82290476Y-62933390D01*
X82290476Y-62933390D02*
X82338095Y-62981009D01*
X82338095Y-62981009D02*
X82385714Y-63076247D01*
X82385714Y-63076247D02*
X82385714Y-63314342D01*
X82385714Y-63314342D02*
X82338095Y-63409580D01*
X82338095Y-63409580D02*
X82290476Y-63457200D01*
X82290476Y-63457200D02*
X82195238Y-63504819D01*
X82195238Y-63504819D02*
X81909524Y-63504819D01*
X81909524Y-63504819D02*
X81814286Y-63457200D01*
X81814286Y-63457200D02*
X81766667Y-63409580D01*
X86636080Y-77186666D02*
X85921795Y-77186666D01*
X85921795Y-77186666D02*
X85778938Y-77139047D01*
X85778938Y-77139047D02*
X85683700Y-77043809D01*
X85683700Y-77043809D02*
X85636080Y-76900952D01*
X85636080Y-76900952D02*
X85636080Y-76805714D01*
X86540842Y-77615238D02*
X86588461Y-77662857D01*
X86588461Y-77662857D02*
X86636080Y-77758095D01*
X86636080Y-77758095D02*
X86636080Y-77996190D01*
X86636080Y-77996190D02*
X86588461Y-78091428D01*
X86588461Y-78091428D02*
X86540842Y-78139047D01*
X86540842Y-78139047D02*
X86445604Y-78186666D01*
X86445604Y-78186666D02*
X86350366Y-78186666D01*
X86350366Y-78186666D02*
X86207509Y-78139047D01*
X86207509Y-78139047D02*
X85636080Y-77567619D01*
X85636080Y-77567619D02*
X85636080Y-78186666D01*
X98766666Y-58981009D02*
X98433333Y-58981009D01*
X98433333Y-59504819D02*
X98433333Y-58504819D01*
X98433333Y-58504819D02*
X98909523Y-58504819D01*
X99814285Y-59504819D02*
X99242857Y-59504819D01*
X99528571Y-59504819D02*
X99528571Y-58504819D01*
X99528571Y-58504819D02*
X99433333Y-58647676D01*
X99433333Y-58647676D02*
X99338095Y-58742914D01*
X99338095Y-58742914D02*
X99242857Y-58790533D01*
X99088095Y-62924819D02*
X99088095Y-63734342D01*
X99088095Y-63734342D02*
X99135714Y-63829580D01*
X99135714Y-63829580D02*
X99183333Y-63877200D01*
X99183333Y-63877200D02*
X99278571Y-63924819D01*
X99278571Y-63924819D02*
X99469047Y-63924819D01*
X99469047Y-63924819D02*
X99564285Y-63877200D01*
X99564285Y-63877200D02*
X99611904Y-63829580D01*
X99611904Y-63829580D02*
X99659523Y-63734342D01*
X99659523Y-63734342D02*
X99659523Y-62924819D01*
X100659523Y-63924819D02*
X100088095Y-63924819D01*
X100373809Y-63924819D02*
X100373809Y-62924819D01*
X100373809Y-62924819D02*
X100278571Y-63067676D01*
X100278571Y-63067676D02*
X100183333Y-63162914D01*
X100183333Y-63162914D02*
X100088095Y-63210533D01*
X87433333Y-67674819D02*
X87100000Y-67198628D01*
X86861905Y-67674819D02*
X86861905Y-66674819D01*
X86861905Y-66674819D02*
X87242857Y-66674819D01*
X87242857Y-66674819D02*
X87338095Y-66722438D01*
X87338095Y-66722438D02*
X87385714Y-66770057D01*
X87385714Y-66770057D02*
X87433333Y-66865295D01*
X87433333Y-66865295D02*
X87433333Y-67008152D01*
X87433333Y-67008152D02*
X87385714Y-67103390D01*
X87385714Y-67103390D02*
X87338095Y-67151009D01*
X87338095Y-67151009D02*
X87242857Y-67198628D01*
X87242857Y-67198628D02*
X86861905Y-67198628D01*
X88385714Y-67674819D02*
X87814286Y-67674819D01*
X88100000Y-67674819D02*
X88100000Y-66674819D01*
X88100000Y-66674819D02*
X88004762Y-66817676D01*
X88004762Y-66817676D02*
X87909524Y-66912914D01*
X87909524Y-66912914D02*
X87814286Y-66960533D01*
X86957142Y-134424819D02*
X86623809Y-133948628D01*
X86385714Y-134424819D02*
X86385714Y-133424819D01*
X86385714Y-133424819D02*
X86766666Y-133424819D01*
X86766666Y-133424819D02*
X86861904Y-133472438D01*
X86861904Y-133472438D02*
X86909523Y-133520057D01*
X86909523Y-133520057D02*
X86957142Y-133615295D01*
X86957142Y-133615295D02*
X86957142Y-133758152D01*
X86957142Y-133758152D02*
X86909523Y-133853390D01*
X86909523Y-133853390D02*
X86861904Y-133901009D01*
X86861904Y-133901009D02*
X86766666Y-133948628D01*
X86766666Y-133948628D02*
X86385714Y-133948628D01*
X87909523Y-134424819D02*
X87338095Y-134424819D01*
X87623809Y-134424819D02*
X87623809Y-133424819D01*
X87623809Y-133424819D02*
X87528571Y-133567676D01*
X87528571Y-133567676D02*
X87433333Y-133662914D01*
X87433333Y-133662914D02*
X87338095Y-133710533D01*
X88385714Y-134424819D02*
X88576190Y-134424819D01*
X88576190Y-134424819D02*
X88671428Y-134377200D01*
X88671428Y-134377200D02*
X88719047Y-134329580D01*
X88719047Y-134329580D02*
X88814285Y-134186723D01*
X88814285Y-134186723D02*
X88861904Y-133996247D01*
X88861904Y-133996247D02*
X88861904Y-133615295D01*
X88861904Y-133615295D02*
X88814285Y-133520057D01*
X88814285Y-133520057D02*
X88766666Y-133472438D01*
X88766666Y-133472438D02*
X88671428Y-133424819D01*
X88671428Y-133424819D02*
X88480952Y-133424819D01*
X88480952Y-133424819D02*
X88385714Y-133472438D01*
X88385714Y-133472438D02*
X88338095Y-133520057D01*
X88338095Y-133520057D02*
X88290476Y-133615295D01*
X88290476Y-133615295D02*
X88290476Y-133853390D01*
X88290476Y-133853390D02*
X88338095Y-133948628D01*
X88338095Y-133948628D02*
X88385714Y-133996247D01*
X88385714Y-133996247D02*
X88480952Y-134043866D01*
X88480952Y-134043866D02*
X88671428Y-134043866D01*
X88671428Y-134043866D02*
X88766666Y-133996247D01*
X88766666Y-133996247D02*
X88814285Y-133948628D01*
X88814285Y-133948628D02*
X88861904Y-133853390D01*
X120020833Y-89299580D02*
X119973214Y-89347200D01*
X119973214Y-89347200D02*
X119830357Y-89394819D01*
X119830357Y-89394819D02*
X119735119Y-89394819D01*
X119735119Y-89394819D02*
X119592262Y-89347200D01*
X119592262Y-89347200D02*
X119497024Y-89251961D01*
X119497024Y-89251961D02*
X119449405Y-89156723D01*
X119449405Y-89156723D02*
X119401786Y-88966247D01*
X119401786Y-88966247D02*
X119401786Y-88823390D01*
X119401786Y-88823390D02*
X119449405Y-88632914D01*
X119449405Y-88632914D02*
X119497024Y-88537676D01*
X119497024Y-88537676D02*
X119592262Y-88442438D01*
X119592262Y-88442438D02*
X119735119Y-88394819D01*
X119735119Y-88394819D02*
X119830357Y-88394819D01*
X119830357Y-88394819D02*
X119973214Y-88442438D01*
X119973214Y-88442438D02*
X120020833Y-88490057D01*
X120497024Y-89394819D02*
X120687500Y-89394819D01*
X120687500Y-89394819D02*
X120782738Y-89347200D01*
X120782738Y-89347200D02*
X120830357Y-89299580D01*
X120830357Y-89299580D02*
X120925595Y-89156723D01*
X120925595Y-89156723D02*
X120973214Y-88966247D01*
X120973214Y-88966247D02*
X120973214Y-88585295D01*
X120973214Y-88585295D02*
X120925595Y-88490057D01*
X120925595Y-88490057D02*
X120877976Y-88442438D01*
X120877976Y-88442438D02*
X120782738Y-88394819D01*
X120782738Y-88394819D02*
X120592262Y-88394819D01*
X120592262Y-88394819D02*
X120497024Y-88442438D01*
X120497024Y-88442438D02*
X120449405Y-88490057D01*
X120449405Y-88490057D02*
X120401786Y-88585295D01*
X120401786Y-88585295D02*
X120401786Y-88823390D01*
X120401786Y-88823390D02*
X120449405Y-88918628D01*
X120449405Y-88918628D02*
X120497024Y-88966247D01*
X120497024Y-88966247D02*
X120592262Y-89013866D01*
X120592262Y-89013866D02*
X120782738Y-89013866D01*
X120782738Y-89013866D02*
X120877976Y-88966247D01*
X120877976Y-88966247D02*
X120925595Y-88918628D01*
X120925595Y-88918628D02*
X120973214Y-88823390D01*
X190247619Y-92624819D02*
X190247619Y-91624819D01*
X190247619Y-91624819D02*
X190628571Y-91624819D01*
X190628571Y-91624819D02*
X190723809Y-91672438D01*
X190723809Y-91672438D02*
X190771428Y-91720057D01*
X190771428Y-91720057D02*
X190819047Y-91815295D01*
X190819047Y-91815295D02*
X190819047Y-91958152D01*
X190819047Y-91958152D02*
X190771428Y-92053390D01*
X190771428Y-92053390D02*
X190723809Y-92101009D01*
X190723809Y-92101009D02*
X190628571Y-92148628D01*
X190628571Y-92148628D02*
X190247619Y-92148628D01*
X191152381Y-91624819D02*
X191390476Y-92624819D01*
X191390476Y-92624819D02*
X191580952Y-91910533D01*
X191580952Y-91910533D02*
X191771428Y-92624819D01*
X191771428Y-92624819D02*
X192009524Y-91624819D01*
X192961904Y-92624819D02*
X192628571Y-92148628D01*
X192390476Y-92624819D02*
X192390476Y-91624819D01*
X192390476Y-91624819D02*
X192771428Y-91624819D01*
X192771428Y-91624819D02*
X192866666Y-91672438D01*
X192866666Y-91672438D02*
X192914285Y-91720057D01*
X192914285Y-91720057D02*
X192961904Y-91815295D01*
X192961904Y-91815295D02*
X192961904Y-91958152D01*
X192961904Y-91958152D02*
X192914285Y-92053390D01*
X192914285Y-92053390D02*
X192866666Y-92101009D01*
X192866666Y-92101009D02*
X192771428Y-92148628D01*
X192771428Y-92148628D02*
X192390476Y-92148628D01*
X193866666Y-91624819D02*
X193390476Y-91624819D01*
X193390476Y-91624819D02*
X193342857Y-92101009D01*
X193342857Y-92101009D02*
X193390476Y-92053390D01*
X193390476Y-92053390D02*
X193485714Y-92005771D01*
X193485714Y-92005771D02*
X193723809Y-92005771D01*
X193723809Y-92005771D02*
X193819047Y-92053390D01*
X193819047Y-92053390D02*
X193866666Y-92101009D01*
X193866666Y-92101009D02*
X193914285Y-92196247D01*
X193914285Y-92196247D02*
X193914285Y-92434342D01*
X193914285Y-92434342D02*
X193866666Y-92529580D01*
X193866666Y-92529580D02*
X193819047Y-92577200D01*
X193819047Y-92577200D02*
X193723809Y-92624819D01*
X193723809Y-92624819D02*
X193485714Y-92624819D01*
X193485714Y-92624819D02*
X193390476Y-92577200D01*
X193390476Y-92577200D02*
X193342857Y-92529580D01*
X194200000Y-91624819D02*
X194533333Y-92624819D01*
X194533333Y-92624819D02*
X194866666Y-91624819D01*
X195200000Y-92529580D02*
X195247619Y-92577200D01*
X195247619Y-92577200D02*
X195200000Y-92624819D01*
X195200000Y-92624819D02*
X195152381Y-92577200D01*
X195152381Y-92577200D02*
X195200000Y-92529580D01*
X195200000Y-92529580D02*
X195200000Y-92624819D01*
X196199999Y-92624819D02*
X195628571Y-92624819D01*
X195914285Y-92624819D02*
X195914285Y-91624819D01*
X195914285Y-91624819D02*
X195819047Y-91767676D01*
X195819047Y-91767676D02*
X195723809Y-91862914D01*
X195723809Y-91862914D02*
X195628571Y-91910533D01*
X206591009Y-130886665D02*
X206591009Y-130553332D01*
X207114819Y-130410475D02*
X207114819Y-130886665D01*
X207114819Y-130886665D02*
X206114819Y-130886665D01*
X206114819Y-130886665D02*
X206114819Y-130410475D01*
X206114819Y-130077141D02*
X207114819Y-129410475D01*
X206114819Y-129410475D02*
X207114819Y-130077141D01*
X207114819Y-129029522D02*
X206114819Y-129029522D01*
X206114819Y-128362856D02*
X206114819Y-128172380D01*
X206114819Y-128172380D02*
X206162438Y-128077142D01*
X206162438Y-128077142D02*
X206257676Y-127981904D01*
X206257676Y-127981904D02*
X206448152Y-127934285D01*
X206448152Y-127934285D02*
X206781485Y-127934285D01*
X206781485Y-127934285D02*
X206971961Y-127981904D01*
X206971961Y-127981904D02*
X207067200Y-128077142D01*
X207067200Y-128077142D02*
X207114819Y-128172380D01*
X207114819Y-128172380D02*
X207114819Y-128362856D01*
X207114819Y-128362856D02*
X207067200Y-128458094D01*
X207067200Y-128458094D02*
X206971961Y-128553332D01*
X206971961Y-128553332D02*
X206781485Y-128600951D01*
X206781485Y-128600951D02*
X206448152Y-128600951D01*
X206448152Y-128600951D02*
X206257676Y-128553332D01*
X206257676Y-128553332D02*
X206162438Y-128458094D01*
X206162438Y-128458094D02*
X206114819Y-128362856D01*
X207019580Y-127505713D02*
X207067200Y-127458094D01*
X207067200Y-127458094D02*
X207114819Y-127505713D01*
X207114819Y-127505713D02*
X207067200Y-127553332D01*
X207067200Y-127553332D02*
X207019580Y-127505713D01*
X207019580Y-127505713D02*
X207114819Y-127505713D01*
X207114819Y-126505714D02*
X207114819Y-127077142D01*
X207114819Y-126791428D02*
X206114819Y-126791428D01*
X206114819Y-126791428D02*
X206257676Y-126886666D01*
X206257676Y-126886666D02*
X206352914Y-126981904D01*
X206352914Y-126981904D02*
X206400533Y-127077142D01*
X181634819Y-149036665D02*
X180634819Y-149036665D01*
X180730057Y-148608094D02*
X180682438Y-148560475D01*
X180682438Y-148560475D02*
X180634819Y-148465237D01*
X180634819Y-148465237D02*
X180634819Y-148227142D01*
X180634819Y-148227142D02*
X180682438Y-148131904D01*
X180682438Y-148131904D02*
X180730057Y-148084285D01*
X180730057Y-148084285D02*
X180825295Y-148036666D01*
X180825295Y-148036666D02*
X180920533Y-148036666D01*
X180920533Y-148036666D02*
X181063390Y-148084285D01*
X181063390Y-148084285D02*
X181634819Y-148655713D01*
X181634819Y-148655713D02*
X181634819Y-148036666D01*
X181539580Y-147036666D02*
X181587200Y-147084285D01*
X181587200Y-147084285D02*
X181634819Y-147227142D01*
X181634819Y-147227142D02*
X181634819Y-147322380D01*
X181634819Y-147322380D02*
X181587200Y-147465237D01*
X181587200Y-147465237D02*
X181491961Y-147560475D01*
X181491961Y-147560475D02*
X181396723Y-147608094D01*
X181396723Y-147608094D02*
X181206247Y-147655713D01*
X181206247Y-147655713D02*
X181063390Y-147655713D01*
X181063390Y-147655713D02*
X180872914Y-147608094D01*
X180872914Y-147608094D02*
X180777676Y-147560475D01*
X180777676Y-147560475D02*
X180682438Y-147465237D01*
X180682438Y-147465237D02*
X180634819Y-147322380D01*
X180634819Y-147322380D02*
X180634819Y-147227142D01*
X180634819Y-147227142D02*
X180682438Y-147084285D01*
X180682438Y-147084285D02*
X180730057Y-147036666D01*
X181634819Y-146084285D02*
X181634819Y-146655713D01*
X181634819Y-146369999D02*
X180634819Y-146369999D01*
X180634819Y-146369999D02*
X180777676Y-146465237D01*
X180777676Y-146465237D02*
X180872914Y-146560475D01*
X180872914Y-146560475D02*
X180920533Y-146655713D01*
X181539580Y-145655713D02*
X181587200Y-145608094D01*
X181587200Y-145608094D02*
X181634819Y-145655713D01*
X181634819Y-145655713D02*
X181587200Y-145703332D01*
X181587200Y-145703332D02*
X181539580Y-145655713D01*
X181539580Y-145655713D02*
X181634819Y-145655713D01*
X180968152Y-144750952D02*
X181634819Y-144750952D01*
X180587200Y-144989047D02*
X181301485Y-145227142D01*
X181301485Y-145227142D02*
X181301485Y-144608095D01*
X202726191Y-61126009D02*
X203059524Y-61126009D01*
X203202381Y-61649819D02*
X202726191Y-61649819D01*
X202726191Y-61649819D02*
X202726191Y-60649819D01*
X202726191Y-60649819D02*
X203202381Y-60649819D01*
X203535715Y-60649819D02*
X204202381Y-61649819D01*
X204202381Y-60649819D02*
X203535715Y-61649819D01*
X204440477Y-60649819D02*
X205011905Y-60649819D01*
X204726191Y-61649819D02*
X204726191Y-60649819D01*
X205345239Y-61649819D02*
X205345239Y-60649819D01*
X205821429Y-61554580D02*
X205869048Y-61602200D01*
X205869048Y-61602200D02*
X205821429Y-61649819D01*
X205821429Y-61649819D02*
X205773810Y-61602200D01*
X205773810Y-61602200D02*
X205821429Y-61554580D01*
X205821429Y-61554580D02*
X205821429Y-61649819D01*
X206821428Y-61649819D02*
X206250000Y-61649819D01*
X206535714Y-61649819D02*
X206535714Y-60649819D01*
X206535714Y-60649819D02*
X206440476Y-60792676D01*
X206440476Y-60792676D02*
X206345238Y-60887914D01*
X206345238Y-60887914D02*
X206250000Y-60935533D01*
X125983333Y-73049580D02*
X125935714Y-73097200D01*
X125935714Y-73097200D02*
X125792857Y-73144819D01*
X125792857Y-73144819D02*
X125697619Y-73144819D01*
X125697619Y-73144819D02*
X125554762Y-73097200D01*
X125554762Y-73097200D02*
X125459524Y-73001961D01*
X125459524Y-73001961D02*
X125411905Y-72906723D01*
X125411905Y-72906723D02*
X125364286Y-72716247D01*
X125364286Y-72716247D02*
X125364286Y-72573390D01*
X125364286Y-72573390D02*
X125411905Y-72382914D01*
X125411905Y-72382914D02*
X125459524Y-72287676D01*
X125459524Y-72287676D02*
X125554762Y-72192438D01*
X125554762Y-72192438D02*
X125697619Y-72144819D01*
X125697619Y-72144819D02*
X125792857Y-72144819D01*
X125792857Y-72144819D02*
X125935714Y-72192438D01*
X125935714Y-72192438D02*
X125983333Y-72240057D01*
X126554762Y-72573390D02*
X126459524Y-72525771D01*
X126459524Y-72525771D02*
X126411905Y-72478152D01*
X126411905Y-72478152D02*
X126364286Y-72382914D01*
X126364286Y-72382914D02*
X126364286Y-72335295D01*
X126364286Y-72335295D02*
X126411905Y-72240057D01*
X126411905Y-72240057D02*
X126459524Y-72192438D01*
X126459524Y-72192438D02*
X126554762Y-72144819D01*
X126554762Y-72144819D02*
X126745238Y-72144819D01*
X126745238Y-72144819D02*
X126840476Y-72192438D01*
X126840476Y-72192438D02*
X126888095Y-72240057D01*
X126888095Y-72240057D02*
X126935714Y-72335295D01*
X126935714Y-72335295D02*
X126935714Y-72382914D01*
X126935714Y-72382914D02*
X126888095Y-72478152D01*
X126888095Y-72478152D02*
X126840476Y-72525771D01*
X126840476Y-72525771D02*
X126745238Y-72573390D01*
X126745238Y-72573390D02*
X126554762Y-72573390D01*
X126554762Y-72573390D02*
X126459524Y-72621009D01*
X126459524Y-72621009D02*
X126411905Y-72668628D01*
X126411905Y-72668628D02*
X126364286Y-72763866D01*
X126364286Y-72763866D02*
X126364286Y-72954342D01*
X126364286Y-72954342D02*
X126411905Y-73049580D01*
X126411905Y-73049580D02*
X126459524Y-73097200D01*
X126459524Y-73097200D02*
X126554762Y-73144819D01*
X126554762Y-73144819D02*
X126745238Y-73144819D01*
X126745238Y-73144819D02*
X126840476Y-73097200D01*
X126840476Y-73097200D02*
X126888095Y-73049580D01*
X126888095Y-73049580D02*
X126935714Y-72954342D01*
X126935714Y-72954342D02*
X126935714Y-72763866D01*
X126935714Y-72763866D02*
X126888095Y-72668628D01*
X126888095Y-72668628D02*
X126840476Y-72621009D01*
X126840476Y-72621009D02*
X126745238Y-72573390D01*
X202630953Y-114149819D02*
X202630953Y-113149819D01*
X202630953Y-113149819D02*
X203011905Y-113149819D01*
X203011905Y-113149819D02*
X203107143Y-113197438D01*
X203107143Y-113197438D02*
X203154762Y-113245057D01*
X203154762Y-113245057D02*
X203202381Y-113340295D01*
X203202381Y-113340295D02*
X203202381Y-113483152D01*
X203202381Y-113483152D02*
X203154762Y-113578390D01*
X203154762Y-113578390D02*
X203107143Y-113626009D01*
X203107143Y-113626009D02*
X203011905Y-113673628D01*
X203011905Y-113673628D02*
X202630953Y-113673628D01*
X203535715Y-113149819D02*
X203773810Y-114149819D01*
X203773810Y-114149819D02*
X203964286Y-113435533D01*
X203964286Y-113435533D02*
X204154762Y-114149819D01*
X204154762Y-114149819D02*
X204392858Y-113149819D01*
X204773810Y-114149819D02*
X204773810Y-113149819D01*
X204773810Y-113149819D02*
X205107143Y-113864104D01*
X205107143Y-113864104D02*
X205440476Y-113149819D01*
X205440476Y-113149819D02*
X205440476Y-114149819D01*
X205916667Y-114054580D02*
X205964286Y-114102200D01*
X205964286Y-114102200D02*
X205916667Y-114149819D01*
X205916667Y-114149819D02*
X205869048Y-114102200D01*
X205869048Y-114102200D02*
X205916667Y-114054580D01*
X205916667Y-114054580D02*
X205916667Y-114149819D01*
X206297619Y-113149819D02*
X206916666Y-113149819D01*
X206916666Y-113149819D02*
X206583333Y-113530771D01*
X206583333Y-113530771D02*
X206726190Y-113530771D01*
X206726190Y-113530771D02*
X206821428Y-113578390D01*
X206821428Y-113578390D02*
X206869047Y-113626009D01*
X206869047Y-113626009D02*
X206916666Y-113721247D01*
X206916666Y-113721247D02*
X206916666Y-113959342D01*
X206916666Y-113959342D02*
X206869047Y-114054580D01*
X206869047Y-114054580D02*
X206821428Y-114102200D01*
X206821428Y-114102200D02*
X206726190Y-114149819D01*
X206726190Y-114149819D02*
X206440476Y-114149819D01*
X206440476Y-114149819D02*
X206345238Y-114102200D01*
X206345238Y-114102200D02*
X206297619Y-114054580D01*
X93253333Y-117402680D02*
X93205714Y-117450300D01*
X93205714Y-117450300D02*
X93062857Y-117497919D01*
X93062857Y-117497919D02*
X92967619Y-117497919D01*
X92967619Y-117497919D02*
X92824762Y-117450300D01*
X92824762Y-117450300D02*
X92729524Y-117355061D01*
X92729524Y-117355061D02*
X92681905Y-117259823D01*
X92681905Y-117259823D02*
X92634286Y-117069347D01*
X92634286Y-117069347D02*
X92634286Y-116926490D01*
X92634286Y-116926490D02*
X92681905Y-116736014D01*
X92681905Y-116736014D02*
X92729524Y-116640776D01*
X92729524Y-116640776D02*
X92824762Y-116545538D01*
X92824762Y-116545538D02*
X92967619Y-116497919D01*
X92967619Y-116497919D02*
X93062857Y-116497919D01*
X93062857Y-116497919D02*
X93205714Y-116545538D01*
X93205714Y-116545538D02*
X93253333Y-116593157D01*
X94110476Y-116497919D02*
X93920000Y-116497919D01*
X93920000Y-116497919D02*
X93824762Y-116545538D01*
X93824762Y-116545538D02*
X93777143Y-116593157D01*
X93777143Y-116593157D02*
X93681905Y-116736014D01*
X93681905Y-116736014D02*
X93634286Y-116926490D01*
X93634286Y-116926490D02*
X93634286Y-117307442D01*
X93634286Y-117307442D02*
X93681905Y-117402680D01*
X93681905Y-117402680D02*
X93729524Y-117450300D01*
X93729524Y-117450300D02*
X93824762Y-117497919D01*
X93824762Y-117497919D02*
X94015238Y-117497919D01*
X94015238Y-117497919D02*
X94110476Y-117450300D01*
X94110476Y-117450300D02*
X94158095Y-117402680D01*
X94158095Y-117402680D02*
X94205714Y-117307442D01*
X94205714Y-117307442D02*
X94205714Y-117069347D01*
X94205714Y-117069347D02*
X94158095Y-116974109D01*
X94158095Y-116974109D02*
X94110476Y-116926490D01*
X94110476Y-116926490D02*
X94015238Y-116878871D01*
X94015238Y-116878871D02*
X93824762Y-116878871D01*
X93824762Y-116878871D02*
X93729524Y-116926490D01*
X93729524Y-116926490D02*
X93681905Y-116974109D01*
X93681905Y-116974109D02*
X93634286Y-117069347D01*
X161112142Y-99599819D02*
X160778809Y-99123628D01*
X160540714Y-99599819D02*
X160540714Y-98599819D01*
X160540714Y-98599819D02*
X160921666Y-98599819D01*
X160921666Y-98599819D02*
X161016904Y-98647438D01*
X161016904Y-98647438D02*
X161064523Y-98695057D01*
X161064523Y-98695057D02*
X161112142Y-98790295D01*
X161112142Y-98790295D02*
X161112142Y-98933152D01*
X161112142Y-98933152D02*
X161064523Y-99028390D01*
X161064523Y-99028390D02*
X161016904Y-99076009D01*
X161016904Y-99076009D02*
X160921666Y-99123628D01*
X160921666Y-99123628D02*
X160540714Y-99123628D01*
X161493095Y-98695057D02*
X161540714Y-98647438D01*
X161540714Y-98647438D02*
X161635952Y-98599819D01*
X161635952Y-98599819D02*
X161874047Y-98599819D01*
X161874047Y-98599819D02*
X161969285Y-98647438D01*
X161969285Y-98647438D02*
X162016904Y-98695057D01*
X162016904Y-98695057D02*
X162064523Y-98790295D01*
X162064523Y-98790295D02*
X162064523Y-98885533D01*
X162064523Y-98885533D02*
X162016904Y-99028390D01*
X162016904Y-99028390D02*
X161445476Y-99599819D01*
X161445476Y-99599819D02*
X162064523Y-99599819D01*
X163016904Y-99599819D02*
X162445476Y-99599819D01*
X162731190Y-99599819D02*
X162731190Y-98599819D01*
X162731190Y-98599819D02*
X162635952Y-98742676D01*
X162635952Y-98742676D02*
X162540714Y-98837914D01*
X162540714Y-98837914D02*
X162445476Y-98885533D01*
X92483333Y-67549580D02*
X92435714Y-67597200D01*
X92435714Y-67597200D02*
X92292857Y-67644819D01*
X92292857Y-67644819D02*
X92197619Y-67644819D01*
X92197619Y-67644819D02*
X92054762Y-67597200D01*
X92054762Y-67597200D02*
X91959524Y-67501961D01*
X91959524Y-67501961D02*
X91911905Y-67406723D01*
X91911905Y-67406723D02*
X91864286Y-67216247D01*
X91864286Y-67216247D02*
X91864286Y-67073390D01*
X91864286Y-67073390D02*
X91911905Y-66882914D01*
X91911905Y-66882914D02*
X91959524Y-66787676D01*
X91959524Y-66787676D02*
X92054762Y-66692438D01*
X92054762Y-66692438D02*
X92197619Y-66644819D01*
X92197619Y-66644819D02*
X92292857Y-66644819D01*
X92292857Y-66644819D02*
X92435714Y-66692438D01*
X92435714Y-66692438D02*
X92483333Y-66740057D01*
X93435714Y-67644819D02*
X92864286Y-67644819D01*
X93150000Y-67644819D02*
X93150000Y-66644819D01*
X93150000Y-66644819D02*
X93054762Y-66787676D01*
X93054762Y-66787676D02*
X92959524Y-66882914D01*
X92959524Y-66882914D02*
X92864286Y-66930533D01*
X80861905Y-84504819D02*
X80861905Y-83504819D01*
X80861905Y-83504819D02*
X81100000Y-83504819D01*
X81100000Y-83504819D02*
X81242857Y-83552438D01*
X81242857Y-83552438D02*
X81338095Y-83647676D01*
X81338095Y-83647676D02*
X81385714Y-83742914D01*
X81385714Y-83742914D02*
X81433333Y-83933390D01*
X81433333Y-83933390D02*
X81433333Y-84076247D01*
X81433333Y-84076247D02*
X81385714Y-84266723D01*
X81385714Y-84266723D02*
X81338095Y-84361961D01*
X81338095Y-84361961D02*
X81242857Y-84457200D01*
X81242857Y-84457200D02*
X81100000Y-84504819D01*
X81100000Y-84504819D02*
X80861905Y-84504819D01*
X82290476Y-83838152D02*
X82290476Y-84504819D01*
X82052381Y-83457200D02*
X81814286Y-84171485D01*
X81814286Y-84171485D02*
X82433333Y-84171485D01*
X169457142Y-82924819D02*
X169123809Y-82448628D01*
X168885714Y-82924819D02*
X168885714Y-81924819D01*
X168885714Y-81924819D02*
X169266666Y-81924819D01*
X169266666Y-81924819D02*
X169361904Y-81972438D01*
X169361904Y-81972438D02*
X169409523Y-82020057D01*
X169409523Y-82020057D02*
X169457142Y-82115295D01*
X169457142Y-82115295D02*
X169457142Y-82258152D01*
X169457142Y-82258152D02*
X169409523Y-82353390D01*
X169409523Y-82353390D02*
X169361904Y-82401009D01*
X169361904Y-82401009D02*
X169266666Y-82448628D01*
X169266666Y-82448628D02*
X168885714Y-82448628D01*
X169838095Y-82020057D02*
X169885714Y-81972438D01*
X169885714Y-81972438D02*
X169980952Y-81924819D01*
X169980952Y-81924819D02*
X170219047Y-81924819D01*
X170219047Y-81924819D02*
X170314285Y-81972438D01*
X170314285Y-81972438D02*
X170361904Y-82020057D01*
X170361904Y-82020057D02*
X170409523Y-82115295D01*
X170409523Y-82115295D02*
X170409523Y-82210533D01*
X170409523Y-82210533D02*
X170361904Y-82353390D01*
X170361904Y-82353390D02*
X169790476Y-82924819D01*
X169790476Y-82924819D02*
X170409523Y-82924819D01*
X170790476Y-82020057D02*
X170838095Y-81972438D01*
X170838095Y-81972438D02*
X170933333Y-81924819D01*
X170933333Y-81924819D02*
X171171428Y-81924819D01*
X171171428Y-81924819D02*
X171266666Y-81972438D01*
X171266666Y-81972438D02*
X171314285Y-82020057D01*
X171314285Y-82020057D02*
X171361904Y-82115295D01*
X171361904Y-82115295D02*
X171361904Y-82210533D01*
X171361904Y-82210533D02*
X171314285Y-82353390D01*
X171314285Y-82353390D02*
X170742857Y-82924819D01*
X170742857Y-82924819D02*
X171361904Y-82924819D01*
X134904819Y-73131904D02*
X135714342Y-73131904D01*
X135714342Y-73131904D02*
X135809580Y-73084285D01*
X135809580Y-73084285D02*
X135857200Y-73036666D01*
X135857200Y-73036666D02*
X135904819Y-72941428D01*
X135904819Y-72941428D02*
X135904819Y-72750952D01*
X135904819Y-72750952D02*
X135857200Y-72655714D01*
X135857200Y-72655714D02*
X135809580Y-72608095D01*
X135809580Y-72608095D02*
X135714342Y-72560476D01*
X135714342Y-72560476D02*
X134904819Y-72560476D01*
X134904819Y-72179523D02*
X134904819Y-71512857D01*
X134904819Y-71512857D02*
X135904819Y-71941428D01*
X80385714Y-117401719D02*
X80385714Y-116401719D01*
X80385714Y-116401719D02*
X80623809Y-116401719D01*
X80623809Y-116401719D02*
X80766666Y-116449338D01*
X80766666Y-116449338D02*
X80861904Y-116544576D01*
X80861904Y-116544576D02*
X80909523Y-116639814D01*
X80909523Y-116639814D02*
X80957142Y-116830290D01*
X80957142Y-116830290D02*
X80957142Y-116973147D01*
X80957142Y-116973147D02*
X80909523Y-117163623D01*
X80909523Y-117163623D02*
X80861904Y-117258861D01*
X80861904Y-117258861D02*
X80766666Y-117354100D01*
X80766666Y-117354100D02*
X80623809Y-117401719D01*
X80623809Y-117401719D02*
X80385714Y-117401719D01*
X81909523Y-117401719D02*
X81338095Y-117401719D01*
X81623809Y-117401719D02*
X81623809Y-116401719D01*
X81623809Y-116401719D02*
X81528571Y-116544576D01*
X81528571Y-116544576D02*
X81433333Y-116639814D01*
X81433333Y-116639814D02*
X81338095Y-116687433D01*
X82861904Y-117401719D02*
X82290476Y-117401719D01*
X82576190Y-117401719D02*
X82576190Y-116401719D01*
X82576190Y-116401719D02*
X82480952Y-116544576D01*
X82480952Y-116544576D02*
X82385714Y-116639814D01*
X82385714Y-116639814D02*
X82290476Y-116687433D01*
X128699642Y-139599819D02*
X128366309Y-139123628D01*
X128128214Y-139599819D02*
X128128214Y-138599819D01*
X128128214Y-138599819D02*
X128509166Y-138599819D01*
X128509166Y-138599819D02*
X128604404Y-138647438D01*
X128604404Y-138647438D02*
X128652023Y-138695057D01*
X128652023Y-138695057D02*
X128699642Y-138790295D01*
X128699642Y-138790295D02*
X128699642Y-138933152D01*
X128699642Y-138933152D02*
X128652023Y-139028390D01*
X128652023Y-139028390D02*
X128604404Y-139076009D01*
X128604404Y-139076009D02*
X128509166Y-139123628D01*
X128509166Y-139123628D02*
X128128214Y-139123628D01*
X129080595Y-138695057D02*
X129128214Y-138647438D01*
X129128214Y-138647438D02*
X129223452Y-138599819D01*
X129223452Y-138599819D02*
X129461547Y-138599819D01*
X129461547Y-138599819D02*
X129556785Y-138647438D01*
X129556785Y-138647438D02*
X129604404Y-138695057D01*
X129604404Y-138695057D02*
X129652023Y-138790295D01*
X129652023Y-138790295D02*
X129652023Y-138885533D01*
X129652023Y-138885533D02*
X129604404Y-139028390D01*
X129604404Y-139028390D02*
X129032976Y-139599819D01*
X129032976Y-139599819D02*
X129652023Y-139599819D01*
X130509166Y-138599819D02*
X130318690Y-138599819D01*
X130318690Y-138599819D02*
X130223452Y-138647438D01*
X130223452Y-138647438D02*
X130175833Y-138695057D01*
X130175833Y-138695057D02*
X130080595Y-138837914D01*
X130080595Y-138837914D02*
X130032976Y-139028390D01*
X130032976Y-139028390D02*
X130032976Y-139409342D01*
X130032976Y-139409342D02*
X130080595Y-139504580D01*
X130080595Y-139504580D02*
X130128214Y-139552200D01*
X130128214Y-139552200D02*
X130223452Y-139599819D01*
X130223452Y-139599819D02*
X130413928Y-139599819D01*
X130413928Y-139599819D02*
X130509166Y-139552200D01*
X130509166Y-139552200D02*
X130556785Y-139504580D01*
X130556785Y-139504580D02*
X130604404Y-139409342D01*
X130604404Y-139409342D02*
X130604404Y-139171247D01*
X130604404Y-139171247D02*
X130556785Y-139076009D01*
X130556785Y-139076009D02*
X130509166Y-139028390D01*
X130509166Y-139028390D02*
X130413928Y-138980771D01*
X130413928Y-138980771D02*
X130223452Y-138980771D01*
X130223452Y-138980771D02*
X130128214Y-139028390D01*
X130128214Y-139028390D02*
X130080595Y-139076009D01*
X130080595Y-139076009D02*
X130032976Y-139171247D01*
X146244819Y-73131904D02*
X147054342Y-73131904D01*
X147054342Y-73131904D02*
X147149580Y-73084285D01*
X147149580Y-73084285D02*
X147197200Y-73036666D01*
X147197200Y-73036666D02*
X147244819Y-72941428D01*
X147244819Y-72941428D02*
X147244819Y-72750952D01*
X147244819Y-72750952D02*
X147197200Y-72655714D01*
X147197200Y-72655714D02*
X147149580Y-72608095D01*
X147149580Y-72608095D02*
X147054342Y-72560476D01*
X147054342Y-72560476D02*
X146244819Y-72560476D01*
X146244819Y-71655714D02*
X146244819Y-71846190D01*
X146244819Y-71846190D02*
X146292438Y-71941428D01*
X146292438Y-71941428D02*
X146340057Y-71989047D01*
X146340057Y-71989047D02*
X146482914Y-72084285D01*
X146482914Y-72084285D02*
X146673390Y-72131904D01*
X146673390Y-72131904D02*
X147054342Y-72131904D01*
X147054342Y-72131904D02*
X147149580Y-72084285D01*
X147149580Y-72084285D02*
X147197200Y-72036666D01*
X147197200Y-72036666D02*
X147244819Y-71941428D01*
X147244819Y-71941428D02*
X147244819Y-71750952D01*
X147244819Y-71750952D02*
X147197200Y-71655714D01*
X147197200Y-71655714D02*
X147149580Y-71608095D01*
X147149580Y-71608095D02*
X147054342Y-71560476D01*
X147054342Y-71560476D02*
X146816247Y-71560476D01*
X146816247Y-71560476D02*
X146721009Y-71608095D01*
X146721009Y-71608095D02*
X146673390Y-71655714D01*
X146673390Y-71655714D02*
X146625771Y-71750952D01*
X146625771Y-71750952D02*
X146625771Y-71941428D01*
X146625771Y-71941428D02*
X146673390Y-72036666D01*
X146673390Y-72036666D02*
X146721009Y-72084285D01*
X146721009Y-72084285D02*
X146816247Y-72131904D01*
X87207142Y-88924819D02*
X86873809Y-88448628D01*
X86635714Y-88924819D02*
X86635714Y-87924819D01*
X86635714Y-87924819D02*
X87016666Y-87924819D01*
X87016666Y-87924819D02*
X87111904Y-87972438D01*
X87111904Y-87972438D02*
X87159523Y-88020057D01*
X87159523Y-88020057D02*
X87207142Y-88115295D01*
X87207142Y-88115295D02*
X87207142Y-88258152D01*
X87207142Y-88258152D02*
X87159523Y-88353390D01*
X87159523Y-88353390D02*
X87111904Y-88401009D01*
X87111904Y-88401009D02*
X87016666Y-88448628D01*
X87016666Y-88448628D02*
X86635714Y-88448628D01*
X88159523Y-88924819D02*
X87588095Y-88924819D01*
X87873809Y-88924819D02*
X87873809Y-87924819D01*
X87873809Y-87924819D02*
X87778571Y-88067676D01*
X87778571Y-88067676D02*
X87683333Y-88162914D01*
X87683333Y-88162914D02*
X87588095Y-88210533D01*
X89111904Y-88924819D02*
X88540476Y-88924819D01*
X88826190Y-88924819D02*
X88826190Y-87924819D01*
X88826190Y-87924819D02*
X88730952Y-88067676D01*
X88730952Y-88067676D02*
X88635714Y-88162914D01*
X88635714Y-88162914D02*
X88540476Y-88210533D01*
X86957142Y-117674819D02*
X86623809Y-117198628D01*
X86385714Y-117674819D02*
X86385714Y-116674819D01*
X86385714Y-116674819D02*
X86766666Y-116674819D01*
X86766666Y-116674819D02*
X86861904Y-116722438D01*
X86861904Y-116722438D02*
X86909523Y-116770057D01*
X86909523Y-116770057D02*
X86957142Y-116865295D01*
X86957142Y-116865295D02*
X86957142Y-117008152D01*
X86957142Y-117008152D02*
X86909523Y-117103390D01*
X86909523Y-117103390D02*
X86861904Y-117151009D01*
X86861904Y-117151009D02*
X86766666Y-117198628D01*
X86766666Y-117198628D02*
X86385714Y-117198628D01*
X87909523Y-117674819D02*
X87338095Y-117674819D01*
X87623809Y-117674819D02*
X87623809Y-116674819D01*
X87623809Y-116674819D02*
X87528571Y-116817676D01*
X87528571Y-116817676D02*
X87433333Y-116912914D01*
X87433333Y-116912914D02*
X87338095Y-116960533D01*
X88814285Y-116674819D02*
X88338095Y-116674819D01*
X88338095Y-116674819D02*
X88290476Y-117151009D01*
X88290476Y-117151009D02*
X88338095Y-117103390D01*
X88338095Y-117103390D02*
X88433333Y-117055771D01*
X88433333Y-117055771D02*
X88671428Y-117055771D01*
X88671428Y-117055771D02*
X88766666Y-117103390D01*
X88766666Y-117103390D02*
X88814285Y-117151009D01*
X88814285Y-117151009D02*
X88861904Y-117246247D01*
X88861904Y-117246247D02*
X88861904Y-117484342D01*
X88861904Y-117484342D02*
X88814285Y-117579580D01*
X88814285Y-117579580D02*
X88766666Y-117627200D01*
X88766666Y-117627200D02*
X88671428Y-117674819D01*
X88671428Y-117674819D02*
X88433333Y-117674819D01*
X88433333Y-117674819D02*
X88338095Y-117627200D01*
X88338095Y-117627200D02*
X88290476Y-117579580D01*
X92520833Y-63324819D02*
X92187500Y-62848628D01*
X91949405Y-63324819D02*
X91949405Y-62324819D01*
X91949405Y-62324819D02*
X92330357Y-62324819D01*
X92330357Y-62324819D02*
X92425595Y-62372438D01*
X92425595Y-62372438D02*
X92473214Y-62420057D01*
X92473214Y-62420057D02*
X92520833Y-62515295D01*
X92520833Y-62515295D02*
X92520833Y-62658152D01*
X92520833Y-62658152D02*
X92473214Y-62753390D01*
X92473214Y-62753390D02*
X92425595Y-62801009D01*
X92425595Y-62801009D02*
X92330357Y-62848628D01*
X92330357Y-62848628D02*
X91949405Y-62848628D01*
X92854167Y-62324819D02*
X93473214Y-62324819D01*
X93473214Y-62324819D02*
X93139881Y-62705771D01*
X93139881Y-62705771D02*
X93282738Y-62705771D01*
X93282738Y-62705771D02*
X93377976Y-62753390D01*
X93377976Y-62753390D02*
X93425595Y-62801009D01*
X93425595Y-62801009D02*
X93473214Y-62896247D01*
X93473214Y-62896247D02*
X93473214Y-63134342D01*
X93473214Y-63134342D02*
X93425595Y-63229580D01*
X93425595Y-63229580D02*
X93377976Y-63277200D01*
X93377976Y-63277200D02*
X93282738Y-63324819D01*
X93282738Y-63324819D02*
X92997024Y-63324819D01*
X92997024Y-63324819D02*
X92901786Y-63277200D01*
X92901786Y-63277200D02*
X92854167Y-63229580D01*
X121524819Y-68608094D02*
X120524819Y-68608094D01*
X120524819Y-68608094D02*
X120524819Y-68369999D01*
X120524819Y-68369999D02*
X120572438Y-68227142D01*
X120572438Y-68227142D02*
X120667676Y-68131904D01*
X120667676Y-68131904D02*
X120762914Y-68084285D01*
X120762914Y-68084285D02*
X120953390Y-68036666D01*
X120953390Y-68036666D02*
X121096247Y-68036666D01*
X121096247Y-68036666D02*
X121286723Y-68084285D01*
X121286723Y-68084285D02*
X121381961Y-68131904D01*
X121381961Y-68131904D02*
X121477200Y-68227142D01*
X121477200Y-68227142D02*
X121524819Y-68369999D01*
X121524819Y-68369999D02*
X121524819Y-68608094D01*
X120620057Y-67655713D02*
X120572438Y-67608094D01*
X120572438Y-67608094D02*
X120524819Y-67512856D01*
X120524819Y-67512856D02*
X120524819Y-67274761D01*
X120524819Y-67274761D02*
X120572438Y-67179523D01*
X120572438Y-67179523D02*
X120620057Y-67131904D01*
X120620057Y-67131904D02*
X120715295Y-67084285D01*
X120715295Y-67084285D02*
X120810533Y-67084285D01*
X120810533Y-67084285D02*
X120953390Y-67131904D01*
X120953390Y-67131904D02*
X121524819Y-67703332D01*
X121524819Y-67703332D02*
X121524819Y-67084285D01*
X121154819Y-63051904D02*
X120154819Y-63051904D01*
X121154819Y-62480476D02*
X120583390Y-62909047D01*
X120154819Y-62480476D02*
X120726247Y-63051904D01*
X96875476Y-84874819D02*
X97542142Y-85874819D01*
X97542142Y-84874819D02*
X96875476Y-85874819D01*
X98446904Y-85874819D02*
X97875476Y-85874819D01*
X98161190Y-85874819D02*
X98161190Y-84874819D01*
X98161190Y-84874819D02*
X98065952Y-85017676D01*
X98065952Y-85017676D02*
X97970714Y-85112914D01*
X97970714Y-85112914D02*
X97875476Y-85160533D01*
X181634819Y-131036665D02*
X180634819Y-131036665D01*
X180730057Y-130608094D02*
X180682438Y-130560475D01*
X180682438Y-130560475D02*
X180634819Y-130465237D01*
X180634819Y-130465237D02*
X180634819Y-130227142D01*
X180634819Y-130227142D02*
X180682438Y-130131904D01*
X180682438Y-130131904D02*
X180730057Y-130084285D01*
X180730057Y-130084285D02*
X180825295Y-130036666D01*
X180825295Y-130036666D02*
X180920533Y-130036666D01*
X180920533Y-130036666D02*
X181063390Y-130084285D01*
X181063390Y-130084285D02*
X181634819Y-130655713D01*
X181634819Y-130655713D02*
X181634819Y-130036666D01*
X181539580Y-129036666D02*
X181587200Y-129084285D01*
X181587200Y-129084285D02*
X181634819Y-129227142D01*
X181634819Y-129227142D02*
X181634819Y-129322380D01*
X181634819Y-129322380D02*
X181587200Y-129465237D01*
X181587200Y-129465237D02*
X181491961Y-129560475D01*
X181491961Y-129560475D02*
X181396723Y-129608094D01*
X181396723Y-129608094D02*
X181206247Y-129655713D01*
X181206247Y-129655713D02*
X181063390Y-129655713D01*
X181063390Y-129655713D02*
X180872914Y-129608094D01*
X180872914Y-129608094D02*
X180777676Y-129560475D01*
X180777676Y-129560475D02*
X180682438Y-129465237D01*
X180682438Y-129465237D02*
X180634819Y-129322380D01*
X180634819Y-129322380D02*
X180634819Y-129227142D01*
X180634819Y-129227142D02*
X180682438Y-129084285D01*
X180682438Y-129084285D02*
X180730057Y-129036666D01*
X181634819Y-128084285D02*
X181634819Y-128655713D01*
X181634819Y-128369999D02*
X180634819Y-128369999D01*
X180634819Y-128369999D02*
X180777676Y-128465237D01*
X180777676Y-128465237D02*
X180872914Y-128560475D01*
X180872914Y-128560475D02*
X180920533Y-128655713D01*
X181539580Y-127655713D02*
X181587200Y-127608094D01*
X181587200Y-127608094D02*
X181634819Y-127655713D01*
X181634819Y-127655713D02*
X181587200Y-127703332D01*
X181587200Y-127703332D02*
X181539580Y-127655713D01*
X181539580Y-127655713D02*
X181634819Y-127655713D01*
X181634819Y-126655714D02*
X181634819Y-127227142D01*
X181634819Y-126941428D02*
X180634819Y-126941428D01*
X180634819Y-126941428D02*
X180777676Y-127036666D01*
X180777676Y-127036666D02*
X180872914Y-127131904D01*
X180872914Y-127131904D02*
X180920533Y-127227142D01*
X80861905Y-109401719D02*
X80861905Y-108401719D01*
X80861905Y-108401719D02*
X81100000Y-108401719D01*
X81100000Y-108401719D02*
X81242857Y-108449338D01*
X81242857Y-108449338D02*
X81338095Y-108544576D01*
X81338095Y-108544576D02*
X81385714Y-108639814D01*
X81385714Y-108639814D02*
X81433333Y-108830290D01*
X81433333Y-108830290D02*
X81433333Y-108973147D01*
X81433333Y-108973147D02*
X81385714Y-109163623D01*
X81385714Y-109163623D02*
X81338095Y-109258861D01*
X81338095Y-109258861D02*
X81242857Y-109354100D01*
X81242857Y-109354100D02*
X81100000Y-109401719D01*
X81100000Y-109401719D02*
X80861905Y-109401719D01*
X82338095Y-108401719D02*
X81861905Y-108401719D01*
X81861905Y-108401719D02*
X81814286Y-108877909D01*
X81814286Y-108877909D02*
X81861905Y-108830290D01*
X81861905Y-108830290D02*
X81957143Y-108782671D01*
X81957143Y-108782671D02*
X82195238Y-108782671D01*
X82195238Y-108782671D02*
X82290476Y-108830290D01*
X82290476Y-108830290D02*
X82338095Y-108877909D01*
X82338095Y-108877909D02*
X82385714Y-108973147D01*
X82385714Y-108973147D02*
X82385714Y-109211242D01*
X82385714Y-109211242D02*
X82338095Y-109306480D01*
X82338095Y-109306480D02*
X82290476Y-109354100D01*
X82290476Y-109354100D02*
X82195238Y-109401719D01*
X82195238Y-109401719D02*
X81957143Y-109401719D01*
X81957143Y-109401719D02*
X81861905Y-109354100D01*
X81861905Y-109354100D02*
X81814286Y-109306480D01*
X96805476Y-134799819D02*
X97472142Y-135799819D01*
X97472142Y-134799819D02*
X96805476Y-135799819D01*
X97757857Y-134799819D02*
X98376904Y-134799819D01*
X98376904Y-134799819D02*
X98043571Y-135180771D01*
X98043571Y-135180771D02*
X98186428Y-135180771D01*
X98186428Y-135180771D02*
X98281666Y-135228390D01*
X98281666Y-135228390D02*
X98329285Y-135276009D01*
X98329285Y-135276009D02*
X98376904Y-135371247D01*
X98376904Y-135371247D02*
X98376904Y-135609342D01*
X98376904Y-135609342D02*
X98329285Y-135704580D01*
X98329285Y-135704580D02*
X98281666Y-135752200D01*
X98281666Y-135752200D02*
X98186428Y-135799819D01*
X98186428Y-135799819D02*
X97900714Y-135799819D01*
X97900714Y-135799819D02*
X97805476Y-135752200D01*
X97805476Y-135752200D02*
X97757857Y-135704580D01*
X197047619Y-81614104D02*
X197523809Y-81614104D01*
X196952381Y-81899819D02*
X197285714Y-80899819D01*
X197285714Y-80899819D02*
X197619047Y-81899819D01*
X197952381Y-81899819D02*
X197952381Y-80899819D01*
X197952381Y-80899819D02*
X198190476Y-80899819D01*
X198190476Y-80899819D02*
X198333333Y-80947438D01*
X198333333Y-80947438D02*
X198428571Y-81042676D01*
X198428571Y-81042676D02*
X198476190Y-81137914D01*
X198476190Y-81137914D02*
X198523809Y-81328390D01*
X198523809Y-81328390D02*
X198523809Y-81471247D01*
X198523809Y-81471247D02*
X198476190Y-81661723D01*
X198476190Y-81661723D02*
X198428571Y-81756961D01*
X198428571Y-81756961D02*
X198333333Y-81852200D01*
X198333333Y-81852200D02*
X198190476Y-81899819D01*
X198190476Y-81899819D02*
X197952381Y-81899819D01*
X199523809Y-81804580D02*
X199476190Y-81852200D01*
X199476190Y-81852200D02*
X199333333Y-81899819D01*
X199333333Y-81899819D02*
X199238095Y-81899819D01*
X199238095Y-81899819D02*
X199095238Y-81852200D01*
X199095238Y-81852200D02*
X199000000Y-81756961D01*
X199000000Y-81756961D02*
X198952381Y-81661723D01*
X198952381Y-81661723D02*
X198904762Y-81471247D01*
X198904762Y-81471247D02*
X198904762Y-81328390D01*
X198904762Y-81328390D02*
X198952381Y-81137914D01*
X198952381Y-81137914D02*
X199000000Y-81042676D01*
X199000000Y-81042676D02*
X199095238Y-80947438D01*
X199095238Y-80947438D02*
X199238095Y-80899819D01*
X199238095Y-80899819D02*
X199333333Y-80899819D01*
X199333333Y-80899819D02*
X199476190Y-80947438D01*
X199476190Y-80947438D02*
X199523809Y-80995057D01*
X199952381Y-81804580D02*
X200000000Y-81852200D01*
X200000000Y-81852200D02*
X199952381Y-81899819D01*
X199952381Y-81899819D02*
X199904762Y-81852200D01*
X199904762Y-81852200D02*
X199952381Y-81804580D01*
X199952381Y-81804580D02*
X199952381Y-81899819D01*
X200952380Y-81899819D02*
X200380952Y-81899819D01*
X200666666Y-81899819D02*
X200666666Y-80899819D01*
X200666666Y-80899819D02*
X200571428Y-81042676D01*
X200571428Y-81042676D02*
X200476190Y-81137914D01*
X200476190Y-81137914D02*
X200380952Y-81185533D01*
X203147619Y-81444104D02*
X203623809Y-81444104D01*
X203052381Y-81729819D02*
X203385714Y-80729819D01*
X203385714Y-80729819D02*
X203719047Y-81729819D01*
X204052381Y-81729819D02*
X204052381Y-80729819D01*
X204052381Y-80729819D02*
X204290476Y-80729819D01*
X204290476Y-80729819D02*
X204433333Y-80777438D01*
X204433333Y-80777438D02*
X204528571Y-80872676D01*
X204528571Y-80872676D02*
X204576190Y-80967914D01*
X204576190Y-80967914D02*
X204623809Y-81158390D01*
X204623809Y-81158390D02*
X204623809Y-81301247D01*
X204623809Y-81301247D02*
X204576190Y-81491723D01*
X204576190Y-81491723D02*
X204528571Y-81586961D01*
X204528571Y-81586961D02*
X204433333Y-81682200D01*
X204433333Y-81682200D02*
X204290476Y-81729819D01*
X204290476Y-81729819D02*
X204052381Y-81729819D01*
X205623809Y-81634580D02*
X205576190Y-81682200D01*
X205576190Y-81682200D02*
X205433333Y-81729819D01*
X205433333Y-81729819D02*
X205338095Y-81729819D01*
X205338095Y-81729819D02*
X205195238Y-81682200D01*
X205195238Y-81682200D02*
X205100000Y-81586961D01*
X205100000Y-81586961D02*
X205052381Y-81491723D01*
X205052381Y-81491723D02*
X205004762Y-81301247D01*
X205004762Y-81301247D02*
X205004762Y-81158390D01*
X205004762Y-81158390D02*
X205052381Y-80967914D01*
X205052381Y-80967914D02*
X205100000Y-80872676D01*
X205100000Y-80872676D02*
X205195238Y-80777438D01*
X205195238Y-80777438D02*
X205338095Y-80729819D01*
X205338095Y-80729819D02*
X205433333Y-80729819D01*
X205433333Y-80729819D02*
X205576190Y-80777438D01*
X205576190Y-80777438D02*
X205623809Y-80825057D01*
X206052381Y-81634580D02*
X206100000Y-81682200D01*
X206100000Y-81682200D02*
X206052381Y-81729819D01*
X206052381Y-81729819D02*
X206004762Y-81682200D01*
X206004762Y-81682200D02*
X206052381Y-81634580D01*
X206052381Y-81634580D02*
X206052381Y-81729819D01*
X206480952Y-80825057D02*
X206528571Y-80777438D01*
X206528571Y-80777438D02*
X206623809Y-80729819D01*
X206623809Y-80729819D02*
X206861904Y-80729819D01*
X206861904Y-80729819D02*
X206957142Y-80777438D01*
X206957142Y-80777438D02*
X207004761Y-80825057D01*
X207004761Y-80825057D02*
X207052380Y-80920295D01*
X207052380Y-80920295D02*
X207052380Y-81015533D01*
X207052380Y-81015533D02*
X207004761Y-81158390D01*
X207004761Y-81158390D02*
X206433333Y-81729819D01*
X206433333Y-81729819D02*
X207052380Y-81729819D01*
X173957142Y-82924819D02*
X173623809Y-82448628D01*
X173385714Y-82924819D02*
X173385714Y-81924819D01*
X173385714Y-81924819D02*
X173766666Y-81924819D01*
X173766666Y-81924819D02*
X173861904Y-81972438D01*
X173861904Y-81972438D02*
X173909523Y-82020057D01*
X173909523Y-82020057D02*
X173957142Y-82115295D01*
X173957142Y-82115295D02*
X173957142Y-82258152D01*
X173957142Y-82258152D02*
X173909523Y-82353390D01*
X173909523Y-82353390D02*
X173861904Y-82401009D01*
X173861904Y-82401009D02*
X173766666Y-82448628D01*
X173766666Y-82448628D02*
X173385714Y-82448628D01*
X174338095Y-82020057D02*
X174385714Y-81972438D01*
X174385714Y-81972438D02*
X174480952Y-81924819D01*
X174480952Y-81924819D02*
X174719047Y-81924819D01*
X174719047Y-81924819D02*
X174814285Y-81972438D01*
X174814285Y-81972438D02*
X174861904Y-82020057D01*
X174861904Y-82020057D02*
X174909523Y-82115295D01*
X174909523Y-82115295D02*
X174909523Y-82210533D01*
X174909523Y-82210533D02*
X174861904Y-82353390D01*
X174861904Y-82353390D02*
X174290476Y-82924819D01*
X174290476Y-82924819D02*
X174909523Y-82924819D01*
X175242857Y-81924819D02*
X175861904Y-81924819D01*
X175861904Y-81924819D02*
X175528571Y-82305771D01*
X175528571Y-82305771D02*
X175671428Y-82305771D01*
X175671428Y-82305771D02*
X175766666Y-82353390D01*
X175766666Y-82353390D02*
X175814285Y-82401009D01*
X175814285Y-82401009D02*
X175861904Y-82496247D01*
X175861904Y-82496247D02*
X175861904Y-82734342D01*
X175861904Y-82734342D02*
X175814285Y-82829580D01*
X175814285Y-82829580D02*
X175766666Y-82877200D01*
X175766666Y-82877200D02*
X175671428Y-82924819D01*
X175671428Y-82924819D02*
X175385714Y-82924819D01*
X175385714Y-82924819D02*
X175290476Y-82877200D01*
X175290476Y-82877200D02*
X175242857Y-82829580D01*
X80861905Y-113401719D02*
X80861905Y-112401719D01*
X80861905Y-112401719D02*
X81100000Y-112401719D01*
X81100000Y-112401719D02*
X81242857Y-112449338D01*
X81242857Y-112449338D02*
X81338095Y-112544576D01*
X81338095Y-112544576D02*
X81385714Y-112639814D01*
X81385714Y-112639814D02*
X81433333Y-112830290D01*
X81433333Y-112830290D02*
X81433333Y-112973147D01*
X81433333Y-112973147D02*
X81385714Y-113163623D01*
X81385714Y-113163623D02*
X81338095Y-113258861D01*
X81338095Y-113258861D02*
X81242857Y-113354100D01*
X81242857Y-113354100D02*
X81100000Y-113401719D01*
X81100000Y-113401719D02*
X80861905Y-113401719D01*
X82004762Y-112830290D02*
X81909524Y-112782671D01*
X81909524Y-112782671D02*
X81861905Y-112735052D01*
X81861905Y-112735052D02*
X81814286Y-112639814D01*
X81814286Y-112639814D02*
X81814286Y-112592195D01*
X81814286Y-112592195D02*
X81861905Y-112496957D01*
X81861905Y-112496957D02*
X81909524Y-112449338D01*
X81909524Y-112449338D02*
X82004762Y-112401719D01*
X82004762Y-112401719D02*
X82195238Y-112401719D01*
X82195238Y-112401719D02*
X82290476Y-112449338D01*
X82290476Y-112449338D02*
X82338095Y-112496957D01*
X82338095Y-112496957D02*
X82385714Y-112592195D01*
X82385714Y-112592195D02*
X82385714Y-112639814D01*
X82385714Y-112639814D02*
X82338095Y-112735052D01*
X82338095Y-112735052D02*
X82290476Y-112782671D01*
X82290476Y-112782671D02*
X82195238Y-112830290D01*
X82195238Y-112830290D02*
X82004762Y-112830290D01*
X82004762Y-112830290D02*
X81909524Y-112877909D01*
X81909524Y-112877909D02*
X81861905Y-112925528D01*
X81861905Y-112925528D02*
X81814286Y-113020766D01*
X81814286Y-113020766D02*
X81814286Y-113211242D01*
X81814286Y-113211242D02*
X81861905Y-113306480D01*
X81861905Y-113306480D02*
X81909524Y-113354100D01*
X81909524Y-113354100D02*
X82004762Y-113401719D01*
X82004762Y-113401719D02*
X82195238Y-113401719D01*
X82195238Y-113401719D02*
X82290476Y-113354100D01*
X82290476Y-113354100D02*
X82338095Y-113306480D01*
X82338095Y-113306480D02*
X82385714Y-113211242D01*
X82385714Y-113211242D02*
X82385714Y-113020766D01*
X82385714Y-113020766D02*
X82338095Y-112925528D01*
X82338095Y-112925528D02*
X82290476Y-112877909D01*
X82290476Y-112877909D02*
X82195238Y-112830290D01*
X80385714Y-142504819D02*
X80385714Y-141504819D01*
X80385714Y-141504819D02*
X80623809Y-141504819D01*
X80623809Y-141504819D02*
X80766666Y-141552438D01*
X80766666Y-141552438D02*
X80861904Y-141647676D01*
X80861904Y-141647676D02*
X80909523Y-141742914D01*
X80909523Y-141742914D02*
X80957142Y-141933390D01*
X80957142Y-141933390D02*
X80957142Y-142076247D01*
X80957142Y-142076247D02*
X80909523Y-142266723D01*
X80909523Y-142266723D02*
X80861904Y-142361961D01*
X80861904Y-142361961D02*
X80766666Y-142457200D01*
X80766666Y-142457200D02*
X80623809Y-142504819D01*
X80623809Y-142504819D02*
X80385714Y-142504819D01*
X81909523Y-142504819D02*
X81338095Y-142504819D01*
X81623809Y-142504819D02*
X81623809Y-141504819D01*
X81623809Y-141504819D02*
X81528571Y-141647676D01*
X81528571Y-141647676D02*
X81433333Y-141742914D01*
X81433333Y-141742914D02*
X81338095Y-141790533D01*
X82290476Y-141600057D02*
X82338095Y-141552438D01*
X82338095Y-141552438D02*
X82433333Y-141504819D01*
X82433333Y-141504819D02*
X82671428Y-141504819D01*
X82671428Y-141504819D02*
X82766666Y-141552438D01*
X82766666Y-141552438D02*
X82814285Y-141600057D01*
X82814285Y-141600057D02*
X82861904Y-141695295D01*
X82861904Y-141695295D02*
X82861904Y-141790533D01*
X82861904Y-141790533D02*
X82814285Y-141933390D01*
X82814285Y-141933390D02*
X82242857Y-142504819D01*
X82242857Y-142504819D02*
X82861904Y-142504819D01*
X120020833Y-85424819D02*
X119687500Y-84948628D01*
X119449405Y-85424819D02*
X119449405Y-84424819D01*
X119449405Y-84424819D02*
X119830357Y-84424819D01*
X119830357Y-84424819D02*
X119925595Y-84472438D01*
X119925595Y-84472438D02*
X119973214Y-84520057D01*
X119973214Y-84520057D02*
X120020833Y-84615295D01*
X120020833Y-84615295D02*
X120020833Y-84758152D01*
X120020833Y-84758152D02*
X119973214Y-84853390D01*
X119973214Y-84853390D02*
X119925595Y-84901009D01*
X119925595Y-84901009D02*
X119830357Y-84948628D01*
X119830357Y-84948628D02*
X119449405Y-84948628D01*
X120592262Y-84853390D02*
X120497024Y-84805771D01*
X120497024Y-84805771D02*
X120449405Y-84758152D01*
X120449405Y-84758152D02*
X120401786Y-84662914D01*
X120401786Y-84662914D02*
X120401786Y-84615295D01*
X120401786Y-84615295D02*
X120449405Y-84520057D01*
X120449405Y-84520057D02*
X120497024Y-84472438D01*
X120497024Y-84472438D02*
X120592262Y-84424819D01*
X120592262Y-84424819D02*
X120782738Y-84424819D01*
X120782738Y-84424819D02*
X120877976Y-84472438D01*
X120877976Y-84472438D02*
X120925595Y-84520057D01*
X120925595Y-84520057D02*
X120973214Y-84615295D01*
X120973214Y-84615295D02*
X120973214Y-84662914D01*
X120973214Y-84662914D02*
X120925595Y-84758152D01*
X120925595Y-84758152D02*
X120877976Y-84805771D01*
X120877976Y-84805771D02*
X120782738Y-84853390D01*
X120782738Y-84853390D02*
X120592262Y-84853390D01*
X120592262Y-84853390D02*
X120497024Y-84901009D01*
X120497024Y-84901009D02*
X120449405Y-84948628D01*
X120449405Y-84948628D02*
X120401786Y-85043866D01*
X120401786Y-85043866D02*
X120401786Y-85234342D01*
X120401786Y-85234342D02*
X120449405Y-85329580D01*
X120449405Y-85329580D02*
X120497024Y-85377200D01*
X120497024Y-85377200D02*
X120592262Y-85424819D01*
X120592262Y-85424819D02*
X120782738Y-85424819D01*
X120782738Y-85424819D02*
X120877976Y-85377200D01*
X120877976Y-85377200D02*
X120925595Y-85329580D01*
X120925595Y-85329580D02*
X120973214Y-85234342D01*
X120973214Y-85234342D02*
X120973214Y-85043866D01*
X120973214Y-85043866D02*
X120925595Y-84948628D01*
X120925595Y-84948628D02*
X120877976Y-84901009D01*
X120877976Y-84901009D02*
X120782738Y-84853390D01*
X191130953Y-114124819D02*
X191130953Y-113124819D01*
X191130953Y-113124819D02*
X191511905Y-113124819D01*
X191511905Y-113124819D02*
X191607143Y-113172438D01*
X191607143Y-113172438D02*
X191654762Y-113220057D01*
X191654762Y-113220057D02*
X191702381Y-113315295D01*
X191702381Y-113315295D02*
X191702381Y-113458152D01*
X191702381Y-113458152D02*
X191654762Y-113553390D01*
X191654762Y-113553390D02*
X191607143Y-113601009D01*
X191607143Y-113601009D02*
X191511905Y-113648628D01*
X191511905Y-113648628D02*
X191130953Y-113648628D01*
X192035715Y-113124819D02*
X192273810Y-114124819D01*
X192273810Y-114124819D02*
X192464286Y-113410533D01*
X192464286Y-113410533D02*
X192654762Y-114124819D01*
X192654762Y-114124819D02*
X192892858Y-113124819D01*
X193273810Y-114124819D02*
X193273810Y-113124819D01*
X193273810Y-113124819D02*
X193607143Y-113839104D01*
X193607143Y-113839104D02*
X193940476Y-113124819D01*
X193940476Y-113124819D02*
X193940476Y-114124819D01*
X194416667Y-114029580D02*
X194464286Y-114077200D01*
X194464286Y-114077200D02*
X194416667Y-114124819D01*
X194416667Y-114124819D02*
X194369048Y-114077200D01*
X194369048Y-114077200D02*
X194416667Y-114029580D01*
X194416667Y-114029580D02*
X194416667Y-114124819D01*
X195416666Y-114124819D02*
X194845238Y-114124819D01*
X195130952Y-114124819D02*
X195130952Y-113124819D01*
X195130952Y-113124819D02*
X195035714Y-113267676D01*
X195035714Y-113267676D02*
X194940476Y-113362914D01*
X194940476Y-113362914D02*
X194845238Y-113410533D01*
X80385714Y-92504819D02*
X80385714Y-91504819D01*
X80385714Y-91504819D02*
X80623809Y-91504819D01*
X80623809Y-91504819D02*
X80766666Y-91552438D01*
X80766666Y-91552438D02*
X80861904Y-91647676D01*
X80861904Y-91647676D02*
X80909523Y-91742914D01*
X80909523Y-91742914D02*
X80957142Y-91933390D01*
X80957142Y-91933390D02*
X80957142Y-92076247D01*
X80957142Y-92076247D02*
X80909523Y-92266723D01*
X80909523Y-92266723D02*
X80861904Y-92361961D01*
X80861904Y-92361961D02*
X80766666Y-92457200D01*
X80766666Y-92457200D02*
X80623809Y-92504819D01*
X80623809Y-92504819D02*
X80385714Y-92504819D01*
X81909523Y-92504819D02*
X81338095Y-92504819D01*
X81623809Y-92504819D02*
X81623809Y-91504819D01*
X81623809Y-91504819D02*
X81528571Y-91647676D01*
X81528571Y-91647676D02*
X81433333Y-91742914D01*
X81433333Y-91742914D02*
X81338095Y-91790533D01*
X82528571Y-91504819D02*
X82623809Y-91504819D01*
X82623809Y-91504819D02*
X82719047Y-91552438D01*
X82719047Y-91552438D02*
X82766666Y-91600057D01*
X82766666Y-91600057D02*
X82814285Y-91695295D01*
X82814285Y-91695295D02*
X82861904Y-91885771D01*
X82861904Y-91885771D02*
X82861904Y-92123866D01*
X82861904Y-92123866D02*
X82814285Y-92314342D01*
X82814285Y-92314342D02*
X82766666Y-92409580D01*
X82766666Y-92409580D02*
X82719047Y-92457200D01*
X82719047Y-92457200D02*
X82623809Y-92504819D01*
X82623809Y-92504819D02*
X82528571Y-92504819D01*
X82528571Y-92504819D02*
X82433333Y-92457200D01*
X82433333Y-92457200D02*
X82385714Y-92409580D01*
X82385714Y-92409580D02*
X82338095Y-92314342D01*
X82338095Y-92314342D02*
X82290476Y-92123866D01*
X82290476Y-92123866D02*
X82290476Y-91885771D01*
X82290476Y-91885771D02*
X82338095Y-91695295D01*
X82338095Y-91695295D02*
X82385714Y-91600057D01*
X82385714Y-91600057D02*
X82433333Y-91552438D01*
X82433333Y-91552438D02*
X82528571Y-91504819D01*
X134904819Y-84131904D02*
X135714342Y-84131904D01*
X135714342Y-84131904D02*
X135809580Y-84084285D01*
X135809580Y-84084285D02*
X135857200Y-84036666D01*
X135857200Y-84036666D02*
X135904819Y-83941428D01*
X135904819Y-83941428D02*
X135904819Y-83750952D01*
X135904819Y-83750952D02*
X135857200Y-83655714D01*
X135857200Y-83655714D02*
X135809580Y-83608095D01*
X135809580Y-83608095D02*
X135714342Y-83560476D01*
X135714342Y-83560476D02*
X134904819Y-83560476D01*
X135333390Y-82941428D02*
X135285771Y-83036666D01*
X135285771Y-83036666D02*
X135238152Y-83084285D01*
X135238152Y-83084285D02*
X135142914Y-83131904D01*
X135142914Y-83131904D02*
X135095295Y-83131904D01*
X135095295Y-83131904D02*
X135000057Y-83084285D01*
X135000057Y-83084285D02*
X134952438Y-83036666D01*
X134952438Y-83036666D02*
X134904819Y-82941428D01*
X134904819Y-82941428D02*
X134904819Y-82750952D01*
X134904819Y-82750952D02*
X134952438Y-82655714D01*
X134952438Y-82655714D02*
X135000057Y-82608095D01*
X135000057Y-82608095D02*
X135095295Y-82560476D01*
X135095295Y-82560476D02*
X135142914Y-82560476D01*
X135142914Y-82560476D02*
X135238152Y-82608095D01*
X135238152Y-82608095D02*
X135285771Y-82655714D01*
X135285771Y-82655714D02*
X135333390Y-82750952D01*
X135333390Y-82750952D02*
X135333390Y-82941428D01*
X135333390Y-82941428D02*
X135381009Y-83036666D01*
X135381009Y-83036666D02*
X135428628Y-83084285D01*
X135428628Y-83084285D02*
X135523866Y-83131904D01*
X135523866Y-83131904D02*
X135714342Y-83131904D01*
X135714342Y-83131904D02*
X135809580Y-83084285D01*
X135809580Y-83084285D02*
X135857200Y-83036666D01*
X135857200Y-83036666D02*
X135904819Y-82941428D01*
X135904819Y-82941428D02*
X135904819Y-82750952D01*
X135904819Y-82750952D02*
X135857200Y-82655714D01*
X135857200Y-82655714D02*
X135809580Y-82608095D01*
X135809580Y-82608095D02*
X135714342Y-82560476D01*
X135714342Y-82560476D02*
X135523866Y-82560476D01*
X135523866Y-82560476D02*
X135428628Y-82608095D01*
X135428628Y-82608095D02*
X135381009Y-82655714D01*
X135381009Y-82655714D02*
X135333390Y-82750952D01*
X87433333Y-63674819D02*
X87100000Y-63198628D01*
X86861905Y-63674819D02*
X86861905Y-62674819D01*
X86861905Y-62674819D02*
X87242857Y-62674819D01*
X87242857Y-62674819D02*
X87338095Y-62722438D01*
X87338095Y-62722438D02*
X87385714Y-62770057D01*
X87385714Y-62770057D02*
X87433333Y-62865295D01*
X87433333Y-62865295D02*
X87433333Y-63008152D01*
X87433333Y-63008152D02*
X87385714Y-63103390D01*
X87385714Y-63103390D02*
X87338095Y-63151009D01*
X87338095Y-63151009D02*
X87242857Y-63198628D01*
X87242857Y-63198628D02*
X86861905Y-63198628D01*
X88290476Y-63008152D02*
X88290476Y-63674819D01*
X88052381Y-62627200D02*
X87814286Y-63341485D01*
X87814286Y-63341485D02*
X88433333Y-63341485D01*
X148509819Y-89486904D02*
X149319342Y-89486904D01*
X149319342Y-89486904D02*
X149414580Y-89439285D01*
X149414580Y-89439285D02*
X149462200Y-89391666D01*
X149462200Y-89391666D02*
X149509819Y-89296428D01*
X149509819Y-89296428D02*
X149509819Y-89105952D01*
X149509819Y-89105952D02*
X149462200Y-89010714D01*
X149462200Y-89010714D02*
X149414580Y-88963095D01*
X149414580Y-88963095D02*
X149319342Y-88915476D01*
X149319342Y-88915476D02*
X148509819Y-88915476D01*
X149509819Y-88391666D02*
X149509819Y-88201190D01*
X149509819Y-88201190D02*
X149462200Y-88105952D01*
X149462200Y-88105952D02*
X149414580Y-88058333D01*
X149414580Y-88058333D02*
X149271723Y-87963095D01*
X149271723Y-87963095D02*
X149081247Y-87915476D01*
X149081247Y-87915476D02*
X148700295Y-87915476D01*
X148700295Y-87915476D02*
X148605057Y-87963095D01*
X148605057Y-87963095D02*
X148557438Y-88010714D01*
X148557438Y-88010714D02*
X148509819Y-88105952D01*
X148509819Y-88105952D02*
X148509819Y-88296428D01*
X148509819Y-88296428D02*
X148557438Y-88391666D01*
X148557438Y-88391666D02*
X148605057Y-88439285D01*
X148605057Y-88439285D02*
X148700295Y-88486904D01*
X148700295Y-88486904D02*
X148938390Y-88486904D01*
X148938390Y-88486904D02*
X149033628Y-88439285D01*
X149033628Y-88439285D02*
X149081247Y-88391666D01*
X149081247Y-88391666D02*
X149128866Y-88296428D01*
X149128866Y-88296428D02*
X149128866Y-88105952D01*
X149128866Y-88105952D02*
X149081247Y-88010714D01*
X149081247Y-88010714D02*
X149033628Y-87963095D01*
X149033628Y-87963095D02*
X148938390Y-87915476D01*
X86957142Y-109674819D02*
X86623809Y-109198628D01*
X86385714Y-109674819D02*
X86385714Y-108674819D01*
X86385714Y-108674819D02*
X86766666Y-108674819D01*
X86766666Y-108674819D02*
X86861904Y-108722438D01*
X86861904Y-108722438D02*
X86909523Y-108770057D01*
X86909523Y-108770057D02*
X86957142Y-108865295D01*
X86957142Y-108865295D02*
X86957142Y-109008152D01*
X86957142Y-109008152D02*
X86909523Y-109103390D01*
X86909523Y-109103390D02*
X86861904Y-109151009D01*
X86861904Y-109151009D02*
X86766666Y-109198628D01*
X86766666Y-109198628D02*
X86385714Y-109198628D01*
X87909523Y-109674819D02*
X87338095Y-109674819D01*
X87623809Y-109674819D02*
X87623809Y-108674819D01*
X87623809Y-108674819D02*
X87528571Y-108817676D01*
X87528571Y-108817676D02*
X87433333Y-108912914D01*
X87433333Y-108912914D02*
X87338095Y-108960533D01*
X88480952Y-109103390D02*
X88385714Y-109055771D01*
X88385714Y-109055771D02*
X88338095Y-109008152D01*
X88338095Y-109008152D02*
X88290476Y-108912914D01*
X88290476Y-108912914D02*
X88290476Y-108865295D01*
X88290476Y-108865295D02*
X88338095Y-108770057D01*
X88338095Y-108770057D02*
X88385714Y-108722438D01*
X88385714Y-108722438D02*
X88480952Y-108674819D01*
X88480952Y-108674819D02*
X88671428Y-108674819D01*
X88671428Y-108674819D02*
X88766666Y-108722438D01*
X88766666Y-108722438D02*
X88814285Y-108770057D01*
X88814285Y-108770057D02*
X88861904Y-108865295D01*
X88861904Y-108865295D02*
X88861904Y-108912914D01*
X88861904Y-108912914D02*
X88814285Y-109008152D01*
X88814285Y-109008152D02*
X88766666Y-109055771D01*
X88766666Y-109055771D02*
X88671428Y-109103390D01*
X88671428Y-109103390D02*
X88480952Y-109103390D01*
X88480952Y-109103390D02*
X88385714Y-109151009D01*
X88385714Y-109151009D02*
X88338095Y-109198628D01*
X88338095Y-109198628D02*
X88290476Y-109293866D01*
X88290476Y-109293866D02*
X88290476Y-109484342D01*
X88290476Y-109484342D02*
X88338095Y-109579580D01*
X88338095Y-109579580D02*
X88385714Y-109627200D01*
X88385714Y-109627200D02*
X88480952Y-109674819D01*
X88480952Y-109674819D02*
X88671428Y-109674819D01*
X88671428Y-109674819D02*
X88766666Y-109627200D01*
X88766666Y-109627200D02*
X88814285Y-109579580D01*
X88814285Y-109579580D02*
X88861904Y-109484342D01*
X88861904Y-109484342D02*
X88861904Y-109293866D01*
X88861904Y-109293866D02*
X88814285Y-109198628D01*
X88814285Y-109198628D02*
X88766666Y-109151009D01*
X88766666Y-109151009D02*
X88671428Y-109103390D01*
X125983333Y-69174819D02*
X125650000Y-68698628D01*
X125411905Y-69174819D02*
X125411905Y-68174819D01*
X125411905Y-68174819D02*
X125792857Y-68174819D01*
X125792857Y-68174819D02*
X125888095Y-68222438D01*
X125888095Y-68222438D02*
X125935714Y-68270057D01*
X125935714Y-68270057D02*
X125983333Y-68365295D01*
X125983333Y-68365295D02*
X125983333Y-68508152D01*
X125983333Y-68508152D02*
X125935714Y-68603390D01*
X125935714Y-68603390D02*
X125888095Y-68651009D01*
X125888095Y-68651009D02*
X125792857Y-68698628D01*
X125792857Y-68698628D02*
X125411905Y-68698628D01*
X126840476Y-68174819D02*
X126650000Y-68174819D01*
X126650000Y-68174819D02*
X126554762Y-68222438D01*
X126554762Y-68222438D02*
X126507143Y-68270057D01*
X126507143Y-68270057D02*
X126411905Y-68412914D01*
X126411905Y-68412914D02*
X126364286Y-68603390D01*
X126364286Y-68603390D02*
X126364286Y-68984342D01*
X126364286Y-68984342D02*
X126411905Y-69079580D01*
X126411905Y-69079580D02*
X126459524Y-69127200D01*
X126459524Y-69127200D02*
X126554762Y-69174819D01*
X126554762Y-69174819D02*
X126745238Y-69174819D01*
X126745238Y-69174819D02*
X126840476Y-69127200D01*
X126840476Y-69127200D02*
X126888095Y-69079580D01*
X126888095Y-69079580D02*
X126935714Y-68984342D01*
X126935714Y-68984342D02*
X126935714Y-68746247D01*
X126935714Y-68746247D02*
X126888095Y-68651009D01*
X126888095Y-68651009D02*
X126840476Y-68603390D01*
X126840476Y-68603390D02*
X126745238Y-68555771D01*
X126745238Y-68555771D02*
X126554762Y-68555771D01*
X126554762Y-68555771D02*
X126459524Y-68603390D01*
X126459524Y-68603390D02*
X126411905Y-68651009D01*
X126411905Y-68651009D02*
X126364286Y-68746247D01*
X86957142Y-142824819D02*
X86623809Y-142348628D01*
X86385714Y-142824819D02*
X86385714Y-141824819D01*
X86385714Y-141824819D02*
X86766666Y-141824819D01*
X86766666Y-141824819D02*
X86861904Y-141872438D01*
X86861904Y-141872438D02*
X86909523Y-141920057D01*
X86909523Y-141920057D02*
X86957142Y-142015295D01*
X86957142Y-142015295D02*
X86957142Y-142158152D01*
X86957142Y-142158152D02*
X86909523Y-142253390D01*
X86909523Y-142253390D02*
X86861904Y-142301009D01*
X86861904Y-142301009D02*
X86766666Y-142348628D01*
X86766666Y-142348628D02*
X86385714Y-142348628D01*
X87909523Y-142824819D02*
X87338095Y-142824819D01*
X87623809Y-142824819D02*
X87623809Y-141824819D01*
X87623809Y-141824819D02*
X87528571Y-141967676D01*
X87528571Y-141967676D02*
X87433333Y-142062914D01*
X87433333Y-142062914D02*
X87338095Y-142110533D01*
X88766666Y-141824819D02*
X88576190Y-141824819D01*
X88576190Y-141824819D02*
X88480952Y-141872438D01*
X88480952Y-141872438D02*
X88433333Y-141920057D01*
X88433333Y-141920057D02*
X88338095Y-142062914D01*
X88338095Y-142062914D02*
X88290476Y-142253390D01*
X88290476Y-142253390D02*
X88290476Y-142634342D01*
X88290476Y-142634342D02*
X88338095Y-142729580D01*
X88338095Y-142729580D02*
X88385714Y-142777200D01*
X88385714Y-142777200D02*
X88480952Y-142824819D01*
X88480952Y-142824819D02*
X88671428Y-142824819D01*
X88671428Y-142824819D02*
X88766666Y-142777200D01*
X88766666Y-142777200D02*
X88814285Y-142729580D01*
X88814285Y-142729580D02*
X88861904Y-142634342D01*
X88861904Y-142634342D02*
X88861904Y-142396247D01*
X88861904Y-142396247D02*
X88814285Y-142301009D01*
X88814285Y-142301009D02*
X88766666Y-142253390D01*
X88766666Y-142253390D02*
X88671428Y-142205771D01*
X88671428Y-142205771D02*
X88480952Y-142205771D01*
X88480952Y-142205771D02*
X88385714Y-142253390D01*
X88385714Y-142253390D02*
X88338095Y-142301009D01*
X88338095Y-142301009D02*
X88290476Y-142396247D01*
X87207142Y-84924819D02*
X86873809Y-84448628D01*
X86635714Y-84924819D02*
X86635714Y-83924819D01*
X86635714Y-83924819D02*
X87016666Y-83924819D01*
X87016666Y-83924819D02*
X87111904Y-83972438D01*
X87111904Y-83972438D02*
X87159523Y-84020057D01*
X87159523Y-84020057D02*
X87207142Y-84115295D01*
X87207142Y-84115295D02*
X87207142Y-84258152D01*
X87207142Y-84258152D02*
X87159523Y-84353390D01*
X87159523Y-84353390D02*
X87111904Y-84401009D01*
X87111904Y-84401009D02*
X87016666Y-84448628D01*
X87016666Y-84448628D02*
X86635714Y-84448628D01*
X88159523Y-84924819D02*
X87588095Y-84924819D01*
X87873809Y-84924819D02*
X87873809Y-83924819D01*
X87873809Y-83924819D02*
X87778571Y-84067676D01*
X87778571Y-84067676D02*
X87683333Y-84162914D01*
X87683333Y-84162914D02*
X87588095Y-84210533D01*
X88492857Y-83924819D02*
X89159523Y-83924819D01*
X89159523Y-83924819D02*
X88730952Y-84924819D01*
X93208333Y-142549580D02*
X93160714Y-142597200D01*
X93160714Y-142597200D02*
X93017857Y-142644819D01*
X93017857Y-142644819D02*
X92922619Y-142644819D01*
X92922619Y-142644819D02*
X92779762Y-142597200D01*
X92779762Y-142597200D02*
X92684524Y-142501961D01*
X92684524Y-142501961D02*
X92636905Y-142406723D01*
X92636905Y-142406723D02*
X92589286Y-142216247D01*
X92589286Y-142216247D02*
X92589286Y-142073390D01*
X92589286Y-142073390D02*
X92636905Y-141882914D01*
X92636905Y-141882914D02*
X92684524Y-141787676D01*
X92684524Y-141787676D02*
X92779762Y-141692438D01*
X92779762Y-141692438D02*
X92922619Y-141644819D01*
X92922619Y-141644819D02*
X93017857Y-141644819D01*
X93017857Y-141644819D02*
X93160714Y-141692438D01*
X93160714Y-141692438D02*
X93208333Y-141740057D01*
X93541667Y-141644819D02*
X94208333Y-141644819D01*
X94208333Y-141644819D02*
X93779762Y-142644819D01*
X125983333Y-97424819D02*
X125650000Y-96948628D01*
X125411905Y-97424819D02*
X125411905Y-96424819D01*
X125411905Y-96424819D02*
X125792857Y-96424819D01*
X125792857Y-96424819D02*
X125888095Y-96472438D01*
X125888095Y-96472438D02*
X125935714Y-96520057D01*
X125935714Y-96520057D02*
X125983333Y-96615295D01*
X125983333Y-96615295D02*
X125983333Y-96758152D01*
X125983333Y-96758152D02*
X125935714Y-96853390D01*
X125935714Y-96853390D02*
X125888095Y-96901009D01*
X125888095Y-96901009D02*
X125792857Y-96948628D01*
X125792857Y-96948628D02*
X125411905Y-96948628D01*
X126459524Y-97424819D02*
X126650000Y-97424819D01*
X126650000Y-97424819D02*
X126745238Y-97377200D01*
X126745238Y-97377200D02*
X126792857Y-97329580D01*
X126792857Y-97329580D02*
X126888095Y-97186723D01*
X126888095Y-97186723D02*
X126935714Y-96996247D01*
X126935714Y-96996247D02*
X126935714Y-96615295D01*
X126935714Y-96615295D02*
X126888095Y-96520057D01*
X126888095Y-96520057D02*
X126840476Y-96472438D01*
X126840476Y-96472438D02*
X126745238Y-96424819D01*
X126745238Y-96424819D02*
X126554762Y-96424819D01*
X126554762Y-96424819D02*
X126459524Y-96472438D01*
X126459524Y-96472438D02*
X126411905Y-96520057D01*
X126411905Y-96520057D02*
X126364286Y-96615295D01*
X126364286Y-96615295D02*
X126364286Y-96853390D01*
X126364286Y-96853390D02*
X126411905Y-96948628D01*
X126411905Y-96948628D02*
X126459524Y-96996247D01*
X126459524Y-96996247D02*
X126554762Y-97043866D01*
X126554762Y-97043866D02*
X126745238Y-97043866D01*
X126745238Y-97043866D02*
X126840476Y-96996247D01*
X126840476Y-96996247D02*
X126888095Y-96948628D01*
X126888095Y-96948628D02*
X126935714Y-96853390D01*
X201797619Y-92624819D02*
X201797619Y-91624819D01*
X201797619Y-91624819D02*
X202178571Y-91624819D01*
X202178571Y-91624819D02*
X202273809Y-91672438D01*
X202273809Y-91672438D02*
X202321428Y-91720057D01*
X202321428Y-91720057D02*
X202369047Y-91815295D01*
X202369047Y-91815295D02*
X202369047Y-91958152D01*
X202369047Y-91958152D02*
X202321428Y-92053390D01*
X202321428Y-92053390D02*
X202273809Y-92101009D01*
X202273809Y-92101009D02*
X202178571Y-92148628D01*
X202178571Y-92148628D02*
X201797619Y-92148628D01*
X202702381Y-91624819D02*
X202940476Y-92624819D01*
X202940476Y-92624819D02*
X203130952Y-91910533D01*
X203130952Y-91910533D02*
X203321428Y-92624819D01*
X203321428Y-92624819D02*
X203559524Y-91624819D01*
X204511904Y-92624819D02*
X204178571Y-92148628D01*
X203940476Y-92624819D02*
X203940476Y-91624819D01*
X203940476Y-91624819D02*
X204321428Y-91624819D01*
X204321428Y-91624819D02*
X204416666Y-91672438D01*
X204416666Y-91672438D02*
X204464285Y-91720057D01*
X204464285Y-91720057D02*
X204511904Y-91815295D01*
X204511904Y-91815295D02*
X204511904Y-91958152D01*
X204511904Y-91958152D02*
X204464285Y-92053390D01*
X204464285Y-92053390D02*
X204416666Y-92101009D01*
X204416666Y-92101009D02*
X204321428Y-92148628D01*
X204321428Y-92148628D02*
X203940476Y-92148628D01*
X205416666Y-91624819D02*
X204940476Y-91624819D01*
X204940476Y-91624819D02*
X204892857Y-92101009D01*
X204892857Y-92101009D02*
X204940476Y-92053390D01*
X204940476Y-92053390D02*
X205035714Y-92005771D01*
X205035714Y-92005771D02*
X205273809Y-92005771D01*
X205273809Y-92005771D02*
X205369047Y-92053390D01*
X205369047Y-92053390D02*
X205416666Y-92101009D01*
X205416666Y-92101009D02*
X205464285Y-92196247D01*
X205464285Y-92196247D02*
X205464285Y-92434342D01*
X205464285Y-92434342D02*
X205416666Y-92529580D01*
X205416666Y-92529580D02*
X205369047Y-92577200D01*
X205369047Y-92577200D02*
X205273809Y-92624819D01*
X205273809Y-92624819D02*
X205035714Y-92624819D01*
X205035714Y-92624819D02*
X204940476Y-92577200D01*
X204940476Y-92577200D02*
X204892857Y-92529580D01*
X205750000Y-91624819D02*
X206083333Y-92624819D01*
X206083333Y-92624819D02*
X206416666Y-91624819D01*
X206750000Y-92529580D02*
X206797619Y-92577200D01*
X206797619Y-92577200D02*
X206750000Y-92624819D01*
X206750000Y-92624819D02*
X206702381Y-92577200D01*
X206702381Y-92577200D02*
X206750000Y-92529580D01*
X206750000Y-92529580D02*
X206750000Y-92624819D01*
X207130952Y-91624819D02*
X207749999Y-91624819D01*
X207749999Y-91624819D02*
X207416666Y-92005771D01*
X207416666Y-92005771D02*
X207559523Y-92005771D01*
X207559523Y-92005771D02*
X207654761Y-92053390D01*
X207654761Y-92053390D02*
X207702380Y-92101009D01*
X207702380Y-92101009D02*
X207749999Y-92196247D01*
X207749999Y-92196247D02*
X207749999Y-92434342D01*
X207749999Y-92434342D02*
X207702380Y-92529580D01*
X207702380Y-92529580D02*
X207654761Y-92577200D01*
X207654761Y-92577200D02*
X207559523Y-92624819D01*
X207559523Y-92624819D02*
X207273809Y-92624819D01*
X207273809Y-92624819D02*
X207178571Y-92577200D01*
X207178571Y-92577200D02*
X207130952Y-92529580D01*
X80861905Y-134254819D02*
X80861905Y-133254819D01*
X80861905Y-133254819D02*
X81100000Y-133254819D01*
X81100000Y-133254819D02*
X81242857Y-133302438D01*
X81242857Y-133302438D02*
X81338095Y-133397676D01*
X81338095Y-133397676D02*
X81385714Y-133492914D01*
X81385714Y-133492914D02*
X81433333Y-133683390D01*
X81433333Y-133683390D02*
X81433333Y-133826247D01*
X81433333Y-133826247D02*
X81385714Y-134016723D01*
X81385714Y-134016723D02*
X81338095Y-134111961D01*
X81338095Y-134111961D02*
X81242857Y-134207200D01*
X81242857Y-134207200D02*
X81100000Y-134254819D01*
X81100000Y-134254819D02*
X80861905Y-134254819D01*
X82290476Y-133254819D02*
X82100000Y-133254819D01*
X82100000Y-133254819D02*
X82004762Y-133302438D01*
X82004762Y-133302438D02*
X81957143Y-133350057D01*
X81957143Y-133350057D02*
X81861905Y-133492914D01*
X81861905Y-133492914D02*
X81814286Y-133683390D01*
X81814286Y-133683390D02*
X81814286Y-134064342D01*
X81814286Y-134064342D02*
X81861905Y-134159580D01*
X81861905Y-134159580D02*
X81909524Y-134207200D01*
X81909524Y-134207200D02*
X82004762Y-134254819D01*
X82004762Y-134254819D02*
X82195238Y-134254819D01*
X82195238Y-134254819D02*
X82290476Y-134207200D01*
X82290476Y-134207200D02*
X82338095Y-134159580D01*
X82338095Y-134159580D02*
X82385714Y-134064342D01*
X82385714Y-134064342D02*
X82385714Y-133826247D01*
X82385714Y-133826247D02*
X82338095Y-133731009D01*
X82338095Y-133731009D02*
X82290476Y-133683390D01*
X82290476Y-133683390D02*
X82195238Y-133635771D01*
X82195238Y-133635771D02*
X82004762Y-133635771D01*
X82004762Y-133635771D02*
X81909524Y-133683390D01*
X81909524Y-133683390D02*
X81861905Y-133731009D01*
X81861905Y-133731009D02*
X81814286Y-133826247D01*
X120020833Y-81424819D02*
X119687500Y-80948628D01*
X119449405Y-81424819D02*
X119449405Y-80424819D01*
X119449405Y-80424819D02*
X119830357Y-80424819D01*
X119830357Y-80424819D02*
X119925595Y-80472438D01*
X119925595Y-80472438D02*
X119973214Y-80520057D01*
X119973214Y-80520057D02*
X120020833Y-80615295D01*
X120020833Y-80615295D02*
X120020833Y-80758152D01*
X120020833Y-80758152D02*
X119973214Y-80853390D01*
X119973214Y-80853390D02*
X119925595Y-80901009D01*
X119925595Y-80901009D02*
X119830357Y-80948628D01*
X119830357Y-80948628D02*
X119449405Y-80948628D01*
X120354167Y-80424819D02*
X121020833Y-80424819D01*
X121020833Y-80424819D02*
X120592262Y-81424819D01*
X201787200Y-143084284D02*
X201834819Y-142941427D01*
X201834819Y-142941427D02*
X201834819Y-142703332D01*
X201834819Y-142703332D02*
X201787200Y-142608094D01*
X201787200Y-142608094D02*
X201739580Y-142560475D01*
X201739580Y-142560475D02*
X201644342Y-142512856D01*
X201644342Y-142512856D02*
X201549104Y-142512856D01*
X201549104Y-142512856D02*
X201453866Y-142560475D01*
X201453866Y-142560475D02*
X201406247Y-142608094D01*
X201406247Y-142608094D02*
X201358628Y-142703332D01*
X201358628Y-142703332D02*
X201311009Y-142893808D01*
X201311009Y-142893808D02*
X201263390Y-142989046D01*
X201263390Y-142989046D02*
X201215771Y-143036665D01*
X201215771Y-143036665D02*
X201120533Y-143084284D01*
X201120533Y-143084284D02*
X201025295Y-143084284D01*
X201025295Y-143084284D02*
X200930057Y-143036665D01*
X200930057Y-143036665D02*
X200882438Y-142989046D01*
X200882438Y-142989046D02*
X200834819Y-142893808D01*
X200834819Y-142893808D02*
X200834819Y-142655713D01*
X200834819Y-142655713D02*
X200882438Y-142512856D01*
X201834819Y-142084284D02*
X200834819Y-142084284D01*
X200834819Y-142084284D02*
X200834819Y-141703332D01*
X200834819Y-141703332D02*
X200882438Y-141608094D01*
X200882438Y-141608094D02*
X200930057Y-141560475D01*
X200930057Y-141560475D02*
X201025295Y-141512856D01*
X201025295Y-141512856D02*
X201168152Y-141512856D01*
X201168152Y-141512856D02*
X201263390Y-141560475D01*
X201263390Y-141560475D02*
X201311009Y-141608094D01*
X201311009Y-141608094D02*
X201358628Y-141703332D01*
X201358628Y-141703332D02*
X201358628Y-142084284D01*
X201834819Y-141084284D02*
X200834819Y-141084284D01*
X200930057Y-140655713D02*
X200882438Y-140608094D01*
X200882438Y-140608094D02*
X200834819Y-140512856D01*
X200834819Y-140512856D02*
X200834819Y-140274761D01*
X200834819Y-140274761D02*
X200882438Y-140179523D01*
X200882438Y-140179523D02*
X200930057Y-140131904D01*
X200930057Y-140131904D02*
X201025295Y-140084285D01*
X201025295Y-140084285D02*
X201120533Y-140084285D01*
X201120533Y-140084285D02*
X201263390Y-140131904D01*
X201263390Y-140131904D02*
X201834819Y-140703332D01*
X201834819Y-140703332D02*
X201834819Y-140084285D01*
X201739580Y-139655713D02*
X201787200Y-139608094D01*
X201787200Y-139608094D02*
X201834819Y-139655713D01*
X201834819Y-139655713D02*
X201787200Y-139703332D01*
X201787200Y-139703332D02*
X201739580Y-139655713D01*
X201739580Y-139655713D02*
X201834819Y-139655713D01*
X201834819Y-138655714D02*
X201834819Y-139227142D01*
X201834819Y-138941428D02*
X200834819Y-138941428D01*
X200834819Y-138941428D02*
X200977676Y-139036666D01*
X200977676Y-139036666D02*
X201072914Y-139131904D01*
X201072914Y-139131904D02*
X201120533Y-139227142D01*
X128699642Y-136649819D02*
X128366309Y-136173628D01*
X128128214Y-136649819D02*
X128128214Y-135649819D01*
X128128214Y-135649819D02*
X128509166Y-135649819D01*
X128509166Y-135649819D02*
X128604404Y-135697438D01*
X128604404Y-135697438D02*
X128652023Y-135745057D01*
X128652023Y-135745057D02*
X128699642Y-135840295D01*
X128699642Y-135840295D02*
X128699642Y-135983152D01*
X128699642Y-135983152D02*
X128652023Y-136078390D01*
X128652023Y-136078390D02*
X128604404Y-136126009D01*
X128604404Y-136126009D02*
X128509166Y-136173628D01*
X128509166Y-136173628D02*
X128128214Y-136173628D01*
X129080595Y-135745057D02*
X129128214Y-135697438D01*
X129128214Y-135697438D02*
X129223452Y-135649819D01*
X129223452Y-135649819D02*
X129461547Y-135649819D01*
X129461547Y-135649819D02*
X129556785Y-135697438D01*
X129556785Y-135697438D02*
X129604404Y-135745057D01*
X129604404Y-135745057D02*
X129652023Y-135840295D01*
X129652023Y-135840295D02*
X129652023Y-135935533D01*
X129652023Y-135935533D02*
X129604404Y-136078390D01*
X129604404Y-136078390D02*
X129032976Y-136649819D01*
X129032976Y-136649819D02*
X129652023Y-136649819D01*
X130556785Y-135649819D02*
X130080595Y-135649819D01*
X130080595Y-135649819D02*
X130032976Y-136126009D01*
X130032976Y-136126009D02*
X130080595Y-136078390D01*
X130080595Y-136078390D02*
X130175833Y-136030771D01*
X130175833Y-136030771D02*
X130413928Y-136030771D01*
X130413928Y-136030771D02*
X130509166Y-136078390D01*
X130509166Y-136078390D02*
X130556785Y-136126009D01*
X130556785Y-136126009D02*
X130604404Y-136221247D01*
X130604404Y-136221247D02*
X130604404Y-136459342D01*
X130604404Y-136459342D02*
X130556785Y-136554580D01*
X130556785Y-136554580D02*
X130509166Y-136602200D01*
X130509166Y-136602200D02*
X130413928Y-136649819D01*
X130413928Y-136649819D02*
X130175833Y-136649819D01*
X130175833Y-136649819D02*
X130080595Y-136602200D01*
X130080595Y-136602200D02*
X130032976Y-136554580D01*
X86636080Y-102289766D02*
X85921795Y-102289766D01*
X85921795Y-102289766D02*
X85778938Y-102242147D01*
X85778938Y-102242147D02*
X85683700Y-102146909D01*
X85683700Y-102146909D02*
X85636080Y-102004052D01*
X85636080Y-102004052D02*
X85636080Y-101908814D01*
X86636080Y-102670719D02*
X86636080Y-103289766D01*
X86636080Y-103289766D02*
X86255128Y-102956433D01*
X86255128Y-102956433D02*
X86255128Y-103099290D01*
X86255128Y-103099290D02*
X86207509Y-103194528D01*
X86207509Y-103194528D02*
X86159890Y-103242147D01*
X86159890Y-103242147D02*
X86064652Y-103289766D01*
X86064652Y-103289766D02*
X85826557Y-103289766D01*
X85826557Y-103289766D02*
X85731319Y-103242147D01*
X85731319Y-103242147D02*
X85683700Y-103194528D01*
X85683700Y-103194528D02*
X85636080Y-103099290D01*
X85636080Y-103099290D02*
X85636080Y-102813576D01*
X85636080Y-102813576D02*
X85683700Y-102718338D01*
X85683700Y-102718338D02*
X85731319Y-102670719D01*
X86957142Y-113674819D02*
X86623809Y-113198628D01*
X86385714Y-113674819D02*
X86385714Y-112674819D01*
X86385714Y-112674819D02*
X86766666Y-112674819D01*
X86766666Y-112674819D02*
X86861904Y-112722438D01*
X86861904Y-112722438D02*
X86909523Y-112770057D01*
X86909523Y-112770057D02*
X86957142Y-112865295D01*
X86957142Y-112865295D02*
X86957142Y-113008152D01*
X86957142Y-113008152D02*
X86909523Y-113103390D01*
X86909523Y-113103390D02*
X86861904Y-113151009D01*
X86861904Y-113151009D02*
X86766666Y-113198628D01*
X86766666Y-113198628D02*
X86385714Y-113198628D01*
X87909523Y-113674819D02*
X87338095Y-113674819D01*
X87623809Y-113674819D02*
X87623809Y-112674819D01*
X87623809Y-112674819D02*
X87528571Y-112817676D01*
X87528571Y-112817676D02*
X87433333Y-112912914D01*
X87433333Y-112912914D02*
X87338095Y-112960533D01*
X88290476Y-112770057D02*
X88338095Y-112722438D01*
X88338095Y-112722438D02*
X88433333Y-112674819D01*
X88433333Y-112674819D02*
X88671428Y-112674819D01*
X88671428Y-112674819D02*
X88766666Y-112722438D01*
X88766666Y-112722438D02*
X88814285Y-112770057D01*
X88814285Y-112770057D02*
X88861904Y-112865295D01*
X88861904Y-112865295D02*
X88861904Y-112960533D01*
X88861904Y-112960533D02*
X88814285Y-113103390D01*
X88814285Y-113103390D02*
X88242857Y-113674819D01*
X88242857Y-113674819D02*
X88861904Y-113674819D01*
X102134819Y-148714285D02*
X101134819Y-148714285D01*
X101134819Y-148714285D02*
X101134819Y-148476190D01*
X101134819Y-148476190D02*
X101182438Y-148333333D01*
X101182438Y-148333333D02*
X101277676Y-148238095D01*
X101277676Y-148238095D02*
X101372914Y-148190476D01*
X101372914Y-148190476D02*
X101563390Y-148142857D01*
X101563390Y-148142857D02*
X101706247Y-148142857D01*
X101706247Y-148142857D02*
X101896723Y-148190476D01*
X101896723Y-148190476D02*
X101991961Y-148238095D01*
X101991961Y-148238095D02*
X102087200Y-148333333D01*
X102087200Y-148333333D02*
X102134819Y-148476190D01*
X102134819Y-148476190D02*
X102134819Y-148714285D01*
X102134819Y-147190476D02*
X102134819Y-147761904D01*
X102134819Y-147476190D02*
X101134819Y-147476190D01*
X101134819Y-147476190D02*
X101277676Y-147571428D01*
X101277676Y-147571428D02*
X101372914Y-147666666D01*
X101372914Y-147666666D02*
X101420533Y-147761904D01*
X101134819Y-146285714D02*
X101134819Y-146761904D01*
X101134819Y-146761904D02*
X101611009Y-146809523D01*
X101611009Y-146809523D02*
X101563390Y-146761904D01*
X101563390Y-146761904D02*
X101515771Y-146666666D01*
X101515771Y-146666666D02*
X101515771Y-146428571D01*
X101515771Y-146428571D02*
X101563390Y-146333333D01*
X101563390Y-146333333D02*
X101611009Y-146285714D01*
X101611009Y-146285714D02*
X101706247Y-146238095D01*
X101706247Y-146238095D02*
X101944342Y-146238095D01*
X101944342Y-146238095D02*
X102039580Y-146285714D01*
X102039580Y-146285714D02*
X102087200Y-146333333D01*
X102087200Y-146333333D02*
X102134819Y-146428571D01*
X102134819Y-146428571D02*
X102134819Y-146666666D01*
X102134819Y-146666666D02*
X102087200Y-146761904D01*
X102087200Y-146761904D02*
X102039580Y-146809523D01*
X125457142Y-105299580D02*
X125409523Y-105347200D01*
X125409523Y-105347200D02*
X125266666Y-105394819D01*
X125266666Y-105394819D02*
X125171428Y-105394819D01*
X125171428Y-105394819D02*
X125028571Y-105347200D01*
X125028571Y-105347200D02*
X124933333Y-105251961D01*
X124933333Y-105251961D02*
X124885714Y-105156723D01*
X124885714Y-105156723D02*
X124838095Y-104966247D01*
X124838095Y-104966247D02*
X124838095Y-104823390D01*
X124838095Y-104823390D02*
X124885714Y-104632914D01*
X124885714Y-104632914D02*
X124933333Y-104537676D01*
X124933333Y-104537676D02*
X125028571Y-104442438D01*
X125028571Y-104442438D02*
X125171428Y-104394819D01*
X125171428Y-104394819D02*
X125266666Y-104394819D01*
X125266666Y-104394819D02*
X125409523Y-104442438D01*
X125409523Y-104442438D02*
X125457142Y-104490057D01*
X126409523Y-105394819D02*
X125838095Y-105394819D01*
X126123809Y-105394819D02*
X126123809Y-104394819D01*
X126123809Y-104394819D02*
X126028571Y-104537676D01*
X126028571Y-104537676D02*
X125933333Y-104632914D01*
X125933333Y-104632914D02*
X125838095Y-104680533D01*
X127028571Y-104394819D02*
X127123809Y-104394819D01*
X127123809Y-104394819D02*
X127219047Y-104442438D01*
X127219047Y-104442438D02*
X127266666Y-104490057D01*
X127266666Y-104490057D02*
X127314285Y-104585295D01*
X127314285Y-104585295D02*
X127361904Y-104775771D01*
X127361904Y-104775771D02*
X127361904Y-105013866D01*
X127361904Y-105013866D02*
X127314285Y-105204342D01*
X127314285Y-105204342D02*
X127266666Y-105299580D01*
X127266666Y-105299580D02*
X127219047Y-105347200D01*
X127219047Y-105347200D02*
X127123809Y-105394819D01*
X127123809Y-105394819D02*
X127028571Y-105394819D01*
X127028571Y-105394819D02*
X126933333Y-105347200D01*
X126933333Y-105347200D02*
X126885714Y-105299580D01*
X126885714Y-105299580D02*
X126838095Y-105204342D01*
X126838095Y-105204342D02*
X126790476Y-105013866D01*
X126790476Y-105013866D02*
X126790476Y-104775771D01*
X126790476Y-104775771D02*
X126838095Y-104585295D01*
X126838095Y-104585295D02*
X126885714Y-104490057D01*
X126885714Y-104490057D02*
X126933333Y-104442438D01*
X126933333Y-104442438D02*
X127028571Y-104394819D01*
X125507142Y-93299580D02*
X125459523Y-93347200D01*
X125459523Y-93347200D02*
X125316666Y-93394819D01*
X125316666Y-93394819D02*
X125221428Y-93394819D01*
X125221428Y-93394819D02*
X125078571Y-93347200D01*
X125078571Y-93347200D02*
X124983333Y-93251961D01*
X124983333Y-93251961D02*
X124935714Y-93156723D01*
X124935714Y-93156723D02*
X124888095Y-92966247D01*
X124888095Y-92966247D02*
X124888095Y-92823390D01*
X124888095Y-92823390D02*
X124935714Y-92632914D01*
X124935714Y-92632914D02*
X124983333Y-92537676D01*
X124983333Y-92537676D02*
X125078571Y-92442438D01*
X125078571Y-92442438D02*
X125221428Y-92394819D01*
X125221428Y-92394819D02*
X125316666Y-92394819D01*
X125316666Y-92394819D02*
X125459523Y-92442438D01*
X125459523Y-92442438D02*
X125507142Y-92490057D01*
X126459523Y-93394819D02*
X125888095Y-93394819D01*
X126173809Y-93394819D02*
X126173809Y-92394819D01*
X126173809Y-92394819D02*
X126078571Y-92537676D01*
X126078571Y-92537676D02*
X125983333Y-92632914D01*
X125983333Y-92632914D02*
X125888095Y-92680533D01*
X126792857Y-92394819D02*
X127411904Y-92394819D01*
X127411904Y-92394819D02*
X127078571Y-92775771D01*
X127078571Y-92775771D02*
X127221428Y-92775771D01*
X127221428Y-92775771D02*
X127316666Y-92823390D01*
X127316666Y-92823390D02*
X127364285Y-92871009D01*
X127364285Y-92871009D02*
X127411904Y-92966247D01*
X127411904Y-92966247D02*
X127411904Y-93204342D01*
X127411904Y-93204342D02*
X127364285Y-93299580D01*
X127364285Y-93299580D02*
X127316666Y-93347200D01*
X127316666Y-93347200D02*
X127221428Y-93394819D01*
X127221428Y-93394819D02*
X126935714Y-93394819D01*
X126935714Y-93394819D02*
X126840476Y-93347200D01*
X126840476Y-93347200D02*
X126792857Y-93299580D01*
X181634819Y-143036665D02*
X180634819Y-143036665D01*
X180730057Y-142608094D02*
X180682438Y-142560475D01*
X180682438Y-142560475D02*
X180634819Y-142465237D01*
X180634819Y-142465237D02*
X180634819Y-142227142D01*
X180634819Y-142227142D02*
X180682438Y-142131904D01*
X180682438Y-142131904D02*
X180730057Y-142084285D01*
X180730057Y-142084285D02*
X180825295Y-142036666D01*
X180825295Y-142036666D02*
X180920533Y-142036666D01*
X180920533Y-142036666D02*
X181063390Y-142084285D01*
X181063390Y-142084285D02*
X181634819Y-142655713D01*
X181634819Y-142655713D02*
X181634819Y-142036666D01*
X181539580Y-141036666D02*
X181587200Y-141084285D01*
X181587200Y-141084285D02*
X181634819Y-141227142D01*
X181634819Y-141227142D02*
X181634819Y-141322380D01*
X181634819Y-141322380D02*
X181587200Y-141465237D01*
X181587200Y-141465237D02*
X181491961Y-141560475D01*
X181491961Y-141560475D02*
X181396723Y-141608094D01*
X181396723Y-141608094D02*
X181206247Y-141655713D01*
X181206247Y-141655713D02*
X181063390Y-141655713D01*
X181063390Y-141655713D02*
X180872914Y-141608094D01*
X180872914Y-141608094D02*
X180777676Y-141560475D01*
X180777676Y-141560475D02*
X180682438Y-141465237D01*
X180682438Y-141465237D02*
X180634819Y-141322380D01*
X180634819Y-141322380D02*
X180634819Y-141227142D01*
X180634819Y-141227142D02*
X180682438Y-141084285D01*
X180682438Y-141084285D02*
X180730057Y-141036666D01*
X181634819Y-140084285D02*
X181634819Y-140655713D01*
X181634819Y-140369999D02*
X180634819Y-140369999D01*
X180634819Y-140369999D02*
X180777676Y-140465237D01*
X180777676Y-140465237D02*
X180872914Y-140560475D01*
X180872914Y-140560475D02*
X180920533Y-140655713D01*
X181539580Y-139655713D02*
X181587200Y-139608094D01*
X181587200Y-139608094D02*
X181634819Y-139655713D01*
X181634819Y-139655713D02*
X181587200Y-139703332D01*
X181587200Y-139703332D02*
X181539580Y-139655713D01*
X181539580Y-139655713D02*
X181634819Y-139655713D01*
X180634819Y-139274761D02*
X180634819Y-138655714D01*
X180634819Y-138655714D02*
X181015771Y-138989047D01*
X181015771Y-138989047D02*
X181015771Y-138846190D01*
X181015771Y-138846190D02*
X181063390Y-138750952D01*
X181063390Y-138750952D02*
X181111009Y-138703333D01*
X181111009Y-138703333D02*
X181206247Y-138655714D01*
X181206247Y-138655714D02*
X181444342Y-138655714D01*
X181444342Y-138655714D02*
X181539580Y-138703333D01*
X181539580Y-138703333D02*
X181587200Y-138750952D01*
X181587200Y-138750952D02*
X181634819Y-138846190D01*
X181634819Y-138846190D02*
X181634819Y-139131904D01*
X181634819Y-139131904D02*
X181587200Y-139227142D01*
X181587200Y-139227142D02*
X181539580Y-139274761D01*
X86957142Y-138674819D02*
X86623809Y-138198628D01*
X86385714Y-138674819D02*
X86385714Y-137674819D01*
X86385714Y-137674819D02*
X86766666Y-137674819D01*
X86766666Y-137674819D02*
X86861904Y-137722438D01*
X86861904Y-137722438D02*
X86909523Y-137770057D01*
X86909523Y-137770057D02*
X86957142Y-137865295D01*
X86957142Y-137865295D02*
X86957142Y-138008152D01*
X86957142Y-138008152D02*
X86909523Y-138103390D01*
X86909523Y-138103390D02*
X86861904Y-138151009D01*
X86861904Y-138151009D02*
X86766666Y-138198628D01*
X86766666Y-138198628D02*
X86385714Y-138198628D01*
X87909523Y-138674819D02*
X87338095Y-138674819D01*
X87623809Y-138674819D02*
X87623809Y-137674819D01*
X87623809Y-137674819D02*
X87528571Y-137817676D01*
X87528571Y-137817676D02*
X87433333Y-137912914D01*
X87433333Y-137912914D02*
X87338095Y-137960533D01*
X88242857Y-137674819D02*
X88861904Y-137674819D01*
X88861904Y-137674819D02*
X88528571Y-138055771D01*
X88528571Y-138055771D02*
X88671428Y-138055771D01*
X88671428Y-138055771D02*
X88766666Y-138103390D01*
X88766666Y-138103390D02*
X88814285Y-138151009D01*
X88814285Y-138151009D02*
X88861904Y-138246247D01*
X88861904Y-138246247D02*
X88861904Y-138484342D01*
X88861904Y-138484342D02*
X88814285Y-138579580D01*
X88814285Y-138579580D02*
X88766666Y-138627200D01*
X88766666Y-138627200D02*
X88671428Y-138674819D01*
X88671428Y-138674819D02*
X88385714Y-138674819D01*
X88385714Y-138674819D02*
X88290476Y-138627200D01*
X88290476Y-138627200D02*
X88242857Y-138579580D01*
X95354819Y-148714285D02*
X94354819Y-148714285D01*
X94354819Y-148714285D02*
X94354819Y-148476190D01*
X94354819Y-148476190D02*
X94402438Y-148333333D01*
X94402438Y-148333333D02*
X94497676Y-148238095D01*
X94497676Y-148238095D02*
X94592914Y-148190476D01*
X94592914Y-148190476D02*
X94783390Y-148142857D01*
X94783390Y-148142857D02*
X94926247Y-148142857D01*
X94926247Y-148142857D02*
X95116723Y-148190476D01*
X95116723Y-148190476D02*
X95211961Y-148238095D01*
X95211961Y-148238095D02*
X95307200Y-148333333D01*
X95307200Y-148333333D02*
X95354819Y-148476190D01*
X95354819Y-148476190D02*
X95354819Y-148714285D01*
X95354819Y-147190476D02*
X95354819Y-147761904D01*
X95354819Y-147476190D02*
X94354819Y-147476190D01*
X94354819Y-147476190D02*
X94497676Y-147571428D01*
X94497676Y-147571428D02*
X94592914Y-147666666D01*
X94592914Y-147666666D02*
X94640533Y-147761904D01*
X94354819Y-146857142D02*
X94354819Y-146238095D01*
X94354819Y-146238095D02*
X94735771Y-146571428D01*
X94735771Y-146571428D02*
X94735771Y-146428571D01*
X94735771Y-146428571D02*
X94783390Y-146333333D01*
X94783390Y-146333333D02*
X94831009Y-146285714D01*
X94831009Y-146285714D02*
X94926247Y-146238095D01*
X94926247Y-146238095D02*
X95164342Y-146238095D01*
X95164342Y-146238095D02*
X95259580Y-146285714D01*
X95259580Y-146285714D02*
X95307200Y-146333333D01*
X95307200Y-146333333D02*
X95354819Y-146428571D01*
X95354819Y-146428571D02*
X95354819Y-146714285D01*
X95354819Y-146714285D02*
X95307200Y-146809523D01*
X95307200Y-146809523D02*
X95259580Y-146857142D01*
X134704819Y-99108094D02*
X135514342Y-99108094D01*
X135514342Y-99108094D02*
X135609580Y-99060475D01*
X135609580Y-99060475D02*
X135657200Y-99012856D01*
X135657200Y-99012856D02*
X135704819Y-98917618D01*
X135704819Y-98917618D02*
X135704819Y-98727142D01*
X135704819Y-98727142D02*
X135657200Y-98631904D01*
X135657200Y-98631904D02*
X135609580Y-98584285D01*
X135609580Y-98584285D02*
X135514342Y-98536666D01*
X135514342Y-98536666D02*
X134704819Y-98536666D01*
X135704819Y-97536666D02*
X135704819Y-98108094D01*
X135704819Y-97822380D02*
X134704819Y-97822380D01*
X134704819Y-97822380D02*
X134847676Y-97917618D01*
X134847676Y-97917618D02*
X134942914Y-98012856D01*
X134942914Y-98012856D02*
X134990533Y-98108094D01*
X135704819Y-96584285D02*
X135704819Y-97155713D01*
X135704819Y-96869999D02*
X134704819Y-96869999D01*
X134704819Y-96869999D02*
X134847676Y-96965237D01*
X134847676Y-96965237D02*
X134942914Y-97060475D01*
X134942914Y-97060475D02*
X134990533Y-97155713D01*
X145304819Y-85131904D02*
X146114342Y-85131904D01*
X146114342Y-85131904D02*
X146209580Y-85084285D01*
X146209580Y-85084285D02*
X146257200Y-85036666D01*
X146257200Y-85036666D02*
X146304819Y-84941428D01*
X146304819Y-84941428D02*
X146304819Y-84750952D01*
X146304819Y-84750952D02*
X146257200Y-84655714D01*
X146257200Y-84655714D02*
X146209580Y-84608095D01*
X146209580Y-84608095D02*
X146114342Y-84560476D01*
X146114342Y-84560476D02*
X145304819Y-84560476D01*
X145304819Y-83608095D02*
X145304819Y-84084285D01*
X145304819Y-84084285D02*
X145781009Y-84131904D01*
X145781009Y-84131904D02*
X145733390Y-84084285D01*
X145733390Y-84084285D02*
X145685771Y-83989047D01*
X145685771Y-83989047D02*
X145685771Y-83750952D01*
X145685771Y-83750952D02*
X145733390Y-83655714D01*
X145733390Y-83655714D02*
X145781009Y-83608095D01*
X145781009Y-83608095D02*
X145876247Y-83560476D01*
X145876247Y-83560476D02*
X146114342Y-83560476D01*
X146114342Y-83560476D02*
X146209580Y-83608095D01*
X146209580Y-83608095D02*
X146257200Y-83655714D01*
X146257200Y-83655714D02*
X146304819Y-83750952D01*
X146304819Y-83750952D02*
X146304819Y-83989047D01*
X146304819Y-83989047D02*
X146257200Y-84084285D01*
X146257200Y-84084285D02*
X146209580Y-84131904D01*
D11*
%TO.C,B1*%
X152500000Y-150700000D02*
X152500000Y-145000000D01*
X158500000Y-150700000D02*
X152500000Y-150700000D01*
X158500000Y-150700000D02*
X158500000Y-145000000D01*
X152000000Y-144250000D02*
G75*
G02*
X152500000Y-145000000I-312500J-750000D01*
G01*
X152000000Y-144250000D02*
G75*
G02*
X155500000Y-121804329I3499989J10949956D01*
G01*
X155500000Y-121804329D02*
G75*
G02*
X159000000Y-144250000I11J-11495715D01*
G01*
X158500000Y-145000000D02*
G75*
G02*
X159000000Y-144250000I812500J0D01*
G01*
%TO.C,U4*%
X97600000Y-122810000D02*
X95650000Y-122810000D01*
X97600000Y-122810000D02*
X99550000Y-122810000D01*
X97600000Y-132930000D02*
X95650000Y-132930000D01*
X97600000Y-132930000D02*
X99550000Y-132930000D01*
X94900000Y-122865000D02*
X94660000Y-122535000D01*
X95140000Y-122535000D01*
X94900000Y-122865000D01*
G36*
X94900000Y-122865000D02*
G01*
X94660000Y-122535000D01*
X95140000Y-122535000D01*
X94900000Y-122865000D01*
G37*
%TO.C,PWR5V.2*%
X197670000Y-93210000D02*
X199000000Y-93210000D01*
X197670000Y-94540000D02*
X197670000Y-93210000D01*
X197670000Y-95810000D02*
X197670000Y-98410000D01*
X197670000Y-95810000D02*
X200330000Y-95810000D01*
X197670000Y-98410000D02*
X200330000Y-98410000D01*
X200330000Y-95810000D02*
X200330000Y-98410000D01*
%TO.C,I2C1.2*%
X180180000Y-133540000D02*
X180180000Y-134870000D01*
X178850000Y-133540000D02*
X180180000Y-133540000D01*
X177580000Y-136200000D02*
X169900000Y-136200000D01*
X177580000Y-133540000D02*
X177580000Y-136200000D01*
X177580000Y-133540000D02*
X169900000Y-133540000D01*
X169900000Y-133540000D02*
X169900000Y-136200000D01*
%TO.C,U10*%
X106500000Y-125260000D02*
X106500000Y-146870000D01*
X134060000Y-146460000D02*
X140960000Y-146460000D01*
X134060000Y-149000000D02*
X108630000Y-149000000D01*
X134060000Y-149000000D02*
X134060000Y-146460000D01*
X140960000Y-123140000D02*
X108630000Y-123140000D01*
X140960000Y-146460000D02*
X140960000Y-123140000D01*
X106500000Y-125270000D02*
G75*
G02*
X108630000Y-123140000I2130000J0D01*
G01*
X108630000Y-149000000D02*
G75*
G02*
X106500000Y-146870000I2J2130002D01*
G01*
D10*
X115475000Y-150040000D02*
X114205000Y-150040000D01*
X114840000Y-149405000D01*
X115475000Y-150040000D01*
G36*
X115475000Y-150040000D02*
G01*
X114205000Y-150040000D01*
X114840000Y-149405000D01*
X115475000Y-150040000D01*
G37*
D11*
%TO.C,C11*%
X125888748Y-61635000D02*
X126411252Y-61635000D01*
X125888748Y-63105000D02*
X126411252Y-63105000D01*
D12*
%TO.C,J4*%
X78372300Y-123648000D02*
X78372300Y-131598200D01*
X78372300Y-131598200D02*
X80554738Y-131598200D01*
X80554738Y-123648000D02*
X78372300Y-123648000D01*
X83927062Y-131598200D02*
X87617900Y-131598200D01*
X87617900Y-123648000D02*
X83927062Y-123648000D01*
X87617900Y-125152870D02*
X87617900Y-123648000D01*
X87617900Y-131598200D02*
X87617900Y-130093330D01*
D13*
X87671900Y-121870000D02*
G75*
G02*
X86909900Y-121870000I-381000J0D01*
G01*
X86909900Y-121870000D02*
G75*
G02*
X87671900Y-121870000I381000J0D01*
G01*
D11*
%TO.C,C12*%
X119926248Y-77885000D02*
X120448752Y-77885000D01*
X119926248Y-79355000D02*
X120448752Y-79355000D01*
%TO.C,SPI2.2*%
X185060000Y-145690000D02*
X185060000Y-148350000D01*
X197820000Y-145690000D02*
X185060000Y-145690000D01*
X197820000Y-145690000D02*
X197820000Y-148350000D01*
X197820000Y-148350000D02*
X185060000Y-148350000D01*
X199090000Y-145690000D02*
X200420000Y-145690000D01*
X200420000Y-145690000D02*
X200420000Y-147020000D01*
%TO.C,R5*%
X125922936Y-65635000D02*
X126377064Y-65635000D01*
X125922936Y-67105000D02*
X126377064Y-67105000D01*
%TO.C,U12*%
X158790000Y-69510000D02*
X159035000Y-69510000D01*
X158790000Y-73370000D02*
X158790000Y-69510000D01*
X158790000Y-73370000D02*
X158790000Y-77230000D01*
X158790000Y-77230000D02*
X159035000Y-77230000D01*
X176910000Y-69510000D02*
X176665000Y-69510000D01*
X176910000Y-73370000D02*
X176910000Y-69510000D01*
X176910000Y-73370000D02*
X176910000Y-77230000D01*
X176910000Y-77230000D02*
X176665000Y-77230000D01*
X159035000Y-78082500D02*
X158565000Y-78422500D01*
X158565000Y-77742500D01*
X159035000Y-78082500D01*
G36*
X159035000Y-78082500D02*
G01*
X158565000Y-78422500D01*
X158565000Y-77742500D01*
X159035000Y-78082500D01*
G37*
%TO.C,R20*%
X161527936Y-97110000D02*
X161982064Y-97110000D01*
X161527936Y-98580000D02*
X161982064Y-98580000D01*
%TO.C,R2*%
X92372936Y-60135000D02*
X92827064Y-60135000D01*
X92372936Y-61605000D02*
X92827064Y-61605000D01*
%TO.C,R10*%
X125922936Y-101885000D02*
X126377064Y-101885000D01*
X125922936Y-103355000D02*
X126377064Y-103355000D01*
%TO.C,C5*%
X93113748Y-92960000D02*
X93636252Y-92960000D01*
X93113748Y-94430000D02*
X93636252Y-94430000D01*
%TO.C,C2*%
X125888748Y-77635000D02*
X126411252Y-77635000D01*
X125888748Y-79105000D02*
X126411252Y-79105000D01*
%TO.C,PWR3V3.1*%
X191870000Y-103905000D02*
X193200000Y-103905000D01*
X191870000Y-105235000D02*
X191870000Y-103905000D01*
X191870000Y-106505000D02*
X191870000Y-109105000D01*
X191870000Y-106505000D02*
X194530000Y-106505000D01*
X191870000Y-109105000D02*
X194530000Y-109105000D01*
X194530000Y-106505000D02*
X194530000Y-109105000D01*
%TO.C,PWM.2*%
X197670000Y-114670000D02*
X199000000Y-114670000D01*
X197670000Y-116000000D02*
X197670000Y-114670000D01*
X197670000Y-117270000D02*
X197670000Y-119870000D01*
X197670000Y-117270000D02*
X200330000Y-117270000D01*
X197670000Y-119870000D02*
X200330000Y-119870000D01*
X200330000Y-117270000D02*
X200330000Y-119870000D01*
D12*
%TO.C,J1*%
X78372300Y-53148000D02*
X78372300Y-61098200D01*
X78372300Y-61098200D02*
X80554738Y-61098200D01*
X80554738Y-53148000D02*
X78372300Y-53148000D01*
X83927062Y-61098200D02*
X87617900Y-61098200D01*
X87617900Y-53148000D02*
X83927062Y-53148000D01*
X87617900Y-54652870D02*
X87617900Y-53148000D01*
X87617900Y-61098200D02*
X87617900Y-59593330D01*
D13*
X87671900Y-51370000D02*
G75*
G02*
X86909900Y-51370000I-381000J0D01*
G01*
X86909900Y-51370000D02*
G75*
G02*
X87671900Y-51370000I381000J0D01*
G01*
D11*
%TO.C,C4*%
X125888748Y-109885000D02*
X126411252Y-109885000D01*
X125888748Y-111355000D02*
X126411252Y-111355000D01*
%TO.C,D1*%
X79315000Y-67735000D02*
X79315000Y-70005000D01*
X79315000Y-70005000D02*
X83200000Y-70005000D01*
X83200000Y-67735000D02*
X79315000Y-67735000D01*
%TO.C,R24*%
X129115436Y-134160000D02*
X129569564Y-134160000D01*
X129115436Y-135630000D02*
X129569564Y-135630000D01*
%TO.C,PWR3V3.3*%
X203420000Y-103945000D02*
X204750000Y-103945000D01*
X203420000Y-105275000D02*
X203420000Y-103945000D01*
X203420000Y-106545000D02*
X203420000Y-109145000D01*
X203420000Y-106545000D02*
X206080000Y-106545000D01*
X203420000Y-109145000D02*
X206080000Y-109145000D01*
X206080000Y-106545000D02*
X206080000Y-109145000D01*
%TO.C,D14*%
X98975000Y-145900000D02*
X98975000Y-149785000D01*
X98975000Y-149785000D02*
X101245000Y-149785000D01*
X101245000Y-149785000D02*
X101245000Y-145900000D01*
%TO.C,X2*%
X94535000Y-111345000D02*
X100785000Y-111345000D01*
X94535000Y-116395000D02*
X100785000Y-116395000D01*
X94535000Y-116395000D02*
G75*
G02*
X94535000Y-111345000I0J2525000D01*
G01*
X100785000Y-111345000D02*
G75*
G02*
X100785000Y-116395000I0J-2525000D01*
G01*
%TO.C,DISPLAY1*%
X191670000Y-51925000D02*
X193000000Y-51925000D01*
X191670000Y-53255000D02*
X191670000Y-51925000D01*
X191670000Y-54525000D02*
X191670000Y-87605000D01*
X191670000Y-54525000D02*
X194330000Y-54525000D01*
X191670000Y-87605000D02*
X194330000Y-87605000D01*
X194330000Y-54525000D02*
X194330000Y-87605000D01*
%TO.C,U2*%
X97600000Y-73060000D02*
X95650000Y-73060000D01*
X97600000Y-73060000D02*
X99550000Y-73060000D01*
X97600000Y-83180000D02*
X95650000Y-83180000D01*
X97600000Y-83180000D02*
X99550000Y-83180000D01*
X94900000Y-73115000D02*
X94660000Y-72785000D01*
X95140000Y-72785000D01*
X94900000Y-73115000D01*
G36*
X94900000Y-73115000D02*
G01*
X94660000Y-72785000D01*
X95140000Y-72785000D01*
X94900000Y-73115000D01*
G37*
%TO.C,D7*%
X79315000Y-88735000D02*
X79315000Y-91005000D01*
X79315000Y-91005000D02*
X83200000Y-91005000D01*
X83200000Y-88735000D02*
X79315000Y-88735000D01*
%TO.C,D9*%
X79315000Y-138735000D02*
X79315000Y-141005000D01*
X79315000Y-141005000D02*
X83200000Y-141005000D01*
X83200000Y-138735000D02*
X79315000Y-138735000D01*
%TO.C,C3*%
X119976248Y-93885000D02*
X120498752Y-93885000D01*
X119976248Y-95355000D02*
X120498752Y-95355000D01*
%TO.C,PWR3V3.2*%
X197670000Y-103945000D02*
X199000000Y-103945000D01*
X197670000Y-105275000D02*
X197670000Y-103945000D01*
X197670000Y-106545000D02*
X197670000Y-109145000D01*
X197670000Y-106545000D02*
X200330000Y-106545000D01*
X197670000Y-109145000D02*
X200330000Y-109145000D01*
X200330000Y-106545000D02*
X200330000Y-109145000D01*
%TO.C,DAC.1*%
X197420000Y-62195000D02*
X198750000Y-62195000D01*
X197420000Y-63525000D02*
X197420000Y-62195000D01*
X197420000Y-64795000D02*
X197420000Y-67395000D01*
X197420000Y-64795000D02*
X200080000Y-64795000D01*
X197420000Y-67395000D02*
X200080000Y-67395000D01*
X200080000Y-64795000D02*
X200080000Y-67395000D01*
%TO.C,U3*%
X97670000Y-97810000D02*
X95720000Y-97810000D01*
X97670000Y-97810000D02*
X99620000Y-97810000D01*
X97670000Y-107930000D02*
X95720000Y-107930000D01*
X97670000Y-107930000D02*
X99620000Y-107930000D01*
X94970000Y-97865000D02*
X94730000Y-97535000D01*
X95210000Y-97535000D01*
X94970000Y-97865000D01*
G36*
X94970000Y-97865000D02*
G01*
X94730000Y-97535000D01*
X95210000Y-97535000D01*
X94970000Y-97865000D01*
G37*
%TO.C,EXTI.2*%
X197520000Y-72420000D02*
X198850000Y-72420000D01*
X197520000Y-73750000D02*
X197520000Y-72420000D01*
X197520000Y-75020000D02*
X197520000Y-77620000D01*
X197520000Y-75020000D02*
X200180000Y-75020000D01*
X197520000Y-77620000D02*
X200180000Y-77620000D01*
X200180000Y-75020000D02*
X200180000Y-77620000D01*
%TO.C,EXIO.2*%
X185220000Y-133540000D02*
X185220000Y-136200000D01*
X203060000Y-133540000D02*
X185220000Y-133540000D01*
X203060000Y-133540000D02*
X203060000Y-136200000D01*
X203060000Y-136200000D02*
X185220000Y-136200000D01*
X204330000Y-133540000D02*
X205660000Y-133540000D01*
X205660000Y-133540000D02*
X205660000Y-134870000D01*
%TO.C,R14*%
X87460436Y-93135000D02*
X87914564Y-93135000D01*
X87460436Y-94605000D02*
X87914564Y-94605000D01*
%TO.C,EXTI.3*%
X203420000Y-72420000D02*
X204750000Y-72420000D01*
X203420000Y-73750000D02*
X203420000Y-72420000D01*
X203420000Y-75020000D02*
X203420000Y-77620000D01*
X203420000Y-75020000D02*
X206080000Y-75020000D01*
X203420000Y-77620000D02*
X206080000Y-77620000D01*
X206080000Y-75020000D02*
X206080000Y-77620000D01*
%TO.C,D3*%
X79315000Y-63735000D02*
X79315000Y-66005000D01*
X79315000Y-66005000D02*
X83200000Y-66005000D01*
X83200000Y-63735000D02*
X79315000Y-63735000D01*
D12*
%TO.C,J2*%
X78372300Y-73544900D02*
X78372300Y-81495100D01*
X78372300Y-81495100D02*
X80554738Y-81495100D01*
X80554738Y-73544900D02*
X78372300Y-73544900D01*
X83927062Y-81495100D02*
X87617900Y-81495100D01*
X87617900Y-73544900D02*
X83927062Y-73544900D01*
X87617900Y-75049770D02*
X87617900Y-73544900D01*
X87617900Y-81495100D02*
X87617900Y-79990230D01*
D13*
X87671900Y-71766900D02*
G75*
G02*
X86909900Y-71766900I-381000J0D01*
G01*
X86909900Y-71766900D02*
G75*
G02*
X87671900Y-71766900I381000J0D01*
G01*
D11*
%TO.C,F1*%
X98372936Y-59960000D02*
X99827064Y-59960000D01*
X98372936Y-61780000D02*
X99827064Y-61780000D01*
%TO.C,U1*%
X99850000Y-64310000D02*
X97900000Y-64310000D01*
X99850000Y-64310000D02*
X101800000Y-64310000D01*
X99850000Y-69430000D02*
X97900000Y-69430000D01*
X99850000Y-69430000D02*
X101800000Y-69430000D01*
X97150000Y-64405000D02*
X96910000Y-64075000D01*
X97390000Y-64075000D01*
X97150000Y-64405000D01*
G36*
X97150000Y-64405000D02*
G01*
X96910000Y-64075000D01*
X97390000Y-64075000D01*
X97150000Y-64405000D01*
G37*
%TO.C,R1*%
X87372936Y-68135000D02*
X87827064Y-68135000D01*
X87372936Y-69605000D02*
X87827064Y-69605000D01*
%TO.C,R19*%
X87372936Y-134885000D02*
X87827064Y-134885000D01*
X87372936Y-136355000D02*
X87827064Y-136355000D01*
%TO.C,C9*%
X119926248Y-89885000D02*
X120448752Y-89885000D01*
X119926248Y-91355000D02*
X120448752Y-91355000D01*
%TO.C,PWR5V.1*%
X191870000Y-93170000D02*
X193200000Y-93170000D01*
X191870000Y-94500000D02*
X191870000Y-93170000D01*
X191870000Y-95770000D02*
X191870000Y-98370000D01*
X191870000Y-95770000D02*
X194530000Y-95770000D01*
X191870000Y-98370000D02*
X194530000Y-98370000D01*
X194530000Y-95770000D02*
X194530000Y-98370000D01*
%TO.C,EXIO.1*%
X185220000Y-127390000D02*
X185220000Y-130050000D01*
X203060000Y-127390000D02*
X185220000Y-127390000D01*
X203060000Y-127390000D02*
X203060000Y-130050000D01*
X203060000Y-130050000D02*
X185220000Y-130050000D01*
X204330000Y-127390000D02*
X205660000Y-127390000D01*
X205660000Y-127390000D02*
X205660000Y-128720000D01*
%TO.C,I2C1.4*%
X169900000Y-145540000D02*
X169900000Y-148200000D01*
X177580000Y-145540000D02*
X169900000Y-145540000D01*
X177580000Y-145540000D02*
X177580000Y-148200000D01*
X177580000Y-148200000D02*
X169900000Y-148200000D01*
X178850000Y-145540000D02*
X180180000Y-145540000D01*
X180180000Y-145540000D02*
X180180000Y-146870000D01*
%TO.C,EXTI.1*%
X203420000Y-62195000D02*
X204750000Y-62195000D01*
X203420000Y-63525000D02*
X203420000Y-62195000D01*
X203420000Y-64795000D02*
X203420000Y-67395000D01*
X203420000Y-64795000D02*
X206080000Y-64795000D01*
X203420000Y-67395000D02*
X206080000Y-67395000D01*
X206080000Y-64795000D02*
X206080000Y-67395000D01*
%TO.C,C8*%
X125888748Y-73635000D02*
X126411252Y-73635000D01*
X125888748Y-75105000D02*
X126411252Y-75105000D01*
%TO.C,PWM.3*%
X203420000Y-114695000D02*
X204750000Y-114695000D01*
X203420000Y-116025000D02*
X203420000Y-114695000D01*
X203420000Y-117295000D02*
X203420000Y-119895000D01*
X203420000Y-117295000D02*
X206080000Y-117295000D01*
X203420000Y-119895000D02*
X206080000Y-119895000D01*
X206080000Y-117295000D02*
X206080000Y-119895000D01*
%TO.C,C6*%
X93158748Y-117988100D02*
X93681252Y-117988100D01*
X93158748Y-119458100D02*
X93681252Y-119458100D01*
%TO.C,R21*%
X161527936Y-100060000D02*
X161982064Y-100060000D01*
X161527936Y-101530000D02*
X161982064Y-101530000D01*
%TO.C,C1*%
X92388748Y-68135000D02*
X92911252Y-68135000D01*
X92388748Y-69605000D02*
X92911252Y-69605000D01*
%TO.C,D4*%
X79315000Y-84735000D02*
X79315000Y-87005000D01*
X79315000Y-87005000D02*
X83200000Y-87005000D01*
X83200000Y-84735000D02*
X79315000Y-84735000D01*
%TO.C,R22*%
X169872936Y-83385000D02*
X170327064Y-83385000D01*
X169872936Y-84855000D02*
X170327064Y-84855000D01*
%TO.C,U7*%
X136290000Y-72370000D02*
X136290000Y-70420000D01*
X136290000Y-72370000D02*
X136290000Y-74320000D01*
X141410000Y-72370000D02*
X141410000Y-70420000D01*
X141410000Y-72370000D02*
X141410000Y-74320000D01*
X136385000Y-75070000D02*
X136055000Y-75310000D01*
X136055000Y-74830000D01*
X136385000Y-75070000D01*
G36*
X136385000Y-75070000D02*
G01*
X136055000Y-75310000D01*
X136055000Y-74830000D01*
X136385000Y-75070000D01*
G37*
%TO.C,D11*%
X79315000Y-117631900D02*
X79315000Y-119901900D01*
X79315000Y-119901900D02*
X83200000Y-119901900D01*
X83200000Y-117631900D02*
X79315000Y-117631900D01*
%TO.C,R26*%
X129115436Y-140060000D02*
X129569564Y-140060000D01*
X129115436Y-141530000D02*
X129569564Y-141530000D01*
%TO.C,U6*%
X147625000Y-69645000D02*
X147885000Y-69645000D01*
X147625000Y-72370000D02*
X147625000Y-69645000D01*
X147625000Y-72370000D02*
X147625000Y-75095000D01*
X147625000Y-75095000D02*
X147885000Y-75095000D01*
X153075000Y-69645000D02*
X152815000Y-69645000D01*
X153075000Y-72370000D02*
X153075000Y-69645000D01*
X153075000Y-72370000D02*
X153075000Y-75095000D01*
X153075000Y-75095000D02*
X152815000Y-75095000D01*
X147885000Y-75877500D02*
X147555000Y-76117500D01*
X147555000Y-75637500D01*
X147885000Y-75877500D01*
G36*
X147885000Y-75877500D02*
G01*
X147555000Y-76117500D01*
X147555000Y-75637500D01*
X147885000Y-75877500D01*
G37*
%TO.C,R11*%
X87622936Y-89385000D02*
X88077064Y-89385000D01*
X87622936Y-90855000D02*
X88077064Y-90855000D01*
%TO.C,R15*%
X87372936Y-118135000D02*
X87827064Y-118135000D01*
X87372936Y-119605000D02*
X87827064Y-119605000D01*
%TO.C,R3*%
X92460436Y-64135000D02*
X92914564Y-64135000D01*
X92460436Y-65605000D02*
X92914564Y-65605000D01*
%TO.C,D2*%
X117130000Y-65150000D02*
X117130000Y-70590000D01*
X117130000Y-70590000D02*
X120070000Y-70590000D01*
X118600000Y-64130000D02*
X118600000Y-65150000D01*
X118600000Y-71610000D02*
X118600000Y-70590000D01*
X120070000Y-65150000D02*
X117130000Y-65150000D01*
X120070000Y-65930000D02*
X117130000Y-65930000D01*
X120070000Y-66050000D02*
X117130000Y-66050000D01*
X120070000Y-66170000D02*
X117130000Y-66170000D01*
X120070000Y-70590000D02*
X120070000Y-65150000D01*
%TO.C,X1*%
X94560000Y-86420000D02*
X100810000Y-86420000D01*
X94560000Y-91470000D02*
X100810000Y-91470000D01*
X94560000Y-91470000D02*
G75*
G02*
X94560000Y-86420000I0J2525000D01*
G01*
X100810000Y-86420000D02*
G75*
G02*
X100810000Y-91470000I0J-2525000D01*
G01*
%TO.C,I2C1.1*%
X169900000Y-127540000D02*
X169900000Y-130200000D01*
X177580000Y-127540000D02*
X169900000Y-127540000D01*
X177580000Y-127540000D02*
X177580000Y-130200000D01*
X177580000Y-130200000D02*
X169900000Y-130200000D01*
X178850000Y-127540000D02*
X180180000Y-127540000D01*
X180180000Y-127540000D02*
X180180000Y-128870000D01*
%TO.C,D5*%
X79315000Y-109631900D02*
X79315000Y-111901900D01*
X79315000Y-111901900D02*
X83200000Y-111901900D01*
X83200000Y-109631900D02*
X79315000Y-109631900D01*
%TO.C,X3*%
X94490000Y-136345000D02*
X100740000Y-136345000D01*
X94490000Y-141395000D02*
X100740000Y-141395000D01*
X94490000Y-141395000D02*
G75*
G02*
X94490000Y-136345000I0J2525000D01*
G01*
X100740000Y-136345000D02*
G75*
G02*
X100740000Y-141395000I0J-2525000D01*
G01*
%TO.C,ADC.1*%
X197670000Y-82445000D02*
X199000000Y-82445000D01*
X197670000Y-83775000D02*
X197670000Y-82445000D01*
X197670000Y-85045000D02*
X197670000Y-87645000D01*
X197670000Y-85045000D02*
X200330000Y-85045000D01*
X197670000Y-87645000D02*
X200330000Y-87645000D01*
X200330000Y-85045000D02*
X200330000Y-87645000D01*
%TO.C,ADC.2*%
X203420000Y-82445000D02*
X204750000Y-82445000D01*
X203420000Y-83775000D02*
X203420000Y-82445000D01*
X203420000Y-85045000D02*
X203420000Y-87645000D01*
X203420000Y-85045000D02*
X206080000Y-85045000D01*
X203420000Y-87645000D02*
X206080000Y-87645000D01*
X206080000Y-85045000D02*
X206080000Y-87645000D01*
%TO.C,R23*%
X174372936Y-83385000D02*
X174827064Y-83385000D01*
X174372936Y-84855000D02*
X174827064Y-84855000D01*
%TO.C,D8*%
X79315000Y-113631900D02*
X79315000Y-115901900D01*
X79315000Y-115901900D02*
X83200000Y-115901900D01*
X83200000Y-113631900D02*
X79315000Y-113631900D01*
%TO.C,D12*%
X79315000Y-142735000D02*
X79315000Y-145005000D01*
X79315000Y-145005000D02*
X83200000Y-145005000D01*
X83200000Y-142735000D02*
X79315000Y-142735000D01*
%TO.C,R8*%
X119960436Y-85885000D02*
X120414564Y-85885000D01*
X119960436Y-87355000D02*
X120414564Y-87355000D01*
%TO.C,PWM.1*%
X191920000Y-114670000D02*
X193250000Y-114670000D01*
X191920000Y-116000000D02*
X191920000Y-114670000D01*
X191920000Y-117270000D02*
X191920000Y-119870000D01*
X191920000Y-117270000D02*
X194580000Y-117270000D01*
X191920000Y-119870000D02*
X194580000Y-119870000D01*
X194580000Y-117270000D02*
X194580000Y-119870000D01*
%TO.C,D10*%
X79315000Y-92735000D02*
X79315000Y-95005000D01*
X79315000Y-95005000D02*
X83200000Y-95005000D01*
X83200000Y-92735000D02*
X79315000Y-92735000D01*
%TO.C,U8*%
X136290000Y-83370000D02*
X136290000Y-81420000D01*
X136290000Y-83370000D02*
X136290000Y-85320000D01*
X141410000Y-83370000D02*
X141410000Y-81420000D01*
X141410000Y-83370000D02*
X141410000Y-85320000D01*
X136385000Y-86070000D02*
X136055000Y-86310000D01*
X136055000Y-85830000D01*
X136385000Y-86070000D01*
G36*
X136385000Y-86070000D02*
G01*
X136055000Y-86310000D01*
X136055000Y-85830000D01*
X136385000Y-86070000D01*
G37*
%TO.C,R4*%
X87372936Y-64135000D02*
X87827064Y-64135000D01*
X87372936Y-65605000D02*
X87827064Y-65605000D01*
D14*
%TO.C,U9*%
X106510000Y-118750000D02*
X106510000Y-51750000D01*
X108010000Y-50250000D02*
X185510000Y-50250000D01*
X136980000Y-52270000D02*
X136980000Y-57270000D01*
X136980000Y-57270000D02*
X185240000Y-57270000D01*
X136980000Y-113230000D02*
X136980000Y-118230000D01*
X136980000Y-118230000D02*
X185240000Y-118230000D01*
X137750000Y-59870000D02*
X137750000Y-62370000D01*
X137750000Y-62370000D02*
X163650000Y-62370000D01*
X146890000Y-108130000D02*
X146890000Y-110630000D01*
X146890000Y-110630000D02*
X167710000Y-110630000D01*
X163650000Y-59870000D02*
X137750000Y-59870000D01*
X163650000Y-62370000D02*
X163650000Y-59870000D01*
X164670000Y-59870000D02*
X164670000Y-62370000D01*
X164670000Y-62370000D02*
X185490000Y-62370000D01*
X167710000Y-108130000D02*
X146890000Y-108130000D01*
X167710000Y-110630000D02*
X167710000Y-108130000D01*
X169750000Y-108130000D02*
X169750000Y-110630000D01*
X169750000Y-110630000D02*
X185490000Y-110630000D01*
X185240000Y-52270000D02*
X136980000Y-52270000D01*
X185240000Y-57270000D02*
X185240000Y-52270000D01*
X185240000Y-113230000D02*
X136980000Y-113230000D01*
X185240000Y-118230000D02*
X185240000Y-113230000D01*
X185490000Y-59870000D02*
X164670000Y-59870000D01*
X185490000Y-62370000D02*
X185490000Y-59870000D01*
X185490000Y-108130000D02*
X169750000Y-108130000D01*
X185490000Y-110630000D02*
X185490000Y-108130000D01*
X185510000Y-120250000D02*
X108010000Y-120250000D01*
X187010000Y-51750000D02*
X187010000Y-72250000D01*
X187010000Y-72250000D02*
X189010000Y-74250000D01*
X187010000Y-109250000D02*
X187010000Y-118750000D01*
X189010000Y-74250000D02*
X189010000Y-107250000D01*
X189010000Y-107250000D02*
X187010000Y-109250000D01*
X106510000Y-51750000D02*
G75*
G02*
X108010000Y-50250000I1500000J0D01*
G01*
X108010000Y-120250000D02*
G75*
G02*
X106510000Y-118750000I1J1500001D01*
G01*
X185510000Y-50250000D02*
G75*
G02*
X187010000Y-51750000I0J-1500000D01*
G01*
X187010000Y-118750000D02*
G75*
G02*
X185510000Y-120250000I-1500001J1D01*
G01*
D15*
X138350000Y-57790000D02*
G75*
G02*
X138150000Y-57790000I-100000J0D01*
G01*
X138150000Y-57790000D02*
G75*
G02*
X138350000Y-57790000I100000J0D01*
G01*
X138350000Y-118750000D02*
G75*
G02*
X138150000Y-118750000I-100000J0D01*
G01*
X138150000Y-118750000D02*
G75*
G02*
X138350000Y-118750000I100000J0D01*
G01*
X148510000Y-111130000D02*
G75*
G02*
X148310000Y-111130000I-100000J0D01*
G01*
X148310000Y-111130000D02*
G75*
G02*
X148510000Y-111130000I100000J0D01*
G01*
X162230000Y-59370000D02*
G75*
G02*
X162030000Y-59370000I-100000J0D01*
G01*
X162030000Y-59370000D02*
G75*
G02*
X162230000Y-59370000I100000J0D01*
G01*
X171370000Y-111130000D02*
G75*
G02*
X171170000Y-111130000I-100000J0D01*
G01*
X171170000Y-111130000D02*
G75*
G02*
X171370000Y-111130000I100000J0D01*
G01*
X184070000Y-59370000D02*
G75*
G02*
X183870000Y-59370000I-100000J0D01*
G01*
X183870000Y-59370000D02*
G75*
G02*
X184070000Y-59370000I100000J0D01*
G01*
D11*
%TO.C,R18*%
X87372936Y-110135000D02*
X87827064Y-110135000D01*
X87372936Y-111605000D02*
X87827064Y-111605000D01*
%TO.C,R6*%
X125922936Y-69635000D02*
X126377064Y-69635000D01*
X125922936Y-71105000D02*
X126377064Y-71105000D01*
%TO.C,R16*%
X87372936Y-143285000D02*
X87827064Y-143285000D01*
X87372936Y-144755000D02*
X87827064Y-144755000D01*
%TO.C,R17*%
X87622936Y-85385000D02*
X88077064Y-85385000D01*
X87622936Y-86855000D02*
X88077064Y-86855000D01*
%TO.C,C7*%
X93113748Y-143135000D02*
X93636252Y-143135000D01*
X93113748Y-144605000D02*
X93636252Y-144605000D01*
%TO.C,R9*%
X125922936Y-97885000D02*
X126377064Y-97885000D01*
X125922936Y-99355000D02*
X126377064Y-99355000D01*
%TO.C,PWR5V.3*%
X203420000Y-93170000D02*
X204750000Y-93170000D01*
X203420000Y-94500000D02*
X203420000Y-93170000D01*
X203420000Y-95770000D02*
X203420000Y-98370000D01*
X203420000Y-95770000D02*
X206080000Y-95770000D01*
X203420000Y-98370000D02*
X206080000Y-98370000D01*
X206080000Y-95770000D02*
X206080000Y-98370000D01*
%TO.C,D6*%
X79315000Y-134485000D02*
X79315000Y-136755000D01*
X79315000Y-136755000D02*
X83200000Y-136755000D01*
X83200000Y-134485000D02*
X79315000Y-134485000D01*
%TO.C,R7*%
X119960436Y-81885000D02*
X120414564Y-81885000D01*
X119960436Y-83355000D02*
X120414564Y-83355000D01*
%TO.C,SPI2.1*%
X185020000Y-139540000D02*
X185020000Y-142200000D01*
X197780000Y-139540000D02*
X185020000Y-139540000D01*
X197780000Y-139540000D02*
X197780000Y-142200000D01*
X197780000Y-142200000D02*
X185020000Y-142200000D01*
X199050000Y-139540000D02*
X200380000Y-139540000D01*
X200380000Y-139540000D02*
X200380000Y-140870000D01*
%TO.C,R25*%
X129115436Y-137110000D02*
X129569564Y-137110000D01*
X129115436Y-138580000D02*
X129569564Y-138580000D01*
D12*
%TO.C,J3*%
X78372300Y-98648000D02*
X78372300Y-106598200D01*
X78372300Y-106598200D02*
X80554738Y-106598200D01*
X80554738Y-98648000D02*
X78372300Y-98648000D01*
X83927062Y-106598200D02*
X87617900Y-106598200D01*
X87617900Y-98648000D02*
X83927062Y-98648000D01*
X87617900Y-100152870D02*
X87617900Y-98648000D01*
X87617900Y-106598200D02*
X87617900Y-105093330D01*
D13*
X87671900Y-96870000D02*
G75*
G02*
X86909900Y-96870000I-381000J0D01*
G01*
X86909900Y-96870000D02*
G75*
G02*
X87671900Y-96870000I381000J0D01*
G01*
D11*
%TO.C,R12*%
X87372936Y-114135000D02*
X87827064Y-114135000D01*
X87372936Y-115605000D02*
X87827064Y-115605000D01*
%TO.C,D15*%
X104635000Y-149785000D02*
X104635000Y-145900000D01*
X102365000Y-149785000D02*
X104635000Y-149785000D01*
X102365000Y-145900000D02*
X102365000Y-149785000D01*
%TO.C,C10*%
X125838748Y-105885000D02*
X126361252Y-105885000D01*
X125838748Y-107355000D02*
X126361252Y-107355000D01*
%TO.C,C13*%
X125888748Y-93885000D02*
X126411252Y-93885000D01*
X125888748Y-95355000D02*
X126411252Y-95355000D01*
%TO.C,I2C1.3*%
X169900000Y-139540000D02*
X169900000Y-142200000D01*
X177580000Y-139540000D02*
X169900000Y-139540000D01*
X177580000Y-139540000D02*
X177580000Y-142200000D01*
X177580000Y-142200000D02*
X169900000Y-142200000D01*
X178850000Y-139540000D02*
X180180000Y-139540000D01*
X180180000Y-139540000D02*
X180180000Y-140870000D01*
%TO.C,R13*%
X87372936Y-139135000D02*
X87827064Y-139135000D01*
X87372936Y-140605000D02*
X87827064Y-140605000D01*
%TO.C,D13*%
X95585000Y-145900000D02*
X95585000Y-149785000D01*
X95585000Y-149785000D02*
X97855000Y-149785000D01*
X97855000Y-149785000D02*
X97855000Y-145900000D01*
%TO.C,U11*%
X136090000Y-94010000D02*
X136345000Y-94010000D01*
X136090000Y-97870000D02*
X136090000Y-94010000D01*
X136090000Y-97870000D02*
X136090000Y-101730000D01*
X136090000Y-101730000D02*
X136345000Y-101730000D01*
X146610000Y-94010000D02*
X146355000Y-94010000D01*
X146610000Y-97870000D02*
X146610000Y-94010000D01*
X146610000Y-97870000D02*
X146610000Y-101730000D01*
X146610000Y-101730000D02*
X146355000Y-101730000D01*
X136345000Y-102582500D02*
X135875000Y-102922500D01*
X135875000Y-102242500D01*
X136345000Y-102582500D01*
G36*
X136345000Y-102582500D02*
G01*
X135875000Y-102922500D01*
X135875000Y-102242500D01*
X136345000Y-102582500D01*
G37*
%TO.C,U5*%
X146940000Y-82460000D02*
X148200000Y-82460000D01*
X146940000Y-86220000D02*
X146940000Y-82460000D01*
X153760000Y-82460000D02*
X152500000Y-82460000D01*
X153760000Y-86220000D02*
X153760000Y-82460000D01*
X147040000Y-87500000D02*
X146710000Y-87740000D01*
X146710000Y-87260000D01*
X147040000Y-87500000D01*
G36*
X147040000Y-87500000D02*
G01*
X146710000Y-87740000D01*
X146710000Y-87260000D01*
X147040000Y-87500000D01*
G37*
%TD*%
M02*
