M48
; DRILL file {KiCad 8.0.8} date 2025-04-05T02:12:38+0200
; FORMAT={-:-/ absolute / metric / decimal}
; #@! TF.CreationDate,2025-04-05T02:12:38+02:00
; #@! TF.GenerationSoftware,Kicad,Pcbnew,8.0.8
; #@! TF.FileFunction,NonPlated,1,2,NPTH
FMAT,2
METRIC
; #@! TA.AperFunction,NonPlated,NPTH,ComponentDrill
T1C1.000
; #@! TA.AperFunction,NonPlated,NPTH,ComponentDrill
T2C3.000
%
G90
G05
T2
X80.5Y-49.7
X80.5Y-150.0
X134.44Y-109.38
X135.71Y-61.12
X186.51Y-76.36
X205.75Y-50.0
X205.75Y-150.0
T1
G00X82.791Y-53.423
M15
G01X81.791Y-53.423
M16
G05
G00X82.791Y-60.773
M15
G01X81.791Y-60.773
M16
G05
G00X82.791Y-73.82
M15
G01X81.791Y-73.82
M16
G05
G00X82.791Y-81.17
M15
G01X81.791Y-81.17
M16
G05
G00X82.791Y-98.923
M15
G01X81.791Y-98.923
M16
G05
G00X82.791Y-106.273
M15
G01X81.791Y-106.273
M16
G05
G00X82.791Y-123.923
M15
G01X81.791Y-123.923
M16
G05
G00X82.791Y-131.273
M15
G01X81.791Y-131.273
M16
G05
M30
