%TF.GenerationSoftware,KiCad,Pcbnew,8.0.8*%
%TF.CreationDate,2025-04-05T02:10:51+02:00*%
%TF.ProjectId,mb02a1,6d623032-6131-42e6-9b69-6361645f7063,rev?*%
%TF.SameCoordinates,Original*%
%TF.FileFunction,Paste,Top*%
%TF.FilePolarity,Positive*%
%FSLAX46Y46*%
G04 Gerber Fmt 4.6, Leading zero omitted, Abs format (unit mm)*
G04 Created by KiCad (PCBNEW 8.0.8) date 2025-04-05 02:10:51*
%MOMM*%
%LPD*%
G01*
G04 APERTURE LIST*
G04 Aperture macros list*
%AMRoundRect*
0 Rectangle with rounded corners*
0 $1 Rounding radius*
0 $2 $3 $4 $5 $6 $7 $8 $9 X,Y pos of 4 corners*
0 Add a 4 corners polygon primitive as box body*
4,1,4,$2,$3,$4,$5,$6,$7,$8,$9,$2,$3,0*
0 Add four circle primitives for the rounded corners*
1,1,$1+$1,$2,$3*
1,1,$1+$1,$4,$5*
1,1,$1+$1,$6,$7*
1,1,$1+$1,$8,$9*
0 Add four rect primitives between the rounded corners*
20,1,$1+$1,$2,$3,$4,$5,0*
20,1,$1+$1,$4,$5,$6,$7,0*
20,1,$1+$1,$6,$7,$8,$9,0*
20,1,$1+$1,$8,$9,$2,$3,0*%
G04 Aperture macros list end*
%ADD10RoundRect,0.150000X-0.825000X-0.150000X0.825000X-0.150000X0.825000X0.150000X-0.825000X0.150000X0*%
%ADD11RoundRect,0.250000X-0.250000X-0.475000X0.250000X-0.475000X0.250000X0.475000X-0.250000X0.475000X0*%
%ADD12O,2.794000X1.803400*%
%ADD13RoundRect,0.250000X-0.262500X-0.450000X0.262500X-0.450000X0.262500X0.450000X-0.262500X0.450000X0*%
%ADD14RoundRect,0.150000X0.150000X-0.875000X0.150000X0.875000X-0.150000X0.875000X-0.150000X-0.875000X0*%
%ADD15RoundRect,0.250000X-0.375000X-0.625000X0.375000X-0.625000X0.375000X0.625000X-0.375000X0.625000X0*%
%ADD16RoundRect,0.250000X0.625000X-0.375000X0.625000X0.375000X-0.625000X0.375000X-0.625000X-0.375000X0*%
%ADD17RoundRect,0.250000X-0.312500X-0.625000X0.312500X-0.625000X0.312500X0.625000X-0.312500X0.625000X0*%
%ADD18RoundRect,0.150000X0.150000X-0.825000X0.150000X0.825000X-0.150000X0.825000X-0.150000X-0.825000X0*%
%ADD19RoundRect,0.150000X0.150000X-0.650000X0.150000X0.650000X-0.150000X0.650000X-0.150000X-0.650000X0*%
%ADD20RoundRect,0.375000X0.375000X-0.625000X0.375000X0.625000X-0.375000X0.625000X-0.375000X-0.625000X0*%
%ADD21RoundRect,0.500000X1.400000X-0.500000X1.400000X0.500000X-1.400000X0.500000X-1.400000X-0.500000X0*%
G04 APERTURE END LIST*
D10*
%TO.C,U4*%
X95125000Y-123425000D03*
X95125000Y-124695000D03*
X95125000Y-125965000D03*
X95125000Y-127235000D03*
X95125000Y-128505000D03*
X95125000Y-129775000D03*
X95125000Y-131045000D03*
X95125000Y-132315000D03*
X100075000Y-132315000D03*
X100075000Y-131045000D03*
X100075000Y-129775000D03*
X100075000Y-128505000D03*
X100075000Y-127235000D03*
X100075000Y-125965000D03*
X100075000Y-124695000D03*
X100075000Y-123425000D03*
%TD*%
D11*
%TO.C,C11*%
X125200000Y-62370000D03*
X127100000Y-62370000D03*
%TD*%
D12*
%TO.C,J4*%
X82240900Y-123973099D03*
X82240900Y-131273100D03*
%TD*%
D11*
%TO.C,C12*%
X119237500Y-78620000D03*
X121137500Y-78620000D03*
%TD*%
D13*
%TO.C,R5*%
X125237500Y-66370000D03*
X127062500Y-66370000D03*
%TD*%
D14*
%TO.C,U12*%
X159595000Y-78020000D03*
X160865000Y-78020000D03*
X162135000Y-78020000D03*
X163405000Y-78020000D03*
X164675000Y-78020000D03*
X165945000Y-78020000D03*
X167215000Y-78020000D03*
X168485000Y-78020000D03*
X169755000Y-78020000D03*
X171025000Y-78020000D03*
X172295000Y-78020000D03*
X173565000Y-78020000D03*
X174835000Y-78020000D03*
X176105000Y-78020000D03*
X176105000Y-68720000D03*
X174835000Y-68720000D03*
X173565000Y-68720000D03*
X172295000Y-68720000D03*
X171025000Y-68720000D03*
X169755000Y-68720000D03*
X168485000Y-68720000D03*
X167215000Y-68720000D03*
X165945000Y-68720000D03*
X164675000Y-68720000D03*
X163405000Y-68720000D03*
X162135000Y-68720000D03*
X160865000Y-68720000D03*
X159595000Y-68720000D03*
%TD*%
D13*
%TO.C,R20*%
X160842500Y-97845000D03*
X162667500Y-97845000D03*
%TD*%
%TO.C,R2*%
X91687500Y-60870000D03*
X93512500Y-60870000D03*
%TD*%
%TO.C,R10*%
X125237500Y-102620000D03*
X127062500Y-102620000D03*
%TD*%
D11*
%TO.C,C5*%
X92425000Y-93695000D03*
X94325000Y-93695000D03*
%TD*%
%TO.C,C2*%
X125200000Y-78370000D03*
X127100000Y-78370000D03*
%TD*%
D12*
%TO.C,J1*%
X82240900Y-53473099D03*
X82240900Y-60773100D03*
%TD*%
D11*
%TO.C,C4*%
X125200000Y-110620000D03*
X127100000Y-110620000D03*
%TD*%
D15*
%TO.C,D1*%
X80200000Y-68870000D03*
X83000000Y-68870000D03*
%TD*%
D13*
%TO.C,R24*%
X128430000Y-134895000D03*
X130255000Y-134895000D03*
%TD*%
D16*
%TO.C,D14*%
X100110000Y-148900000D03*
X100110000Y-146100000D03*
%TD*%
D10*
%TO.C,U2*%
X95125000Y-73675000D03*
X95125000Y-74945000D03*
X95125000Y-76215000D03*
X95125000Y-77485000D03*
X95125000Y-78755000D03*
X95125000Y-80025000D03*
X95125000Y-81295000D03*
X95125000Y-82565000D03*
X100075000Y-82565000D03*
X100075000Y-81295000D03*
X100075000Y-80025000D03*
X100075000Y-78755000D03*
X100075000Y-77485000D03*
X100075000Y-76215000D03*
X100075000Y-74945000D03*
X100075000Y-73675000D03*
%TD*%
D15*
%TO.C,D7*%
X80200000Y-89870000D03*
X83000000Y-89870000D03*
%TD*%
%TO.C,D9*%
X80200000Y-139870000D03*
X83000000Y-139870000D03*
%TD*%
D11*
%TO.C,C3*%
X119287500Y-94620000D03*
X121187500Y-94620000D03*
%TD*%
D10*
%TO.C,U3*%
X95195000Y-98425000D03*
X95195000Y-99695000D03*
X95195000Y-100965000D03*
X95195000Y-102235000D03*
X95195000Y-103505000D03*
X95195000Y-104775000D03*
X95195000Y-106045000D03*
X95195000Y-107315000D03*
X100145000Y-107315000D03*
X100145000Y-106045000D03*
X100145000Y-104775000D03*
X100145000Y-103505000D03*
X100145000Y-102235000D03*
X100145000Y-100965000D03*
X100145000Y-99695000D03*
X100145000Y-98425000D03*
%TD*%
D13*
%TO.C,R14*%
X86775000Y-93870000D03*
X88600000Y-93870000D03*
%TD*%
D15*
%TO.C,D3*%
X80200000Y-64870000D03*
X83000000Y-64870000D03*
%TD*%
D12*
%TO.C,J2*%
X82240900Y-73869999D03*
X82240900Y-81170000D03*
%TD*%
D17*
%TO.C,F1*%
X97637500Y-60870000D03*
X100562500Y-60870000D03*
%TD*%
D10*
%TO.C,U1*%
X97375000Y-64965000D03*
X97375000Y-66235000D03*
X97375000Y-67505000D03*
X97375000Y-68775000D03*
X102325000Y-68775000D03*
X102325000Y-67505000D03*
X102325000Y-66235000D03*
X102325000Y-64965000D03*
%TD*%
D13*
%TO.C,R1*%
X86687500Y-68870000D03*
X88512500Y-68870000D03*
%TD*%
%TO.C,R19*%
X86687500Y-135620000D03*
X88512500Y-135620000D03*
%TD*%
D11*
%TO.C,C9*%
X119237500Y-90620000D03*
X121137500Y-90620000D03*
%TD*%
%TO.C,C8*%
X125200000Y-74370000D03*
X127100000Y-74370000D03*
%TD*%
%TO.C,C6*%
X92470000Y-118723100D03*
X94370000Y-118723100D03*
%TD*%
D13*
%TO.C,R21*%
X160842500Y-100795000D03*
X162667500Y-100795000D03*
%TD*%
D11*
%TO.C,C1*%
X91700000Y-68870000D03*
X93600000Y-68870000D03*
%TD*%
D15*
%TO.C,D4*%
X80200000Y-85870000D03*
X83000000Y-85870000D03*
%TD*%
D13*
%TO.C,R22*%
X169187500Y-84120000D03*
X171012500Y-84120000D03*
%TD*%
D18*
%TO.C,U7*%
X136945000Y-74845000D03*
X138215000Y-74845000D03*
X139485000Y-74845000D03*
X140755000Y-74845000D03*
X140755000Y-69895000D03*
X139485000Y-69895000D03*
X138215000Y-69895000D03*
X136945000Y-69895000D03*
%TD*%
D15*
%TO.C,D11*%
X80200000Y-118766900D03*
X83000000Y-118766900D03*
%TD*%
D13*
%TO.C,R26*%
X128430000Y-140795000D03*
X130255000Y-140795000D03*
%TD*%
D19*
%TO.C,U6*%
X148445000Y-75970000D03*
X149715000Y-75970000D03*
X150985000Y-75970000D03*
X152255000Y-75970000D03*
X152255000Y-68770000D03*
X150985000Y-68770000D03*
X149715000Y-68770000D03*
X148445000Y-68770000D03*
%TD*%
D13*
%TO.C,R11*%
X86937500Y-90120000D03*
X88762500Y-90120000D03*
%TD*%
%TO.C,R15*%
X86687500Y-118870000D03*
X88512500Y-118870000D03*
%TD*%
%TO.C,R3*%
X91775000Y-64870000D03*
X93600000Y-64870000D03*
%TD*%
D15*
%TO.C,D5*%
X80200000Y-110766900D03*
X83000000Y-110766900D03*
%TD*%
D13*
%TO.C,R23*%
X173687500Y-84120000D03*
X175512500Y-84120000D03*
%TD*%
D15*
%TO.C,D8*%
X80200000Y-114766900D03*
X83000000Y-114766900D03*
%TD*%
%TO.C,D12*%
X80200000Y-143870000D03*
X83000000Y-143870000D03*
%TD*%
D13*
%TO.C,R8*%
X119275000Y-86620000D03*
X121100000Y-86620000D03*
%TD*%
D15*
%TO.C,D10*%
X80200000Y-93870000D03*
X83000000Y-93870000D03*
%TD*%
D18*
%TO.C,U8*%
X136945000Y-85845000D03*
X138215000Y-85845000D03*
X139485000Y-85845000D03*
X140755000Y-85845000D03*
X140755000Y-80895000D03*
X139485000Y-80895000D03*
X138215000Y-80895000D03*
X136945000Y-80895000D03*
%TD*%
D13*
%TO.C,R4*%
X86687500Y-64870000D03*
X88512500Y-64870000D03*
%TD*%
%TO.C,R18*%
X86687500Y-110870000D03*
X88512500Y-110870000D03*
%TD*%
%TO.C,R6*%
X125237500Y-70370000D03*
X127062500Y-70370000D03*
%TD*%
%TO.C,R16*%
X86687500Y-144020000D03*
X88512500Y-144020000D03*
%TD*%
%TO.C,R17*%
X86937500Y-86120000D03*
X88762500Y-86120000D03*
%TD*%
D11*
%TO.C,C7*%
X92425000Y-143870000D03*
X94325000Y-143870000D03*
%TD*%
D13*
%TO.C,R9*%
X125237500Y-98620000D03*
X127062500Y-98620000D03*
%TD*%
D15*
%TO.C,D6*%
X80200000Y-135620000D03*
X83000000Y-135620000D03*
%TD*%
D13*
%TO.C,R7*%
X119275000Y-82620000D03*
X121100000Y-82620000D03*
%TD*%
%TO.C,R25*%
X128430000Y-137845000D03*
X130255000Y-137845000D03*
%TD*%
D12*
%TO.C,J3*%
X82240900Y-98973099D03*
X82240900Y-106273100D03*
%TD*%
D13*
%TO.C,R12*%
X86687500Y-114870000D03*
X88512500Y-114870000D03*
%TD*%
D16*
%TO.C,D15*%
X103500000Y-146100000D03*
X103500000Y-148900000D03*
%TD*%
D11*
%TO.C,C10*%
X125150000Y-106620000D03*
X127050000Y-106620000D03*
%TD*%
%TO.C,C13*%
X125200000Y-94620000D03*
X127100000Y-94620000D03*
%TD*%
D13*
%TO.C,R13*%
X86687500Y-139870000D03*
X88512500Y-139870000D03*
%TD*%
D16*
%TO.C,D13*%
X96720000Y-148900000D03*
X96720000Y-146100000D03*
%TD*%
D14*
%TO.C,U11*%
X136905000Y-102520000D03*
X138175000Y-102520000D03*
X139445000Y-102520000D03*
X140715000Y-102520000D03*
X141985000Y-102520000D03*
X143255000Y-102520000D03*
X144525000Y-102520000D03*
X145795000Y-102520000D03*
X145795000Y-93220000D03*
X144525000Y-93220000D03*
X143255000Y-93220000D03*
X141985000Y-93220000D03*
X140715000Y-93220000D03*
X139445000Y-93220000D03*
X138175000Y-93220000D03*
X136905000Y-93220000D03*
%TD*%
D20*
%TO.C,U5*%
X148050000Y-87520000D03*
X150350000Y-87520000D03*
D21*
X150350000Y-81220000D03*
D20*
X152650000Y-87520000D03*
%TD*%
M02*
